<svg width="100%" height="100%" viewBox="0 0 1920 934" fill="none" xmlns="http://www.w3.org/2000/svg">
<path d="M0 418.145V836.182C48.6545 837.491 73.3091 838.364 86.1818 839.018C99.0546 839.564 120.218 840.764 133.091 841.745C145.964 842.618 164.4 844.036 174 844.909C183.6 845.891 200.509 847.527 211.636 848.836C222.764 850.036 242.618 852.545 255.818 854.291C269.018 856.036 290.4 859.2 303.273 861.382C316.145 863.455 357.164 870.764 394.364 877.636C431.564 884.509 473.782 892.036 488.182 894.436C502.582 896.836 529.527 900.982 548.182 903.709C566.727 906.436 594.327 910.036 609.273 911.891C624.327 913.745 648.109 916.473 662.182 917.891C676.255 919.418 702.545 921.818 720.545 923.346C738.545 924.873 765.818 926.836 781.091 927.818C796.364 928.691 818.727 929.891 830.727 930.545C842.727 931.091 876.873 932.182 906.545 932.836C946.036 933.709 975.164 933.709 1015.09 932.836C1045.09 932.182 1079.45 931.091 1091.45 930.545C1103.45 929.891 1125.82 928.691 1141.09 927.818C1156.36 926.836 1183.42 924.873 1201.09 923.455C1218.76 921.927 1245.27 919.418 1260 917.891C1274.73 916.364 1300.47 913.418 1317.27 911.346C1334.07 909.273 1359.82 905.782 1374.55 903.709C1389.27 901.636 1414.58 897.709 1430.73 894.982C1446.87 892.364 1489.42 884.727 1525.09 878.182C1560.76 871.636 1598.62 864.764 1609.09 863.018C1619.56 861.273 1636.58 858.545 1646.73 857.018C1656.87 855.491 1677.27 852.764 1692 851.018C1706.73 849.164 1729.09 846.764 1741.64 845.564C1754.18 844.255 1775.13 842.618 1788 841.636C1800.87 840.764 1821.49 839.564 1833.82 839.018C1846.15 838.364 1870.58 837.491 1888.15 837.055L1920 836.182V0H0V418.145Z" fill="black"/>
</svg>
