<svg width="49" height="60" viewBox="0 0 49 60" fill="none" xmlns="http://www.w3.org/2000/svg">
<path fill-rule="evenodd" clip-rule="evenodd" d="M48.5625 52.0312C48.5625 54.0542 47.7578 55.9967 46.3286 57.4286C44.8961 58.8583 42.9551 59.6616 40.9313 59.6625H7.63125C5.60828 59.6625 3.66577 58.8577 2.23387 57.4286C0.804182 55.9961 0.000849748 54.0551 0 52.0312V7.63125C0 5.60827 0.80475 3.66577 2.23387 2.23388C3.66639 0.804183 5.60736 0.000849748 7.63125 0H31.4574C32.745 0 33.9799 0.5106 34.8901 1.42357L47.1389 13.6724C48.0519 14.5826 48.5625 15.8175 48.5625 17.1051V52.0312ZM44.4 52.0312V17.1051C44.4002 17.0139 44.3824 16.9236 44.3476 16.8394C44.3128 16.7551 44.2618 16.6785 44.1974 16.6139L31.9486 4.36507C31.884 4.30069 31.8074 4.24966 31.7232 4.2149C31.6389 4.18014 31.5486 4.16234 31.4574 4.1625H7.63125C6.71173 4.16397 5.83029 4.5299 5.18009 5.18009C4.5299 5.83029 4.16397 6.71173 4.1625 7.63125V52.0312C4.16397 52.9508 4.5299 53.8322 5.18009 54.4824C5.83029 55.1326 6.71173 55.4985 7.63125 55.5H40.9313C41.8508 55.4985 42.7322 55.1326 43.3824 54.4824C44.0326 53.8322 44.3985 52.9508 44.4 52.0312Z" fill="white"/>
<path fill-rule="evenodd" clip-rule="evenodd" d="M30.5246 3.46797C30.5246 2.91599 30.7439 2.38661 31.1342 1.9963C31.5245 1.60599 32.0539 1.38672 32.6059 1.38672C33.1578 1.38672 33.6872 1.60599 34.0775 1.9963C34.4678 2.38661 34.6871 2.91599 34.6871 3.46797V13.1805C34.6871 13.5634 34.9979 13.8742 35.3809 13.8742H45.0934C45.6453 13.8742 46.1747 14.0935 46.565 14.4838C46.9553 14.8741 47.1746 15.4035 47.1746 15.9555C47.1746 16.5075 46.9553 17.0368 46.565 17.4271C46.1747 17.8174 45.6453 18.0367 45.0934 18.0367H35.3809C34.0929 18.0367 32.8577 17.5251 31.947 16.6144C31.0362 15.7036 30.5246 14.4684 30.5246 13.1805V3.46797ZM13.1809 27.7492C12.6289 27.7492 12.0995 27.5299 11.7092 27.1396C11.3189 26.7493 11.0996 26.22 11.0996 25.668C11.0996 25.116 11.3189 24.5866 11.7092 24.1963C12.0995 23.806 12.6289 23.5867 13.1809 23.5867H35.3809C35.9328 23.5867 36.4622 23.806 36.8525 24.1963C37.2428 24.5866 37.4621 25.116 37.4621 25.668C37.4621 26.22 37.2428 26.7493 36.8525 27.1396C36.4622 27.5299 35.9328 27.7492 35.3809 27.7492H13.1809ZM13.1809 37.4617C12.6289 37.4617 12.0995 37.2424 11.7092 36.8521C11.3189 36.4618 11.0996 35.9325 11.0996 35.3805C11.0996 34.8285 11.3189 34.2991 11.7092 33.9088C12.0995 33.5185 12.6289 33.2992 13.1809 33.2992H35.3809C35.9328 33.2992 36.4622 33.5185 36.8525 33.9088C37.2428 34.2991 37.4621 34.8285 37.4621 35.3805C37.4621 35.9325 37.2428 36.4618 36.8525 36.8521C36.4622 37.2424 35.9328 37.4617 35.3809 37.4617H13.1809ZM13.1809 47.1742C12.6289 47.1742 12.0995 46.9549 11.7092 46.5646C11.3189 46.1743 11.0996 45.645 11.0996 45.093C11.0996 44.541 11.3189 44.0116 11.7092 43.6213C12.0995 43.231 12.6289 43.0117 13.1809 43.0117H25.6684C26.2203 43.0117 26.7497 43.231 27.14 43.6213C27.5303 44.0116 27.7496 44.541 27.7496 45.093C27.7496 45.645 27.5303 46.1743 27.14 46.5646C26.7497 46.9549 26.2203 47.1742 25.6684 47.1742H13.1809Z" fill="white"/>
</svg>
