<svg width="31" height="22" viewBox="0 0 31 22" fill="none" xmlns="http://www.w3.org/2000/svg">
<path d="M23.9227 21.1809C21.7293 21.1809 20.0156 20.4726 18.7818 19.0559C17.5479 17.6393 16.931 15.72 16.931 13.298C16.931 10.8304 17.4337 8.72826 18.439 6.99175C19.4901 5.20953 20.7468 3.74721 22.2091 2.60477C23.6714 1.46233 25.0195 0.594071 26.2533 0L27.6928 2.12494C26.5504 2.62761 25.4765 3.26738 24.4711 4.04425C23.4658 4.82111 22.6432 5.66651 22.0034 6.58047C21.3637 7.49442 21.0438 8.33983 21.0438 9.11669C21.0438 9.43657 21.1123 9.66506 21.2494 9.80215C21.3865 9.89355 21.5693 9.93925 21.7978 9.93925C22.072 9.93925 22.4376 9.80215 22.8945 9.52796C23.3972 9.20808 24.1512 9.04814 25.1566 9.04814C26.6646 9.04814 27.9898 9.52797 29.1323 10.4876C30.2747 11.4016 30.8459 12.8639 30.8459 14.8746C30.8459 16.6568 30.229 18.1648 28.9952 19.3987C27.7614 20.5868 26.0705 21.1809 23.9227 21.1809ZM6.99175 21.1809C4.79826 21.1809 3.08459 20.4726 1.85076 19.0559C0.616919 17.6393 0 15.72 0 13.298C0 10.8304 0.502675 8.72826 1.50802 6.99175C2.55907 5.20953 3.81576 3.74721 5.27808 2.60477C6.74041 1.46233 8.08849 0.594071 9.32233 0L10.7618 2.12494C9.61937 2.62761 8.54547 3.26738 7.54012 4.04425C6.53477 4.82111 5.71221 5.66651 5.07244 6.58047C4.43268 7.49442 4.11279 8.33983 4.11279 9.11669C4.11279 9.43657 4.18134 9.66506 4.31843 9.80215C4.45552 9.89355 4.63832 9.93925 4.86681 9.93925C5.14099 9.93925 5.50657 9.80215 5.96355 9.52796C6.46622 9.20808 7.22024 9.04814 8.22558 9.04814C9.73361 9.04814 11.0588 9.52797 12.2013 10.4876C13.3437 11.4016 13.9149 12.8639 13.9149 14.8746C13.9149 16.6568 13.298 18.1648 12.0642 19.3987C10.8304 20.5868 9.13954 21.1809 6.99175 21.1809Z" fill="#010048"/>
</svg>
