<svg width="60" height="58" viewBox="0 0 60 58" fill="none" xmlns="http://www.w3.org/2000/svg">
<path fill-rule="evenodd" clip-rule="evenodd" d="M23.8128 4.75419C23.5543 4.61902 23.2715 4.53679 22.9808 4.51232C22.6901 4.48785 22.3975 4.52164 22.12 4.6117C21.8426 4.70176 21.5859 4.84628 21.365 5.0368C21.1441 5.22732 20.9635 5.46 20.8336 5.72122L19.278 8.84155C18.7973 9.80701 18.0906 10.6421 17.2179 11.2758C16.3453 11.9095 15.3325 12.3231 14.2656 12.4814L10.821 12.992C10.532 13.0346 10.2546 13.1346 10.0048 13.2859C9.75503 13.4373 9.53803 13.6371 9.36653 13.8735C9.19504 14.1099 9.0725 14.3781 9.00613 14.6626C8.93975 14.947 8.93087 15.2418 8.98001 15.5297L9.55663 18.9653C9.73442 20.0282 9.65308 21.1184 9.31951 22.1431C8.98594 23.1679 8.41 24.097 7.64059 24.8516L5.15694 27.2962C4.94854 27.5003 4.78298 27.744 4.66995 28.0129C4.55692 28.2819 4.4987 28.5707 4.4987 28.8624C4.4987 29.1541 4.55692 29.4429 4.66995 29.7118C4.78298 29.9807 4.94854 30.2244 5.15694 30.4285L7.64059 32.8671C9.20225 34.3988 9.91701 36.6001 9.55663 38.7594L8.98001 42.1951C8.93175 42.4825 8.94129 42.7767 9.00808 43.0604C9.07487 43.3441 9.19756 43.6117 9.36897 43.8474C9.54039 44.0832 9.7571 44.2823 10.0064 44.4333C10.2557 44.5843 10.5326 44.6841 10.821 44.7268L14.2656 45.2403C15.3328 45.3989 16.3458 45.813 17.2185 46.4472C18.0911 47.0815 18.7977 47.9172 19.278 48.8832L20.8306 52.0005C20.9605 52.2617 21.1411 52.4944 21.362 52.6849C21.5829 52.8755 21.8396 53.02 22.117 53.11C22.3945 53.2001 22.6871 53.2339 22.9778 53.2094C23.2684 53.185 23.5513 53.1027 23.8098 52.9675L26.9001 51.3578C27.8561 50.8594 28.9183 50.5991 29.9964 50.5991C31.0745 50.5991 32.1367 50.8594 33.0927 51.3578L36.18 52.9675C36.4385 53.1027 36.7213 53.185 37.012 53.2094C37.3027 53.2339 37.5953 53.2001 37.8728 53.11C38.1502 53.02 38.4069 52.8755 38.6278 52.6849C38.8487 52.4944 39.0293 52.2617 39.1592 52.0005L40.7148 48.8832C41.1948 47.9175 41.9009 47.0821 42.773 46.4479C43.6452 45.8136 44.6576 45.3994 45.7241 45.2403L49.1688 44.7298C49.4574 44.6871 49.7346 44.5873 49.9842 44.4361C50.2337 44.2849 50.4506 44.0854 50.622 43.8494C50.7935 43.6133 50.9161 43.3454 50.9827 43.0613C51.0493 42.7772 51.0585 42.4827 51.0098 42.1951L50.4332 38.7594C50.0728 36.6001 50.7875 34.4018 52.3492 32.8671L54.8328 30.4285C55.0417 30.2244 55.2077 29.9805 55.321 29.7113C55.4343 29.4421 55.4926 29.153 55.4926 28.8609C55.4926 28.5688 55.4343 28.2797 55.321 28.0104C55.2077 27.7412 55.0417 27.4974 54.8328 27.2932L52.3492 24.8546C51.5793 24.0997 51.0031 23.1701 50.6695 22.1447C50.3359 21.1194 50.2549 20.0287 50.4332 18.9653L51.0098 15.5297C51.0585 15.242 51.0493 14.9475 50.9827 14.6634C50.9161 14.3794 50.7935 14.1115 50.622 13.8754C50.4506 13.6393 50.2337 13.4399 49.9842 13.2887C49.7346 13.1375 49.4574 13.0376 49.1688 12.995L45.7241 12.4814C44.6579 12.3224 43.6459 11.9085 42.7738 11.2749C41.9017 10.6412 41.1954 9.80648 40.7148 8.84155L39.1592 5.72122C39.0293 5.46 38.8487 5.22732 38.6278 5.0368C38.4069 4.84628 38.1502 4.70176 37.8728 4.6117C37.5953 4.52164 37.3027 4.48785 37.012 4.51232C36.7213 4.53679 36.4385 4.61902 36.18 4.75419L33.0927 6.36391C32.1363 6.86287 31.0736 7.12343 29.9949 7.12343C28.9162 7.12343 27.8535 6.86287 26.8971 6.36391L23.8128 4.75419ZM16.8003 3.71208C17.1971 2.9152 17.7488 2.20541 18.4231 1.62423C19.0974 1.04304 19.8808 0.602123 20.7275 0.327252C21.5742 0.0523795 22.4672 -0.0509294 23.3543 0.023364C24.2414 0.0976575 25.1048 0.348062 25.894 0.759939L28.9843 2.36965C29.618 2.70001 30.3778 2.70001 31.0115 2.36965L34.1048 0.759939C34.8938 0.348538 35.757 0.0985119 36.6437 0.0244681C37.5305 -0.0495757 38.4231 0.0538476 39.2695 0.328696C40.1159 0.603544 40.8989 1.04431 41.573 1.62523C42.2471 2.20615 42.7987 2.91559 43.1954 3.71208L44.7481 6.83241C44.9055 7.14884 45.1371 7.42251 45.4232 7.63011C45.7092 7.83771 46.0412 7.97308 46.3909 8.02468L49.8355 8.53522C50.7167 8.6658 51.5629 8.97087 52.3247 9.43254C53.0866 9.89422 53.7486 10.5032 54.2721 11.2239C54.7957 11.9446 55.1702 12.7625 55.3737 13.6298C55.5773 14.497 55.6057 15.3961 55.4575 16.2745L54.8809 19.7101C54.8226 20.0583 54.8492 20.4154 54.9584 20.7511C55.0677 21.0868 55.2564 21.3911 55.5086 21.6382L57.9922 24.0798C60.6681 26.7046 60.6681 31.0172 57.9922 33.642L55.5086 36.0836C55.2559 36.3304 55.0666 36.6346 54.9568 36.9703C54.847 37.306 54.8199 37.6632 54.8779 38.0116L55.4575 41.4473C55.6049 42.3254 55.5758 43.224 55.3718 44.0908C55.1679 44.9575 54.7933 45.7748 54.2699 46.4951C53.7465 47.2154 53.0847 47.8241 52.3233 48.2857C51.562 48.7473 50.7162 49.0525 49.8355 49.1835L46.3909 49.6971C46.0413 49.7489 45.7094 49.8844 45.4234 50.0919C45.1374 50.2995 44.9057 50.5731 44.7481 50.8893L43.1954 54.0097C42.7989 54.8068 42.2475 55.5169 41.5733 56.0984C40.8991 56.6799 40.1157 57.1211 39.269 57.3963C38.4223 57.6714 37.5292 57.775 36.6419 57.7009C35.7547 57.6268 34.8911 57.3766 34.1018 56.9648L31.0115 55.3521C30.6985 55.1889 30.3508 55.1037 29.9979 55.1037C29.645 55.1037 29.2973 55.1889 28.9843 55.3521L25.894 56.9618C25.1048 57.3737 24.2414 57.6241 23.3543 57.6984C22.4672 57.7727 21.5742 57.6694 20.7275 57.3945C19.8808 57.1196 19.0974 56.6787 18.4231 56.0975C17.7488 55.5163 17.1971 54.8065 16.8003 54.0097L15.2477 50.8893C15.0903 50.5729 14.8586 50.2992 14.5726 50.0916C14.2866 49.884 13.9546 49.7487 13.6049 49.6971L10.1603 49.1865C9.27928 49.0555 8.43325 48.7502 7.67165 48.2884C6.91004 47.8267 6.24815 47.2177 5.72468 46.497C5.20122 45.7764 4.82668 44.9587 4.62297 44.0916C4.41926 43.2246 4.39047 42.3256 4.53828 41.4473L5.1149 38.0116C5.17336 37.6637 5.14711 37.3068 5.03837 36.9712C4.92964 36.6356 4.74161 36.3311 4.49023 36.0836L2.00358 33.642C1.36795 33.0185 0.863023 32.2745 0.518328 31.4536C0.173633 30.6327 -0.00390625 29.7512 -0.00390625 28.8609C-0.00390625 27.9705 0.173633 27.0891 0.518328 26.2681C0.863023 25.4472 1.36795 24.7033 2.00358 24.0798L4.49023 21.6382C4.74182 21.3908 4.92999 21.0863 5.03874 20.7507C5.14749 20.415 5.17362 20.058 5.1149 19.7101L4.53828 16.2745C4.39049 15.3963 4.4193 14.4975 4.62305 13.6306C4.82679 12.7638 5.20137 11.9462 5.72486 11.2259C6.24836 10.5055 6.91026 9.89677 7.67185 9.43528C8.43344 8.9738 9.27941 8.66883 10.1603 8.53822L13.6049 8.02468C13.9546 7.97308 14.2866 7.83771 14.5726 7.63011C14.8586 7.42251 15.0903 7.14884 15.2477 6.83241L16.8003 3.71208Z" fill="white"/>
<path fill-rule="evenodd" clip-rule="evenodd" d="M43.6036 19.7603C44.0254 20.1826 44.2623 20.7551 44.2623 21.352C44.2623 21.9489 44.0254 22.5213 43.6036 22.9437L30.0892 36.4581C29.6669 36.8799 29.0944 37.1168 28.4975 37.1168C27.9006 37.1168 27.3282 36.8799 26.9058 36.4581L20.8994 30.4517C20.5016 30.0247 20.285 29.46 20.2953 28.8764C20.3056 28.2929 20.542 27.7362 20.9546 27.3235C21.3673 26.9108 21.9241 26.6744 22.5076 26.6641C23.0911 26.6538 23.6559 26.8704 24.0828 27.2683L28.4975 31.683L40.4202 19.7603C40.8426 19.3385 41.415 19.1016 42.0119 19.1016C42.6088 19.1016 43.1813 19.3385 43.6036 19.7603Z" fill="white"/>
</svg>
