<svg width="62" height="35" viewBox="0 0 62 35" fill="none" xmlns="http://www.w3.org/2000/svg">
<path d="M60.585 34.9085H0.573688C-0.191229 34.9085 -0.191229 33.6568 0.573688 33.6568H60.585C61.3499 33.6568 61.3499 34.9085 60.585 34.9085ZM17.9582 17.2458H12.2561C11.9084 17.2458 11.7693 17.0372 11.6998 16.759V16.62C11.6998 16.3418 11.9084 16.0637 12.2561 16.0637H17.9582C18.7231 16.0637 18.7231 17.2458 17.9582 17.2458ZM48.4158 17.2458H43.2005C42.4356 17.2458 42.4356 15.9941 43.2005 15.9941H48.4158C49.1807 16.0637 49.1807 17.2458 48.4158 17.2458Z" fill="#540326"/>
<path d="M22.9642 4.65903C22.9642 4.70539 22.9642 4.70539 22.9642 4.65903V4.79812C22.7556 5.28488 21.9906 5.35442 21.8516 4.72857C21.643 3.96366 21.0171 1.32122 20.3217 1.32122C19.6264 1.32122 19.6263 2.50337 19.5568 2.78152C19.3482 3.26829 19.2091 3.82458 19.1396 4.38089C19.1396 4.45042 19.07 4.51995 19.07 4.58949C19.07 4.65903 18.931 8.83131 18.931 8.83131V10.083L19.07 20.0965V34.1431C19.07 34.9081 17.8184 34.9081 17.8184 34.1431V6.39748C17.8184 4.93718 17.8879 3.75505 18.3747 2.36429C18.6528 1.46029 19.2091 0 20.3217 0C21.4343 0 21.9906 1.1126 22.4079 2.29475C22.686 3.05966 22.8946 3.89412 23.0337 4.38089C22.9642 4.5895 22.9642 4.65903 22.9642 4.65903ZM43.4083 4.65903V34.2822C43.4083 35.0471 42.1567 35.0471 42.1567 34.2822V4.65903C42.1567 3.96365 43.0606 3.89412 43.3388 4.38089C43.4083 4.51996 43.4083 4.58949 43.4083 4.65903Z" fill="#540326"/>
<path d="M26.9275 4.52C26.7189 3.89416 26.5798 3.2683 26.3016 2.64246C26.2321 2.50339 26.2321 2.43385 26.1625 2.36432C25.9539 1.87755 25.8149 1.46033 25.4672 1.0431C25.0499 0.417255 24.3546 2.73138e-05 23.5896 0.347717C23.1029 0.625869 22.7552 1.18217 22.5466 1.66894C22.4075 1.94709 22.338 2.15571 22.2684 2.43386C22.1293 2.78155 22.0598 3.12924 21.9207 3.47693C21.8512 3.82462 21.7817 4.17231 21.6426 4.52V4.65906C21.6426 4.93721 21.7817 5.14584 22.0598 5.21538C22.338 5.28491 22.6857 5.14584 22.7552 4.86769V4.65906C22.8943 3.89414 23.1029 3.12924 23.381 2.43386C23.381 2.36432 23.4506 2.36431 23.4506 2.29477C23.5201 2.08616 23.5896 1.94708 23.6592 1.87754C23.7287 1.73846 23.7983 1.66893 23.8678 1.52985C23.9373 1.52985 23.9373 1.46033 24.0069 1.39079H24.146L24.285 1.52985C24.3546 1.66893 24.4241 1.73846 24.4241 1.87754C24.5632 2.08615 24.7022 2.36431 24.7718 2.64246C24.7718 2.68882 24.795 2.73519 24.8413 2.78155C24.8413 2.85109 24.9109 2.92062 24.9109 3.0597C24.9804 3.19877 25.0499 3.40737 25.1195 3.54645L25.5367 4.79814C25.6062 4.93722 25.6758 5.0763 25.8149 5.14583C25.9539 5.21537 26.093 5.21538 26.2321 5.21538C26.8579 5.14584 27.0665 4.86769 26.9275 4.52Z" fill="#540326"/>
<path d="M31.0999 4.52C30.9608 3.96369 30.7522 3.33785 30.5436 2.78155C30.474 2.64247 30.4045 2.50339 30.4045 2.36431C30.1959 1.87755 29.9873 1.46033 29.7091 1.0431C29.2919 0.417255 28.5965 2.73287e-05 27.8316 0.347717C27.3448 0.625869 26.9971 1.18217 26.7885 1.66893L26.4408 2.64246C26.3713 2.92061 26.3017 3.19878 26.1627 3.47693L25.954 4.52C25.8845 4.72861 26.0236 5.00676 26.1627 5.14583C26.209 5.19219 26.2554 5.21538 26.3017 5.21538C26.5799 5.28491 26.9971 5.14583 27.0667 4.79814C27.2057 4.03323 27.4143 3.19878 27.6925 2.43386C27.6925 2.36432 27.762 2.36431 27.762 2.29477C27.8316 2.08616 27.9011 1.94708 27.9707 1.87754C28.0402 1.73846 28.1097 1.66893 28.1793 1.52985C28.2488 1.52985 28.2488 1.46033 28.3183 1.39079H28.4574L28.5965 1.52985C28.666 1.66893 28.7356 1.73846 28.7356 1.87754C28.8746 2.08615 29.0137 2.36431 29.0833 2.64246C29.0833 2.68882 29.1064 2.73519 29.1528 2.78155C29.1528 2.85108 29.2223 2.92062 29.2223 3.05969C29.2919 3.19877 29.3614 3.40737 29.4309 3.54645C29.57 3.96368 29.7091 4.38092 29.7786 4.79814C29.8482 5.14583 30.1959 5.28491 30.5436 5.21538H30.6131C30.9608 5.14584 31.1694 4.79815 31.0999 4.52Z" fill="#540326"/>
<path d="M35.1341 4.51938C35.0646 3.89354 34.856 3.26769 34.6473 2.64185C34.5778 2.43323 34.5083 2.15508 34.3692 1.94647C34.1606 1.39016 33.8129 0.694792 33.2566 0.347102C32.6307 -0.0701261 31.9354 0.208026 31.5181 0.694792C31.1704 1.04248 30.9618 1.52924 30.7532 2.01601C30.6141 2.29416 30.5446 2.50278 30.4751 2.78093L29.9188 4.44984C29.8492 4.79753 30.0578 5.14522 30.336 5.21476H30.6141C30.8227 5.21476 30.9618 5.00614 31.0314 4.79753L31.7267 2.71139C31.7267 2.71139 31.7963 2.64184 31.7963 2.57231C31.7963 2.50277 31.8658 2.43324 31.8658 2.43324C31.9354 2.29417 32.0049 2.22463 32.0049 2.08555C32.0744 1.87694 32.2135 1.73785 32.283 1.59878C32.3526 1.52924 32.3526 1.45971 32.4221 1.39017H32.5612L32.7003 1.52924H32.7698C32.7698 1.66831 32.8394 1.66832 32.8394 1.73786C32.9089 1.87694 32.9784 1.94648 33.048 2.08555C33.1175 2.15509 33.1175 2.22462 33.1175 2.29416V2.43324C33.3261 2.92001 33.4652 3.4763 33.6043 3.96307L33.8129 4.93659C33.8824 5.28428 34.2301 5.42336 34.5778 5.35383C34.6242 5.35383 34.6705 5.33064 34.7169 5.28428C35.0646 5.07567 35.2036 4.79753 35.1341 4.51938Z" fill="#540326"/>
<path d="M39.3042 4.51938L38.8175 2.64185C38.7479 2.43323 38.6784 2.22462 38.5393 1.94647C38.3307 1.39016 37.983 0.694792 37.4267 0.347102C36.8009 -0.0701261 36.1055 0.208026 35.6882 0.694792C35.3406 1.04248 35.1319 1.52924 34.9233 2.01601C34.8538 2.22462 34.7843 2.43323 34.6452 2.64185L34.0193 4.51938C33.9498 4.86707 34.1584 5.21475 34.4366 5.28428H34.7842C34.9929 5.28428 35.1319 5.07569 35.2015 4.86707L35.8969 2.78093C35.8969 2.78093 35.8969 2.71139 35.9664 2.64185C35.9664 2.57231 36.0359 2.50276 36.0359 2.50276C36.1055 2.36369 36.175 2.29415 36.175 2.15507C36.2445 1.94646 36.3836 1.8074 36.4532 1.66832C36.5227 1.59878 36.5227 1.52923 36.5922 1.45969H36.7313C36.8009 1.45969 36.8009 1.52924 36.8704 1.59878H36.9399C36.9399 1.73785 37.0095 1.73784 37.0095 1.80738C37.079 1.94646 37.1485 2.016 37.2181 2.15507C37.2181 2.22461 37.2876 2.29416 37.2876 2.3637C37.2876 2.3637 37.2876 2.43324 37.3572 2.43324C37.5658 2.92001 37.7049 3.4763 37.8439 3.96307L38.0525 4.93659C38.1221 5.28428 38.4698 5.42336 38.8175 5.35383C38.8638 5.35383 38.9102 5.33064 38.9565 5.28428C39.2347 5.07567 39.3042 4.79753 39.3042 4.51938Z" fill="#540326"/>
<path d="M43.4083 4.5192C43.2692 3.6152 43.0606 2.78074 42.7129 2.01582C42.4348 1.45952 42.1566 0.764128 41.6003 0.416438C40.9745 -0.000790149 40.2791 0.277362 39.8619 0.764128C39.5142 1.11182 39.3056 1.5986 39.097 2.08537L38.8883 2.64166L38.2625 4.5192C38.193 4.86689 38.4016 5.21456 38.6797 5.2841H39.0274C39.236 5.2841 39.3751 5.0755 39.4447 4.86689L40.14 2.78075C40.14 2.78075 40.2096 2.57213 40.14 2.7112C40.14 2.64167 40.2096 2.57212 40.2096 2.50258C40.2791 2.3635 40.3486 2.29396 40.3486 2.15489C40.4182 1.94627 40.5573 1.80721 40.6268 1.66813C40.6963 1.5986 40.6963 1.52905 40.7659 1.52905H40.9049L41.044 1.66813C41.044 1.73767 41.1136 1.73766 41.1136 1.8072C41.1831 1.94627 41.2526 2.01581 41.3222 2.15489C41.3917 2.22443 41.3917 2.29398 41.3917 2.36351V2.50258C41.6003 2.98934 41.7394 3.54566 41.8785 4.03242L42.0871 5.00595C42.1566 5.35364 42.5043 5.49272 42.852 5.42318C43.1997 5.28411 43.4083 4.93642 43.4083 4.5192Z" fill="#540326"/>
<path d="M42.2251 4.86734V8.97008H18.8604L18.9994 4.7978C18.9994 4.65872 19.069 4.58919 19.069 4.51965L19.4862 2.92026C19.5557 2.64211 19.9034 1.45996 20.2511 1.45996C20.9465 1.45996 21.5723 4.10242 21.7809 4.7978C21.7809 5.07595 21.92 5.28455 22.1982 5.35409C22.4763 5.42363 22.824 5.28455 22.8936 5.0064V4.7978C23.0326 4.03288 23.2412 3.26795 23.5194 2.57257C23.5194 2.50304 23.5889 2.50305 23.5889 2.43351C23.6585 2.2249 23.728 2.08582 23.7976 2.01628C23.8671 1.8772 23.9366 1.80766 24.0062 1.66859C24.0757 1.66859 24.0757 1.59904 24.1452 1.5295H24.2843L24.4234 1.66859C24.4929 1.80766 24.5625 1.8772 24.5625 2.01628C24.7015 2.22489 24.8406 2.50305 24.9102 2.7812C24.9102 2.82756 24.9333 2.8739 24.9797 2.92026C24.9797 2.9898 25.0492 3.05933 25.0492 3.19841C25.1188 3.33749 25.1883 3.54611 25.2578 3.68519L25.6751 4.93686C25.7446 5.07594 25.8141 5.21501 25.9532 5.28455C25.9996 5.33091 26.0459 5.35409 26.0923 5.35409C26.3705 5.42363 26.7877 5.28455 26.8572 4.93686C26.9963 4.17194 27.2049 3.33749 27.4831 2.57257C27.4831 2.50304 27.5526 2.50305 27.5526 2.43351C27.6221 2.2249 27.6917 2.08582 27.7612 2.01628C27.8308 1.8772 27.9003 1.80766 27.9698 1.66859C28.0394 1.66859 28.0394 1.59904 28.1089 1.5295H28.248L28.3871 1.66859C28.4566 1.80766 28.5261 1.8772 28.5261 2.01628C28.6652 2.22489 28.8043 2.50305 28.8738 2.7812C28.8738 2.82756 28.897 2.8739 28.9434 2.92026C28.9434 2.9898 29.0129 3.05933 29.0129 3.19841C29.0824 3.33749 29.152 3.54611 29.2215 3.68519C29.3606 4.10241 29.4997 4.51963 29.5692 4.93686C29.6387 5.28455 29.9864 5.42363 30.3341 5.35409H30.4037C30.6123 5.35409 30.7513 5.14547 30.8209 4.93686L31.5163 2.85072C31.5163 2.85072 31.5858 2.7812 31.5858 2.71166C31.5858 2.64212 31.6553 2.57257 31.6553 2.57257C31.7249 2.4335 31.7944 2.36396 31.7944 2.22488C31.864 2.01627 32.003 1.87721 32.0726 1.73813C32.1421 1.66859 32.1421 1.59904 32.2116 1.5295H32.2812L32.4203 1.66859H32.4898C32.4898 1.80766 32.5593 1.80766 32.5593 1.87719C32.6289 2.01627 32.6984 2.08581 32.768 2.22488C32.8375 2.29442 32.8375 2.36397 32.8375 2.43351V2.57257C33.0461 3.05934 33.1852 3.61565 33.3243 4.10242L33.5329 5.07595C33.6024 5.42364 33.9501 5.56272 34.2978 5.49318C34.3441 5.49318 34.3905 5.46999 34.4369 5.42364C34.6455 5.42364 34.7846 5.21502 34.8541 5.0064L35.5495 2.92026C35.5495 2.92026 35.5495 2.85074 35.619 2.7812C35.619 2.71166 35.6885 2.64212 35.6885 2.64212C35.7581 2.50304 35.8276 2.4335 35.8276 2.29443C35.8972 2.08581 36.0362 1.94673 36.1058 1.80765C36.1753 1.73811 36.1753 1.66858 36.2449 1.59905H36.3144C36.3839 1.59905 36.3839 1.66859 36.4535 1.73813H36.523C36.523 1.87721 36.5925 1.8772 36.5925 1.94674C36.6621 2.08581 36.7316 2.15535 36.8012 2.29443C36.8012 2.36396 36.8707 2.43349 36.8707 2.50303C36.8707 2.50303 36.8707 2.57257 36.9402 2.57257C37.1488 3.05934 37.2879 3.61565 37.427 4.10242L37.6356 5.07595C37.7052 5.42364 38.0528 5.56272 38.4005 5.49318C38.4469 5.49318 38.4932 5.46999 38.5396 5.42364C38.7482 5.42364 38.8873 5.21502 38.9568 5.0064L39.6522 2.92026C39.6522 2.92026 39.7217 2.71164 39.6522 2.85072C39.6522 2.78118 39.7218 2.71165 39.7218 2.64212C39.7913 2.50304 39.8608 2.4335 39.8608 2.29443C39.9304 2.08581 40.0694 1.94673 40.139 1.80765C40.2085 1.73811 40.2085 1.66859 40.2781 1.66859H40.3476L40.4867 1.80765C40.4867 1.87719 40.5562 1.8772 40.5562 1.94674C40.6257 2.08581 40.6953 2.15535 40.7648 2.29443C40.8344 2.36396 40.8344 2.43349 40.8344 2.50303V2.64212C41.043 3.12888 41.1821 3.68519 41.3211 4.17196C42.086 4.2415 42.1556 4.51965 42.2251 4.86734Z" fill="#FDD083"/>
<path d="M43.686 10.2228H17.4702C16.7053 10.2228 16.7053 8.97112 17.4702 8.97112H43.686C44.4509 8.97112 44.4509 10.2228 43.686 10.2228ZM52.7259 10.0837H49.8749L49.7358 12.5871L48.345 33.6571V34.1439C48.2755 34.9088 47.0934 34.9088 47.0934 34.1439V33.6571L47.2324 31.0146L47.5801 25.3125C47.5801 24.8953 47.6497 24.4781 47.6497 24.1304L47.8583 21.4184C47.9278 21.0012 47.9278 20.584 47.9278 20.1667L48.1364 17.2461C48.1364 16.8289 48.206 16.4117 48.206 15.9945L48.6232 9.45787C48.6232 9.11018 48.9013 8.83203 49.249 8.83203H52.6564C53.4909 8.90157 53.4909 10.0837 52.7259 10.0837Z" fill="#540326"/>
<path d="M56.6897 34.1439C56.6897 34.9088 55.5075 34.9088 55.438 34.1439V31.9187C55.3685 31.6405 55.2989 31.2928 55.2989 31.0146V30.7365L53.9081 10.0837H51.0571C50.2922 10.0837 50.2922 8.83203 51.0571 8.83203H54.4645C54.8122 8.83203 55.0903 9.11018 55.0903 9.45787L55.2989 12.5871L56.6897 33.6571C56.6201 33.7962 56.6897 33.9352 56.6897 34.1439Z" fill="#540326"/>
<path d="M52.5873 9.38759V3.19869C52.5873 2.43377 51.4051 2.43377 51.4051 3.19869V9.38759C51.3356 10.1525 52.5873 10.1525 52.5873 9.38759Z" fill="#540326"/>
<path d="M52.3088 3.19922H56.0638V5.98074H52.3088V3.19922ZM10.0992 10.0835H7.24814L7.10907 12.5868L5.71831 33.6569V34.1436C5.64877 34.9085 4.46662 34.9085 4.53615 34.1436V33.6569L4.67524 31.0144L6.13553 9.45764C6.13553 9.10995 6.41369 8.8318 6.76138 8.8318H10.1687C10.8641 8.90134 10.8641 10.0835 10.0992 10.0835Z" fill="#540326"/>
<path d="M14.0637 34.1437C14.0637 34.9086 12.8815 34.9086 12.812 34.1437V33.6569C12.812 33.0311 12.7425 32.4052 12.6729 31.8489C12.6729 31.5708 12.6729 31.2926 12.6034 31.0144V30.8058L11.6994 16.8287V16.6896L11.2822 10.153H8.43111C7.66619 10.153 7.66619 8.90137 8.43111 8.90137H11.8385C12.1862 8.90137 12.3948 9.17951 12.4643 9.5272L12.6729 12.6564L12.8815 16.1333C12.8815 16.5505 12.9511 16.9678 12.9511 17.385L13.1597 20.3056C13.2292 20.7228 13.2292 21.1401 13.2292 21.5573L13.4378 24.2693C13.4378 24.6865 13.5074 25.1037 13.5074 25.4514L14.0637 33.796V34.1437Z" fill="#540326"/>
<path d="M9.96046 9.38759V3.19869C9.96046 2.43377 8.77832 2.43377 8.77832 3.19869V9.38759C8.77832 10.1525 9.96046 10.1525 9.96046 9.38759Z" fill="#540326"/>
<path d="M9.75098 3.19922H13.506V5.98074H9.75098V3.19922ZM37.6357 20.1665C37.6357 20.097 37.5662 20.097 37.5662 20.0274C35.8973 15.2988 30.0561 13.2822 26.0229 16.481C25.1189 17.1764 24.4235 18.0804 23.9367 19.0539C23.2414 20.5142 23.45 22.1136 23.45 23.6434V34.3523C23.45 34.6304 23.6586 34.9086 23.9367 34.9086H37.2185C37.4966 34.839 37.7053 34.6304 37.7053 34.3523V20.5142C37.7053 20.3751 37.7053 20.236 37.6357 20.1665ZM36.4536 33.6569H24.6321V21.4182C24.6321 20.097 25.1189 19.0539 26.0229 18.0804C29.2216 14.6035 34.9933 15.9942 36.4536 20.3751V33.6569Z" fill="#540326"/>
<path d="M24.7031 31.9173H36.5246V33.6557H24.7031V31.9173ZM24.7031 28.7881H36.5246V30.7351H24.7031V28.7881Z" fill="#FDD083"/>
<path d="M48.2063 17.2461L47.9977 20.1667H43.4082V17.2461H48.2063Z" fill="#F75287"/>
<path d="M48.4152 21.4187H43.1303C42.3654 21.4187 42.3654 20.167 43.1303 20.167H48.4152C49.1801 20.167 49.1801 21.4187 48.4152 21.4187Z" fill="#540326"/>
<path d="M55.4376 33.6564H48.3447L49.7355 12.5864L49.8746 10.083H53.8382L55.229 30.7358H50.0832C49.3183 30.7358 49.3183 31.9875 50.0832 31.9875H55.2985C55.3681 32.4742 55.3681 33.1001 55.4376 33.6564Z" fill="#FDD083"/>
<path d="M55.3683 31.9187H50.0835C49.3185 31.9187 49.3185 30.667 50.0835 30.667H55.3683C56.1333 30.7365 56.1333 31.9187 55.3683 31.9187Z" fill="#540326"/>
<path d="M12.8118 33.6564H5.64941L7.04017 12.5864L7.17925 10.083H11.2125L11.6297 16.6196V16.7586L12.5337 30.7358C12.4641 30.6662 12.3946 30.6662 12.2555 30.6662H6.97063C6.20571 30.6662 6.20571 31.9179 6.97063 31.9179H12.2555C12.3946 31.9179 12.4641 31.9179 12.6032 31.7789C12.7423 32.4047 12.8118 33.0305 12.8118 33.6564Z" fill="#FDD083"/>
<path d="M12.6731 31.848C12.6035 31.9175 12.4645 31.987 12.3254 31.987H7.04049C6.27557 31.987 6.27557 30.7354 7.04049 30.7354H12.3254C12.3949 30.7354 12.534 30.7354 12.6035 30.8049C13.0208 30.944 13.0208 31.5698 12.6731 31.848Z" fill="#540326"/>
<path d="M36.662 31.9177H24.4233C23.6584 31.9177 23.6584 30.666 24.4233 30.666H36.662C37.4269 30.7356 37.4269 31.9177 36.662 31.9177Z" fill="#540326"/>
<path d="M36.662 28.7888H24.4233C23.6584 28.7888 23.6584 27.5371 24.4233 27.5371H36.662C37.4269 27.6066 37.4269 28.7888 36.662 28.7888Z" fill="#540326"/>
<path d="M17.7473 17.2461V20.1667H13.1578L12.9492 17.2461H17.7473Z" fill="#F75287"/>
<path d="M18.3058 21.4187H13.021C12.256 21.4187 12.256 20.167 13.021 20.167H18.3058C19.0708 20.167 19.0708 21.4187 18.3058 21.4187Z" fill="#540326"/>
<path d="M17.7477 25.3125V33.6571H14.0622L13.5059 25.3125H17.7477Z" fill="#FDD083"/>
<path d="M18.3058 25.3129H13.021C12.256 25.3129 12.256 24.1307 13.021 24.1307H18.3058C19.0708 24.0612 19.0708 25.3129 18.3058 25.3129Z" fill="#540326"/>
<path d="M47.6498 25.3125L47.3021 31.0146L47.1631 33.6571H43.4775V25.3125H47.6498Z" fill="#FDD083"/>
<path d="M47.6503 25.313H43.1303C42.3654 25.313 42.3654 24.1309 43.1303 24.1309H47.7198C48.4152 24.1309 48.4152 25.313 47.6503 25.313Z" fill="#540326"/>
<path d="M22.5472 15.3686C20.9478 15.3686 20.9478 12.8652 22.5472 12.8652C24.1466 12.8652 24.1466 15.3686 22.5472 15.3686Z" fill="#540326"/>
<path d="M18.792 10.2229L18.9311 20.2363V33.6572H23.451V23.5742C23.451 22.0443 23.2424 20.445 23.9378 18.9847C24.4246 17.9416 25.12 17.1071 26.024 16.4117C30.0572 13.2825 35.9679 15.2296 37.5673 19.9582C37.5673 20.0277 37.6368 20.0277 37.6368 20.0973C37.7063 20.2363 37.7063 20.3059 37.6368 20.445V33.6572H42.1568V10.1533H18.792V10.2229ZM22.5471 15.3687C20.9477 15.3687 20.9477 12.8653 22.5471 12.8653C24.1464 12.8653 24.1464 15.3687 22.5471 15.3687ZM38.6103 15.3687C37.0109 15.3687 37.0109 12.8653 38.6103 12.8653C40.2097 12.8653 40.2097 15.3687 38.6103 15.3687Z" fill="#F75287"/>
<path d="M38.6097 15.3686C37.0103 15.3686 37.0103 12.8652 38.6097 12.8652C40.2091 12.8652 40.2091 15.3686 38.6097 15.3686Z" fill="#540326"/>
</svg>
