<svg width="20" height="20" viewBox="0 0 20 20" fill="none" xmlns="http://www.w3.org/2000/svg">
<path d="M14.5 0.0996094C17.5179 0.0996094 19.9004 2.64788 19.9004 5.93262C19.9003 7.93511 19.0631 9.76349 17.5762 11.7256C16.46 13.1985 14.9828 14.7412 13.2266 16.4834L11.3799 18.2969L10 19.6514L8.62012 18.2969L6.77344 16.4834C5.01716 14.7412 3.54003 13.1985 2.42383 11.7256C0.936913 9.76349 0.0997198 7.93511 0.0996094 5.93262C0.0996094 2.64788 2.4821 0.0996094 5.5 0.0996094C7.20685 0.0996094 8.84911 0.957522 9.92188 2.30566L10 2.4043L10.0781 2.30566C11.1509 0.957522 12.7932 0.0996094 14.5 0.0996094ZM14.5 2.05762C12.9401 2.05762 11.428 3.13166 10.8633 4.60254H9.13672C8.57204 3.13166 7.05991 2.05762 5.5 2.05762C3.43778 2.05762 1.90039 3.72748 1.90039 5.93262C1.90052 7.52529 2.70211 9.0954 4.08496 10.8398C5.46851 12.5851 7.44699 14.521 9.82031 16.8438L9.92969 16.9512L10.0029 17.0234L10.0732 16.9482L10.1689 16.8428L10.1699 16.8438C12.5482 14.521 14.5283 12.5851 15.9131 10.8398C17.2973 9.09529 18.0995 7.52537 18.0996 5.93262C18.0996 3.72748 16.5622 2.05762 14.5 2.05762Z" fill="#0D1520" stroke="white" stroke-width="0.2"/>
</svg>
