<svg width="46" height="46" viewBox="0 0 46 46" fill="none" xmlns="http://www.w3.org/2000/svg">
<rect x="0.5" y="0.5" width="45" height="45" rx="22.5" stroke="white"/>
<path d="M32.0664 15.2656H13.9336C12.8653 15.2656 12 16.1363 12 17.1992V28.8008C12 29.8701 12.8716 30.7344 13.9336 30.7344H32.0664C33.1258 30.7344 34 29.8737 34 28.8008V17.1992C34 16.1381 33.1382 15.2656 32.0664 15.2656ZM31.7956 16.5547L24.3673 23.9439C24.002 24.3091 23.5165 24.5102 23 24.5102C22.4835 24.5102 21.998 24.3091 21.6315 23.9427L14.2044 16.5547H31.7956ZM13.2891 28.5384V17.4624L18.8594 23.0034L13.2891 28.5384ZM14.2052 29.4453L19.7734 23.9125L20.7212 24.8554C21.3299 25.4641 22.1392 25.7993 23 25.7993C23.8608 25.7993 24.6701 25.4641 25.2776 24.8566L26.2266 23.9125L31.7948 29.4453H14.2052ZM32.7109 28.5384L27.1406 23.0034L32.7109 17.4624V28.5384Z" fill="white"/>
</svg>
