<svg width="29" height="20" viewBox="0 0 29 20" fill="none" xmlns="http://www.w3.org/2000/svg">
<path d="M0 1.40958C0 0.630417 0.631833 0 1.40958 0H12.7571C13.1309 1.11414e-08 13.4895 0.148509 13.7538 0.412857C14.0182 0.677205 14.1667 1.03574 14.1667 1.40958C14.1667 1.78343 14.0182 2.14196 13.7538 2.40631C13.4895 2.67066 13.1309 2.81917 12.7571 2.81917H1.40958C1.03574 2.81917 0.677206 2.67066 0.412858 2.40631C0.148509 2.14196 0 1.78343 0 1.40958ZM0 9.91667C0 9.1375 0.631833 8.50709 1.40958 8.50709H26.9238C27.2976 8.50709 27.6561 8.65559 27.9205 8.91994C28.1848 9.18429 28.3333 9.54282 28.3333 9.91667C28.3333 10.2905 28.1848 10.649 27.9205 10.9134C27.6561 11.1777 27.2976 11.3263 26.9238 11.3263H1.40958C1.03574 11.3263 0.677206 11.1777 0.412858 10.9134C0.148509 10.649 0 10.2905 0 9.91667ZM1.40958 17.0142C1.03574 17.0142 0.677206 17.1627 0.412858 17.427C0.148509 17.6914 0 18.0499 0 18.4238C0 18.7976 0.148509 19.1561 0.412858 19.4205C0.677206 19.6848 1.03574 19.8333 1.40958 19.8333H18.4238C18.7976 19.8333 19.1561 19.6848 19.4205 19.4205C19.6848 19.1561 19.8333 18.7976 19.8333 18.4238C19.8333 18.0499 19.6848 17.6914 19.4205 17.427C19.1561 17.1627 18.7976 17.0142 18.4238 17.0142H1.40958Z" fill="white"/>
</svg>