<svg width="168" height="146" viewBox="0 0 168 146" fill="none" xmlns="http://www.w3.org/2000/svg">
<path d="M168.001 144.493C168.001 147.379 130.878 149.74 85.0788 149.74C39.2793 149.74 2.15625 147.379 2.15625 144.493C2.15625 141.589 39.2793 139.246 85.0788 139.246C130.878 139.246 168.001 141.589 168.001 144.493Z" fill="#CAE6FE"/>
<path d="M153.534 49.5781C153.534 50.0278 153.347 50.4401 153.047 50.7399C152.766 51.0398 152.354 51.2084 151.904 51.2084H116.955C116.055 51.2084 115.324 50.4776 115.324 49.5781C115.324 49.1283 115.512 48.7161 115.793 48.435C116.093 48.1351 116.505 47.9477 116.955 47.9477H118.604C119.26 46.4298 120.759 45.3617 122.52 45.3617C123.701 45.3617 124.769 45.8489 125.537 46.636C126.568 44.8744 128.461 43.7126 130.634 43.7126C131.234 43.7126 131.815 43.8063 132.358 43.9562C133.502 41.8199 135.75 40.377 138.336 40.377C141.447 40.377 144.052 42.4758 144.858 45.3242C145.42 45.0431 146.076 44.8744 146.75 44.8744C148.699 44.8744 150.33 46.1675 150.854 47.9477H151.904C152.803 47.9477 153.534 48.6786 153.534 49.5781Z" fill="#CAE6FE"/>
<path d="M32.9441 21.1135C32.9441 21.4883 32.7942 21.8444 32.5319 22.1067C32.2695 22.3503 31.9322 22.519 31.5387 22.519H1.40547C0.637145 22.519 0 21.8819 0 21.1135C0 20.72 0.168656 20.364 0.41227 20.1016C0.674624 19.858 1.03068 19.6893 1.40547 19.6893H2.82967C3.39186 18.3963 4.70363 17.4781 6.20279 17.4781C7.23346 17.4781 8.1517 17.8903 8.80759 18.565C9.70709 17.0471 11.3374 16.0351 13.2114 16.0351C13.7361 16.0351 14.2233 16.1288 14.6918 16.26C15.6663 14.4235 17.6152 13.168 19.8452 13.168C22.5249 13.168 24.7737 14.967 25.467 17.4406C25.9543 17.197 26.5165 17.0471 27.0974 17.0471C28.7839 17.0471 30.1894 18.1714 30.6392 19.6893H31.5387C32.307 19.6893 32.9441 20.3265 32.9441 21.1135Z" fill="#CAE6FE"/>
<path d="M88.9923 13.56C88.9923 13.9535 88.8424 14.3095 88.5801 14.5532C88.3177 14.8155 87.9617 14.9842 87.5681 14.9842H57.0414C56.2543 14.9842 55.6172 14.347 55.6172 13.56C55.6172 13.1664 55.7858 12.8104 56.0482 12.548C56.2918 12.2857 56.6479 12.117 57.0414 12.117H58.4843C59.0653 10.8052 60.377 9.86827 61.9137 9.86827C62.9444 9.86827 63.8626 10.2993 64.5372 10.9739C65.4367 9.43726 67.1045 8.42532 68.9972 8.42532C69.5219 8.42532 70.0279 8.50028 70.4964 8.6502C71.4896 6.77624 73.4572 5.50195 75.7247 5.50195C78.442 5.50195 80.7282 7.33843 81.4215 9.83079C81.9088 9.58717 82.471 9.43726 83.0706 9.43726C84.7759 9.43726 86.2001 10.5804 86.6499 12.117H87.5681C88.3552 12.117 88.9923 12.7729 88.9923 13.56Z" fill="#CAE6FE"/>
<path fill-rule="evenodd" clip-rule="evenodd" d="M154.901 39.6836C156.026 39.6836 156.963 40.6206 156.963 41.7449C156.963 42.8881 156.026 43.8063 154.901 43.8063C153.758 43.8063 152.84 42.8881 152.84 41.7449C152.84 40.6206 153.758 39.6836 154.901 39.6836ZM154.901 40.3395C154.114 40.3395 153.477 40.9766 153.477 41.7449C153.477 42.532 154.114 43.1692 154.901 43.1692C155.67 43.1692 156.307 42.532 156.307 41.7449C156.307 40.9766 155.67 40.3395 154.901 40.3395Z" fill="#2A365C"/>
<path fill-rule="evenodd" clip-rule="evenodd" d="M152.802 29.207C153.945 29.207 154.863 30.144 154.863 31.2684C154.863 32.4115 153.945 33.3297 152.802 33.3297C151.658 33.3297 150.74 32.4115 150.74 31.2684C150.74 30.144 151.658 29.207 152.802 29.207ZM152.802 29.8629C152.015 29.8629 151.377 30.5001 151.377 31.2684C151.377 32.0554 152.015 32.6926 152.802 32.6926C153.589 32.6926 154.207 32.0554 154.207 31.2684C154.207 30.5001 153.589 29.8629 152.802 29.8629Z" fill="#61B3FF"/>
<path d="M146.523 26.3217C146.523 26.4903 146.673 26.6403 146.861 26.6403H148.285C148.454 26.6403 148.604 26.4903 148.604 26.3217C148.604 26.1343 148.454 25.9844 148.285 25.9844H146.861C146.673 25.9844 146.523 26.1343 146.523 26.3217Z" fill="#009EF3"/>
<path d="M144.031 26.3217C144.031 26.4903 144.181 26.6403 144.35 26.6403H145.793C145.961 26.6403 146.111 26.4903 146.111 26.3217C146.111 26.1343 145.961 25.9844 145.793 25.9844H144.35C144.181 25.9844 144.031 26.1343 144.031 26.3217Z" fill="#009EF3"/>
<path d="M146 24.3166V25.5909C146 25.7783 146.15 25.9095 146.319 25.9095C146.506 25.9095 146.637 25.7783 146.637 25.5909V24.3166C146.637 24.1292 146.506 23.998 146.319 23.998C146.15 23.998 146 24.1292 146 24.3166Z" fill="#009EF3"/>
<path d="M146 27.0334V28.3077C146 28.4951 146.15 28.645 146.319 28.645C146.506 28.645 146.637 28.4951 146.637 28.3077V27.0334C146.637 26.8648 146.506 26.7148 146.319 26.7148C146.15 26.7148 146 26.8648 146 27.0334Z" fill="#009EF3"/>
<path d="M148.848 37.3225C148.848 37.5099 148.998 37.641 149.185 37.641H150.609C150.778 37.641 150.928 37.5099 150.928 37.3225C150.928 37.1538 150.778 37.0039 150.609 37.0039H149.185C148.998 37.0039 148.848 37.1538 148.848 37.3225Z" fill="#007CE6"/>
<path d="M146.355 37.3225C146.355 37.5099 146.505 37.641 146.693 37.641H148.117C148.286 37.641 148.436 37.5099 148.436 37.3225C148.436 37.1538 148.286 37.0039 148.117 37.0039H146.693C146.505 37.0039 146.355 37.1538 146.355 37.3225Z" fill="#007CE6"/>
<path d="M148.324 35.3186V36.6116C148.324 36.7803 148.474 36.9302 148.643 36.9302C148.83 36.9302 148.961 36.7803 148.961 36.6116V35.3186C148.961 35.1499 148.83 35 148.643 35C148.474 35 148.324 35.1499 148.324 35.3186Z" fill="#007CE6"/>
<path d="M148.324 38.0334V39.3264C148.324 39.4951 148.474 39.645 148.643 39.645C148.83 39.645 148.961 39.4951 148.961 39.3264V38.0334C148.961 37.8648 148.83 37.7148 148.643 37.7148C148.474 37.7148 148.324 37.8648 148.324 38.0334Z" fill="#007CE6"/>
<path fill-rule="evenodd" clip-rule="evenodd" d="M16.4723 49.6707C16.4723 50.8138 15.5541 51.7321 14.411 51.7321C13.2866 51.7321 12.3496 50.8138 12.3496 49.6707C12.3496 48.5464 13.2866 47.6094 14.411 47.6094C15.5541 47.6094 16.4723 48.5464 16.4723 49.6707ZM15.8352 49.6707C15.8352 48.9024 15.198 48.2653 14.411 48.2653C13.6426 48.2653 13.0055 48.9024 13.0055 49.6707C13.0055 50.4578 13.6426 51.0949 14.411 51.0949C15.198 51.0949 15.8352 50.4578 15.8352 49.6707Z" fill="#009EF3"/>
<path fill-rule="evenodd" clip-rule="evenodd" d="M24.8864 46.8973C24.8864 48.0217 23.9681 48.9586 22.825 48.9586C21.7006 48.9586 20.7637 48.0217 20.7637 46.8973C20.7637 45.7542 21.7006 44.8359 22.825 44.8359C23.9681 44.8359 24.8864 45.7542 24.8864 46.8973ZM24.2492 46.8973C24.2492 46.1102 23.6121 45.4731 22.825 45.4731C22.0567 45.4731 21.4196 46.1102 21.4196 46.8973C21.4196 47.6656 22.0567 48.3028 22.825 48.3028C23.6121 48.3028 24.2492 47.6656 24.2492 46.8973Z" fill="#2A365C"/>
<path d="M25.1467 38.0527C24.978 38.0527 24.8281 38.1839 24.8281 38.3713V39.7955C24.8281 39.9642 24.978 40.1141 25.1467 40.1141C25.3341 40.1141 25.4653 39.9642 25.4653 39.7955V38.3713C25.4653 38.1839 25.3341 38.0527 25.1467 38.0527Z" fill="#007CE6"/>
<path d="M25.1467 35.541C24.978 35.541 24.8281 35.6909 24.8281 35.8783V37.3025C24.8281 37.4712 24.978 37.6211 25.1467 37.6211C25.3341 37.6211 25.4653 37.4712 25.4653 37.3025V35.8783C25.4653 35.6909 25.3341 35.541 25.1467 35.541Z" fill="#007CE6"/>
<path d="M27.1546 37.5078H25.8803C25.6929 37.5078 25.543 37.6577 25.543 37.8264C25.543 38.0138 25.6929 38.1637 25.8803 38.1637H27.1546C27.342 38.1637 27.4731 38.0138 27.4731 37.8264C27.4731 37.6577 27.342 37.5078 27.1546 37.5078Z" fill="#007CE6"/>
<path d="M24.4358 37.5078H23.1428C22.9741 37.5078 22.8242 37.6577 22.8242 37.8264C22.8242 38.0138 22.9741 38.1637 23.1428 38.1637H24.4358C24.6045 38.1637 24.7544 38.0138 24.7544 37.8264C24.7544 37.6577 24.6045 37.5078 24.4358 37.5078Z" fill="#007CE6"/>
<path d="M16.4162 40.339C16.2288 40.3203 16.0977 40.4702 16.0977 40.6576V42.0818C16.0977 42.2505 16.2288 42.4004 16.4162 42.4004C16.6036 42.4004 16.7348 42.2505 16.7348 42.0818V40.6576C16.7348 40.4702 16.6036 40.3203 16.4162 40.3203V40.339Z" fill="#61B3FF"/>
<path d="M16.4162 37.8281C16.2288 37.8281 16.0977 37.978 16.0977 38.1654V39.5896C16.0977 39.7583 16.2288 39.9082 16.4162 39.9082C16.6036 39.9082 16.7348 39.7583 16.7348 39.5896V38.1654C16.7348 37.978 16.6036 37.8281 16.4162 37.8281Z" fill="#61B3FF"/>
<path d="M18.4202 39.7949H17.1272C16.9585 39.7949 16.8086 39.9448 16.8086 40.1135C16.8086 40.3009 16.9585 40.4321 17.1272 40.4321H18.4202C18.5888 40.4321 18.7388 40.3009 18.7388 40.1135C18.7388 39.9448 18.5888 39.7949 18.4202 39.7949Z" fill="#61B3FF"/>
<path d="M15.7053 39.7949H14.4123C14.2437 39.7949 14.0938 39.9448 14.0938 40.1135C14.0938 40.3009 14.2437 40.4321 14.4123 40.4321H15.7053C15.874 40.4321 16.0239 40.3009 16.0239 40.1135C16.0239 39.9448 15.874 39.7949 15.7053 39.7949Z" fill="#61B3FF"/>
<path d="M23.0484 60.5206V67.3981C23.0484 67.8478 22.6923 68.1851 22.2613 68.1851H15.3839C15.0841 68.1851 14.8217 68.0352 14.6718 67.7729C14.6593 67.7479 14.6468 67.7229 14.6343 67.6979C14.6219 67.6604 14.6094 67.6167 14.5969 67.5667C14.5969 67.5542 14.5969 67.548 14.5969 67.548C14.5844 67.498 14.5781 67.448 14.5781 67.3981V60.5206C14.5781 60.1084 14.8967 59.7711 15.2902 59.7148C15.3152 59.7148 15.3464 59.7148 15.3839 59.7148H22.2613C22.3488 59.7148 22.43 59.7273 22.505 59.7523C22.8235 59.8648 23.0484 60.1646 23.0484 60.5206Z" fill="#2A365C"/>
<path d="M19.3201 66.2928V66.9862L18.4394 66.9675L18.4581 66.3116C17.8397 66.2741 17.24 66.1054 16.8652 65.8618L17.3525 64.8124C17.746 65.056 18.2894 65.2059 18.7767 65.2247C19.1889 65.2247 19.3389 65.131 19.3389 64.9811C19.3389 64.4376 16.9402 64.8686 16.9589 63.257C16.9589 62.5449 17.4649 61.964 18.4956 61.8328V61.1582H19.3576V61.8328C19.8261 61.8703 20.2571 62.0015 20.6131 62.1889L20.1634 63.257C19.7386 63.0322 19.3389 62.9197 18.9641 62.9197C18.5331 62.9197 18.4019 63.0322 18.4019 63.1821C18.4019 63.7068 20.7818 63.2945 20.7818 64.8874C20.7631 65.562 20.2758 66.1242 19.3201 66.2928Z" fill="#FEFDFF"/>
<path d="M159.136 108.326V115.222C159.136 115.653 158.78 116.009 158.349 116.009H151.453C151.153 116.009 150.891 115.841 150.76 115.597C150.747 115.572 150.735 115.547 150.722 115.522C150.71 115.485 150.697 115.441 150.685 115.391C150.685 115.391 150.685 115.385 150.685 115.372C150.672 115.372 150.666 115.366 150.666 115.353C150.666 115.316 150.666 115.272 150.666 115.222V108.326C150.666 107.914 150.966 107.577 151.378 107.539C151.403 107.539 151.428 107.539 151.453 107.539H158.349C158.437 107.539 158.512 107.552 158.574 107.577C158.574 107.577 158.58 107.577 158.593 107.577C158.911 107.67 159.136 107.97 159.136 108.326Z" fill="#61B3FF"/>
<path fill-rule="evenodd" clip-rule="evenodd" d="M157.637 111.906C157.637 113.386 156.457 114.567 154.995 114.567C153.515 114.567 152.334 113.386 152.334 111.906C152.334 110.444 153.515 109.264 154.995 109.264C156.457 109.264 157.637 110.444 157.637 111.906ZM156.157 112.899C156.244 112.612 156.288 112.299 156.288 111.962H155.089V112.899H156.157ZM155.538 114.305C156.213 114.155 156.794 113.724 157.131 113.105H156.326C156.213 113.43 156.057 113.711 155.857 113.949C155.757 114.073 155.651 114.192 155.538 114.305ZM155.107 113.105V114.361C155.182 114.305 155.445 114.136 155.688 113.817C155.851 113.605 155.982 113.368 156.082 113.105H155.107ZM156.044 110.613C155.763 109.976 155.351 109.601 155.22 109.489C155.182 109.476 155.145 109.47 155.107 109.47V110.613H156.044ZM157.075 110.613C156.738 110.069 156.194 109.695 155.595 109.545C155.72 109.67 155.832 109.807 155.932 109.957C156.069 110.157 156.188 110.376 156.288 110.613H157.075ZM156.326 111.756C156.313 111.431 156.251 111.119 156.138 110.819H155.126V111.756H156.326ZM157.45 111.756C157.425 111.431 157.337 111.119 157.188 110.819H156.363C156.463 111.119 156.519 111.431 156.532 111.756H157.45ZM156.532 111.962C156.519 112.287 156.475 112.599 156.4 112.899H157.244C157.381 112.599 157.45 112.287 157.45 111.962H156.532ZM153.515 111.962H152.578C152.578 112.287 152.646 112.599 152.784 112.899H153.646C153.571 112.599 153.527 112.287 153.515 111.962ZM154.901 110.613V109.47C154.876 109.47 154.858 109.47 154.845 109.47C154.751 109.564 154.527 109.751 154.302 110.088C154.189 110.251 154.089 110.426 154.002 110.613H154.901ZM153.908 110.819C153.796 111.119 153.733 111.431 153.721 111.756H154.901V110.819H153.908ZM153.758 110.613C153.858 110.376 153.977 110.157 154.114 109.957C154.227 109.807 154.345 109.663 154.47 109.526C153.833 109.676 153.29 110.069 152.952 110.613H153.758ZM153.702 111.962C153.714 112.299 153.764 112.612 153.852 112.899H154.883V111.962H153.702ZM153.496 111.756C153.508 111.431 153.565 111.119 153.664 110.819H152.802C152.653 111.119 152.571 111.431 152.559 111.756H153.496ZM152.859 113.105C153.196 113.724 153.796 114.155 154.47 114.305C154.358 114.205 154.252 114.086 154.152 113.949C153.952 113.711 153.796 113.43 153.683 113.105H152.859ZM153.927 113.105C154.227 113.874 154.733 114.248 154.883 114.342V113.105H153.927Z" fill="#FEFDFF"/>
<path d="M103.984 38.5226L104.94 38.8412L105.446 39.0099L106.87 39.4783C106.87 39.4783 128.14 22.2754 122.686 12.0249C121.019 8.87665 115.94 9.06405 113.092 19.6144C110.468 29.3965 103.984 38.5226 103.984 38.5226Z" fill="#ABD3F2"/>
<path d="M104.941 38.84L105.447 39.0087C109.72 34.5112 113.018 29.1892 115.098 25.3663C117.572 20.8313 118.902 17.3645 118.921 17.3458C118.959 17.2146 118.902 17.0834 118.771 17.0272C118.659 16.9897 118.509 17.0459 118.471 17.1584C118.453 17.1958 117.122 20.6439 114.667 25.1602C112.587 28.983 109.252 34.3425 104.941 38.84Z" fill="#90C3EF"/>
<path d="M48.5358 129.258L47.5988 129.314L47.1115 129.333L45.6873 129.427C45.6873 129.427 30.4333 108.794 37.798 100.774C40.0655 98.3002 44.6192 99.687 44.7316 109.938C44.8066 119.438 48.5358 129.258 48.5358 129.258Z" fill="#ABD3F2"/>
<path d="M47.5989 129.315L47.1117 129.334C44.282 124.255 42.5393 118.652 41.5461 114.698C40.3842 109.994 39.9907 106.528 39.9907 106.49C39.9719 106.378 40.0656 106.265 40.1781 106.247C40.3093 106.228 40.4217 106.321 40.4217 106.453C40.4404 106.471 40.834 109.919 41.9958 114.586C42.989 118.558 44.7505 124.218 47.5989 129.315Z" fill="#90C3EF"/>
<path d="M53.2382 132.349L52.1513 133.155L51.5704 133.586L49.9213 134.804C49.9213 134.804 15.2156 121.574 17.9329 106.039C18.7574 101.26 25.3912 99.3675 33.5054 111.792C41.0387 123.298 53.2382 132.349 53.2382 132.349Z" fill="#CAE6FE"/>
<path d="M52.1517 133.155L51.5708 133.586C44.1499 129.594 37.666 124.122 33.3559 120.056C28.2588 115.24 25.073 111.342 25.0543 111.304C24.9419 111.155 24.9606 110.948 25.0918 110.836C25.2417 110.724 25.4478 110.742 25.5603 110.892C25.579 110.93 28.746 114.809 33.8244 119.587C38.1345 123.673 44.6933 129.182 52.1517 133.155Z" fill="#ABD3F2"/>
<path d="M99.0586 41.839L100.108 42.8322L100.67 43.3756L102.244 44.8748C102.244 44.8748 140.754 35.6362 140.005 18.8455C139.78 13.6734 133.033 10.7688 122.745 22.7808C113.207 33.9309 99.0586 41.839 99.0586 41.839Z" fill="#CAE6FE"/>
<path d="M100.107 42.8315L100.67 43.375C109.046 40.1518 116.673 35.2608 121.77 31.5691C127.823 27.1653 131.721 23.4736 131.759 23.4361C131.89 23.3049 131.908 23.0801 131.759 22.9489C131.627 22.799 131.421 22.799 131.271 22.9301C131.234 22.9676 127.373 26.6406 121.339 31.0069C116.223 34.7173 108.54 39.6458 100.107 42.8315Z" fill="#ABD3F2"/>
<path d="M30.1331 30.6136C31.5573 34.7738 35.7737 34.474 35.83 37.9033C35.8862 41.3327 38.1349 43.8625 41.077 43.1129C44.0191 42.3633 46.1367 41.6325 47.6359 45.0056C49.1163 48.36 53.5014 49.8779 55.0942 47.1232C55.4877 46.4298 55.9188 45.6802 56.331 44.9494C56.456 44.7495 56.5746 44.5559 56.6871 44.3685C56.7121 44.3185 56.7371 44.2685 56.762 44.2186C58.4486 41.2765 57.699 37.5098 54.9443 35.5234C53.8387 34.7176 52.5269 34.2866 51.084 34.7926C46.549 36.3105 48.0107 31.6443 45.2185 29.8079C41.9765 27.6903 39.3905 30.3513 37.1605 28.5148C34.0497 25.985 28.7089 26.4347 30.1331 30.6136Z" fill="#ABD3F2"/>
<path d="M35.6787 32.2073L56.3297 44.9502C56.4547 44.7503 56.5733 44.5567 56.6858 44.3693L36.0348 31.6264C35.8661 31.5327 35.66 31.5701 35.5663 31.7388C35.4539 31.8887 35.5101 32.1136 35.6787 32.2073Z" fill="#90C3EF"/>
<path d="M33.3196 7.28351C32.6824 12.718 37.5547 14.6294 35.7745 18.4898C33.9942 22.3501 35.1935 26.3604 38.8665 27.0912C42.5395 27.8221 45.2942 28.1594 45.163 32.6943C45.0506 37.2293 49.117 41.2771 52.3777 39.047C53.1835 38.4849 54.0643 37.8852 54.9263 37.2855C55.1637 37.1231 55.3948 36.967 55.6197 36.817C55.6696 36.7796 55.7258 36.7421 55.7883 36.7046C59.2364 34.3247 60.417 29.696 58.3931 26.0231C57.5873 24.5239 56.3505 23.3433 54.4765 23.1372C48.6111 22.4251 52.7338 17.9838 50.5787 14.442C48.0864 10.3568 43.7763 11.9309 42.2584 8.70772C40.1595 4.21023 33.938 1.86778 33.3196 7.28351Z" fill="#CAE6FE"/>
<path d="M38.6409 12.0426L54.9256 37.2848C55.1629 37.1224 55.394 36.9662 55.6189 36.8163L39.353 11.5741C39.2218 11.3867 38.9595 11.3118 38.7721 11.443C38.5659 11.5741 38.5097 11.8365 38.6409 12.0426Z" fill="#ABD3F2"/>
<path d="M122.014 99.4243C117.816 100.811 118.059 105.027 114.63 105.027C111.201 105.027 108.652 107.257 109.364 110.2C110.076 113.16 110.751 115.278 107.378 116.721C104.005 118.164 102.412 122.53 105.167 124.161C105.841 124.573 106.572 125.004 107.303 125.435C107.503 125.56 107.703 125.678 107.903 125.791C107.94 125.816 107.984 125.841 108.034 125.866C110.957 127.59 114.743 126.896 116.766 124.179C117.572 123.074 118.022 121.762 117.554 120.319C116.073 115.784 120.72 117.302 122.594 114.51C124.768 111.305 122.145 108.682 124 106.489C126.586 103.416 126.211 98.0563 122.014 99.4243Z" fill="#ABD3F2"/>
<path d="M120.327 104.954L107.303 125.436C107.503 125.561 107.703 125.68 107.902 125.792L120.908 105.31C121.02 105.16 120.964 104.954 120.814 104.841C120.645 104.748 120.439 104.785 120.327 104.954Z" fill="#90C3EF"/>
<path d="M137.941 108.176C132.544 107.483 130.558 112.317 126.716 110.5C122.894 108.663 118.865 109.788 118.077 113.461C117.29 117.134 116.934 119.888 112.381 119.701C107.846 119.513 103.742 123.524 105.934 126.822C106.478 127.628 107.077 128.508 107.658 129.389C107.821 129.627 107.977 129.858 108.127 130.083C108.164 130.145 108.202 130.201 108.239 130.251C110.582 133.737 115.173 134.974 118.883 133.006C120.401 132.219 121.582 131.001 121.825 129.127C122.612 123.261 126.998 127.459 130.577 125.341C134.681 122.924 133.163 118.595 136.423 117.115C140.94 115.053 143.357 108.888 137.941 108.176Z" fill="#CAE6FE"/>
<path d="M133.144 113.441L107.658 129.388C107.821 129.626 107.977 129.857 108.127 130.082L133.594 114.153C133.781 114.041 133.837 113.778 133.725 113.572C133.594 113.385 133.331 113.31 133.144 113.441Z" fill="#ABD3F2"/>
<path d="M52.0962 87.2813C46.7929 81.1909 37.3669 69.1601 34.4623 64.3253C30.6769 58.0101 29.0091 52.8755 29.5338 49.0526C29.5525 48.809 29.7961 48.6216 30.0397 48.6591C30.3021 48.6966 30.4707 48.9214 30.4333 49.1838C29.5338 55.8551 34.9682 65.5996 52.5647 86.4568L52.0962 87.2813Z" fill="#ABD3F2"/>
<path d="M31.557 58.4045C31.557 58.4045 28.465 60.7282 24.5859 55.1626C24.5859 55.1626 30.3202 52.9326 31.557 58.4045Z" fill="#CAE6FE"/>
<path d="M33.3952 61.3847C33.3952 61.3847 30.9028 58.4426 36.2623 54.2637C36.2623 54.2637 38.8109 59.8668 33.3952 61.3847Z" fill="#CAE6FE"/>
<path d="M30.0026 52.0133C30.0026 52.0133 26.667 50.0644 30.3399 44.3301C30.3399 44.3301 34.5938 48.7714 30.0026 52.0133Z" fill="#CAE6FE"/>
<path d="M36.9348 67.5122C36.9348 67.5122 34.8172 70.7354 29.2891 66.8001C29.2891 66.8001 33.9365 62.7711 36.9348 67.5122Z" fill="#CAE6FE"/>
<path d="M39.2782 70.2657C39.2782 70.2657 36.3173 67.7734 40.8711 62.7324C40.8711 62.7324 44.3379 67.8108 39.2782 70.2657Z" fill="#CAE6FE"/>
<path d="M42.1254 74.35C42.1254 74.35 40.0641 77.6106 34.4609 73.7878C34.4609 73.7878 39.0146 69.6651 42.1254 74.35Z" fill="#CAE6FE"/>
<path d="M88.207 32.1869C90.9617 24.5787 93.7539 18.2634 96.5649 13.3724C100.238 6.98224 103.911 3.02819 107.49 1.62273C107.734 1.52903 107.996 1.64147 108.09 1.88508C108.183 2.10995 108.071 2.39105 107.827 2.48475C101.568 4.93963 94.8408 15.996 88.3757 34.4544L88.207 32.1869Z" fill="#ABD3F2"/>
<path d="M100.314 7.95665C100.314 7.95665 96.7717 6.38253 99.7513 0.273438C99.7513 0.273438 104.492 4.20874 100.314 7.95665Z" fill="#CAE6FE"/>
<path d="M98.6074 11.0126C98.6074 11.0126 99.9754 7.39584 106.234 10.0381C106.234 10.0381 102.58 14.9854 98.6074 11.0126Z" fill="#CAE6FE"/>
<path d="M105.148 3.4789C105.148 3.4789 105.223 -0.381452 112.007 0.030818C112.007 0.030818 110.208 5.8963 105.148 3.4789Z" fill="#CAE6FE"/>
<path d="M94.9905 17.084C94.9905 17.084 91.1302 16.8216 91.8798 10.0566C91.8798 10.0566 97.6703 12.1555 94.9905 17.084Z" fill="#CAE6FE"/>
<path d="M93.7344 20.476C93.7344 20.476 94.4465 16.6718 101.08 18.1897C101.08 18.1897 98.3256 23.6992 93.7344 20.476Z" fill="#CAE6FE"/>
<path d="M91.5434 24.9348C91.5434 24.9348 87.6831 24.7474 88.3015 17.9824C88.3015 17.9824 94.1295 19.9501 91.5434 24.9348Z" fill="#CAE6FE"/>
<path d="M113.694 29.5258V138.759C113.694 142.169 110.921 144.943 107.491 144.943H53.109C51.385 144.943 49.8296 144.249 48.7052 143.125C47.5996 142.001 46.9062 140.445 46.9062 138.759V29.5258C46.9062 26.1152 49.6797 23.3418 53.109 23.3418H107.491C108.503 23.3418 109.459 23.5667 110.302 23.9977C112.326 25.0284 113.694 27.1272 113.694 29.5258Z" fill="#2A365C"/>
<path d="M113.692 29.5262V138.759C113.692 142.17 110.918 144.943 107.489 144.943H53.1069C51.3829 144.943 49.8275 144.25 48.7031 143.125L110.3 23.998C112.324 25.0287 113.692 27.1276 113.692 29.5262Z" fill="#16162F"/>
<path d="M46.9042 57.4119H46.0047C45.2551 57.4119 44.6367 56.7935 44.6367 56.0439V44.3504C44.6367 43.6008 45.2551 42.9824 46.0047 42.9824H46.9042V57.4119Z" fill="#16162F"/>
<path d="M113.691 53.6442L114.422 53.6255C115.041 53.6255 115.547 53.1383 115.547 52.5199V43.0002C115.547 42.3818 115.041 41.8945 114.422 41.8945H113.691V53.6442Z" fill="#16162F"/>
<path d="M46.9042 73.7908H46.0047C45.2551 73.7908 44.6367 73.1911 44.6367 72.4228V60.7481C44.6367 59.9797 45.2551 59.3613 46.0047 59.3613H46.9042V73.7908Z" fill="#16162F"/>
<path d="M110.6 29.2633V139.021C110.6 140.595 109.326 141.85 107.77 141.85H52.8445C51.6639 141.85 50.6707 141.157 50.221 140.145C50.0898 139.808 49.9961 139.414 49.9961 139.021V29.2633C49.9961 27.6891 51.2704 26.4336 52.8445 26.4336H107.77C108.182 26.4336 108.576 26.5085 108.932 26.6772C109.906 27.1082 110.6 28.1014 110.6 29.2633Z" fill="#FEFDFF"/>
<path d="M104.998 110.351H71.5666C70.9482 110.351 70.4609 109.863 70.4609 109.245C70.4609 108.645 70.9482 108.158 71.5666 108.158H104.998C105.598 108.158 106.104 108.645 106.104 109.245C106.104 109.863 105.598 110.351 104.998 110.351Z" fill="#CAE6FE"/>
<path d="M104.998 115.11H71.5666C70.9482 115.11 70.4609 114.623 70.4609 114.024C70.4609 113.405 70.9482 112.918 71.5666 112.918H104.998C105.598 112.918 106.104 113.405 106.104 114.024C106.104 114.623 105.598 115.11 104.998 115.11Z" fill="#CAE6FE"/>
<path d="M104.998 119.889H71.5666C70.9482 119.889 70.4609 119.383 70.4609 118.783C70.4609 118.184 70.9482 117.678 71.5666 117.678H104.998C105.598 117.678 106.104 118.184 106.104 118.783C106.104 119.383 105.598 119.889 104.998 119.889Z" fill="#CAE6FE"/>
<path d="M67.481 119.87H55.75V108.158H67.481V119.87Z" fill="#CAE6FE"/>
<path d="M75.0517 40.6953H56.8556C56.256 40.6953 55.75 41.2013 55.75 41.8009C55.75 42.4006 56.256 42.9066 56.8556 42.9066H75.0517C75.6701 42.9066 76.1574 42.4006 76.1574 41.8009C76.1574 41.2013 75.6701 40.6953 75.0517 40.6953Z" fill="#CAE6FE"/>
<path d="M75.0517 45.4727H56.8556C56.256 45.4727 55.75 45.9599 55.75 46.5595C55.75 47.178 56.256 47.6652 56.8556 47.6652H75.0517C75.6701 47.6652 76.1574 47.178 76.1574 46.5595C76.1574 45.9599 75.6701 45.4727 75.0517 45.4727Z" fill="#CAE6FE"/>
<path d="M75.0517 50.2324H56.8556C56.256 50.2324 55.75 50.7196 55.75 51.3381C55.75 51.9377 56.256 52.4249 56.8556 52.4249H75.0517C75.6701 52.4249 76.1574 51.9377 76.1574 51.3381C76.1574 50.7196 75.6701 50.2324 75.0517 50.2324Z" fill="#CAE6FE"/>
<path d="M104.96 40.6953H86.7638C86.1642 40.6953 85.6582 41.2013 85.6582 41.8009C85.6582 42.4006 86.1642 42.9066 86.7638 42.9066H104.96C105.578 42.9066 106.066 42.4006 106.066 41.8009C106.066 41.2013 105.578 40.6953 104.96 40.6953Z" fill="#CAE6FE"/>
<path d="M104.96 45.4727H86.7638C86.1642 45.4727 85.6582 45.9599 85.6582 46.5595C85.6582 47.178 86.1642 47.6652 86.7638 47.6652H104.96C105.578 47.6652 106.066 47.178 106.066 46.5595C106.066 45.9599 105.578 45.4727 104.96 45.4727Z" fill="#CAE6FE"/>
<path d="M104.96 50.2324H86.7638C86.1642 50.2324 85.6582 50.7196 85.6582 51.3381C85.6582 51.9377 86.1642 52.4249 86.7638 52.4249H104.96C105.578 52.4249 106.066 51.9377 106.066 51.3381C106.066 50.7196 105.578 50.2324 104.96 50.2324Z" fill="#CAE6FE"/>
<path d="M58.9922 27.2956L61.9905 31.8493C62.8338 33.1424 64.258 33.9107 65.7759 33.9107H94.8222C96.3401 33.9107 97.7643 33.1424 98.6076 31.8493L101.606 27.2956C101.606 26.8084 101.212 26.4336 100.744 26.4336H59.8542C59.3857 26.4336 58.9922 26.8084 58.9922 27.2956Z" fill="#2A365C"/>
<path d="M90.1567 30.5943H65.2893C64.7834 30.5943 64.3711 30.182 64.3711 29.676C64.3711 29.1701 64.7834 28.7578 65.2893 28.7578H90.1567C90.6627 28.7578 91.0937 29.1701 91.0937 29.676C91.0937 30.182 90.6627 30.5943 90.1567 30.5943Z" fill="#445279"/>
<path d="M95.9652 29.6193C95.9652 30.219 95.4592 30.7062 94.8595 30.7062C94.2411 30.7062 93.7539 30.219 93.7539 29.6193C93.7539 29.0009 94.2411 28.5137 94.8595 28.5137C95.4592 28.5137 95.9652 29.0009 95.9652 29.6193Z" fill="#445279"/>
<path d="M106.61 98.7317H54.2891V74.9512H106.61V98.7317Z" fill="#009EF3"/>
<path d="M106.61 76.8439H54.2891V74.9512H106.61V76.8439Z" fill="#007CE6"/>
<path d="M106.61 73.5454H54.2891L58.3555 63.8945H102.543L106.61 73.5454Z" fill="#445279"/>
<path d="M108.277 74.9511H51.9648V73.4707H108.277V74.9511Z" fill="#2A365C"/>
<path d="M91.4674 98.732H69.4297V80.2923L80.7484 74.127L91.4674 79.6739V98.732Z" fill="#009EF3"/>
<path d="M68.1738 98.7328H70.029V81.9609H68.1738V98.7328Z" fill="#007CE6"/>
<path d="M90.9062 98.7328H92.7427V81.9609H90.9062V98.7328Z" fill="#007CE6"/>
<path d="M84.2169 98.7497H76.6836V86.3066H84.2169V98.7497Z" fill="#2A365C"/>
<path d="M77.4316 98.7509V87.0762H83.4658V98.7509H77.4316Z" fill="#445279"/>
<path d="M83.072 93.259C83.072 93.6151 82.7909 93.8962 82.4348 93.8962C82.0975 93.8962 81.8164 93.6151 81.8164 93.259C81.8164 92.9217 82.0975 92.6406 82.4348 92.6406C82.7909 92.6406 83.072 92.9217 83.072 93.259Z" fill="#2A365C"/>
<path d="M85.0972 86.3069H75.8024C75.4838 86.3069 75.2402 86.0633 75.2402 85.7447V85.3887H85.6594V85.7447C85.6594 86.0633 85.4158 86.3069 85.0972 86.3069Z" fill="#2A365C"/>
<path d="M80.1111 87.9375V91.7042H78.2559V87.9375H80.1111Z" fill="#CAE6FE"/>
<path d="M80.1111 88.0879V89.1935L78.2559 91.0487V89.9431L80.1111 88.0879Z" fill="#FEFDFF"/>
<path opacity="0.2" d="M78.2559 87.9375H80.1111V88.4622H78.2559V87.9375Z" fill="black"/>
<path d="M82.7361 87.9375V91.7042H80.8809V87.9375H82.7361Z" fill="#CAE6FE"/>
<path d="M82.7361 88.0879V89.1935L80.8809 91.0487V89.9431L82.7361 88.0879Z" fill="#FEFDFF"/>
<path opacity="0.2" d="M80.8809 87.9375H82.7361V88.4622H80.8809V87.9375Z" fill="black"/>
<path d="M108.277 73.4907H51.9648V72.6849C51.9648 72.0102 52.5083 71.4668 53.1829 71.4668H107.059C107.734 71.4668 108.277 72.0102 108.277 72.6849V73.4907Z" fill="#2A365C"/>
<path d="M97.0323 81.9774H94.0152L90.867 81.9586L80.4478 74.9313L70.0286 81.9586L66.8803 81.9774H63.8633L80.4478 70.8086L97.0323 81.9774Z" fill="#445279"/>
<path d="M94.0177 81.9789L90.8694 81.9601L80.4502 74.9328L70.0311 81.9601L66.8828 81.9789L80.4502 72.834L94.0177 81.9789Z" fill="#2A365C"/>
<path d="M63.9581 85.2012H59.498L59.5168 93.4841H63.9581V85.2012Z" fill="#CAE6FE"/>
<path d="M63.9569 85.2012H62.3828L59.5156 88.0683V90.4108L63.9569 85.9695V85.2012Z" fill="#FEFDFF"/>
<path d="M63.9569 88.7051L59.5156 93.1276V93.4837H60.3402L63.9569 89.8669V88.7051Z" fill="#FEFDFF"/>
<path fill-rule="evenodd" clip-rule="evenodd" d="M63.9581 84.582V94.1017H58.8984V84.582H63.9581ZM59.5168 89.0233H63.3397V85.2004H59.5168V89.0233ZM63.3397 93.4833V89.6417H59.5168V93.4833H63.3397Z" fill="#445279"/>
<path opacity="0.2" d="M63.9581 84.6387H58.8984V85.6131H63.9581V84.6387Z" fill="black"/>
<path d="M64.4659 84.5828H58.3943C58.1319 84.5828 57.9258 84.3766 57.9258 84.1143V83.8145H64.9344V84.1143C64.9344 84.3766 64.7282 84.5828 64.4659 84.5828Z" fill="#2A365C"/>
<path d="M63.9581 95.076H58.8984V94.1016H63.9581V95.076Z" fill="#007CE6"/>
<path d="M103.049 85.2012H98.6074V93.4841H103.049V85.2012Z" fill="#CAE6FE"/>
<path d="M103.048 85.2012H101.492L98.625 88.0683V90.4108L103.048 85.9695V85.2012Z" fill="#FEFDFF"/>
<path d="M103.048 88.7051L98.625 93.1276V93.4837H99.4495L103.048 89.8669V88.7051Z" fill="#FEFDFF"/>
<path fill-rule="evenodd" clip-rule="evenodd" d="M103.049 84.582V94.1017H98.0078V84.582H103.049ZM98.6075 89.0233H102.43V85.2004H98.6075V89.0233ZM102.43 93.4833V89.6417H98.6075V93.4833H102.43Z" fill="#445279"/>
<path opacity="0.2" d="M103.049 84.6387H98.0078V85.6131H103.049V84.6387Z" fill="black"/>
<path d="M103.573 84.5828H97.5017C97.2393 84.5828 97.0332 84.3766 97.0332 84.1143V83.8145H104.042V84.1143C104.042 84.3766 103.836 84.5828 103.573 84.5828Z" fill="#2A365C"/>
<path d="M103.049 95.076H98.0078V94.1016H103.049V95.076Z" fill="#007CE6"/>
<path d="M101.417 65.8065H59.778C59.6281 65.8065 59.5156 65.6941 59.5156 65.5442V65.2069C59.5156 65.057 59.6281 64.9258 59.778 64.9258H101.417C101.548 64.9258 101.68 65.057 101.68 65.2069V65.5442C101.68 65.6941 101.548 65.8065 101.417 65.8065Z" fill="#2A365C"/>
<path d="M101.963 68.1112H58.8991C58.7492 68.1112 58.6367 67.9988 58.6367 67.8489V67.5116C58.6367 67.3616 58.7492 67.2305 58.8991 67.2305H101.963C102.112 67.2305 102.244 67.3616 102.244 67.5116V67.8489C102.244 67.9988 102.112 68.1112 101.963 68.1112Z" fill="#2A365C"/>
<path d="M103.779 70.4159H57.5858C57.4359 70.4159 57.3047 70.3035 57.3047 70.1536V69.8162C57.3047 69.6663 57.4359 69.5352 57.5858 69.5352H103.779C103.91 69.5352 104.041 69.6663 104.041 69.8162V70.1536C104.041 70.3035 103.91 70.4159 103.779 70.4159Z" fill="#2A365C"/>
<path d="M67.2764 67.4362H61.4297V60.8398H67.2764V67.4362Z" fill="#009EF3"/>
<path d="M67.2764 62.5451H61.4297V60.8398H67.2764V62.5451Z" fill="#007CE6"/>
<path d="M68.4938 58.6094V59.3964C68.4938 59.5089 68.4813 59.6213 68.4563 59.7337C68.3064 60.3709 67.7255 60.8394 67.0509 60.8394H61.6539C60.9605 60.8394 60.3983 60.3709 60.2484 59.7337C60.2234 59.6213 60.2109 59.5089 60.2109 59.3964V58.6094H68.4938Z" fill="#445279"/>
<path d="M68.454 59.7363C68.3041 60.3735 67.7232 60.842 67.0485 60.842H61.6516C60.9582 60.842 60.396 60.3735 60.2461 59.7363H68.454Z" fill="#2A365C"/>
<path d="M107.584 100.194H53.2583C53.0147 100.194 52.8086 100.007 52.8086 99.7631V99.1634C52.8086 98.9198 53.0147 98.7324 53.2583 98.7324H107.584C107.828 98.7324 108.034 98.9198 108.034 99.1634V99.7631C108.034 100.007 107.828 100.194 107.584 100.194Z" fill="#445279"/>
<path d="M108.971 101.654H51.8716C51.628 101.654 51.4219 101.448 51.4219 101.205V100.624C51.4219 100.38 51.628 100.174 51.8716 100.174H108.971C109.215 100.174 109.402 100.38 109.402 100.624V101.205C109.402 101.448 109.215 101.654 108.971 101.654Z" fill="#2A365C"/>
<path d="M70.0312 81.9785V84.2272L80.6004 77.4248L90.9071 84.2272L90.8696 81.9785L80.4504 74.9512L70.0312 81.9785Z" fill="#007CE6"/>
<path d="M15.2921 124.891L19.8458 126.409C20.4268 126.615 21.0452 126.297 21.2513 125.716L25.1117 114.191L26.7045 109.412L20.0707 107.201L19.115 110.012L14.5988 123.505C14.4114 124.086 14.73 124.704 15.2921 124.891Z" fill="#61B3FF"/>
<path d="M19.1133 110.012C20.4438 111.493 22.4302 113.217 25.1099 114.191L26.7028 109.412L20.069 107.201L19.1133 110.012Z" fill="#009EF3"/>
<path d="M19.6377 126.354L19.1879 127.665L13.4724 144.756C13.0976 145.899 11.8608 146.517 10.7177 146.142C9.57455 145.749 8.97488 144.531 9.34967 143.388L14.5218 127.909L15.515 124.967L19.6377 126.354Z" fill="#2A365C"/>
<path d="M19.6393 126.354L19.1896 127.665L14.5234 127.909L15.5166 124.967L19.6393 126.354Z" fill="#16162F"/>
<path fill-rule="evenodd" clip-rule="evenodd" d="M35.3622 72.8324C45.6502 76.3367 51.1597 87.5242 47.6554 97.831C44.1511 108.119 32.9636 113.628 22.6756 110.124C12.3688 106.62 6.85938 95.4323 10.3637 85.1443C13.868 74.8376 25.0555 69.3281 35.3622 72.8324ZM23.65 107.257C32.3452 110.218 41.8274 105.552 44.7882 96.8565C47.7491 88.1426 43.0829 78.6604 34.3878 75.6996C25.6739 72.7387 16.1917 77.4049 13.2308 86.1188C10.27 94.8139 14.9361 104.296 23.65 107.257Z" fill="#445279"/>
<path opacity="0.5" d="M12.3867 92.66C13.0238 101.824 21.0069 108.757 30.1893 108.12C30.9763 108.058 31.7446 107.945 32.4942 107.783C34.4431 107.371 36.2421 106.621 37.8725 105.609C39.559 104.541 41.0395 103.192 42.2388 101.617C44.1315 99.1439 45.3496 96.1455 45.6307 92.9036C45.6931 92.0541 45.6994 91.192 45.6494 90.3175C44.9935 81.1352 37.0105 74.2015 27.8468 74.8574C26.9723 74.9199 26.1165 75.0448 25.2795 75.2322C22.1125 75.963 19.3016 77.5746 17.1278 79.8047C15.7411 81.2101 14.598 82.8779 13.7922 84.6957C13.0051 86.4384 12.5179 88.3311 12.3867 90.3175C12.3242 91.0921 12.3242 91.8729 12.3867 92.66Z" fill="#FEFDFF"/>
<path opacity="0.5" d="M17.1289 79.8049L42.2399 101.618C44.1326 99.1441 45.3507 96.1458 45.6318 92.9038L25.2806 75.2324C22.1136 75.9633 19.3027 77.5749 17.1289 79.8049Z" fill="#FEFDFF"/>
<path opacity="0.5" d="M12.3867 90.3172L32.4943 107.782C34.4432 107.37 36.2422 106.621 37.8725 105.609L13.7922 84.6953C13.0051 86.4381 12.5179 88.3308 12.3867 90.3172Z" fill="#FEFDFF"/>
<path d="M123.699 136.584L123.475 140.351L126.548 140.426L126.923 136.453L123.699 136.584Z" fill="#FBA691"/>
<path d="M124.691 139.828C124.691 139.828 126.284 139.472 126.715 139.491C127.146 139.528 129.92 142.864 130.894 143.089C132.637 143.501 132.543 146.275 131.456 146.368C128.327 146.649 123.061 145.132 123.061 145.132C123.061 145.132 122.705 141.571 122.949 140.465C123.211 139.36 123.811 140.128 124.691 139.828Z" fill="#009EF3"/>
<path d="M127.166 142.955C127.11 142.955 127.054 142.955 126.998 142.918C126.904 142.843 126.885 142.712 126.96 142.618C126.979 142.581 127.541 141.812 128.197 141.569C129.078 141.25 129.678 141.794 129.715 141.812C129.79 141.887 129.809 142.037 129.715 142.112C129.64 142.206 129.509 142.206 129.415 142.131C129.396 142.112 128.984 141.737 128.347 141.981C127.804 142.168 127.298 142.862 127.298 142.862C127.26 142.918 127.223 142.937 127.166 142.955Z" fill="#FEFDFF"/>
<path d="M126.585 142.282C126.529 142.282 126.473 142.282 126.435 142.244C126.323 142.169 126.304 142.038 126.379 141.944C126.398 141.907 126.96 141.138 127.635 140.895C128.515 140.576 129.115 141.12 129.134 141.138C129.227 141.213 129.227 141.363 129.152 141.438C129.059 141.532 128.928 141.532 128.834 141.457C128.834 141.438 128.403 141.063 127.784 141.307C127.241 141.494 126.735 142.188 126.735 142.188C126.698 142.238 126.648 142.269 126.585 142.282Z" fill="#FEFDFF"/>
<path d="M127.971 143.537C127.915 143.556 127.859 143.537 127.802 143.5C127.709 143.425 127.69 143.294 127.765 143.2C127.784 143.163 128.346 142.413 129.002 142.151C129.901 141.832 130.501 142.376 130.52 142.394C130.613 142.488 130.613 142.619 130.52 142.713C130.445 142.788 130.314 142.788 130.22 142.713C130.201 142.694 129.789 142.338 129.152 142.563C128.608 142.769 128.121 143.444 128.102 143.444C128.084 143.5 128.027 143.519 127.971 143.537Z" fill="#FEFDFF"/>
<path d="M134.981 90.4868C134.981 90.4868 134.906 91.3863 134.793 92.8479C134.768 93.2352 134.737 93.6662 134.7 94.141C134.306 99.0882 133.538 108.027 132.694 114.361C131.514 123.262 127.803 137.86 127.803 137.86L123.981 137.729L123.606 137.71L122.688 137.692C122.688 137.692 123.325 128.453 124.149 120.414C124.674 115.129 124.992 102.611 125.161 94.7032C125.236 90.6179 125.274 87.7695 125.274 87.7695L134.981 90.4868Z" fill="#2A365C"/>
<path d="M134.98 90.4868C134.98 90.4868 134.905 91.3863 134.792 92.8479C134.767 93.2352 134.736 93.6662 134.699 94.141C132.937 94.4783 128.084 94.7032 125.16 94.7032C125.235 90.6179 125.273 87.7695 125.273 87.7695L134.98 90.4868Z" fill="#16162F"/>
<path d="M127.335 92.791C127.335 93.0908 126.979 121.894 123.98 137.728L123.605 137.71C126.604 121.931 126.96 93.0908 126.96 92.791H127.335Z" fill="#16162F"/>
<path d="M147.686 137.297L147.574 140.707L144.444 140.557L144.369 136.922L147.686 137.297Z" fill="#FBA691"/>
<path d="M146.769 140.559C146.769 140.559 147.444 139.679 147.987 139.716C148.512 139.772 152.541 143.07 153.946 143.37C155.333 143.651 155.052 144.682 154.79 145.207C154.527 145.713 143.621 144.832 143.621 144.832C143.621 144.832 143.377 141.59 143.752 140.597C144.127 139.604 145.682 140.784 146.769 140.559Z" fill="#009EF3"/>
<path d="M148.997 142.863C148.941 142.863 148.885 142.863 148.847 142.844C148.754 142.788 148.716 142.657 148.773 142.563C148.791 142.545 149.222 141.795 149.803 141.514C150.572 141.139 151.171 141.589 151.19 141.608C151.284 141.664 151.302 141.795 151.227 141.889C151.171 141.964 151.04 141.982 150.946 141.926C150.946 141.907 150.534 141.608 149.972 141.87C149.503 142.095 149.11 142.769 149.11 142.769C149.085 142.819 149.047 142.851 148.997 142.863Z" fill="#FEFDFF"/>
<path d="M148.417 142.301C148.361 142.319 148.305 142.301 148.267 142.282C148.174 142.226 148.136 142.095 148.192 142.001C148.211 141.982 148.661 141.232 149.223 140.951C150.01 140.577 150.591 141.026 150.61 141.045C150.704 141.12 150.722 141.232 150.647 141.326C150.591 141.401 150.46 141.42 150.385 141.364C150.366 141.345 149.954 141.045 149.411 141.307C148.923 141.551 148.53 142.207 148.53 142.207C148.505 142.257 148.467 142.288 148.417 142.301Z" fill="#FEFDFF"/>
<path d="M149.784 143.313C149.728 143.332 149.672 143.332 149.635 143.294C149.541 143.238 149.503 143.126 149.56 143.032C149.578 142.995 150.009 142.264 150.59 141.983C151.359 141.608 151.958 142.039 151.977 142.058C152.071 142.133 152.071 142.245 152.014 142.339C151.94 142.432 151.827 142.451 151.733 142.376C151.715 142.358 151.321 142.058 150.759 142.339C150.29 142.564 149.897 143.22 149.897 143.22C149.872 143.269 149.834 143.301 149.784 143.313Z" fill="#FEFDFF"/>
<path d="M148.267 138.197L145.082 137.954L144.707 137.935L143.939 137.879C143.939 137.879 141.99 119.345 141.39 114.398C140.865 110.107 138.41 100.474 136.799 94.4778C136.349 92.7725 135.974 91.3671 135.712 90.4488C135.525 89.7367 135.412 89.3244 135.412 89.3244L146.019 88.3125C146.019 88.3125 146.037 88.5374 146.094 88.9496C146.187 89.8117 146.393 91.4607 146.637 93.5221C147.293 99.144 148.305 107.895 148.68 112.355C149.692 123.805 148.267 138.197 148.267 138.197Z" fill="#2A365C"/>
<path d="M146.636 93.5217L136.798 94.4774C136.348 92.7721 135.973 91.3666 135.711 90.4484L146.093 88.9492C146.186 89.8112 146.392 91.4603 146.636 93.5217Z" fill="#16162F"/>
<path d="M145.082 137.954L144.708 137.935C144.52 132.201 143.958 117.884 142.815 111.812C141.372 104.167 138.055 93.0354 138.018 92.923L138.374 92.8105C138.411 92.923 141.747 104.073 143.19 111.756C144.333 117.847 144.914 132.239 145.082 137.954Z" fill="#16162F"/>
<path d="M145.419 61.8328C145.626 63.2196 145.832 64.5501 146.019 65.6557C146.319 67.4547 146.544 68.6915 146.544 68.6915L148.174 73.3389C148.736 74.9505 150.592 75.6626 152.072 74.8568C152.091 74.8381 152.128 74.8381 152.147 74.8193C152.69 74.3883 153.121 73.5825 153.515 71.6711C153.534 71.5212 154.977 64.4001 154.995 61.8328L151.697 61.533C151.547 61.2144 150.835 64.8686 150.685 64.5313C150.585 64.3189 150.485 64.1003 150.385 63.8754C150.211 63.4882 150.029 63.1009 149.842 62.7136C149.58 62.1327 149.299 61.5517 149.036 60.9708C147.012 56.642 144.876 52.0508 144.876 52.0508C144.183 52.4443 144.745 57.4103 145.419 61.8328Z" fill="#FBA691"/>
<path d="M145.418 61.8347C145.624 63.2214 145.83 64.5519 146.018 65.6575C147.929 64.9454 149.166 63.6337 149.841 62.6967C149.578 62.1345 149.297 61.5536 149.035 60.9727L145.418 61.8347Z" fill="#FD857D"/>
<path d="M149.785 70.1734C149.798 70.1734 149.81 70.1734 149.823 70.1734C149.917 70.1547 150.01 70.0797 150.01 69.986C150.235 67.4937 150.498 65.6572 150.685 64.5328C150.585 64.3205 150.485 64.1018 150.385 63.877C150.198 64.8514 149.86 66.9315 149.598 69.9486C149.579 70.061 149.673 70.1547 149.785 70.1734Z" fill="#FD857D"/>
<path d="M151.135 60.7085C151.135 60.7085 150.741 61.2519 150.029 61.8516C149.148 62.6012 147.518 63.5381 145.85 63.6506C144.257 58.6471 143.751 52.3319 144.238 50.6641C145.063 51.5636 149.242 56.567 151.135 60.7085Z" fill="#61B3FF"/>
<path d="M150.01 60.7835L150.066 60.8209L150.516 61.0833L150.628 60.8959L154.47 60.7835C154.807 60.7835 155.069 60.5211 155.088 60.2025L155.8 52.1445C155.8 52.1071 155.8 52.0696 155.8 52.0321L155.95 51.8072L155.482 51.5261H155.463V51.5074C155.363 51.4699 155.257 51.4512 155.144 51.4512L151.059 51.5636C150.741 51.5636 150.459 51.826 150.441 52.1445L149.729 60.2025C149.71 60.4462 149.822 60.671 150.01 60.7835Z" fill="#2A365C"/>
<path d="M150.854 61.1596L154.939 61.0471C155.277 61.0471 155.539 60.7848 155.558 60.4662L156.27 52.4082C156.307 52.0334 156.008 51.7148 155.614 51.7148L151.529 51.8273C151.21 51.8273 150.929 52.0896 150.91 52.4082L150.198 60.4662C150.161 60.841 150.479 61.1783 150.854 61.1596Z" fill="#445279"/>
<path d="M155.97 55.9293C156.344 55.9855 156.026 56.529 156.269 57.316C156.588 58.2905 154.976 62.282 154.976 62.282C153.402 62.9941 151.528 61.7386 151.528 61.7386C151.528 61.7386 151.135 58.7028 151.51 57.3348C151.51 57.3348 151.734 56.098 151.791 55.3859C151.866 54.6738 152.184 53.8492 152.409 53.9804C152.634 54.1303 152.69 54.7112 152.69 55.161C152.69 55.6107 152.784 56.454 152.784 56.454C152.784 56.454 152.915 55.4046 152.934 54.8237C152.952 54.2615 152.896 53.3433 153.252 53.1559C153.702 52.931 153.814 54.1491 153.871 54.5988C153.927 55.0486 153.758 56.4353 153.758 56.4353C153.758 56.4353 154.058 54.8799 153.983 54.4114C153.908 53.9617 153.814 53.0622 153.833 52.6874C153.852 52.2938 154.339 52.3688 154.489 52.8373C154.639 53.3058 154.808 54.2428 154.845 54.5613C154.901 54.9549 154.808 56.3041 154.808 56.3041C154.808 56.3041 154.995 54.7675 154.976 54.3739C154.976 54.0366 154.864 53.3995 154.995 53.0247C155.108 52.6312 155.557 52.5749 155.707 53.5681C155.857 54.5426 155.876 54.6738 155.838 54.9736C155.801 55.4983 155.707 56.0792 155.763 56.2854C155.801 56.3978 155.913 56.3978 155.913 56.3978L155.97 55.9293Z" fill="#FBA691"/>
<path d="M147.723 89.1192C139.834 91.649 131.813 92.1175 123.643 90.5809C123.493 88.3696 123.081 81.0612 122.762 73.378C122.75 73.1281 122.743 72.8782 122.743 72.6284C122.731 72.416 122.718 72.2099 122.706 72.01C122.706 71.86 122.7 71.7101 122.687 71.5602C122.687 71.4978 122.687 71.429 122.687 71.3541C122.675 71.1542 122.668 70.9543 122.668 70.7544C122.656 70.592 122.65 70.4233 122.65 70.2484C122.65 70.2235 122.65 70.2047 122.65 70.1922C122.65 70.1672 122.65 70.1423 122.65 70.1173C122.637 69.9424 122.625 69.7675 122.612 69.5926C122.612 69.5551 122.612 69.5239 122.612 69.4989C122.612 69.2865 122.606 69.0741 122.593 68.8617C122.593 68.7118 122.587 68.5681 122.575 68.4307C122.575 68.3682 122.575 68.312 122.575 68.2621C122.562 68.0996 122.556 67.9372 122.556 67.7748C122.556 67.7249 122.556 67.6749 122.556 67.6249C122.543 67.475 122.537 67.3251 122.537 67.1752C122.537 67.1127 122.537 67.0502 122.537 66.9878C122.525 66.7754 122.519 66.5693 122.519 66.3694C122.506 66.157 122.5 65.9508 122.5 65.751C122.5 65.626 122.494 65.4948 122.481 65.3574C122.481 65.0701 122.475 64.7827 122.462 64.4954C122.294 57.9178 122.312 52.5208 122.781 51.7713C123.886 50.066 129.19 47.3112 130.783 46.037L130.801 46.2993C130.801 46.2993 131.926 47.6111 133.106 47.4424C134.175 47.2925 134.905 45.9995 135.037 45.7559C135.899 46.2993 137.885 47.1238 139.796 48.0233C141.727 48.9228 143.6 49.8786 144.238 50.6656C144.8 51.3402 145.418 56.6061 145.98 63.0712V63.0899C145.993 63.2149 146.005 63.3398 146.018 63.4647C146.018 63.5647 146.024 63.6646 146.037 63.7646C146.037 63.8145 146.043 63.8708 146.055 63.9332C146.068 64.0706 146.074 64.2018 146.074 64.3267C146.099 64.5266 146.118 64.7328 146.13 64.9452C146.143 65.145 146.162 65.3512 146.187 65.5636C146.187 65.626 146.193 65.6885 146.205 65.751C146.218 65.9009 146.23 66.0508 146.243 66.2007C146.243 66.2507 146.243 66.2944 146.243 66.3319C146.255 66.4943 146.268 66.6567 146.28 66.8191L146.299 66.9878C146.311 67.1377 146.324 67.2814 146.336 67.4188C146.349 67.6312 146.361 67.8435 146.374 68.0559C146.386 68.0934 146.393 68.1246 146.393 68.1496C146.405 68.3245 146.418 68.5057 146.43 68.6931C146.43 68.7056 146.43 68.7243 146.43 68.7493C146.43 68.7743 146.43 68.7993 146.43 68.8242C146.455 68.9867 146.474 69.1491 146.486 69.3115C146.499 69.5114 146.511 69.7175 146.524 69.9299C146.524 69.9923 146.53 70.0548 146.543 70.1173C146.555 70.2672 146.561 70.4171 146.561 70.567C146.586 70.7669 146.605 70.973 146.618 71.1854C146.63 71.4353 146.649 71.6851 146.674 71.935C147.217 79.5807 147.63 86.8892 147.723 89.1192Z" fill="#61B3FF"/>
<path d="M146.207 65.7494L122.539 67.1736C122.539 67.1111 122.539 67.0486 122.539 66.9862C122.526 66.7738 122.52 66.5677 122.52 66.3678C122.507 66.1554 122.501 65.9493 122.501 65.7494C122.501 65.6244 122.495 65.4933 122.482 65.3558L146.057 63.9316C146.069 64.0691 146.076 64.2002 146.076 64.3252C146.1 64.5251 146.119 64.7312 146.132 64.9436C146.144 65.1435 146.163 65.3496 146.188 65.562C146.188 65.6244 146.194 65.6869 146.207 65.7494Z" fill="#009EF3"/>
<path d="M146.43 68.8228L122.649 70.247C122.649 70.222 122.649 70.2033 122.649 70.1908C122.649 70.1658 122.649 70.1408 122.649 70.1158C122.637 69.9409 122.624 69.766 122.612 69.5911C122.612 69.5536 122.612 69.5224 122.612 69.4974C122.612 69.285 122.605 69.0727 122.593 68.8603C122.593 68.7104 122.587 68.5667 122.574 68.4293L146.298 66.9863C146.311 67.1362 146.323 67.2799 146.336 67.4173C146.348 67.6297 146.361 67.8421 146.373 68.0545C146.386 68.092 146.392 68.1232 146.392 68.1482C146.405 68.3231 146.417 68.5042 146.43 68.6916C146.43 68.7041 146.43 68.7229 146.43 68.7478C146.43 68.7728 146.43 68.7978 146.43 68.8228Z" fill="#009EF3"/>
<path d="M146.674 71.9349L122.762 73.3779C122.75 73.128 122.744 72.8781 122.744 72.6283C122.731 72.4159 122.719 72.2098 122.706 72.0099C122.706 71.86 122.7 71.71 122.688 71.5601L146.543 70.1172C146.555 70.2671 146.562 70.417 146.562 70.5669C146.587 70.7668 146.605 70.973 146.618 71.1853C146.63 71.4352 146.649 71.6851 146.674 71.9349Z" fill="#009EF3"/>
<path d="M143.356 59.8648C144.106 60.7455 145.23 62.8069 145.736 63.7626C145.811 63.8875 145.874 63.9937 145.924 64.0812C145.98 64.1936 145.999 64.2498 146.017 64.2498C146.03 64.2873 146.049 64.3123 146.074 64.3248C146.061 64.1374 146.049 63.95 146.036 63.7626C146.024 63.6626 146.011 63.5627 145.999 63.4628C145.905 63.2566 145.774 63.0317 145.643 62.7881C145.062 61.7387 144.237 60.352 143.637 59.6211C143.581 59.5462 143.45 59.5274 143.375 59.6024C143.3 59.6586 143.281 59.7898 143.356 59.8648Z" fill="#009EF3"/>
<path d="M127.522 53.5516C127.535 53.5516 127.541 53.5516 127.541 53.5516C130.727 53.2705 133.107 51.7901 134.55 50.5907C136.105 49.3165 136.892 48.1171 136.93 48.0609C136.986 47.9672 136.967 47.8548 136.873 47.7986C136.798 47.7423 136.667 47.7798 136.611 47.8548C136.592 47.911 133.407 52.6334 127.504 53.1955C127.391 53.1955 127.316 53.2892 127.335 53.3829C127.335 53.4954 127.429 53.5703 127.522 53.5516Z" fill="#009EF3"/>
<path d="M141.296 85.109C141.408 85.0903 141.483 85.0153 141.483 84.9216C141.483 84.8092 141.39 84.7342 141.296 84.7342C136.03 84.6967 132.751 82.2419 130.914 80.1805C128.928 77.9318 128.178 75.6643 128.178 75.6455C128.141 75.5331 128.028 75.4956 127.935 75.5144C127.841 75.5518 127.785 75.6643 127.822 75.758C127.841 75.8517 128.591 78.1004 130.633 80.4054C132.507 82.5417 135.88 85.0715 141.296 85.109Z" fill="#009EF3"/>
<path d="M136.855 81.9801C136.948 81.9801 137.023 81.9239 137.042 81.8302C137.061 81.7365 136.986 81.6428 136.892 81.6241C132.263 80.6684 131.158 76.9205 131.139 76.883C131.12 76.7705 131.008 76.7143 130.914 76.7518C130.82 76.7705 130.764 76.883 130.783 76.9767C130.802 77.0141 131.083 77.9886 131.963 79.113C132.769 80.1249 134.287 81.4554 136.817 81.9801C136.83 81.9801 136.842 81.9801 136.855 81.9801Z" fill="#009EF3"/>
<path d="M124.767 60.372C124.13 61.3465 123.249 63.5202 122.856 64.5322C122.806 64.6696 122.762 64.782 122.725 64.8695C122.687 64.9819 122.65 65.0569 122.65 65.0569C122.631 65.1319 122.556 65.1693 122.481 65.1693C122.481 65.0819 122.481 64.9882 122.481 64.8882C122.419 64.9007 122.362 64.907 122.312 64.907C122.331 64.8508 122.387 64.7008 122.462 64.5134C122.556 64.2698 122.687 63.9325 122.837 63.5577C123.287 62.4521 123.943 60.9529 124.449 60.1659C124.505 60.0909 124.617 60.0722 124.711 60.1284C124.786 60.1659 124.824 60.297 124.767 60.372Z" fill="#009EF3"/>
<path d="M126.548 34.5502C126.548 34.5502 126.005 32.2078 126.529 31.3645C127.054 30.54 128.01 30.7086 128.947 29.7342C129.902 28.741 132.994 29.4531 134.306 29.1158C135.037 28.9471 135.824 29.0033 136.536 28.8159C137.548 28.5348 138.148 29.528 137.96 30.54C137.848 31.1958 137.586 32.1703 136.686 32.4701C136.686 32.4701 127.729 31.402 126.548 34.5502Z" fill="#2A365C"/>
<path d="M126.455 36.4408C126.661 39.8701 128.91 42.1001 132.32 41.894C135.75 41.6878 137.98 39.0081 137.774 35.5787C137.567 32.1681 135.375 29.6945 131.964 29.9007C127.86 30.1443 126.249 33.0302 126.455 36.4408Z" fill="#2A365C"/>
<path d="M127.317 37.8649C127.317 37.8649 126.286 36.6655 125.649 37.7524C124.993 38.8393 126.193 41.8751 127.861 41.0131L127.317 37.8649Z" fill="#FD857D"/>
<path d="M127.43 40.0757C127.373 40.0757 127.298 40.0382 127.28 39.982C126.961 39.0451 125.949 38.7077 125.931 38.7077C125.856 38.689 125.818 38.614 125.837 38.5203C125.856 38.4454 125.949 38.4079 126.024 38.4267C126.062 38.4454 127.186 38.8014 127.561 39.8883C127.58 39.9633 127.542 40.0382 127.467 40.0757C127.455 40.0757 127.442 40.0757 127.43 40.0757Z" fill="#F05B56"/>
<path d="M126.398 39.6652C126.373 39.6652 126.348 39.659 126.323 39.6465C126.248 39.609 126.229 39.5153 126.267 39.4404C126.267 39.4404 126.435 39.1593 126.791 38.9719C126.866 38.9344 126.941 38.9531 126.979 39.0281C127.016 39.103 126.998 39.1967 126.923 39.2342C126.642 39.3654 126.529 39.5903 126.529 39.5903C126.492 39.6277 126.454 39.6652 126.398 39.6652Z" fill="#F05B56"/>
<path d="M137.098 37.2863C137.098 37.2863 137.979 35.9557 138.747 36.9677C139.516 37.9609 138.71 41.1279 136.93 40.472L137.098 37.2863Z" fill="#FD857D"/>
<path d="M137.247 39.4965C137.304 39.4778 137.36 39.4403 137.378 39.3653C137.585 38.4096 138.559 37.9599 138.559 37.9411C138.634 37.9224 138.672 37.8287 138.634 37.7537C138.615 37.6788 138.522 37.6413 138.447 37.6788C138.409 37.6975 137.341 38.1847 137.097 39.3091C137.079 39.3841 137.135 39.459 137.21 39.4778C137.222 39.4903 137.235 39.4965 137.247 39.4965Z" fill="#F05B56"/>
<path d="M138.223 38.9536C138.248 38.9536 138.273 38.9411 138.298 38.9162C138.354 38.8787 138.373 38.785 138.336 38.71C138.317 38.71 138.13 38.4477 137.755 38.2977C137.68 38.279 137.586 38.3165 137.567 38.3914C137.53 38.4664 137.567 38.5601 137.642 38.5788C137.942 38.6913 138.092 38.8787 138.092 38.8787C138.13 38.9349 138.167 38.9536 138.223 38.9536Z" fill="#F05B56"/>
<path d="M134.887 43.2246L135.074 46.2979C135.074 46.2979 134.25 47.9282 133.032 48.0969C131.795 48.2843 130.596 46.8976 130.596 46.8976L130.408 43.7118L134.887 43.2246Z" fill="#FBA691"/>
<path d="M134.887 43.2246L134.981 44.5926C134.194 45.5671 132.732 45.8856 130.521 45.6982L130.408 43.7118L134.887 43.2246Z" fill="#FD857D"/>
<path d="M126.809 37.847C126.822 38.0219 126.847 38.1968 126.884 38.3717C126.959 38.8402 127.034 39.3087 127.147 39.7585C127.159 39.7835 127.166 39.8022 127.166 39.8147C127.709 42.0634 128.777 44.2372 130.82 44.8182C135.467 46.1674 136.835 42.1759 137.36 39.8709C137.41 39.621 137.454 39.34 137.491 39.0276C137.491 39.0276 137.497 39.0151 137.51 38.9902C137.547 38.6528 137.578 38.2968 137.603 37.922C137.616 37.6471 137.628 37.3723 137.641 37.0975C137.66 36.4041 137.66 35.7295 137.66 35.1298C137.641 33.7431 136.741 32.525 135.43 32.1127C133.518 31.5131 130.651 31.1008 128.084 32.7874C127.128 33.4058 126.566 34.4927 126.603 35.617C126.641 36.2542 126.697 37.0225 126.809 37.847Z" fill="#FBA691"/>
<path d="M130.426 37.9206C130.445 38.2579 130.295 38.5202 130.07 38.539C129.864 38.5577 129.677 38.2953 129.658 37.9768C129.639 37.6395 129.789 37.3584 130.014 37.3584C130.22 37.3396 130.407 37.602 130.426 37.9206Z" fill="#2A365C"/>
<path d="M135.056 37.6413C135.075 37.9786 134.925 38.2597 134.719 38.2597C134.512 38.2784 134.325 38.0161 134.306 37.6975C134.288 37.3602 134.437 37.0791 134.644 37.0791C134.85 37.0603 135.037 37.3227 135.056 37.6413Z" fill="#2A365C"/>
<path d="M135.581 35.5793C135.581 35.5793 134.363 35.1858 133.482 35.6355L133.595 36.1415C133.595 36.1415 134.944 35.9541 135.637 36.179C135.675 35.9728 135.675 35.7854 135.581 35.5793Z" fill="#2A365C"/>
<path d="M128.515 36.0099C128.515 36.0099 129.676 35.4664 130.613 35.8037L130.557 36.3284C130.557 36.3284 129.208 36.291 128.533 36.6095C128.477 36.4221 128.44 36.216 128.515 36.0099Z" fill="#2A365C"/>
<path d="M132.527 40.3211C132.283 40.3773 132.021 40.3211 131.983 40.3023C131.908 40.3023 131.852 40.2086 131.871 40.1337C131.89 40.0587 131.965 40.0025 132.039 40.0212C132.189 40.0587 132.508 40.0774 132.62 39.965C132.658 39.9463 132.677 39.9088 132.677 39.8338C132.639 39.3091 132.189 37.66 132.189 37.6413C132.152 37.5476 132.208 37.4726 132.283 37.4539C132.358 37.4352 132.452 37.4726 132.47 37.5663C132.489 37.6226 132.92 39.2529 132.958 39.7963C132.976 40.0025 132.902 40.1337 132.827 40.1899C132.733 40.2648 132.639 40.3023 132.527 40.3211Z" fill="#FD857D"/>
<path d="M130.578 41.3128C130.728 41.9124 131.197 42.9993 132.527 42.9244C133.876 42.8307 134.195 41.8 134.27 41.0879L130.578 41.3128Z" fill="#FEFDFF"/>
<path d="M137.641 37.2661L136.966 37.3036C137.004 36.6477 136.723 35.8606 136.479 35.3359C135.954 34.1366 136.891 33.5557 136.067 32.9935C135.261 32.4313 133.331 32.8061 131.982 32.8436C130.614 32.8811 128.44 33.031 127.915 33.1809C127.39 33.3308 127.746 34.1928 127.971 34.8675C128.215 35.5421 127.409 36.3479 127.315 37.06C127.278 37.2661 127.315 37.5659 127.372 37.8845L126.809 37.922C126.697 37.0787 126.641 36.2729 126.603 35.617C126.566 34.4927 127.128 33.4058 128.065 32.7874C130.651 31.1008 133.518 31.5131 135.43 32.1127C136.741 32.525 137.641 33.7431 137.66 35.1298C137.678 35.7857 137.66 36.5353 137.641 37.2661Z" fill="#2A365C"/>
<path fill-rule="evenodd" clip-rule="evenodd" d="M132.956 37.9977C132.9 37.042 133.631 36.2175 134.587 36.1612C135.561 36.105 136.386 36.8359 136.442 37.7916C136.498 38.7473 135.767 39.5906 134.811 39.6468C133.837 39.703 133.012 38.9722 132.956 37.9977ZM133.219 37.9977C133.275 38.8035 133.968 39.4219 134.793 39.3657C135.598 39.3282 136.217 38.6161 136.161 37.8103C136.123 37.0045 135.411 36.3861 134.605 36.4236C133.799 36.4798 133.181 37.1732 133.219 37.9977Z" fill="#FEFDFF"/>
<path fill-rule="evenodd" clip-rule="evenodd" d="M128.198 38.2958C128.142 37.34 128.873 36.4968 129.829 36.4405C130.784 36.3843 131.628 37.1152 131.684 38.0896C131.74 39.0453 131.009 39.8699 130.035 39.9261C129.079 39.9823 128.255 39.2515 128.198 38.2958ZM128.461 38.277C128.517 39.0828 129.21 39.7012 130.035 39.6637C130.841 39.6075 131.459 38.9142 131.403 38.0896C131.365 37.2838 130.653 36.6654 129.847 36.7216C129.042 36.7591 128.423 37.4712 128.461 38.277Z" fill="#FEFDFF"/>
<path d="M136.105 37.2481C136.143 37.2481 136.174 37.2356 136.199 37.2106C136.218 37.1919 136.949 36.3861 138.017 36.5547C138.092 36.5735 138.148 36.5172 138.167 36.4423C138.185 36.3861 138.129 36.3111 138.054 36.2924C136.855 36.0862 136.03 36.9857 135.993 37.0232C135.955 37.0794 135.955 37.1731 136.012 37.2106C136.037 37.2356 136.068 37.2481 136.105 37.2481Z" fill="#FEFDFF"/>
<path d="M128.421 37.7145C128.459 37.7145 128.515 37.6957 128.533 37.6395C128.571 37.5833 128.552 37.4896 128.477 37.4521C128.421 37.4334 127.147 36.7025 126.116 36.9461C126.041 36.9649 125.985 37.0398 126.004 37.1148C126.022 37.1898 126.097 37.2272 126.172 37.2085C127.109 37.0024 128.327 37.6957 128.346 37.6957C128.371 37.7082 128.396 37.7145 128.421 37.7145Z" fill="#FEFDFF"/>
<path d="M131.553 37.6969C131.572 37.6969 131.853 37.2284 132.284 37.2096C132.696 37.1909 133.015 37.6032 133.033 37.6032L133.24 37.4533C133.221 37.4158 132.827 36.9098 132.265 36.9473C131.703 36.966 131.347 37.5282 131.328 37.547L131.553 37.6969Z" fill="#FEFDFF"/>
<path d="M124.148 87.3395L122.611 89.4383C122.611 89.4383 121.712 88.8949 120.494 87.9204C120.494 87.9204 120.494 87.9142 120.494 87.9017C118.657 86.44 116.071 84.0039 114.741 81.1555C113.092 77.5949 113.579 74.7091 113.579 74.7091C113.804 72.5915 115.209 68.3001 116.352 65.1144C116.765 63.9526 117.139 62.9406 117.402 62.2285L120.831 63.0343L122.312 63.9338L121.749 65.433L117.945 75.5149C118.283 78.4757 119.782 81.3803 121.225 83.5729C122.705 85.8403 124.148 87.3395 124.148 87.3395Z" fill="#FBA691"/>
<path d="M124.15 87.3389L122.614 89.4377C122.614 89.4377 121.714 88.8943 120.496 87.9198C120.496 87.9198 120.496 87.9136 120.496 87.9011C120.234 86.327 120.384 84.0782 121.227 83.5723C122.708 85.8398 124.15 87.3389 124.15 87.3389Z" fill="#FD857D"/>
<path d="M123.324 84.92C123.624 84.9387 125.292 85.0137 125.104 84.4515C124.917 83.8331 123.287 83.1023 123.287 83.1023C123.287 83.1023 123.287 83.0648 123.287 83.0273L123.268 82.8961L123.212 81.5469C122.893 81.5469 122.612 81.6218 122.443 81.6593C121.731 81.8842 121.844 83.5145 121.844 83.5145C121.844 83.5145 120.944 83.8331 120.963 84.489C121 85.1449 121.731 85.2386 121.731 85.2386C121.731 85.2386 120.738 85.7258 120.963 86.288C121.206 86.8502 121.956 87.0188 121.956 87.0188C121.956 87.0188 121.094 87.5623 121.394 87.9558C121.694 88.3493 122.387 88.5555 122.387 88.5555C122.387 88.5555 121.787 89.3613 122.387 89.7923C122.987 90.2233 123.867 90.1296 124.448 89.9422C125.011 89.7361 124.917 89.0052 123.793 88.4805C123.793 88.4805 124.786 88.5929 125.273 87.7684C125.685 87.075 124.636 86.7939 123.736 86.6628C124.448 86.719 125.648 86.7002 125.854 86.0256C126.135 85.1449 123.699 84.9387 123.324 84.92Z" fill="#FBA691"/>
<path d="M122.313 63.9338L121.751 65.433C120.607 65.5079 118.565 65.5267 116.354 65.1144C116.766 63.9526 117.141 62.9406 117.403 62.2285L120.832 63.0343L122.313 63.9338Z" fill="#FD857D"/>
<path d="M122.782 51.7715C122.782 51.7715 118.603 55.9879 115.529 63.315C117.928 64.0834 120.195 64.6456 122.313 64.9079C122.594 64.4207 123.7 61.2724 124.524 59.005L122.782 51.7715Z" fill="#61B3FF"/>
</svg>
