<svg width="30" height="30" viewBox="0 0 30 30" fill="none" xmlns="http://www.w3.org/2000/svg">
<g clip-path="url(#clip0_1_7)">
<path d="M17.7484 15.0246L29.43 3.34281C30.1901 2.58295 30.1901 1.35432 29.43 0.594544C28.6701 -0.165321 27.4415 -0.165321 26.6817 0.594544L14.9999 12.2762L3.31844 0.594544C2.55821 -0.165321 1.33004 -0.165321 0.570172 0.594544C-0.190057 1.35441 -0.190057 2.58295 0.570172 3.34281L12.2515 15.0246L0.570263 26.7063C-0.189966 27.4662 -0.189966 28.6948 0.570263 29.4546C0.750507 29.6353 0.964691 29.7787 1.20051 29.8764C1.43633 29.9741 1.68913 30.0243 1.9444 30.024C2.44186 30.024 2.93951 29.8336 3.31853 29.4546L14.9999 17.7729L26.6817 29.4546C26.862 29.6353 27.0762 29.7786 27.312 29.8764C27.5478 29.9741 27.8006 30.0243 28.0559 30.024C28.5533 30.024 29.051 29.8336 29.43 29.4546C30.1901 28.6947 30.1901 27.4662 29.43 26.7063L17.7484 15.0246Z" fill="#010048"/>
</g>
<defs>
<clipPath id="clip0_1_7">
<rect width="30" height="30" fill="white"/>
</clipPath>
</defs>
</svg>
