<svg width="24" height="24" viewBox="0 0 24 24" fill="none" xmlns="http://www.w3.org/2000/svg">
<path fill-rule="evenodd" clip-rule="evenodd" d="M5.29279 5.29748C5.48031 5.11 5.73462 5.00469 5.99979 5.00469C6.26495 5.00469 6.51926 5.11 6.70679 5.29748L11.9998 10.5905L17.2928 5.29748C17.385 5.20197 17.4954 5.12578 17.6174 5.07337C17.7394 5.02097 17.8706 4.99338 18.0034 4.99223C18.1362 4.99107 18.2678 5.01637 18.3907 5.06665C18.5136 5.11693 18.6253 5.19119 18.7192 5.28508C18.8131 5.37897 18.8873 5.49063 18.9376 5.61352C18.9879 5.73642 19.0132 5.8681 19.012 6.00088C19.0109 6.13366 18.9833 6.26488 18.9309 6.38688C18.8785 6.50888 18.8023 6.61923 18.7068 6.71148L13.4138 12.0045L18.7068 17.2975C18.8889 17.4861 18.9897 17.7387 18.9875 18.0009C18.9852 18.2631 18.88 18.5139 18.6946 18.6993C18.5092 18.8847 18.2584 18.9899 17.9962 18.9921C17.734 18.9944 17.4814 18.8936 17.2928 18.7115L11.9998 13.4185L6.70679 18.7115C6.51818 18.8936 6.26558 18.9944 6.00339 18.9921C5.74119 18.9899 5.49038 18.8847 5.30497 18.6993C5.11956 18.5139 5.01439 18.2631 5.01211 18.0009C5.00983 17.7387 5.11063 17.4861 5.29279 17.2975L10.5858 12.0045L5.29279 6.71148C5.10532 6.52395 5 6.26964 5 6.00448C5 5.73931 5.10532 5.485 5.29279 5.29748Z" fill="white"/>
</svg>
