<svg width="20" height="20" viewBox="0 0 20 20" fill="none" xmlns="http://www.w3.org/2000/svg">
<path d="M19.555 8.58883C18.7928 7.05226 17.674 5.72038 16.2921 4.70445L18.2696 2.73401C18.4026 2.60103 18.4773 2.42065 18.4773 2.23258C18.4773 2.0445 18.4026 1.86413 18.2696 1.73114C18.1366 1.59815 17.9562 1.52344 17.7682 1.52344C17.5801 1.52344 17.3997 1.59815 17.2667 1.73114L1.72922 17.2686C1.66302 17.3343 1.61048 17.4124 1.57463 17.4985C1.53877 17.5845 1.52031 17.6768 1.52031 17.7701C1.52031 17.8633 1.53877 17.9556 1.57463 18.0417C1.61048 18.1277 1.66302 18.2059 1.72922 18.2715C1.79487 18.3377 1.87299 18.3903 1.95905 18.4261C2.04511 18.462 2.13742 18.4804 2.23066 18.4804C2.32389 18.4804 2.4162 18.462 2.50226 18.4261C2.58833 18.3903 2.66644 18.3377 2.73209 18.2715L4.92853 16.068C6.18901 16.7488 7.57373 17.1687 9.00004 17.3025C10.4264 17.4364 11.865 17.2815 13.2301 16.8471C14.5953 16.4127 15.8589 15.7077 16.9456 14.7742C18.0322 13.8407 18.9197 12.6979 19.555 11.4138C19.7687 10.9736 19.8797 10.4907 19.8797 10.0013C19.8797 9.51199 19.7687 9.02904 19.555 8.58883ZM12.4289 8.58883C12.7274 9.12554 12.8429 9.74492 12.7579 10.3532C12.6729 10.9614 12.392 11.5253 11.9577 11.9596C11.5234 12.3939 10.9595 12.6748 10.3512 12.7598C9.743 12.8449 9.12362 12.7294 8.58691 12.4308L12.4289 8.58883ZM18.2908 10.8135C17.2096 12.9978 15.3109 14.6678 13.0063 15.4611C10.7018 16.2544 8.17742 16.107 5.98084 15.051L7.54872 13.4831C8.2665 13.9851 9.12359 14.2494 9.99941 14.2388C11.1233 14.2388 12.2011 13.7924 12.9958 12.9977C13.7905 12.203 14.2369 11.1252 14.2369 10.0013C14.2392 9.12241 13.965 8.26504 13.453 7.55064L15.268 5.76383C16.5517 6.64657 17.5915 7.83939 18.2908 9.23151C18.4085 9.47609 18.4696 9.74403 18.4696 10.0155C18.4696 10.2869 18.4085 10.5548 18.2908 10.7994V10.8135ZM0.443844 11.4138C0.950335 12.4571 1.62297 13.4112 2.43547 14.2388C2.50086 14.3047 2.57857 14.357 2.66418 14.3928C2.74979 14.4286 2.84161 14.4472 2.93441 14.4476C3.02721 14.4479 3.11916 14.4299 3.20502 14.3947C3.29088 14.3595 3.36896 14.3077 3.43481 14.2424C3.50066 14.177 3.55299 14.0993 3.5888 14.0136C3.62462 13.928 3.64322 13.8362 3.64355 13.7434C3.64388 13.6506 3.62592 13.5587 3.59071 13.4728C3.55551 13.3869 3.50373 13.3089 3.43834 13.243C2.73565 12.5387 2.15135 11.7254 1.70803 10.8347C1.58588 10.5864 1.52236 10.3134 1.52236 10.0366C1.52236 9.75991 1.58588 9.48688 1.70803 9.23858C2.46629 7.68556 3.64561 6.37682 5.11158 5.46153C6.57754 4.54623 8.27117 4.06122 9.99941 4.06176C10.8885 4.06129 11.7731 4.18732 12.6267 4.43608C12.717 4.46652 12.8126 4.47836 12.9076 4.47087C13.0027 4.46338 13.0952 4.43673 13.1797 4.39252C13.2642 4.3483 13.3388 4.28744 13.3991 4.2136C13.4594 4.13977 13.5042 4.05448 13.5307 3.96289C13.5577 3.8734 13.5667 3.77943 13.5571 3.68643C13.5476 3.59344 13.5197 3.50326 13.475 3.42114C13.4303 3.33902 13.3698 3.26659 13.2969 3.20804C13.224 3.14949 13.1402 3.106 13.0504 3.08008C10.6368 2.36807 8.04942 2.53014 5.74353 3.53775C3.43764 4.54537 1.561 6.33397 0.443844 8.58883C0.230162 9.02904 0.119141 9.51199 0.119141 10.0013C0.119141 10.4907 0.230162 10.9736 0.443844 11.4138Z" fill="#F32B2B"/>
<path d="M9.99922 7.17497H10.2888C10.3811 7.18476 10.4744 7.17626 10.5634 7.14996C10.6524 7.12366 10.7353 7.08008 10.8075 7.0217C10.8796 6.96333 10.9396 6.8913 10.9839 6.80975C11.0282 6.72819 11.056 6.63871 11.0657 6.54641C11.0754 6.45411 11.0669 6.3608 11.0406 6.2718C11.0143 6.18279 10.9708 6.09984 10.9124 6.02769C10.854 5.95554 10.782 5.89561 10.7004 5.85131C10.6189 5.80701 10.5294 5.77922 10.4371 5.76953H9.99922C8.87536 5.76953 7.79754 6.21598 7.00285 7.01067C6.20817 7.80535 5.76172 8.88318 5.76172 10.007V10.4308C5.77929 10.6056 5.86138 10.7676 5.99197 10.8851C6.12257 11.0026 6.29228 11.0673 6.46797 11.0664H6.54566C6.63862 11.0567 6.72874 11.0287 6.8108 10.984C6.89286 10.9392 6.96522 10.8787 7.02369 10.8057C7.08215 10.7328 7.12557 10.649 7.15141 10.5592C7.17725 10.4694 7.185 10.3753 7.17422 10.2825V9.99997C7.17422 9.25073 7.47185 8.53218 8.00164 8.00239C8.53143 7.4726 9.24998 7.17497 9.99922 7.17497Z" fill="#F32B2B"/>
</svg>
