<svg width="18" height="18" viewBox="0 0 18 18" fill="none" xmlns="http://www.w3.org/2000/svg">
<g clip-path="url(#clip0_6131_1728)">
<path fill-rule="evenodd" clip-rule="evenodd" d="M7.45353 0.078125H10.5462C10.7448 0.078125 10.9177 0.0781251 11.0806 0.103745C11.3978 0.154567 11.6988 0.278932 11.9593 0.466892C12.2199 0.654851 12.4329 0.901186 12.5812 1.18619C12.6581 1.33259 12.712 1.49638 12.7752 1.68395L12.8767 1.99048C12.9468 2.2395 13.0992 2.45742 13.3091 2.60865C13.519 2.75988 13.774 2.83549 14.0324 2.82312H16.7774C16.9594 2.82312 17.1339 2.89543 17.2626 3.02412C17.3913 3.15282 17.4636 3.32737 17.4636 3.50937C17.4636 3.69138 17.3913 3.86593 17.2626 3.99463C17.1339 4.12332 16.9594 4.19562 16.7774 4.19562H1.22238C1.04038 4.19562 0.865828 4.12332 0.737131 3.99463C0.608434 3.86593 0.536133 3.69138 0.536133 3.50937C0.536133 3.32737 0.608434 3.15282 0.737131 3.02412C0.865828 2.89543 1.04038 2.82312 1.22238 2.82312H4.04973C4.29413 2.81726 4.53022 2.73325 4.72338 2.5834C4.91654 2.43355 5.0566 2.22575 5.12303 1.99048L5.22551 1.68395C5.28773 1.49638 5.34171 1.33259 5.41766 1.18619C5.56606 0.901075 5.77917 0.654669 6.0399 0.466703C6.30064 0.278737 6.60177 0.154433 6.91917 0.103745C7.08204 0.0781251 7.25498 0.078125 7.45262 0.078125H7.45353ZM6.2622 2.82312C6.32645 2.6973 6.38001 2.5663 6.42233 2.4315L6.51383 2.157C6.59709 1.90721 6.61631 1.85688 6.63552 1.82028C6.68492 1.72513 6.75592 1.64288 6.84284 1.58011C6.92975 1.51735 7.03017 1.47582 7.13603 1.45886C7.1772 1.45246 7.23119 1.45062 7.49471 1.45062H10.5051C10.7686 1.45062 10.8235 1.45245 10.8637 1.45977C10.9695 1.47664 11.0699 1.51803 11.1568 1.58063C11.2437 1.64323 11.3147 1.7253 11.3642 1.82028C11.3835 1.85688 11.4027 1.90721 11.4859 2.15792L11.5774 2.43242L11.6131 2.5349C11.6488 2.63463 11.6909 2.73071 11.7376 2.82312H6.2622Z" fill="#F32B2B"/>
<path d="M3.43232 5.75198C3.42018 5.57034 3.33639 5.40096 3.19937 5.2811C3.06235 5.16124 2.88333 5.10072 2.70169 5.11286C2.52005 5.12499 2.35067 5.20878 2.23081 5.3458C2.11095 5.48282 2.05043 5.66184 2.06256 5.84348L2.48712 12.2046C2.5649 13.3776 2.62803 14.3255 2.77626 15.0703C2.9309 15.8435 3.19259 16.4895 3.73427 16.9955C4.27503 17.5024 4.93749 17.7211 5.71982 17.8236C6.47195 17.9215 7.42172 17.9215 8.59841 17.9215H9.40269C10.5785 17.9215 11.5292 17.9215 12.2813 17.8236C13.0627 17.7211 13.7252 17.5024 14.2668 16.9955C14.8076 16.4895 15.0693 15.8426 15.2239 15.0703C15.3722 14.3264 15.4344 13.3776 15.5131 12.2046L15.9376 5.84348C15.9498 5.66184 15.8892 5.48282 15.7694 5.3458C15.6495 5.20878 15.4801 5.12499 15.2985 5.11286C15.1169 5.10072 14.9378 5.16124 14.8008 5.2811C14.6638 5.40096 14.58 5.57034 14.5679 5.75198L14.147 12.0655C14.0646 13.298 14.0061 14.1563 13.878 14.8013C13.7526 15.4281 13.5788 15.7593 13.329 15.9936C13.0782 16.2278 12.736 16.3797 12.1029 16.4621C11.4505 16.5472 10.5904 16.549 9.3542 16.549H8.64599C7.41074 16.549 6.55064 16.5472 5.89733 16.4621C5.26415 16.3797 4.92194 16.2278 4.67123 15.9936C4.42143 15.7593 4.24758 15.4281 4.12223 14.8013C3.99413 14.1563 3.93557 13.298 3.85322 12.0655L3.43232 5.75198Z" fill="#F32B2B"/>
<path d="M6.64375 7.40186C6.82478 7.38372 7.0056 7.4382 7.14646 7.55333C7.28733 7.66846 7.37671 7.83481 7.39497 8.01583L7.85247 12.5908C7.86587 12.7693 7.809 12.946 7.69398 13.0832C7.57896 13.2203 7.4149 13.3071 7.23679 13.325C7.05869 13.3429 6.88064 13.2905 6.74061 13.179C6.60059 13.0675 6.50969 12.9057 6.48729 12.7281L6.02979 8.15307C6.01165 7.97205 6.06613 7.79123 6.18126 7.65037C6.29639 7.5095 6.46274 7.42012 6.64375 7.40186ZM11.356 7.40186C11.5368 7.42012 11.703 7.50938 11.8181 7.65004C11.9333 7.79071 11.9879 7.97129 11.97 8.15216L11.5125 12.7272C11.4898 12.9044 11.3988 13.0658 11.259 13.1771C11.1191 13.2883 10.9414 13.3406 10.7636 13.3229C10.5858 13.3051 10.4219 13.2187 10.3068 13.082C10.1917 12.9453 10.1345 12.7691 10.1473 12.5908L10.6048 8.01583C10.6231 7.83499 10.7123 7.66878 10.853 7.55368C10.9936 7.43858 11.1751 7.38398 11.356 7.40186Z" fill="#F32B2B"/>
</g>
<defs>
<clipPath id="clip0_6131_1728">
<rect width="18" height="18" fill="white"/>
</clipPath>
</defs>
</svg>
