<svg width="20" height="20" viewBox="0 0 20 20" fill="none" xmlns="http://www.w3.org/2000/svg">
<g clip-path="url(#clip0_14_92815)">
<path d="M3.30339 16.2825H3.40514L6.11539 16.0328C6.49464 15.9958 6.84614 15.8293 7.11439 15.561L17.3449 5.33053C17.8259 4.84953 18.0941 4.21128 18.0941 3.53603C18.0941 2.86078 17.8259 2.22253 17.3449 1.74153L16.6881 1.08478C15.7261 0.122781 14.0519 0.122781 13.0899 1.08478L11.7856 2.38903L2.86864 11.306C2.60039 11.5743 2.43389 11.9258 2.40614 12.305L2.15639 15.0153C2.12864 15.3575 2.24889 15.6905 2.48939 15.9403C2.71139 16.1623 2.99814 16.2825 3.30339 16.2825ZM14.8936 1.72303C15.1896 1.72303 15.4856 1.83403 15.7076 2.06528L16.3644 2.72203C16.4725 2.82827 16.5583 2.95496 16.6169 3.09471C16.6755 3.23447 16.7056 3.38449 16.7056 3.53603C16.7056 3.68757 16.6755 3.83759 16.6169 3.97735C16.5583 4.11711 16.4725 4.2438 16.3644 4.35003L15.5504 5.16403L13.2656 2.87928L14.0796 2.06528C14.3016 1.84328 14.5976 1.72303 14.8936 1.72303ZM3.78439 12.4345C3.78439 12.379 3.81214 12.3328 3.84914 12.2958L12.2759 3.85978L14.5606 6.14453L6.13389 14.5713C6.13389 14.5713 6.04139 14.636 5.99514 14.636L3.56239 14.858L3.78439 12.4253V12.4345ZM19.9441 19.2333C19.9441 19.6125 19.6296 19.927 19.2504 19.927H0.750391C0.371141 19.927 0.0566406 19.6125 0.0566406 19.2333C0.0566406 18.854 0.371141 18.5395 0.750391 18.5395H19.2504C19.6296 18.5395 19.9441 18.854 19.9441 19.2333Z" fill="#010048"/>
</g>
<defs>
<clipPath id="clip0_14_92815">
<rect width="20" height="20" fill="white"/>
</clipPath>
</defs>
</svg>
