<svg width="20" height="19" viewBox="0 0 20 19" fill="none" xmlns="http://www.w3.org/2000/svg">
<path d="M9.69049 6.26709C9.90051 6.26709 10.1017 6.35335 10.2503 6.50658C10.3989 6.65982 10.4821 6.86811 10.4821 7.08516V11.9943C10.4821 12.2113 10.3986 12.4193 10.2503 12.5729C10.1021 12.7264 9.90051 12.8124 9.69049 12.8124C9.48047 12.8124 9.27927 12.7261 9.13066 12.5729C8.98205 12.4196 8.89893 12.2113 8.89893 11.9943V7.08516C8.89893 6.86811 8.98239 6.66017 9.13066 6.50658C9.27893 6.353 9.48047 6.26709 9.69049 6.26709Z" fill="#EA4738"/>
<path d="M9.69049 15.267C9.90051 15.267 10.1017 15.1807 10.2503 15.0275C10.3989 14.8743 10.4821 14.666 10.4821 14.4489C10.4821 14.2319 10.3986 14.0239 10.2503 13.8704C10.1021 13.7168 9.90051 13.6309 9.69049 13.6309C9.48047 13.6309 9.27927 13.7171 9.13066 13.8704C8.98205 14.0236 8.89893 14.2319 8.89893 14.4489C8.89893 14.666 8.98239 14.8739 9.13066 15.0275C9.27893 15.1811 9.48047 15.267 9.69049 15.267Z" fill="#EA4738"/>
<path d="M10.0934 0.653513C9.97128 0.579174 9.83217 0.539551 9.69035 0.539551C9.54852 0.539551 9.40941 0.578824 9.28761 0.653513C9.16546 0.727851 9.06537 0.83515 8.99683 0.963489L0.288572 17.327C0.222071 17.4515 0.188481 17.5917 0.190517 17.7341C0.192553 17.8761 0.230553 18.0153 0.300448 18.1377C0.370342 18.2601 0.470093 18.3614 0.589524 18.4319C0.708955 18.5024 0.843993 18.5396 0.981745 18.5396H18.3986C18.5364 18.5396 18.6714 18.5024 18.7908 18.4319C18.9103 18.3614 19.01 18.2601 19.0799 18.1377C19.1498 18.0153 19.1878 17.8761 19.1898 17.7341C19.1919 17.5921 19.1583 17.4518 19.0918 17.327L10.3839 0.963489C10.3157 0.83515 10.2152 0.728201 10.0934 0.653513ZM9.69035 3.05548L17.0601 16.9034H2.32059L9.69035 3.05548Z" fill="#EA4738"/>
</svg>
