<svg width="20" height="20" viewBox="0 0 20 20" fill="none" xmlns="http://www.w3.org/2000/svg">
<path d="M17.9785 9.78006L9.45212 1.25391L0.925781 9.78006H2.82052V16.4115C2.82052 16.914 3.02015 17.3959 3.37548 17.7513C3.73081 18.1066 4.21275 18.3062 4.71527 18.3062H9.16791" stroke="black" stroke-width="1.5" stroke-linecap="round" stroke-linejoin="round"/>
<path d="M6.61035 18.3073V12.6232C6.61035 12.1207 6.80998 11.6388 7.16531 11.2835C7.52064 10.9281 8.00258 10.7285 8.50509 10.7285H10.3998M17.2209 17.5494L18.9262 19.2547M12.2946 15.4653C12.2946 16.219 12.594 16.9419 13.127 17.4749C13.66 18.0079 14.3829 18.3073 15.1367 18.3073C15.8905 18.3073 16.6134 18.0079 17.1464 17.4749C17.6794 16.9419 17.9788 16.219 17.9788 15.4653C17.9788 14.7115 17.6794 13.9886 17.1464 13.4556C16.6134 12.9226 15.8905 12.6232 15.1367 12.6232C14.3829 12.6232 13.66 12.9226 13.127 13.4556C12.594 13.9886 12.2946 14.7115 12.2946 15.4653Z" stroke="black" stroke-width="1.5" stroke-linecap="round" stroke-linejoin="round"/>
</svg>
