<svg width="20" height="20" viewBox="0 0 20 20" fill="none" xmlns="http://www.w3.org/2000/svg">
<g clip-path="url(#clip0_14_92054)">
<path d="M11.3357 14.0913C11.1312 14.1104 10.9259 14.0642 10.7493 13.9595C10.6856 13.8941 10.6374 13.8152 10.6083 13.7286C10.5792 13.6421 10.5699 13.5501 10.5811 13.4595C10.5859 13.3067 10.6041 13.1546 10.6357 13.0049C10.6662 12.8333 10.7056 12.6634 10.7538 12.4958L11.2902 10.6504C11.3455 10.4682 11.3821 10.2809 11.3993 10.0913C11.3993 9.88674 11.4266 9.74581 11.4266 9.66401C11.4322 9.48405 11.3971 9.30514 11.3239 9.14064C11.2507 8.97614 11.1413 8.8303 11.0038 8.71401C10.6613 8.45104 10.2347 8.32178 9.80383 8.35038C9.49503 8.35502 9.18865 8.40558 8.89473 8.50038C8.57352 8.60038 8.23563 8.72007 7.88109 8.85948L7.72656 9.45948C7.83109 9.42311 7.9584 9.38221 8.10383 9.33675C8.24257 9.29564 8.3864 9.27422 8.53109 9.27311C8.73407 9.25111 8.93834 9.30097 9.10836 9.41401C9.1655 9.4822 9.20825 9.56125 9.23403 9.6464C9.25981 9.73156 9.26809 9.82104 9.25836 9.90948C9.25785 10.0623 9.24109 10.2147 9.20836 10.364C9.17652 10.5231 9.13563 10.6913 9.08563 10.8685L8.54473 12.7231C8.50113 12.8955 8.46625 13.0699 8.4402 13.2458C8.41895 13.3964 8.40831 13.5483 8.40836 13.7003C8.40726 13.8815 8.44766 14.0604 8.52645 14.2235C8.60524 14.3866 8.72033 14.5295 8.86289 14.6412C9.21072 14.9083 9.64334 15.0407 10.0811 15.014C10.3893 15.0203 10.6964 14.9758 10.9902 14.8821C11.2477 14.7942 11.5917 14.6685 12.022 14.5049L12.1675 13.9321C12.0509 13.9805 11.9309 14.02 11.8084 14.0503C11.6534 14.0857 11.4944 14.0995 11.3357 14.0913ZM11.9038 5.34132C11.6564 5.11412 11.3305 4.9919 10.9947 5.00042C10.6591 4.99285 10.3335 5.11495 10.0856 5.34132C9.63125 5.73311 9.58051 6.41909 9.97234 6.8735C10.0073 6.91401 10.0451 6.95187 10.0856 6.98678C10.6033 7.44979 11.3862 7.44979 11.9038 6.98678C12.3582 6.59112 12.4058 5.90206 12.0101 5.44768C11.9772 5.40981 11.9417 5.37427 11.9038 5.34132Z" fill="#0D1520"/>
<path d="M10 0C4.47715 0 0 4.47715 0 10C0 15.5229 4.47715 20 10 20C15.5229 20 20 15.5229 20 10C20 4.47715 15.5229 0 10 0ZM10 19.0909C4.97922 19.0909 0.909102 15.0208 0.909102 10C0.909102 4.97922 4.97922 0.909102 10 0.909102C15.0208 0.909102 19.0909 4.97922 19.0909 10C19.0909 15.0208 15.0208 19.0909 10 19.0909Z" fill="#0D1520"/>
</g>
<defs>
<clipPath id="clip0_14_92054">
<rect width="20" height="20" fill="white"/>
</clipPath>
</defs>
</svg>
