<svg width="62" height="62" viewBox="0 0 62 62" fill="none" xmlns="http://www.w3.org/2000/svg">
<path d="M30.625 0C38.7473 0 46.5368 3.22655 52.2801 8.96985C58.0234 14.7132 61.25 22.5027 61.25 30.625C61.25 38.7473 58.0234 46.5368 52.2801 52.2801C46.5368 58.0234 38.7473 61.25 30.625 61.25C22.5027 61.25 14.7132 58.0234 8.96985 52.2801C3.22655 46.5368 0 38.7473 0 30.625C0 22.5027 3.22655 14.7132 8.96985 8.96985C14.7132 3.22655 22.5027 0 30.625 0ZM30.625 56.875C37.5869 56.875 44.2637 54.1094 49.1866 49.1866C54.1094 44.2637 56.875 37.5869 56.875 30.625C56.875 23.6631 54.1094 16.9863 49.1866 12.0634C44.2637 7.14062 37.5869 4.375 30.625 4.375C23.6631 4.375 16.9863 7.14062 12.0634 12.0634C7.14062 16.9863 4.375 23.6631 4.375 30.625C4.375 37.5869 7.14062 44.2637 12.0634 49.1866C16.9863 54.1094 23.6631 56.875 30.625 56.875ZM33.9062 44.8438C33.9062 45.714 33.5605 46.5486 32.9452 47.1639C32.3298 47.7793 31.4952 48.125 30.625 48.125C29.7548 48.125 28.9202 47.7793 28.3048 47.1639C27.6895 46.5486 27.3438 45.714 27.3438 44.8438C27.3438 43.9735 27.6895 43.1389 28.3048 42.5236C28.9202 41.9082 29.7548 41.5625 30.625 41.5625C31.4952 41.5625 32.3298 41.9082 32.9452 42.5236C33.5605 43.1389 33.9062 43.9735 33.9062 44.8438ZM30.625 13.125C31.2052 13.125 31.7616 13.3555 32.1718 13.7657C32.582 14.1759 32.8125 14.7323 32.8125 15.3125V35C32.8125 35.5802 32.582 36.1366 32.1718 36.5468C31.7616 36.957 31.2052 37.1875 30.625 37.1875C30.0448 37.1875 29.4884 36.957 29.0782 36.5468C28.668 36.1366 28.4375 35.5802 28.4375 35V15.3125C28.4375 14.7323 28.668 14.1759 29.0782 13.7657C29.4884 13.3555 30.0448 13.125 30.625 13.125Z" fill="#010048" fill-opacity="0.5"/>
</svg>
