<svg width="22" height="23" viewBox="0 0 22 23" fill="none" xmlns="http://www.w3.org/2000/svg">
<g clip-path="url(#clip0_4305_761)">
<path fill-rule="evenodd" clip-rule="evenodd" d="M11.0164 0.170654C7.20677 0.170654 4.10938 3.29568 4.10938 7.15029C4.10938 8.45596 4.68445 10.0758 5.52147 11.6915C7.36435 15.2494 10.4341 18.8328 10.4341 18.8328C10.5062 18.9167 10.5955 18.984 10.696 19.0302C10.7965 19.0764 10.9058 19.1003 11.0164 19.1003C11.1269 19.1003 11.2362 19.0764 11.3367 19.0302C11.4372 18.984 11.5265 18.9167 11.5986 18.8328C11.5986 18.8328 14.6684 15.2494 16.5112 11.6915C17.3483 10.0758 17.9233 8.45596 17.9233 7.15029C17.9233 3.29568 14.8259 0.170654 11.0164 0.170654ZM11.0164 4.26368C10.2832 4.28345 9.58668 4.5886 9.07511 5.11416C8.56353 5.63972 8.27727 6.3442 8.27727 7.07764C8.27727 7.81107 8.56353 8.51555 9.07511 9.04111C9.58668 9.56667 10.2832 9.87182 11.0164 9.89159C11.7495 9.87182 12.446 9.56667 12.9576 9.04111C13.4692 8.51555 13.7554 7.81107 13.7554 7.07764C13.7554 6.3442 13.4692 5.63972 12.9576 5.11416C12.446 4.5886 11.7495 4.28345 11.0164 4.26368Z" fill="#0D1520"/>
<path fill-rule="evenodd" clip-rule="evenodd" d="M15.9113 16.6726C16.7432 16.9223 17.4287 17.2313 17.9025 17.5935C18.2095 17.8268 18.4346 18.055 18.4346 18.3333C18.4346 18.4971 18.3415 18.6454 18.2105 18.7938C17.9936 19.0384 17.6713 19.2584 17.2722 19.463C15.8621 20.1844 13.5823 20.6357 11.016 20.6357C8.44967 20.6357 6.16985 20.1844 4.7598 19.463C4.36073 19.2584 4.03841 19.0384 3.82148 18.7938C3.6905 18.6454 3.59738 18.4971 3.59738 18.3333C3.59738 18.055 3.8225 17.8268 4.12948 17.5935C4.60325 17.2313 5.28883 16.9223 6.12074 16.6726C6.31572 16.614 6.47944 16.4803 6.57587 16.301C6.6723 16.1216 6.69354 15.9114 6.63492 15.7164C6.5763 15.5214 6.44262 15.3577 6.2633 15.2612C6.08397 15.1648 5.87368 15.1436 5.67869 15.2022C4.4119 15.5839 3.42752 16.1067 2.83608 16.6849C2.31627 17.1914 2.0625 17.7583 2.0625 18.3333C2.0625 19.0517 2.46873 19.768 3.2945 20.3655C4.74343 21.4134 7.65357 22.1706 11.016 22.1706C14.3784 22.1706 17.2886 21.4134 18.7375 20.3655C19.5633 19.768 19.9695 19.0517 19.9695 18.3333C19.9695 17.7583 19.7157 17.1914 19.1959 16.6849C18.6045 16.1067 17.6201 15.5839 16.3533 15.2022C16.2568 15.1732 16.1554 15.1634 16.0551 15.1736C15.9548 15.1837 15.8575 15.2135 15.7687 15.2612C15.6799 15.309 15.6014 15.3738 15.5376 15.4518C15.4738 15.5299 15.4261 15.6198 15.3971 15.7164C15.368 15.8129 15.3583 15.9142 15.3684 16.0145C15.3786 16.1149 15.4084 16.2122 15.4561 16.301C15.5039 16.3898 15.5686 16.4683 15.6467 16.5321C15.7248 16.5958 15.8147 16.6436 15.9113 16.6726Z" fill="#0D1520"/>
</g>
<defs>
<clipPath id="clip0_4305_761">
<rect width="22" height="22" fill="#0D1520" transform="translate(0 0.170654)"/>
</clipPath>
</defs>
</svg>
