<svg width="46" height="46" viewBox="0 0 46 46" fill="none" xmlns="http://www.w3.org/2000/svg">
<rect x="0.5" y="0.5" width="45" height="45" rx="22.5" stroke="#010048"/>
<g clip-path="url(#clip0_764_1210)">
<path d="M30.9554 27.3121C29.6263 26.1754 28.2776 25.4869 26.9649 26.6219L26.181 27.3078C25.6075 27.8058 24.5412 30.1324 20.4185 25.3899C16.2967 20.6533 18.7495 19.9158 19.3239 19.4222L20.112 18.7353C21.4179 17.5978 20.9251 16.1657 19.9833 14.6916L19.4149 13.7988C18.4688 12.3281 17.4385 11.3622 16.1293 12.4981L15.4218 13.1162C14.8432 13.5378 13.2257 14.908 12.8334 17.5111C12.3612 20.6344 13.8507 24.2111 17.2634 28.1355C20.6718 32.0615 24.0089 34.0336 27.1701 33.9993C29.7972 33.9709 31.3838 32.5612 31.88 32.0487L32.59 31.4297C33.8958 30.2947 33.0845 29.1391 31.7547 27.9998L30.9554 27.3121Z" fill="#010048"/>
</g>
<defs>
<clipPath id="clip0_764_1210">
<rect width="22" height="22" fill="#010048" transform="translate(12 12)"/>
</clipPath>
</defs>
</svg>
