<svg width="20" height="20" viewBox="0 0 20 20" fill="none" xmlns="http://www.w3.org/2000/svg">
<path d="M9.99958 4.44448C11.2269 4.44448 12.2218 3.44955 12.2218 2.22224C12.2218 0.994931 11.2269 0 9.99958 0C8.77227 0 7.77734 0.994931 7.77734 2.22224C7.77734 3.44955 8.77227 4.44448 9.99958 4.44448Z" fill="#010048"/>
<path d="M9.99958 12.2218C11.2269 12.2218 12.2218 11.2269 12.2218 9.99958C12.2218 8.77227 11.2269 7.77734 9.99958 7.77734C8.77227 7.77734 7.77734 8.77227 7.77734 9.99958C7.77734 11.2269 8.77227 12.2218 9.99958 12.2218Z" fill="#010048"/>
<path d="M9.99958 19.9992C11.2269 19.9992 12.2218 19.0042 12.2218 17.7769C12.2218 16.5496 11.2269 15.5547 9.99958 15.5547C8.77227 15.5547 7.77734 16.5496 7.77734 17.7769C7.77734 19.0042 8.77227 19.9992 9.99958 19.9992Z" fill="#010048"/>
</svg>
