<svg width="22" height="23" viewBox="0 0 22 23" fill="none" xmlns="http://www.w3.org/2000/svg">
<g clip-path="url(#clip0_4305_749)">
<path d="M18.9554 15.4825C17.6263 14.3458 16.2776 13.6573 14.9649 14.7923L14.181 15.4782C13.6075 15.9762 12.5412 18.3028 8.41853 13.5603C4.2967 8.82372 6.74954 8.08624 7.3239 7.59258L8.11203 6.90575C9.41787 5.76819 8.92507 4.33615 7.98325 2.86205L7.4149 1.96917C6.46879 0.498496 5.43855 -0.467357 4.12928 0.668486L3.42185 1.28663C2.84319 1.70817 1.22571 3.0784 0.833357 5.68148C0.361162 8.80483 1.85072 12.3815 5.26341 16.3059C8.6718 20.2319 12.0089 22.204 15.1701 22.1697C17.7972 22.1413 19.3838 20.7316 19.88 20.2191L20.59 19.6001C21.8958 18.4651 21.0845 17.3095 19.7547 16.1702L18.9554 15.4825Z" fill="white"/>
</g>
<defs>
<clipPath id="clip0_4305_749">
<rect width="22" height="22" fill="white" transform="translate(0 0.170654)"/>
</clipPath>
</defs>
</svg>
