<svg width="20" height="20" viewBox="0 0 20 20" fill="none" xmlns="http://www.w3.org/2000/svg">
<path d="M9.16667 1.66663V11.6666C9.16667 14.425 8.59167 15 5.83333 15H2.5M4.16667 9.99996H9.16667" stroke="black" stroke-width="1.2" stroke-linejoin="round"/>
<path d="M14.5834 13.3333H15.4167M14.5834 15.8333H15.4167M11.6667 18.3333V4.16663C11.6667 2.98746 11.6667 2.39829 11.3159 2.03329C10.9659 1.66663 10.4009 1.66663 9.27256 1.66663H8.73673C7.92506 1.66663 7.51839 1.66663 7.20839 1.89246C6.89923 2.11996 6.76089 2.51913 6.48506 3.31663L2.06506 16.1008C1.71339 17.1166 1.53756 17.6241 1.77589 17.9791C2.01423 18.3333 2.53173 18.3333 3.56589 18.3333H11.6667ZM11.6667 18.3333H16.6667C17.4526 18.3333 17.8451 18.3333 18.0892 18.0891C18.3334 17.845 18.3334 17.4525 18.3334 16.6666V14.0916C18.3334 12.3208 18.3334 11.435 17.8476 10.7741C17.3617 10.1133 16.5167 9.84913 14.8251 9.31996L11.6667 8.33329" stroke="black" stroke-width="1.2" stroke-linecap="round" stroke-linejoin="round"/>
</svg>
