<svg width="30" height="30" viewBox="0 0 30 30" fill="none" xmlns="http://www.w3.org/2000/svg">
<g clip-path="url(#clip0_14_92100)">
<mask id="path-1-outside-1_14_92100" maskUnits="userSpaceOnUse" x="-1.04688" y="-0.417969" width="32" height="31" fill="black">
<rect fill="white" x="-1.04688" y="-0.417969" width="32" height="31"/>
<path fill-rule="evenodd" clip-rule="evenodd" d="M22.295 6.22618C22.2951 6.28219 22.2841 6.33765 22.2626 6.3894C22.2412 6.44115 22.2098 6.48817 22.1702 6.52778C22.1306 6.56738 22.0836 6.59878 22.0318 6.6202C21.9801 6.64161 21.9246 6.65261 21.8686 6.65257H21.1858C21.0727 6.65257 20.9642 6.60765 20.8842 6.52769C20.8042 6.44773 20.7593 6.33927 20.7593 6.22618C20.7594 5.99101 20.9505 5.79979 21.1857 5.79979H21.8686C21.9817 5.7998 22.0902 5.84473 22.1701 5.92469C22.2501 6.00465 22.295 6.1131 22.295 6.22618ZM18.1247 6.22618C18.1247 6.17018 18.1357 6.11474 18.1571 6.063C18.1785 6.01126 18.2099 5.96425 18.2495 5.92465C18.2891 5.88505 18.3361 5.85364 18.3878 5.8322C18.4396 5.81077 18.495 5.79973 18.551 5.79972H19.234C19.4697 5.79972 19.6603 5.99101 19.6603 6.22611C19.6604 6.28213 19.6494 6.33761 19.628 6.38937C19.6066 6.44113 19.5751 6.48816 19.5355 6.52777C19.4959 6.56738 19.4489 6.59879 19.3971 6.62021C19.3454 6.64162 19.2899 6.65262 19.2339 6.65257H18.5511C18.4951 6.65263 18.4396 6.64164 18.3878 6.62023C18.3361 6.59882 18.289 6.56742 18.2494 6.52781C18.2098 6.4882 18.1784 6.44118 18.157 6.38942C18.1356 6.33766 18.1246 6.28219 18.1247 6.22618ZM19.2339 8.84139H18.5511C18.4951 8.84143 18.4396 8.83043 18.3878 8.80902C18.3361 8.7876 18.289 8.7562 18.2494 8.7166C18.2098 8.677 18.1784 8.62998 18.157 8.57823C18.1355 8.52648 18.1245 8.47101 18.1245 8.415C18.1245 8.35899 18.1355 8.30352 18.1569 8.25177C18.1784 8.20002 18.2098 8.153 18.2494 8.1134C18.289 8.07379 18.336 8.04239 18.3878 8.02098C18.4395 7.99956 18.495 7.98856 18.551 7.98861H19.234C19.4697 7.98861 19.6603 8.17926 19.6603 8.415C19.6604 8.471 19.6494 8.52646 19.6279 8.57821C19.6065 8.62996 19.5751 8.67697 19.5355 8.71657C19.4959 8.75617 19.4489 8.78758 19.3972 8.809C19.3454 8.83041 19.2899 8.84142 19.2339 8.84139ZM22.295 8.41493C22.2951 8.47095 22.2841 8.52641 22.2626 8.57817C22.2412 8.62992 22.2098 8.67695 22.1702 8.71656C22.1306 8.75616 22.0836 8.78757 22.0318 8.80899C21.9801 8.83041 21.9246 8.84142 21.8686 8.84139H21.1858C21.0727 8.84139 20.9642 8.79647 20.8842 8.71651C20.8042 8.63655 20.7593 8.52809 20.7593 8.415C20.7593 8.30191 20.8043 8.19348 20.8842 8.11353C20.9642 8.03357 21.0726 7.98864 21.1857 7.98861H21.8686C21.9247 7.98856 21.9801 7.99955 22.0319 8.02096C22.0836 8.04236 22.1306 8.07376 22.1702 8.11336C22.2098 8.15296 22.2412 8.19997 22.2627 8.25172C22.2841 8.30347 22.2951 8.35893 22.295 8.41493ZM17.9089 11.2166C17.9089 11.3297 17.8639 11.4382 17.784 11.5181C17.704 11.5981 17.5955 11.643 17.4824 11.6431H16.7996C16.6865 11.6429 16.5781 11.598 16.4982 11.518C16.4182 11.4381 16.3732 11.3297 16.3731 11.2166C16.3732 11.1035 16.4181 10.9951 16.4981 10.9151C16.578 10.8352 16.6865 10.7903 16.7995 10.7902H17.4825C17.5385 10.7902 17.594 10.8012 17.6457 10.8226C17.6975 10.844 17.7445 10.8754 17.7841 10.915C17.8237 10.9546 17.8551 11.0016 17.8765 11.0534C17.8979 11.1051 17.9089 11.1606 17.9089 11.2166ZM19.8467 10.7902H20.5296C20.6427 10.7902 20.7511 10.8351 20.8311 10.9151C20.9111 10.9951 20.956 11.1035 20.956 11.2166C20.9559 11.3297 20.9109 11.438 20.831 11.518C20.751 11.5979 20.6427 11.6429 20.5296 11.6431H19.8468C19.7337 11.643 19.6252 11.5981 19.5452 11.5181C19.4653 11.4382 19.4203 11.3297 19.4203 11.2166C19.4202 11.1606 19.4312 11.1051 19.4526 11.0534C19.4741 11.0016 19.5055 10.9546 19.5451 10.915C19.5847 10.8754 19.6317 10.844 19.6835 10.8226C19.7352 10.8012 19.7907 10.7902 19.8467 10.7902ZM22.8933 10.7902H23.5762C23.8113 10.7902 24.0025 10.9809 24.0025 11.2166C24.0024 11.3297 23.9575 11.4381 23.8776 11.518C23.7976 11.598 23.6892 11.6429 23.5762 11.6431H22.8933C22.7802 11.643 22.6718 11.5981 22.5918 11.5181C22.5118 11.4382 22.4669 11.3297 22.4668 11.2166C22.4668 11.1606 22.4778 11.1051 22.4992 11.0533C22.5206 11.0016 22.552 10.9545 22.5916 10.9149C22.6313 10.8753 22.6783 10.8439 22.7301 10.8225C22.7818 10.8011 22.8373 10.7901 22.8933 10.7902ZM17.9089 14.2979C17.9089 14.3539 17.8979 14.4094 17.8765 14.4611C17.8551 14.5129 17.8236 14.5599 17.784 14.5995C17.7444 14.6391 17.6974 14.6705 17.6457 14.6919C17.5939 14.7133 17.5384 14.7243 17.4824 14.7243H16.7996C16.6865 14.7243 16.578 14.6793 16.4981 14.5994C16.4181 14.5194 16.3731 14.4109 16.3731 14.2978C16.3732 14.0627 16.5644 13.8714 16.7995 13.8714H17.4825C17.5956 13.8714 17.704 13.9164 17.784 13.9963C17.864 14.0763 17.9089 14.1848 17.9089 14.2979ZM20.9561 14.2979C20.956 14.411 20.9111 14.5194 20.8311 14.5994C20.7511 14.6793 20.6427 14.7243 20.5296 14.7243H19.8468C19.7908 14.7243 19.7353 14.7133 19.6835 14.6919C19.6318 14.6705 19.5847 14.6391 19.5451 14.5995C19.5055 14.5599 19.4741 14.5128 19.4527 14.4611C19.4312 14.4093 19.4202 14.3538 19.4203 14.2978C19.4203 14.1847 19.4652 14.0763 19.5452 13.9963C19.6252 13.9163 19.7336 13.8714 19.8467 13.8714H20.5297C20.6427 13.8715 20.7511 13.9165 20.831 13.9965C20.911 14.0764 20.9559 14.1848 20.9561 14.2979ZM24.0026 14.2979C24.0026 14.411 23.9576 14.5194 23.8776 14.5994C23.7977 14.6794 23.6892 14.7243 23.5761 14.7243H22.8933C22.8373 14.7243 22.7818 14.7133 22.7301 14.6919C22.6783 14.6705 22.6313 14.6391 22.5917 14.5995C22.5521 14.5599 22.5206 14.5128 22.4992 14.4611C22.4778 14.4093 22.4668 14.3538 22.4668 14.2978C22.4668 14.1847 22.5118 14.0763 22.5917 13.9963C22.6717 13.9163 22.7802 13.8714 22.8933 13.8714H23.5763C23.8113 13.8714 24.0025 14.0627 24.0026 14.2979ZM17.9089 17.3797C17.9089 17.4357 17.8979 17.4912 17.8765 17.543C17.8551 17.5947 17.8236 17.6417 17.784 17.6813C17.7444 17.7209 17.6974 17.7523 17.6457 17.7738C17.5939 17.7952 17.5384 17.8062 17.4824 17.8061H16.7996C16.6865 17.8061 16.578 17.7612 16.4981 17.6812C16.4181 17.6013 16.3731 17.4928 16.3731 17.3797C16.3731 17.2667 16.4181 17.1582 16.498 17.0782C16.578 16.9983 16.6865 16.9533 16.7995 16.9533H17.4825C17.5385 16.9532 17.594 16.9642 17.6457 16.9857C17.6975 17.0071 17.7445 17.0385 17.7841 17.0781C17.8237 17.1177 17.8551 17.1647 17.8765 17.2165C17.8979 17.2683 17.9089 17.3237 17.9089 17.3797ZM20.5296 17.8061H19.8467C19.7907 17.8062 19.7352 17.7952 19.6835 17.7738C19.6317 17.7523 19.5847 17.7209 19.5451 17.6813C19.5055 17.6417 19.4741 17.5947 19.4526 17.543C19.4312 17.4912 19.4202 17.4358 19.4202 17.3797C19.4202 17.3237 19.4312 17.2683 19.4526 17.2165C19.474 17.1647 19.5054 17.1177 19.545 17.0781C19.5846 17.0385 19.6317 17.0071 19.6834 16.9857C19.7352 16.9643 19.7906 16.9533 19.8467 16.9533H20.5296C20.6427 16.9533 20.7512 16.9982 20.8311 17.0782C20.9111 17.1581 20.956 17.2666 20.956 17.3797C20.956 17.4928 20.9111 17.6013 20.8311 17.6812C20.7512 17.7612 20.6427 17.8061 20.5296 17.8061ZM24.0026 17.3797C24.0026 17.4928 23.9576 17.6013 23.8776 17.6812C23.7977 17.7612 23.6892 17.8061 23.5761 17.8061H22.8933C22.6576 17.8061 22.4668 17.6155 22.4668 17.3797C22.4668 17.144 22.6575 16.9533 22.8933 16.9533H23.5763C23.6894 16.9534 23.7978 16.9983 23.8777 17.0783C23.9577 17.1582 24.0026 17.2667 24.0026 17.3797ZM21.3934 20.4616C21.3934 20.5747 21.3484 20.6831 21.2685 20.7631C21.1885 20.843 21.08 20.888 20.967 20.888H20.6258C20.5128 20.888 20.4043 20.843 20.3243 20.7631C20.2444 20.6831 20.1994 20.5747 20.1994 20.4616C20.1993 20.4056 20.2103 20.3501 20.2318 20.2984C20.2532 20.2466 20.2846 20.1996 20.3242 20.16C20.3638 20.1204 20.4108 20.089 20.4626 20.0676C20.5144 20.0461 20.5698 20.0351 20.6258 20.0352H20.967C21.023 20.0351 21.0784 20.0461 21.1302 20.0676C21.182 20.089 21.229 20.1204 21.2686 20.16C21.3082 20.1996 21.3396 20.2466 21.361 20.2984C21.3825 20.3501 21.3935 20.4056 21.3934 20.4616ZM24.0026 20.4616C24.0026 20.6967 23.8113 20.888 23.5761 20.888H22.8933C22.7802 20.888 22.6718 20.843 22.5918 20.7631C22.5118 20.6831 22.4669 20.5747 22.4668 20.4616C22.4668 20.4056 22.4778 20.3501 22.4992 20.2984C22.5206 20.2466 22.552 20.1996 22.5917 20.16C22.6313 20.1204 22.6783 20.089 22.73 20.0676C22.7818 20.0462 22.8373 20.0352 22.8933 20.0352H23.5763C23.6893 20.0352 23.7978 20.0802 23.8777 20.1601C23.9576 20.2401 24.0026 20.3485 24.0026 20.4616ZM20.9561 23.5429C20.956 23.656 20.9111 23.7644 20.8311 23.8444C20.7511 23.9243 20.6427 23.9692 20.5296 23.9693H19.8468C19.7908 23.9693 19.7353 23.9583 19.6835 23.9369C19.6318 23.9155 19.5847 23.8841 19.5451 23.8445C19.5055 23.8048 19.4741 23.7578 19.4527 23.7061C19.4312 23.6543 19.4202 23.5988 19.4203 23.5428C19.4203 23.4297 19.4652 23.3213 19.5452 23.2413C19.6252 23.1613 19.7336 23.1164 19.8467 23.1164H20.5297C20.6427 23.1165 20.7511 23.1615 20.831 23.2415C20.911 23.3214 20.9559 23.4298 20.9561 23.5429ZM24.0026 23.5429C24.0026 23.656 23.9576 23.7644 23.8776 23.8444C23.7977 23.9243 23.6892 23.9693 23.5761 23.9693H22.8933C22.8373 23.9693 22.7818 23.9583 22.7301 23.9369C22.6783 23.9155 22.6313 23.8841 22.5917 23.8445C22.5521 23.8048 22.5206 23.7578 22.4992 23.7061C22.4778 23.6543 22.4668 23.5988 22.4668 23.5428C22.4668 23.4297 22.5118 23.3213 22.5917 23.2413C22.6717 23.1613 22.7802 23.1164 22.8933 23.1164H23.5763C23.8113 23.1164 24.0025 23.3077 24.0026 23.5429ZM20.9561 26.6247C20.9559 26.7378 20.9109 26.8462 20.831 26.9261C20.751 27.006 20.6427 27.051 20.5296 27.0511H19.8468C19.7337 27.0511 19.6252 27.0062 19.5452 26.9262C19.4653 26.8462 19.4203 26.7378 19.4203 26.6247C19.4202 26.5687 19.4312 26.5132 19.4527 26.4614C19.4741 26.4097 19.5055 26.3627 19.5451 26.3231C19.5847 26.2835 19.6317 26.2521 19.6835 26.2306C19.7352 26.2092 19.7907 26.1982 19.8467 26.1983H20.5297C20.7648 26.1983 20.956 26.3889 20.9561 26.6247ZM24.0026 26.6247C24.0026 26.8598 23.8113 27.0511 23.5761 27.0511H22.8933C22.7802 27.0511 22.6718 27.0062 22.5918 26.9262C22.5118 26.8462 22.4669 26.7378 22.4668 26.6247C22.4668 26.5687 22.4778 26.5132 22.4992 26.4614C22.5206 26.4097 22.552 26.3627 22.5917 26.3231C22.6313 26.2835 22.6783 26.2521 22.73 26.2306C22.7818 26.2092 22.8373 26.1982 22.8933 26.1983H23.5763C23.6894 26.1983 23.7978 26.2433 23.8777 26.3233C23.9577 26.4032 24.0026 26.5117 24.0026 26.6247ZM29.6205 28.5643H26.1127V8.74759C26.1126 8.63453 26.0676 8.52614 25.9877 8.44619C25.9077 8.36625 25.7994 8.32127 25.6863 8.32114H23.871V3.5652C23.871 3.45211 23.826 3.34367 23.7461 3.26371C23.6661 3.18375 23.5576 3.13883 23.4446 3.13881H22.0501V1.00848C22.0501 0.895398 22.0051 0.786947 21.9252 0.706977C21.8452 0.627007 21.7368 0.582064 21.6237 0.582031H18.752C18.517 0.582031 18.3255 0.773315 18.3255 1.00842L18.3256 3.13875H16.9313C16.8182 3.13875 16.7097 3.18367 16.6297 3.26365C16.5497 3.34362 16.5048 3.45209 16.5047 3.5652L16.5048 8.32114H14.6901C14.577 8.32116 14.4685 8.36608 14.3886 8.44604C14.3086 8.52599 14.2636 8.63444 14.2636 8.74753L14.2637 16.4141L11.1977 14.3392C11.1271 14.2916 11.0439 14.2661 10.9588 14.2661C10.8737 14.2661 10.7905 14.2916 10.72 14.3392L2.20407 20.1022C2.14636 20.1413 2.09909 20.194 2.06639 20.2555C2.03368 20.3171 2.01653 20.3858 2.01643 20.4555L2.01655 22.7022C2.01655 23.0435 2.401 23.2469 2.68288 23.0549L3.85929 22.2551V28.5643H0.379579C0.32357 28.5643 0.268102 28.5753 0.216348 28.5967C0.164593 28.6181 0.117568 28.6495 0.0779607 28.6891C0.0383535 28.7287 0.00694137 28.7757 -0.014479 28.8275C-0.0358994 28.8792 -0.0469079 28.9347 -0.0468749 28.9907C-0.0468583 29.1038 -0.00192322 29.2123 0.0780487 29.2923C0.158021 29.3722 0.266481 29.4172 0.379579 29.4172H29.6205C29.6765 29.4172 29.732 29.4061 29.7837 29.3847C29.8354 29.3633 29.8824 29.3318 29.922 29.2922C29.9616 29.2526 29.993 29.2056 30.0144 29.1539C30.0358 29.1022 30.0468 29.0467 30.0468 28.9907C30.0469 28.9347 30.0359 28.8792 30.0145 28.8275C29.9931 28.7757 29.9617 28.7287 29.9221 28.6891C29.8825 28.6495 29.8355 28.6181 29.7838 28.5967C29.732 28.5753 29.6766 28.5643 29.6205 28.5643ZM2.8694 20.6815V21.8968L10.7187 16.5573C10.7895 16.5093 10.8732 16.4837 10.9588 16.4837C11.0443 16.4837 11.128 16.5093 11.1988 16.5573L19.048 21.8967V20.6815L10.9588 15.2073L2.8694 20.6815ZM12.2338 28.5643H9.68369V25.3345C9.68369 25.0244 9.93585 24.7728 10.2454 24.7728H11.6721C11.9822 24.7728 12.2337 25.0244 12.2337 25.3345L12.2338 28.5643ZM13.0866 28.5643H17.2053V21.6745L10.9588 17.4261L4.71214 21.6745V28.5644H8.83084L8.83078 25.3345C8.83078 24.5541 9.46557 23.92 10.2454 23.92H11.6721C12.4518 23.92 13.0867 24.5541 13.0867 25.3345L13.0866 28.5643ZM25.2599 28.5643V9.17399H23.4446C23.3885 9.17403 23.3331 9.16302 23.2813 9.1416C23.2296 9.12019 23.1826 9.08877 23.143 9.04916C23.1034 9.00955 23.072 8.96253 23.0506 8.91077C23.0292 8.85901 23.0182 8.80354 23.0182 8.74753V3.99165H21.6237C21.5106 3.99164 21.4021 3.9467 21.3222 3.86673C21.2422 3.78676 21.1973 3.6783 21.1972 3.5652V1.43488H19.1784V3.5652C19.1784 3.67829 19.1334 3.78674 19.0535 3.86671C18.9735 3.94668 18.8651 3.99162 18.752 3.99165H17.3577L17.3576 8.74753C17.3576 8.98327 17.167 9.17392 16.9313 9.17392H15.1165V16.991L19.7133 20.1022C19.7711 20.1412 19.8185 20.1938 19.8512 20.2554C19.8839 20.317 19.901 20.3857 19.901 20.4555L19.9009 22.7022C19.9009 23.0473 19.513 23.2451 19.2344 23.0549L18.0582 22.2551V28.5643H25.2599ZM10.9588 19.5478C11.878 19.5478 12.6261 20.2953 12.626 21.2146C12.626 22.1338 11.878 22.8819 10.9587 22.8819C10.0394 22.8819 9.29191 22.1338 9.29191 21.2146C9.29197 20.2953 10.0395 19.5478 10.9588 19.5478ZM10.9588 22.029C10.5098 22.029 10.1447 21.6635 10.1447 21.2146C10.1449 20.7656 10.5097 20.4006 10.9587 20.4006C11.4077 20.4006 11.7731 20.7655 11.7731 21.2146C11.7733 21.6635 11.4076 22.029 10.9588 22.029Z"/>
</mask>
<path fill-rule="evenodd" clip-rule="evenodd" d="M22.295 6.22618C22.2951 6.28219 22.2841 6.33765 22.2626 6.3894C22.2412 6.44115 22.2098 6.48817 22.1702 6.52778C22.1306 6.56738 22.0836 6.59878 22.0318 6.6202C21.9801 6.64161 21.9246 6.65261 21.8686 6.65257H21.1858C21.0727 6.65257 20.9642 6.60765 20.8842 6.52769C20.8042 6.44773 20.7593 6.33927 20.7593 6.22618C20.7594 5.99101 20.9505 5.79979 21.1857 5.79979H21.8686C21.9817 5.7998 22.0902 5.84473 22.1701 5.92469C22.2501 6.00465 22.295 6.1131 22.295 6.22618ZM18.1247 6.22618C18.1247 6.17018 18.1357 6.11474 18.1571 6.063C18.1785 6.01126 18.2099 5.96425 18.2495 5.92465C18.2891 5.88505 18.3361 5.85364 18.3878 5.8322C18.4396 5.81077 18.495 5.79973 18.551 5.79972H19.234C19.4697 5.79972 19.6603 5.99101 19.6603 6.22611C19.6604 6.28213 19.6494 6.33761 19.628 6.38937C19.6066 6.44113 19.5751 6.48816 19.5355 6.52777C19.4959 6.56738 19.4489 6.59879 19.3971 6.62021C19.3454 6.64162 19.2899 6.65262 19.2339 6.65257H18.5511C18.4951 6.65263 18.4396 6.64164 18.3878 6.62023C18.3361 6.59882 18.289 6.56742 18.2494 6.52781C18.2098 6.4882 18.1784 6.44118 18.157 6.38942C18.1356 6.33766 18.1246 6.28219 18.1247 6.22618ZM19.2339 8.84139H18.5511C18.4951 8.84143 18.4396 8.83043 18.3878 8.80902C18.3361 8.7876 18.289 8.7562 18.2494 8.7166C18.2098 8.677 18.1784 8.62998 18.157 8.57823C18.1355 8.52648 18.1245 8.47101 18.1245 8.415C18.1245 8.35899 18.1355 8.30352 18.1569 8.25177C18.1784 8.20002 18.2098 8.153 18.2494 8.1134C18.289 8.07379 18.336 8.04239 18.3878 8.02098C18.4395 7.99956 18.495 7.98856 18.551 7.98861H19.234C19.4697 7.98861 19.6603 8.17926 19.6603 8.415C19.6604 8.471 19.6494 8.52646 19.6279 8.57821C19.6065 8.62996 19.5751 8.67697 19.5355 8.71657C19.4959 8.75617 19.4489 8.78758 19.3972 8.809C19.3454 8.83041 19.2899 8.84142 19.2339 8.84139ZM22.295 8.41493C22.2951 8.47095 22.2841 8.52641 22.2626 8.57817C22.2412 8.62992 22.2098 8.67695 22.1702 8.71656C22.1306 8.75616 22.0836 8.78757 22.0318 8.80899C21.9801 8.83041 21.9246 8.84142 21.8686 8.84139H21.1858C21.0727 8.84139 20.9642 8.79647 20.8842 8.71651C20.8042 8.63655 20.7593 8.52809 20.7593 8.415C20.7593 8.30191 20.8043 8.19348 20.8842 8.11353C20.9642 8.03357 21.0726 7.98864 21.1857 7.98861H21.8686C21.9247 7.98856 21.9801 7.99955 22.0319 8.02096C22.0836 8.04236 22.1306 8.07376 22.1702 8.11336C22.2098 8.15296 22.2412 8.19997 22.2627 8.25172C22.2841 8.30347 22.2951 8.35893 22.295 8.41493ZM17.9089 11.2166C17.9089 11.3297 17.8639 11.4382 17.784 11.5181C17.704 11.5981 17.5955 11.643 17.4824 11.6431H16.7996C16.6865 11.6429 16.5781 11.598 16.4982 11.518C16.4182 11.4381 16.3732 11.3297 16.3731 11.2166C16.3732 11.1035 16.4181 10.9951 16.4981 10.9151C16.578 10.8352 16.6865 10.7903 16.7995 10.7902H17.4825C17.5385 10.7902 17.594 10.8012 17.6457 10.8226C17.6975 10.844 17.7445 10.8754 17.7841 10.915C17.8237 10.9546 17.8551 11.0016 17.8765 11.0534C17.8979 11.1051 17.9089 11.1606 17.9089 11.2166ZM19.8467 10.7902H20.5296C20.6427 10.7902 20.7511 10.8351 20.8311 10.9151C20.9111 10.9951 20.956 11.1035 20.956 11.2166C20.9559 11.3297 20.9109 11.438 20.831 11.518C20.751 11.5979 20.6427 11.6429 20.5296 11.6431H19.8468C19.7337 11.643 19.6252 11.5981 19.5452 11.5181C19.4653 11.4382 19.4203 11.3297 19.4203 11.2166C19.4202 11.1606 19.4312 11.1051 19.4526 11.0534C19.4741 11.0016 19.5055 10.9546 19.5451 10.915C19.5847 10.8754 19.6317 10.844 19.6835 10.8226C19.7352 10.8012 19.7907 10.7902 19.8467 10.7902ZM22.8933 10.7902H23.5762C23.8113 10.7902 24.0025 10.9809 24.0025 11.2166C24.0024 11.3297 23.9575 11.4381 23.8776 11.518C23.7976 11.598 23.6892 11.6429 23.5762 11.6431H22.8933C22.7802 11.643 22.6718 11.5981 22.5918 11.5181C22.5118 11.4382 22.4669 11.3297 22.4668 11.2166C22.4668 11.1606 22.4778 11.1051 22.4992 11.0533C22.5206 11.0016 22.552 10.9545 22.5916 10.9149C22.6313 10.8753 22.6783 10.8439 22.7301 10.8225C22.7818 10.8011 22.8373 10.7901 22.8933 10.7902ZM17.9089 14.2979C17.9089 14.3539 17.8979 14.4094 17.8765 14.4611C17.8551 14.5129 17.8236 14.5599 17.784 14.5995C17.7444 14.6391 17.6974 14.6705 17.6457 14.6919C17.5939 14.7133 17.5384 14.7243 17.4824 14.7243H16.7996C16.6865 14.7243 16.578 14.6793 16.4981 14.5994C16.4181 14.5194 16.3731 14.4109 16.3731 14.2978C16.3732 14.0627 16.5644 13.8714 16.7995 13.8714H17.4825C17.5956 13.8714 17.704 13.9164 17.784 13.9963C17.864 14.0763 17.9089 14.1848 17.9089 14.2979ZM20.9561 14.2979C20.956 14.411 20.9111 14.5194 20.8311 14.5994C20.7511 14.6793 20.6427 14.7243 20.5296 14.7243H19.8468C19.7908 14.7243 19.7353 14.7133 19.6835 14.6919C19.6318 14.6705 19.5847 14.6391 19.5451 14.5995C19.5055 14.5599 19.4741 14.5128 19.4527 14.4611C19.4312 14.4093 19.4202 14.3538 19.4203 14.2978C19.4203 14.1847 19.4652 14.0763 19.5452 13.9963C19.6252 13.9163 19.7336 13.8714 19.8467 13.8714H20.5297C20.6427 13.8715 20.7511 13.9165 20.831 13.9965C20.911 14.0764 20.9559 14.1848 20.9561 14.2979ZM24.0026 14.2979C24.0026 14.411 23.9576 14.5194 23.8776 14.5994C23.7977 14.6794 23.6892 14.7243 23.5761 14.7243H22.8933C22.8373 14.7243 22.7818 14.7133 22.7301 14.6919C22.6783 14.6705 22.6313 14.6391 22.5917 14.5995C22.5521 14.5599 22.5206 14.5128 22.4992 14.4611C22.4778 14.4093 22.4668 14.3538 22.4668 14.2978C22.4668 14.1847 22.5118 14.0763 22.5917 13.9963C22.6717 13.9163 22.7802 13.8714 22.8933 13.8714H23.5763C23.8113 13.8714 24.0025 14.0627 24.0026 14.2979ZM17.9089 17.3797C17.9089 17.4357 17.8979 17.4912 17.8765 17.543C17.8551 17.5947 17.8236 17.6417 17.784 17.6813C17.7444 17.7209 17.6974 17.7523 17.6457 17.7738C17.5939 17.7952 17.5384 17.8062 17.4824 17.8061H16.7996C16.6865 17.8061 16.578 17.7612 16.4981 17.6812C16.4181 17.6013 16.3731 17.4928 16.3731 17.3797C16.3731 17.2667 16.4181 17.1582 16.498 17.0782C16.578 16.9983 16.6865 16.9533 16.7995 16.9533H17.4825C17.5385 16.9532 17.594 16.9642 17.6457 16.9857C17.6975 17.0071 17.7445 17.0385 17.7841 17.0781C17.8237 17.1177 17.8551 17.1647 17.8765 17.2165C17.8979 17.2683 17.9089 17.3237 17.9089 17.3797ZM20.5296 17.8061H19.8467C19.7907 17.8062 19.7352 17.7952 19.6835 17.7738C19.6317 17.7523 19.5847 17.7209 19.5451 17.6813C19.5055 17.6417 19.4741 17.5947 19.4526 17.543C19.4312 17.4912 19.4202 17.4358 19.4202 17.3797C19.4202 17.3237 19.4312 17.2683 19.4526 17.2165C19.474 17.1647 19.5054 17.1177 19.545 17.0781C19.5846 17.0385 19.6317 17.0071 19.6834 16.9857C19.7352 16.9643 19.7906 16.9533 19.8467 16.9533H20.5296C20.6427 16.9533 20.7512 16.9982 20.8311 17.0782C20.9111 17.1581 20.956 17.2666 20.956 17.3797C20.956 17.4928 20.9111 17.6013 20.8311 17.6812C20.7512 17.7612 20.6427 17.8061 20.5296 17.8061ZM24.0026 17.3797C24.0026 17.4928 23.9576 17.6013 23.8776 17.6812C23.7977 17.7612 23.6892 17.8061 23.5761 17.8061H22.8933C22.6576 17.8061 22.4668 17.6155 22.4668 17.3797C22.4668 17.144 22.6575 16.9533 22.8933 16.9533H23.5763C23.6894 16.9534 23.7978 16.9983 23.8777 17.0783C23.9577 17.1582 24.0026 17.2667 24.0026 17.3797ZM21.3934 20.4616C21.3934 20.5747 21.3484 20.6831 21.2685 20.7631C21.1885 20.843 21.08 20.888 20.967 20.888H20.6258C20.5128 20.888 20.4043 20.843 20.3243 20.7631C20.2444 20.6831 20.1994 20.5747 20.1994 20.4616C20.1993 20.4056 20.2103 20.3501 20.2318 20.2984C20.2532 20.2466 20.2846 20.1996 20.3242 20.16C20.3638 20.1204 20.4108 20.089 20.4626 20.0676C20.5144 20.0461 20.5698 20.0351 20.6258 20.0352H20.967C21.023 20.0351 21.0784 20.0461 21.1302 20.0676C21.182 20.089 21.229 20.1204 21.2686 20.16C21.3082 20.1996 21.3396 20.2466 21.361 20.2984C21.3825 20.3501 21.3935 20.4056 21.3934 20.4616ZM24.0026 20.4616C24.0026 20.6967 23.8113 20.888 23.5761 20.888H22.8933C22.7802 20.888 22.6718 20.843 22.5918 20.7631C22.5118 20.6831 22.4669 20.5747 22.4668 20.4616C22.4668 20.4056 22.4778 20.3501 22.4992 20.2984C22.5206 20.2466 22.552 20.1996 22.5917 20.16C22.6313 20.1204 22.6783 20.089 22.73 20.0676C22.7818 20.0462 22.8373 20.0352 22.8933 20.0352H23.5763C23.6893 20.0352 23.7978 20.0802 23.8777 20.1601C23.9576 20.2401 24.0026 20.3485 24.0026 20.4616ZM20.9561 23.5429C20.956 23.656 20.9111 23.7644 20.8311 23.8444C20.7511 23.9243 20.6427 23.9692 20.5296 23.9693H19.8468C19.7908 23.9693 19.7353 23.9583 19.6835 23.9369C19.6318 23.9155 19.5847 23.8841 19.5451 23.8445C19.5055 23.8048 19.4741 23.7578 19.4527 23.7061C19.4312 23.6543 19.4202 23.5988 19.4203 23.5428C19.4203 23.4297 19.4652 23.3213 19.5452 23.2413C19.6252 23.1613 19.7336 23.1164 19.8467 23.1164H20.5297C20.6427 23.1165 20.7511 23.1615 20.831 23.2415C20.911 23.3214 20.9559 23.4298 20.9561 23.5429ZM24.0026 23.5429C24.0026 23.656 23.9576 23.7644 23.8776 23.8444C23.7977 23.9243 23.6892 23.9693 23.5761 23.9693H22.8933C22.8373 23.9693 22.7818 23.9583 22.7301 23.9369C22.6783 23.9155 22.6313 23.8841 22.5917 23.8445C22.5521 23.8048 22.5206 23.7578 22.4992 23.7061C22.4778 23.6543 22.4668 23.5988 22.4668 23.5428C22.4668 23.4297 22.5118 23.3213 22.5917 23.2413C22.6717 23.1613 22.7802 23.1164 22.8933 23.1164H23.5763C23.8113 23.1164 24.0025 23.3077 24.0026 23.5429ZM20.9561 26.6247C20.9559 26.7378 20.9109 26.8462 20.831 26.9261C20.751 27.006 20.6427 27.051 20.5296 27.0511H19.8468C19.7337 27.0511 19.6252 27.0062 19.5452 26.9262C19.4653 26.8462 19.4203 26.7378 19.4203 26.6247C19.4202 26.5687 19.4312 26.5132 19.4527 26.4614C19.4741 26.4097 19.5055 26.3627 19.5451 26.3231C19.5847 26.2835 19.6317 26.2521 19.6835 26.2306C19.7352 26.2092 19.7907 26.1982 19.8467 26.1983H20.5297C20.7648 26.1983 20.956 26.3889 20.9561 26.6247ZM24.0026 26.6247C24.0026 26.8598 23.8113 27.0511 23.5761 27.0511H22.8933C22.7802 27.0511 22.6718 27.0062 22.5918 26.9262C22.5118 26.8462 22.4669 26.7378 22.4668 26.6247C22.4668 26.5687 22.4778 26.5132 22.4992 26.4614C22.5206 26.4097 22.552 26.3627 22.5917 26.3231C22.6313 26.2835 22.6783 26.2521 22.73 26.2306C22.7818 26.2092 22.8373 26.1982 22.8933 26.1983H23.5763C23.6894 26.1983 23.7978 26.2433 23.8777 26.3233C23.9577 26.4032 24.0026 26.5117 24.0026 26.6247ZM29.6205 28.5643H26.1127V8.74759C26.1126 8.63453 26.0676 8.52614 25.9877 8.44619C25.9077 8.36625 25.7994 8.32127 25.6863 8.32114H23.871V3.5652C23.871 3.45211 23.826 3.34367 23.7461 3.26371C23.6661 3.18375 23.5576 3.13883 23.4446 3.13881H22.0501V1.00848C22.0501 0.895398 22.0051 0.786947 21.9252 0.706977C21.8452 0.627007 21.7368 0.582064 21.6237 0.582031H18.752C18.517 0.582031 18.3255 0.773315 18.3255 1.00842L18.3256 3.13875H16.9313C16.8182 3.13875 16.7097 3.18367 16.6297 3.26365C16.5497 3.34362 16.5048 3.45209 16.5047 3.5652L16.5048 8.32114H14.6901C14.577 8.32116 14.4685 8.36608 14.3886 8.44604C14.3086 8.52599 14.2636 8.63444 14.2636 8.74753L14.2637 16.4141L11.1977 14.3392C11.1271 14.2916 11.0439 14.2661 10.9588 14.2661C10.8737 14.2661 10.7905 14.2916 10.72 14.3392L2.20407 20.1022C2.14636 20.1413 2.09909 20.194 2.06639 20.2555C2.03368 20.3171 2.01653 20.3858 2.01643 20.4555L2.01655 22.7022C2.01655 23.0435 2.401 23.2469 2.68288 23.0549L3.85929 22.2551V28.5643H0.379579C0.32357 28.5643 0.268102 28.5753 0.216348 28.5967C0.164593 28.6181 0.117568 28.6495 0.0779607 28.6891C0.0383535 28.7287 0.00694137 28.7757 -0.014479 28.8275C-0.0358994 28.8792 -0.0469079 28.9347 -0.0468749 28.9907C-0.0468583 29.1038 -0.00192322 29.2123 0.0780487 29.2923C0.158021 29.3722 0.266481 29.4172 0.379579 29.4172H29.6205C29.6765 29.4172 29.732 29.4061 29.7837 29.3847C29.8354 29.3633 29.8824 29.3318 29.922 29.2922C29.9616 29.2526 29.993 29.2056 30.0144 29.1539C30.0358 29.1022 30.0468 29.0467 30.0468 28.9907C30.0469 28.9347 30.0359 28.8792 30.0145 28.8275C29.9931 28.7757 29.9617 28.7287 29.9221 28.6891C29.8825 28.6495 29.8355 28.6181 29.7838 28.5967C29.732 28.5753 29.6766 28.5643 29.6205 28.5643ZM2.8694 20.6815V21.8968L10.7187 16.5573C10.7895 16.5093 10.8732 16.4837 10.9588 16.4837C11.0443 16.4837 11.128 16.5093 11.1988 16.5573L19.048 21.8967V20.6815L10.9588 15.2073L2.8694 20.6815ZM12.2338 28.5643H9.68369V25.3345C9.68369 25.0244 9.93585 24.7728 10.2454 24.7728H11.6721C11.9822 24.7728 12.2337 25.0244 12.2337 25.3345L12.2338 28.5643ZM13.0866 28.5643H17.2053V21.6745L10.9588 17.4261L4.71214 21.6745V28.5644H8.83084L8.83078 25.3345C8.83078 24.5541 9.46557 23.92 10.2454 23.92H11.6721C12.4518 23.92 13.0867 24.5541 13.0867 25.3345L13.0866 28.5643ZM25.2599 28.5643V9.17399H23.4446C23.3885 9.17403 23.3331 9.16302 23.2813 9.1416C23.2296 9.12019 23.1826 9.08877 23.143 9.04916C23.1034 9.00955 23.072 8.96253 23.0506 8.91077C23.0292 8.85901 23.0182 8.80354 23.0182 8.74753V3.99165H21.6237C21.5106 3.99164 21.4021 3.9467 21.3222 3.86673C21.2422 3.78676 21.1973 3.6783 21.1972 3.5652V1.43488H19.1784V3.5652C19.1784 3.67829 19.1334 3.78674 19.0535 3.86671C18.9735 3.94668 18.8651 3.99162 18.752 3.99165H17.3577L17.3576 8.74753C17.3576 8.98327 17.167 9.17392 16.9313 9.17392H15.1165V16.991L19.7133 20.1022C19.7711 20.1412 19.8185 20.1938 19.8512 20.2554C19.8839 20.317 19.901 20.3857 19.901 20.4555L19.9009 22.7022C19.9009 23.0473 19.513 23.2451 19.2344 23.0549L18.0582 22.2551V28.5643H25.2599ZM10.9588 19.5478C11.878 19.5478 12.6261 20.2953 12.626 21.2146C12.626 22.1338 11.878 22.8819 10.9587 22.8819C10.0394 22.8819 9.29191 22.1338 9.29191 21.2146C9.29197 20.2953 10.0395 19.5478 10.9588 19.5478ZM10.9588 22.029C10.5098 22.029 10.1447 21.6635 10.1447 21.2146C10.1449 20.7656 10.5097 20.4006 10.9587 20.4006C11.4077 20.4006 11.7731 20.7655 11.7731 21.2146C11.7733 21.6635 11.4076 22.029 10.9588 22.029Z" fill="#3762CC"/>
<path fill-rule="evenodd" clip-rule="evenodd" d="M22.295 6.22618C22.2951 6.28219 22.2841 6.33765 22.2626 6.3894C22.2412 6.44115 22.2098 6.48817 22.1702 6.52778C22.1306 6.56738 22.0836 6.59878 22.0318 6.6202C21.9801 6.64161 21.9246 6.65261 21.8686 6.65257H21.1858C21.0727 6.65257 20.9642 6.60765 20.8842 6.52769C20.8042 6.44773 20.7593 6.33927 20.7593 6.22618C20.7594 5.99101 20.9505 5.79979 21.1857 5.79979H21.8686C21.9817 5.7998 22.0902 5.84473 22.1701 5.92469C22.2501 6.00465 22.295 6.1131 22.295 6.22618ZM18.1247 6.22618C18.1247 6.17018 18.1357 6.11474 18.1571 6.063C18.1785 6.01126 18.2099 5.96425 18.2495 5.92465C18.2891 5.88505 18.3361 5.85364 18.3878 5.8322C18.4396 5.81077 18.495 5.79973 18.551 5.79972H19.234C19.4697 5.79972 19.6603 5.99101 19.6603 6.22611C19.6604 6.28213 19.6494 6.33761 19.628 6.38937C19.6066 6.44113 19.5751 6.48816 19.5355 6.52777C19.4959 6.56738 19.4489 6.59879 19.3971 6.62021C19.3454 6.64162 19.2899 6.65262 19.2339 6.65257H18.5511C18.4951 6.65263 18.4396 6.64164 18.3878 6.62023C18.3361 6.59882 18.289 6.56742 18.2494 6.52781C18.2098 6.4882 18.1784 6.44118 18.157 6.38942C18.1356 6.33766 18.1246 6.28219 18.1247 6.22618ZM19.2339 8.84139H18.5511C18.4951 8.84143 18.4396 8.83043 18.3878 8.80902C18.3361 8.7876 18.289 8.7562 18.2494 8.7166C18.2098 8.677 18.1784 8.62998 18.157 8.57823C18.1355 8.52648 18.1245 8.47101 18.1245 8.415C18.1245 8.35899 18.1355 8.30352 18.1569 8.25177C18.1784 8.20002 18.2098 8.153 18.2494 8.1134C18.289 8.07379 18.336 8.04239 18.3878 8.02098C18.4395 7.99956 18.495 7.98856 18.551 7.98861H19.234C19.4697 7.98861 19.6603 8.17926 19.6603 8.415C19.6604 8.471 19.6494 8.52646 19.6279 8.57821C19.6065 8.62996 19.5751 8.67697 19.5355 8.71657C19.4959 8.75617 19.4489 8.78758 19.3972 8.809C19.3454 8.83041 19.2899 8.84142 19.2339 8.84139ZM22.295 8.41493C22.2951 8.47095 22.2841 8.52641 22.2626 8.57817C22.2412 8.62992 22.2098 8.67695 22.1702 8.71656C22.1306 8.75616 22.0836 8.78757 22.0318 8.80899C21.9801 8.83041 21.9246 8.84142 21.8686 8.84139H21.1858C21.0727 8.84139 20.9642 8.79647 20.8842 8.71651C20.8042 8.63655 20.7593 8.52809 20.7593 8.415C20.7593 8.30191 20.8043 8.19348 20.8842 8.11353C20.9642 8.03357 21.0726 7.98864 21.1857 7.98861H21.8686C21.9247 7.98856 21.9801 7.99955 22.0319 8.02096C22.0836 8.04236 22.1306 8.07376 22.1702 8.11336C22.2098 8.15296 22.2412 8.19997 22.2627 8.25172C22.2841 8.30347 22.2951 8.35893 22.295 8.41493ZM17.9089 11.2166C17.9089 11.3297 17.8639 11.4382 17.784 11.5181C17.704 11.5981 17.5955 11.643 17.4824 11.6431H16.7996C16.6865 11.6429 16.5781 11.598 16.4982 11.518C16.4182 11.4381 16.3732 11.3297 16.3731 11.2166C16.3732 11.1035 16.4181 10.9951 16.4981 10.9151C16.578 10.8352 16.6865 10.7903 16.7995 10.7902H17.4825C17.5385 10.7902 17.594 10.8012 17.6457 10.8226C17.6975 10.844 17.7445 10.8754 17.7841 10.915C17.8237 10.9546 17.8551 11.0016 17.8765 11.0534C17.8979 11.1051 17.9089 11.1606 17.9089 11.2166ZM19.8467 10.7902H20.5296C20.6427 10.7902 20.7511 10.8351 20.8311 10.9151C20.9111 10.9951 20.956 11.1035 20.956 11.2166C20.9559 11.3297 20.9109 11.438 20.831 11.518C20.751 11.5979 20.6427 11.6429 20.5296 11.6431H19.8468C19.7337 11.643 19.6252 11.5981 19.5452 11.5181C19.4653 11.4382 19.4203 11.3297 19.4203 11.2166C19.4202 11.1606 19.4312 11.1051 19.4526 11.0534C19.4741 11.0016 19.5055 10.9546 19.5451 10.915C19.5847 10.8754 19.6317 10.844 19.6835 10.8226C19.7352 10.8012 19.7907 10.7902 19.8467 10.7902ZM22.8933 10.7902H23.5762C23.8113 10.7902 24.0025 10.9809 24.0025 11.2166C24.0024 11.3297 23.9575 11.4381 23.8776 11.518C23.7976 11.598 23.6892 11.6429 23.5762 11.6431H22.8933C22.7802 11.643 22.6718 11.5981 22.5918 11.5181C22.5118 11.4382 22.4669 11.3297 22.4668 11.2166C22.4668 11.1606 22.4778 11.1051 22.4992 11.0533C22.5206 11.0016 22.552 10.9545 22.5916 10.9149C22.6313 10.8753 22.6783 10.8439 22.7301 10.8225C22.7818 10.8011 22.8373 10.7901 22.8933 10.7902ZM17.9089 14.2979C17.9089 14.3539 17.8979 14.4094 17.8765 14.4611C17.8551 14.5129 17.8236 14.5599 17.784 14.5995C17.7444 14.6391 17.6974 14.6705 17.6457 14.6919C17.5939 14.7133 17.5384 14.7243 17.4824 14.7243H16.7996C16.6865 14.7243 16.578 14.6793 16.4981 14.5994C16.4181 14.5194 16.3731 14.4109 16.3731 14.2978C16.3732 14.0627 16.5644 13.8714 16.7995 13.8714H17.4825C17.5956 13.8714 17.704 13.9164 17.784 13.9963C17.864 14.0763 17.9089 14.1848 17.9089 14.2979ZM20.9561 14.2979C20.956 14.411 20.9111 14.5194 20.8311 14.5994C20.7511 14.6793 20.6427 14.7243 20.5296 14.7243H19.8468C19.7908 14.7243 19.7353 14.7133 19.6835 14.6919C19.6318 14.6705 19.5847 14.6391 19.5451 14.5995C19.5055 14.5599 19.4741 14.5128 19.4527 14.4611C19.4312 14.4093 19.4202 14.3538 19.4203 14.2978C19.4203 14.1847 19.4652 14.0763 19.5452 13.9963C19.6252 13.9163 19.7336 13.8714 19.8467 13.8714H20.5297C20.6427 13.8715 20.7511 13.9165 20.831 13.9965C20.911 14.0764 20.9559 14.1848 20.9561 14.2979ZM24.0026 14.2979C24.0026 14.411 23.9576 14.5194 23.8776 14.5994C23.7977 14.6794 23.6892 14.7243 23.5761 14.7243H22.8933C22.8373 14.7243 22.7818 14.7133 22.7301 14.6919C22.6783 14.6705 22.6313 14.6391 22.5917 14.5995C22.5521 14.5599 22.5206 14.5128 22.4992 14.4611C22.4778 14.4093 22.4668 14.3538 22.4668 14.2978C22.4668 14.1847 22.5118 14.0763 22.5917 13.9963C22.6717 13.9163 22.7802 13.8714 22.8933 13.8714H23.5763C23.8113 13.8714 24.0025 14.0627 24.0026 14.2979ZM17.9089 17.3797C17.9089 17.4357 17.8979 17.4912 17.8765 17.543C17.8551 17.5947 17.8236 17.6417 17.784 17.6813C17.7444 17.7209 17.6974 17.7523 17.6457 17.7738C17.5939 17.7952 17.5384 17.8062 17.4824 17.8061H16.7996C16.6865 17.8061 16.578 17.7612 16.4981 17.6812C16.4181 17.6013 16.3731 17.4928 16.3731 17.3797C16.3731 17.2667 16.4181 17.1582 16.498 17.0782C16.578 16.9983 16.6865 16.9533 16.7995 16.9533H17.4825C17.5385 16.9532 17.594 16.9642 17.6457 16.9857C17.6975 17.0071 17.7445 17.0385 17.7841 17.0781C17.8237 17.1177 17.8551 17.1647 17.8765 17.2165C17.8979 17.2683 17.9089 17.3237 17.9089 17.3797ZM20.5296 17.8061H19.8467C19.7907 17.8062 19.7352 17.7952 19.6835 17.7738C19.6317 17.7523 19.5847 17.7209 19.5451 17.6813C19.5055 17.6417 19.4741 17.5947 19.4526 17.543C19.4312 17.4912 19.4202 17.4358 19.4202 17.3797C19.4202 17.3237 19.4312 17.2683 19.4526 17.2165C19.474 17.1647 19.5054 17.1177 19.545 17.0781C19.5846 17.0385 19.6317 17.0071 19.6834 16.9857C19.7352 16.9643 19.7906 16.9533 19.8467 16.9533H20.5296C20.6427 16.9533 20.7512 16.9982 20.8311 17.0782C20.9111 17.1581 20.956 17.2666 20.956 17.3797C20.956 17.4928 20.9111 17.6013 20.8311 17.6812C20.7512 17.7612 20.6427 17.8061 20.5296 17.8061ZM24.0026 17.3797C24.0026 17.4928 23.9576 17.6013 23.8776 17.6812C23.7977 17.7612 23.6892 17.8061 23.5761 17.8061H22.8933C22.6576 17.8061 22.4668 17.6155 22.4668 17.3797C22.4668 17.144 22.6575 16.9533 22.8933 16.9533H23.5763C23.6894 16.9534 23.7978 16.9983 23.8777 17.0783C23.9577 17.1582 24.0026 17.2667 24.0026 17.3797ZM21.3934 20.4616C21.3934 20.5747 21.3484 20.6831 21.2685 20.7631C21.1885 20.843 21.08 20.888 20.967 20.888H20.6258C20.5128 20.888 20.4043 20.843 20.3243 20.7631C20.2444 20.6831 20.1994 20.5747 20.1994 20.4616C20.1993 20.4056 20.2103 20.3501 20.2318 20.2984C20.2532 20.2466 20.2846 20.1996 20.3242 20.16C20.3638 20.1204 20.4108 20.089 20.4626 20.0676C20.5144 20.0461 20.5698 20.0351 20.6258 20.0352H20.967C21.023 20.0351 21.0784 20.0461 21.1302 20.0676C21.182 20.089 21.229 20.1204 21.2686 20.16C21.3082 20.1996 21.3396 20.2466 21.361 20.2984C21.3825 20.3501 21.3935 20.4056 21.3934 20.4616ZM24.0026 20.4616C24.0026 20.6967 23.8113 20.888 23.5761 20.888H22.8933C22.7802 20.888 22.6718 20.843 22.5918 20.7631C22.5118 20.6831 22.4669 20.5747 22.4668 20.4616C22.4668 20.4056 22.4778 20.3501 22.4992 20.2984C22.5206 20.2466 22.552 20.1996 22.5917 20.16C22.6313 20.1204 22.6783 20.089 22.73 20.0676C22.7818 20.0462 22.8373 20.0352 22.8933 20.0352H23.5763C23.6893 20.0352 23.7978 20.0802 23.8777 20.1601C23.9576 20.2401 24.0026 20.3485 24.0026 20.4616ZM20.9561 23.5429C20.956 23.656 20.9111 23.7644 20.8311 23.8444C20.7511 23.9243 20.6427 23.9692 20.5296 23.9693H19.8468C19.7908 23.9693 19.7353 23.9583 19.6835 23.9369C19.6318 23.9155 19.5847 23.8841 19.5451 23.8445C19.5055 23.8048 19.4741 23.7578 19.4527 23.7061C19.4312 23.6543 19.4202 23.5988 19.4203 23.5428C19.4203 23.4297 19.4652 23.3213 19.5452 23.2413C19.6252 23.1613 19.7336 23.1164 19.8467 23.1164H20.5297C20.6427 23.1165 20.7511 23.1615 20.831 23.2415C20.911 23.3214 20.9559 23.4298 20.9561 23.5429ZM24.0026 23.5429C24.0026 23.656 23.9576 23.7644 23.8776 23.8444C23.7977 23.9243 23.6892 23.9693 23.5761 23.9693H22.8933C22.8373 23.9693 22.7818 23.9583 22.7301 23.9369C22.6783 23.9155 22.6313 23.8841 22.5917 23.8445C22.5521 23.8048 22.5206 23.7578 22.4992 23.7061C22.4778 23.6543 22.4668 23.5988 22.4668 23.5428C22.4668 23.4297 22.5118 23.3213 22.5917 23.2413C22.6717 23.1613 22.7802 23.1164 22.8933 23.1164H23.5763C23.8113 23.1164 24.0025 23.3077 24.0026 23.5429ZM20.9561 26.6247C20.9559 26.7378 20.9109 26.8462 20.831 26.9261C20.751 27.006 20.6427 27.051 20.5296 27.0511H19.8468C19.7337 27.0511 19.6252 27.0062 19.5452 26.9262C19.4653 26.8462 19.4203 26.7378 19.4203 26.6247C19.4202 26.5687 19.4312 26.5132 19.4527 26.4614C19.4741 26.4097 19.5055 26.3627 19.5451 26.3231C19.5847 26.2835 19.6317 26.2521 19.6835 26.2306C19.7352 26.2092 19.7907 26.1982 19.8467 26.1983H20.5297C20.7648 26.1983 20.956 26.3889 20.9561 26.6247ZM24.0026 26.6247C24.0026 26.8598 23.8113 27.0511 23.5761 27.0511H22.8933C22.7802 27.0511 22.6718 27.0062 22.5918 26.9262C22.5118 26.8462 22.4669 26.7378 22.4668 26.6247C22.4668 26.5687 22.4778 26.5132 22.4992 26.4614C22.5206 26.4097 22.552 26.3627 22.5917 26.3231C22.6313 26.2835 22.6783 26.2521 22.73 26.2306C22.7818 26.2092 22.8373 26.1982 22.8933 26.1983H23.5763C23.6894 26.1983 23.7978 26.2433 23.8777 26.3233C23.9577 26.4032 24.0026 26.5117 24.0026 26.6247ZM29.6205 28.5643H26.1127V8.74759C26.1126 8.63453 26.0676 8.52614 25.9877 8.44619C25.9077 8.36625 25.7994 8.32127 25.6863 8.32114H23.871V3.5652C23.871 3.45211 23.826 3.34367 23.7461 3.26371C23.6661 3.18375 23.5576 3.13883 23.4446 3.13881H22.0501V1.00848C22.0501 0.895398 22.0051 0.786947 21.9252 0.706977C21.8452 0.627007 21.7368 0.582064 21.6237 0.582031H18.752C18.517 0.582031 18.3255 0.773315 18.3255 1.00842L18.3256 3.13875H16.9313C16.8182 3.13875 16.7097 3.18367 16.6297 3.26365C16.5497 3.34362 16.5048 3.45209 16.5047 3.5652L16.5048 8.32114H14.6901C14.577 8.32116 14.4685 8.36608 14.3886 8.44604C14.3086 8.52599 14.2636 8.63444 14.2636 8.74753L14.2637 16.4141L11.1977 14.3392C11.1271 14.2916 11.0439 14.2661 10.9588 14.2661C10.8737 14.2661 10.7905 14.2916 10.72 14.3392L2.20407 20.1022C2.14636 20.1413 2.09909 20.194 2.06639 20.2555C2.03368 20.3171 2.01653 20.3858 2.01643 20.4555L2.01655 22.7022C2.01655 23.0435 2.401 23.2469 2.68288 23.0549L3.85929 22.2551V28.5643H0.379579C0.32357 28.5643 0.268102 28.5753 0.216348 28.5967C0.164593 28.6181 0.117568 28.6495 0.0779607 28.6891C0.0383535 28.7287 0.00694137 28.7757 -0.014479 28.8275C-0.0358994 28.8792 -0.0469079 28.9347 -0.0468749 28.9907C-0.0468583 29.1038 -0.00192322 29.2123 0.0780487 29.2923C0.158021 29.3722 0.266481 29.4172 0.379579 29.4172H29.6205C29.6765 29.4172 29.732 29.4061 29.7837 29.3847C29.8354 29.3633 29.8824 29.3318 29.922 29.2922C29.9616 29.2526 29.993 29.2056 30.0144 29.1539C30.0358 29.1022 30.0468 29.0467 30.0468 28.9907C30.0469 28.9347 30.0359 28.8792 30.0145 28.8275C29.9931 28.7757 29.9617 28.7287 29.9221 28.6891C29.8825 28.6495 29.8355 28.6181 29.7838 28.5967C29.732 28.5753 29.6766 28.5643 29.6205 28.5643ZM2.8694 20.6815V21.8968L10.7187 16.5573C10.7895 16.5093 10.8732 16.4837 10.9588 16.4837C11.0443 16.4837 11.128 16.5093 11.1988 16.5573L19.048 21.8967V20.6815L10.9588 15.2073L2.8694 20.6815ZM12.2338 28.5643H9.68369V25.3345C9.68369 25.0244 9.93585 24.7728 10.2454 24.7728H11.6721C11.9822 24.7728 12.2337 25.0244 12.2337 25.3345L12.2338 28.5643ZM13.0866 28.5643H17.2053V21.6745L10.9588 17.4261L4.71214 21.6745V28.5644H8.83084L8.83078 25.3345C8.83078 24.5541 9.46557 23.92 10.2454 23.92H11.6721C12.4518 23.92 13.0867 24.5541 13.0867 25.3345L13.0866 28.5643ZM25.2599 28.5643V9.17399H23.4446C23.3885 9.17403 23.3331 9.16302 23.2813 9.1416C23.2296 9.12019 23.1826 9.08877 23.143 9.04916C23.1034 9.00955 23.072 8.96253 23.0506 8.91077C23.0292 8.85901 23.0182 8.80354 23.0182 8.74753V3.99165H21.6237C21.5106 3.99164 21.4021 3.9467 21.3222 3.86673C21.2422 3.78676 21.1973 3.6783 21.1972 3.5652V1.43488H19.1784V3.5652C19.1784 3.67829 19.1334 3.78674 19.0535 3.86671C18.9735 3.94668 18.8651 3.99162 18.752 3.99165H17.3577L17.3576 8.74753C17.3576 8.98327 17.167 9.17392 16.9313 9.17392H15.1165V16.991L19.7133 20.1022C19.7711 20.1412 19.8185 20.1938 19.8512 20.2554C19.8839 20.317 19.901 20.3857 19.901 20.4555L19.9009 22.7022C19.9009 23.0473 19.513 23.2451 19.2344 23.0549L18.0582 22.2551V28.5643H25.2599ZM10.9588 19.5478C11.878 19.5478 12.6261 20.2953 12.626 21.2146C12.626 22.1338 11.878 22.8819 10.9587 22.8819C10.0394 22.8819 9.29191 22.1338 9.29191 21.2146C9.29197 20.2953 10.0395 19.5478 10.9588 19.5478ZM10.9588 22.029C10.5098 22.029 10.1447 21.6635 10.1447 21.2146C10.1449 20.7656 10.5097 20.4006 10.9587 20.4006C11.4077 20.4006 11.7731 20.7655 11.7731 21.2146C11.7733 21.6635 11.4076 22.029 10.9588 22.029Z" stroke="#3762CC" stroke-width="0.4" mask="url(#path-1-outside-1_14_92100)"/>
</g>
<defs>
<clipPath id="clip0_14_92100">
<rect width="30" height="30" fill="white"/>
</clipPath>
</defs>
</svg>
