<svg width="20" height="20" viewBox="0 0 20 20" fill="none" xmlns="http://www.w3.org/2000/svg">
<path d="M5.50195 5.67779C5.50195 3.23461 7.48249 1.25401 9.9256 1.25401C12.3687 1.25401 14.3492 3.23461 14.3492 5.67779C14.3492 8.12097 12.3687 10.1016 9.9256 10.1016C7.48249 10.1016 5.50195 8.12097 5.50195 5.67779Z" stroke="black" stroke-width="1.5" stroke-miterlimit="10" stroke-linecap="round" stroke-linejoin="round"/>
<path d="M8.43834 19.2539H2.47759C1.4899 19.2539 0.75794 18.3446 0.959254 17.3776C1.82495 13.2192 5.51042 10.0949 9.9256 10.0949C11.5396 10.0949 13.0561 10.5124 14.373 11.2453" stroke="black" stroke-width="1.5" stroke-miterlimit="10" stroke-linecap="round" stroke-linejoin="round"/>
<path d="M17.1719 12.4669L18.5883 13.8675C19.0378 14.3121 19.0388 15.034 18.5905 15.4798L17.1719 16.8906" stroke="black" stroke-width="1.5" stroke-miterlimit="10" stroke-linecap="round" stroke-linejoin="round"/>
<path d="M18.3924 14.6403H13.2628C11.9888 14.6403 10.9561 15.6731 10.9561 16.9471C10.9561 18.2211 11.9702 19.2539 13.2441 19.2539" stroke="black" stroke-width="1.5" stroke-miterlimit="10" stroke-linecap="round" stroke-linejoin="round"/>
</svg>
