<svg width="22" height="22" viewBox="0 0 22 22" fill="none" xmlns="http://www.w3.org/2000/svg">
<path d="M3.4375 9.10938V19.25C3.4375 19.4323 3.50993 19.6072 3.63886 19.7361C3.7678 19.8651 3.94266 19.9375 4.125 19.9375H8.25V14.0938C8.25 13.8202 8.35865 13.5579 8.55205 13.3645C8.74544 13.1711 9.00775 13.0625 9.28125 13.0625H12.7188C12.9923 13.0625 13.2546 13.1711 13.448 13.3645C13.6414 13.5579 13.75 13.8202 13.75 14.0938V19.9375H17.875C18.0573 19.9375 18.2322 19.8651 18.3611 19.7361C18.4901 19.6072 18.5625 19.4323 18.5625 19.25V9.10938" stroke="#0D1520" stroke-width="1.25" stroke-linecap="round" stroke-linejoin="round"/>
<path d="M20.625 10.9992L11.4679 2.23362C11.2531 2.00675 10.7508 2.00417 10.5321 2.23362L1.375 10.9992M17.1875 7.69066V2.74925H15.125V5.71409" stroke="#0D1520" stroke-width="1.25" stroke-linecap="round" stroke-linejoin="round"/>
</svg>
