<svg xmlns="http://www.w3.org/2000/svg" width="17" height="16" viewBox="0 0 17 16" fill="none">
  <path d="M8.5013 13.0832C7.0822 13.0832 5.88021 12.5907 4.89531 11.6058C3.91042 10.6209 3.41797 9.41893 3.41797 7.99984C3.41797 6.58074 3.91042 5.37874 4.89531 4.39385C5.88021 3.40895 7.0822 2.9165 8.5013 2.9165C9.23203 2.9165 9.93099 3.06742 10.5982 3.36924C11.2654 3.67106 11.8372 4.10261 12.3138 4.6639V2.9165H13.5846V7.36442H9.13672V6.09359H11.8055C11.4666 5.50053 11.0033 5.03456 10.4155 4.69567C9.82773 4.35678 9.18967 4.18734 8.5013 4.18734C7.44227 4.18734 6.5421 4.558 5.80078 5.29932C5.05946 6.04064 4.6888 6.94081 4.6888 7.99984C4.6888 9.05887 5.05946 9.95904 5.80078 10.7004C6.5421 11.4417 7.44227 11.8123 8.5013 11.8123C9.31675 11.8123 10.0528 11.5794 10.7094 11.1134C11.366 10.6474 11.8266 10.0332 12.0914 9.27067H13.4258C13.1293 10.3932 12.5256 11.3093 11.6148 12.0188C10.7041 12.7284 9.66623 13.0832 8.5013 13.0832Z" fill="white"/>
</svg>