<svg width="30" height="18" viewBox="0 0 30 18" fill="none" xmlns="http://www.w3.org/2000/svg">
<path d="M11.6681 6.57499V9.30755H8.93555V7.01972C8.93555 6.96142 8.94703 6.90369 8.96934 6.84983C8.99165 6.79596 9.02435 6.74702 9.06558 6.7058C9.1068 6.66457 9.15574 6.63187 9.20961 6.60956C9.26347 6.58725 9.3212 6.57577 9.3795 6.57577H11.6681V6.57499ZM11.6681 10.0176V12.7501H9.38027C9.26253 12.7501 9.14961 12.7033 9.06635 12.6201C8.98309 12.5368 8.93632 12.4239 8.93632 12.3062V10.0183H11.6681V10.0176ZM15.1107 10.0176V12.3054C15.1107 12.4231 15.0639 12.5361 14.9806 12.6193C14.8974 12.7026 14.7845 12.7493 14.6667 12.7493H12.3789V10.0168H15.1107V10.0176ZM15.1107 7.01895V9.30677H12.3781V6.57422H14.6659C14.9119 6.57499 15.1107 6.77377 15.1107 7.01895Z" fill="#3762CC"/>
<path d="M29.4316 9.3947L18.2198 0.167595C18.0802 0.0526494 17.9032 -0.00680077 17.7225 0.000619499C17.5419 0.00803977 17.3703 0.0818098 17.2406 0.207814L15.0835 2.30151L12.4902 0.167595C12.3589 0.0595436 12.1941 0.000339769 12.0241 5.77372e-05C11.854 -0.000224294 11.6891 0.0584326 11.5574 0.166048L0.269879 9.39316C-0.0441365 9.64994 -0.0913159 10.1132 0.166239 10.4272C0.235099 10.5117 0.321923 10.5798 0.420395 10.6265C0.518866 10.6732 0.626508 10.6973 0.735489 10.6972C0.899458 10.6972 1.06343 10.643 1.20032 10.5309L2.61417 9.37537V16.8383C2.61417 17.2443 2.94365 17.573 3.34893 17.573C3.75422 17.573 4.0837 17.2435 4.0837 16.8383V8.19278C4.0837 8.1866 4.08293 8.18041 4.08293 8.17422L12.0207 1.68585L19.5687 7.89733V16.8383C19.5687 17.2443 19.8982 17.573 20.3035 17.573C20.7095 17.573 21.0382 17.2435 21.0382 16.8383V9.10776L22.7661 10.5301C23.0793 10.7884 23.5426 10.7428 23.8009 10.4296C24.0593 10.1163 24.0136 9.65303 23.7004 9.3947L16.2236 3.24201L17.7906 1.72066L25.9093 8.40238V16.8383C25.9093 17.2443 26.2388 17.573 26.6441 17.573C27.0502 17.573 27.3789 17.2435 27.3789 16.8383V9.61204L28.4942 10.5293C28.6253 10.6379 28.7903 10.6973 28.9605 10.6972C29.1725 10.6972 29.3836 10.6059 29.529 10.4288C29.591 10.3547 29.6377 10.2691 29.6664 10.1768C29.6951 10.0846 29.7052 9.98758 29.6961 9.89141C29.6871 9.79523 29.659 9.70181 29.6136 9.61655C29.5682 9.53129 29.5063 9.45589 29.4316 9.3947Z" fill="#3762CC"/>
</svg>
