<svg width="15" height="15" viewBox="0 0 15 15" fill="none" xmlns="http://www.w3.org/2000/svg">
<path d="M6.66667 13.3333C5.34813 13.3333 4.0592 12.9423 2.96287 12.2098C1.86654 11.4773 1.01206 10.4361 0.507473 9.21789C0.00288854 7.99972 -0.129134 6.65928 0.128101 5.36607C0.385336 4.07286 1.02027 2.88497 1.95262 1.95262C2.88497 1.02027 4.07286 0.385336 5.36607 0.128101C6.65928 -0.129134 7.99972 0.00288854 9.21789 0.507473C10.4361 1.01206 11.4773 1.86654 12.2098 2.96287C12.9423 4.0592 13.3333 5.34813 13.3333 6.66667C13.3314 8.43417 12.6283 10.1287 11.3785 11.3785C10.1287 12.6283 8.43417 13.3314 6.66667 13.3333ZM6.66667 1.66667C5.67776 1.66667 4.71106 1.95991 3.88882 2.50932C3.06657 3.05873 2.42571 3.83962 2.04727 4.75325C1.66883 5.66688 1.56982 6.67222 1.76274 7.64212C1.95567 8.61203 2.43187 9.50294 3.13114 10.2022C3.8304 10.9015 4.72131 11.3777 5.69122 11.5706C6.66112 11.7635 7.66646 11.6645 8.58009 11.2861C9.49372 10.9076 10.2746 10.2668 10.824 9.44452C11.3734 8.62228 11.6667 7.65558 11.6667 6.66667C11.6653 5.34099 11.1381 4.06999 10.2007 3.1326C9.26335 2.1952 7.99235 1.66799 6.66667 1.66667Z" fill="#888888"/>
<path d="M14.1662 14.9995C13.9452 14.9995 13.7333 14.9117 13.577 14.7554L10.2437 11.422C10.0919 11.2649 10.0079 11.0544 10.0098 10.8359C10.0117 10.6174 10.0993 10.4083 10.2538 10.2538C10.4083 10.0993 10.6174 10.0117 10.8359 10.0098C11.0544 10.0079 11.2649 10.0919 11.422 10.2437L14.7554 13.577C14.8719 13.6936 14.9512 13.842 14.9833 14.0037C15.0155 14.1653 14.999 14.3328 14.9359 14.4851C14.8729 14.6373 14.7661 14.7675 14.6291 14.859C14.4921 14.9506 14.331 14.9995 14.1662 14.9995Z" fill="#888888"/>
</svg>
