<svg width="16" height="16" viewBox="0 0 16 16" fill="none" xmlns="http://www.w3.org/2000/svg">
<g clip-path="url(#clip0_6170_2632)">
<path d="M15.8044 14.8855L13.0544 12.198L12.9901 12.1002C12.8689 11.9807 12.7055 11.9137 12.5354 11.9137C12.3652 11.9137 12.2018 11.9807 12.0807 12.1002C9.74349 14.2442 6.14318 14.3605 3.66568 12.3724C1.18818 10.3842 0.604738 6.90642 2.30068 4.2483C3.99661 1.59017 7.44661 0.57361 10.3632 1.8733C13.2797 3.17299 14.7551 6.38736 13.8126 9.38236C13.7793 9.48902 13.7754 9.60265 13.8012 9.71135C13.827 9.82004 13.8815 9.9198 13.9591 10.0002C14.0375 10.082 14.1358 10.142 14.2444 10.1746C14.3529 10.2071 14.468 10.211 14.5785 10.1858C14.6884 10.1616 14.79 10.109 14.8732 10.0332C14.9564 9.95741 15.0183 9.86111 15.0526 9.75392C16.1776 6.19986 14.4782 2.37486 11.0526 0.753923C7.62693 -0.867015 3.50474 0.200798 1.3513 3.26861C-0.802137 6.33642 -0.339949 10.4817 2.43911 13.0239C5.21818 15.5661 9.47974 15.7408 12.4688 13.4377L14.9038 15.8183C15.026 15.9357 15.189 16.0013 15.3585 16.0013C15.528 16.0013 15.6909 15.9357 15.8132 15.8183C15.8728 15.7599 15.9202 15.6902 15.9525 15.6132C15.9849 15.5363 16.0016 15.4536 16.0016 15.3702C16.0016 15.2867 15.9849 15.2041 15.9525 15.1271C15.9202 15.0502 15.8728 14.9804 15.8132 14.922L15.8044 14.8855Z" fill="#888888"/>
</g>
<defs>
<clipPath id="clip0_6170_2632">
<rect width="16" height="16" fill="white"/>
</clipPath>
</defs>
</svg>
