<svg width="74" height="73" viewBox="0 0 74 73" fill="none" xmlns="http://www.w3.org/2000/svg">
<rect width="74" height="73" rx="10" fill="#F2F2F2"/>
<g clip-path="url(#clip0_6170_2740)">
<path d="M54.0259 16.3459H19.9765C17.2319 16.3459 15 18.5264 15 21.2118V51.794C15 54.4762 17.2319 56.6544 19.9765 56.6544H54.0257C56.7703 56.6544 58.9999 54.4762 58.9999 51.794V21.2118C59 18.5264 56.7705 16.3459 54.0259 16.3459ZM43.4526 23.5824C46.1068 23.5824 48.2593 25.6861 48.2593 28.2798C48.2593 30.8735 46.1067 32.9772 43.4526 32.9772C40.7977 32.9772 38.646 30.8735 38.646 28.2798C38.646 25.6861 40.7977 23.5824 43.4526 23.5824ZM52.4652 52.1587H22.223C20.8954 52.1587 20.3042 51.2201 20.9027 50.0621L29.1518 34.0945C29.7495 32.9366 30.8886 32.8333 31.6953 33.8635L39.9901 44.4571C40.7968 45.4874 42.2069 45.5751 43.1401 44.652L45.1693 42.6438C46.1018 41.7207 47.4757 41.835 48.2368 42.8975L53.4913 50.2326C54.2509 51.2967 53.7927 52.1587 52.4652 52.1587Z" fill="#D2D2D2"/>
</g>
<defs>
<clipPath id="clip0_6170_2740">
<rect width="44" height="43" fill="white" transform="translate(15 15)"/>
</clipPath>
</defs>
</svg>
