<svg width="73" height="53" viewBox="0 0 73 53" fill="none" xmlns="http://www.w3.org/2000/svg">
<path fill-rule="evenodd" clip-rule="evenodd" d="M71.6158 0.350059C71.291 -0.0535882 70.7005 -0.11754 70.2969 0.207218L61.8952 6.96685V4.84664C61.8952 4.15587 61.3353 3.5959 60.6445 3.5959H55.7197C55.029 3.5959 54.469 4.15587 54.469 4.84664V12.9417L46.2984 19.5155C45.8947 19.8402 45.8308 20.4307 46.1555 20.8344C46.4803 21.238 47.0708 21.302 47.4744 20.9772L50.0914 18.8717V52.3746H71.3539C71.872 52.3746 72.292 51.9547 72.292 51.4366C72.292 50.9185 71.872 50.4985 71.3539 50.4985H51.9675V17.3622L71.4729 1.66895C71.8766 1.34419 71.9405 0.753706 71.6158 0.350059ZM56.3451 11.4323V5.47201H60.0191V8.47628L56.3451 11.4323Z" fill="#5E23DC"/>
<path fill-rule="evenodd" clip-rule="evenodd" d="M67.2109 25.2655C67.7289 25.2655 68.1489 25.6855 68.1489 26.2036V40.2743C68.1489 40.7924 67.7289 41.2124 67.2109 41.2124H58.143C57.625 41.2124 57.205 40.7924 57.205 40.2743V26.2036C57.205 25.6855 57.625 25.2655 58.143 25.2655H67.2109Z" fill="#5E40E0" fill-opacity="0.6"/>
<mask id="mask0_3477_815" style="mask-type:luminance" maskUnits="userSpaceOnUse" x="0" y="7" width="45" height="45">
<rect y="7" width="45" height="45" fill="white"/>
</mask>
<g mask="url(#mask0_3477_815)">
<path fill-rule="evenodd" clip-rule="evenodd" d="M30.4912 10.1866C32.0756 10.1866 33.3637 11.4748 33.3637 13.0591C33.3637 14.6435 32.0756 15.9298 30.4912 15.9298C28.9069 15.9298 27.6187 14.6435 27.6187 13.0591C27.6187 11.4748 28.9069 10.1866 30.4912 10.1866ZM25.3519 31.1923L27.99 26.936L28.8263 29.3791C28.9312 29.6829 29.1844 29.9135 29.4975 29.9885L37.5994 31.9029C38.3156 32.0773 39.0488 31.946 39.6656 31.5448C40.2825 31.1435 40.6987 30.5248 40.8356 29.801C41.0944 28.4285 40.2769 27.1085 38.9325 26.7335L33.18 25.1229L31.4662 19.5466C31.4025 19.3479 31.275 19.1716 31.1025 19.0535L28.8581 17.4973C29.3681 17.6866 29.9137 17.8048 30.4913 17.8048C33.1087 17.8048 35.2388 15.6766 35.2388 13.0591C35.2388 10.4416 33.1087 8.31165 30.4913 8.31165C27.8738 8.31165 25.7437 10.4416 25.7437 13.0591C25.7437 14.2516 26.2013 15.3279 26.9288 16.1641L26.0494 15.5529C25.9725 15.5004 25.89 15.461 25.8038 15.4329L19.0387 13.256C18.7987 13.1773 18.5419 13.1979 18.3206 13.3141L10.5413 17.3323C9.87 17.6773 9.37312 18.2941 9.17437 19.0216C8.9775 19.751 9.09562 20.5329 9.49875 21.1685C10.23 22.3348 11.7206 22.7529 12.9562 22.1566L19.0106 19.2185L21.4856 20.2573L12.4819 34.436H4.91813C3.24 34.436 1.875 35.801 1.875 37.4791C1.875 39.146 3.23063 40.511 4.89937 40.5223L15.9469 40.5879C16.2956 40.571 16.5281 40.4491 16.7044 40.2073L20.1094 35.6023L23.4263 38.0885L19.9237 46.1454C19.2338 47.7335 19.9256 49.5485 21.4987 50.276C21.9206 50.4691 22.3687 50.5685 22.8206 50.5685C23.2012 50.5685 23.5837 50.4991 23.9513 50.3585C24.7537 50.051 25.3838 49.4473 25.725 48.6598L26.6531 46.5073C26.8575 46.031 26.6381 45.4798 26.1638 45.2754C25.6856 45.0654 25.1362 45.2885 24.9319 45.7648L24.0037 47.9154C23.865 48.236 23.6081 48.4816 23.2819 48.6054C22.9538 48.7329 22.6012 48.7179 22.2844 48.5735C21.645 48.2773 21.3638 47.5385 21.6431 46.8916L25.4419 38.156C25.6144 37.7585 25.4925 37.2935 25.1437 37.031L20.4788 33.5341C20.28 33.386 20.0306 33.3279 19.7812 33.356C19.5338 33.3935 19.3125 33.5266 19.1625 33.7291L15.4819 38.7091L4.91062 38.6473C4.27125 38.6435 3.75 38.1185 3.75 37.4791C3.75 36.8341 4.27312 36.311 4.91813 36.311H12.9975C13.3181 36.311 13.6163 36.146 13.7887 35.8741L23.6625 20.3248C23.8106 20.0923 23.8481 19.8073 23.7656 19.5429C23.6831 19.2804 23.49 19.0648 23.235 18.9598L19.3481 17.3266C19.1006 17.2198 18.8175 17.2291 18.5756 17.3454L12.1388 20.4673C11.7619 20.6548 11.3081 20.5273 11.0831 20.1673C10.9594 19.9723 10.9237 19.7398 10.9856 19.5148C11.0456 19.2879 11.1937 19.1041 11.4019 18.9973L18.8344 15.1591L25.0969 17.1748L29.7694 20.4091L31.5394 26.1635C31.6331 26.4691 31.875 26.7054 32.1825 26.7898L38.4263 28.5391C38.8275 28.6516 39.0713 29.0454 38.9944 29.4523C38.9531 29.6679 38.8294 29.8516 38.6456 29.9716C38.46 30.0916 38.2406 30.1291 38.0306 30.0785L30.4331 28.2823L29.1244 24.4554C29.0063 24.1141 28.7006 23.8685 28.3425 23.8273C27.9731 23.7879 27.6319 23.9604 27.4406 24.266L23.3194 30.9148C23.0681 31.3198 23.16 31.8485 23.5331 32.1429L28.5881 36.1479C28.8056 36.3204 28.8806 36.6166 28.7719 36.8679L26.5069 42.1141C26.3025 42.5904 26.52 43.1416 26.9963 43.3479C27.465 43.5541 28.0219 43.3329 28.2281 42.8585L30.4913 37.6123C30.9375 36.5829 30.6338 35.3773 29.7525 34.6798L25.3519 31.1923Z" fill="#5E23DC"/>
<path fill-rule="evenodd" clip-rule="evenodd" d="M44.3844 50.9374C44.3844 50.4196 43.9647 49.9999 43.4469 49.9999H28.125L27.9565 50.015C27.5191 50.0944 27.1875 50.4771 27.1875 50.9374C27.1875 51.4551 27.6072 51.8749 28.125 51.8749H43.4469L43.6154 51.8598C44.0528 51.7804 44.3844 51.3976 44.3844 50.9374ZM18.1344 50.9374C18.1344 50.4196 17.7147 49.9999 17.1969 49.9999H1.875L1.70648 50.015C1.26914 50.0944 0.9375 50.4772 0.9375 50.9374C0.9375 51.4552 1.35723 51.8749 1.875 51.8749H17.1969L17.3654 51.8598C17.8028 51.7804 18.1344 51.3976 18.1344 50.9374Z" fill="#5E23DC"/>
</g>
</svg>
