<svg width="74" height="74" viewBox="0 0 74 74" fill="none" xmlns="http://www.w3.org/2000/svg">
<mask id="mask0_14_85781" style="mask-type:luminance" maskUnits="userSpaceOnUse" x="0" y="0" width="74" height="74">
<path d="M73.7705 0H0V73.7705H73.7705V0Z" fill="white"/>
</mask>
<g mask="url(#mask0_14_85781)">
<path d="M36.6835 0.374616L36.3089 0.763635V13.1116V25.4594L36.6835 25.8484L37.0725 26.2231H45.3285H53.5989V29.1048V31.9864H37.6633C22.5345 31.9864 21.7277 31.972 21.8286 31.7271C22.2465 30.7473 22.3329 30.0701 22.3329 27.9521V25.69L23.4567 25.1281C25.0848 24.3068 26.9579 22.4193 27.7793 20.748C28.4996 19.2639 28.8166 18.0103 28.8166 16.5551C28.8166 15.5609 28.7878 15.4169 28.442 15.0711L28.0529 14.6964H24.7967C22.5058 14.6964 21.3098 14.7541 20.7767 14.8982L20.0276 15.0855L19.9411 14.7108C19.2494 11.5843 17.7943 8.80348 15.7195 6.65663C15.1719 6.10912 15.0567 6.05149 14.4084 6.05149C13.7455 6.05149 13.6302 6.10912 13.0971 6.65663C11.0512 8.77466 9.52388 11.6707 8.87551 14.7108L8.78907 15.0855L8.03983 14.8982C7.50673 14.7541 6.31083 14.6964 4.01991 14.6964H0.763635L0.374619 15.0711C0.0288172 15.4169 0 15.5609 0 16.5551C0 18.0103 0.316979 19.2639 1.0374 20.748C1.85867 22.4193 3.73175 24.3068 5.37429 25.1281L6.48374 25.69V27.9521C6.48374 30.0701 6.57018 30.7473 6.98802 31.7271C7.08888 31.972 6.88716 31.9864 3.91906 31.9864H0.763635L0.374619 32.361L0 32.75V52.8784V73.0069L0.374619 73.3959C0.677189 73.6984 0.893311 73.7705 1.44084 73.7705C1.98835 73.7705 2.20447 73.6984 2.50704 73.3959C2.86725 73.0212 2.88166 72.9637 2.88166 71.2346V69.448H14.4084H25.935V71.2346C25.935 72.9637 25.9494 73.0212 26.3095 73.3959C26.8571 73.929 27.8945 73.929 28.442 73.3959L28.8166 73.0069V58.2671V43.513H49.8527H70.8888V58.2671V73.0069L71.2634 73.3959C71.566 73.6984 71.7821 73.7705 72.3296 73.7705C72.8771 73.7705 73.0933 73.6984 73.3959 73.3959L73.7705 73.0069V52.8784V32.75L73.3959 32.361L73.0068 31.9864H64.7509H56.4805V29.1048V26.2231H64.7509H73.0068L73.3959 25.8484L73.7705 25.4594V13.1116V0.763635L73.3959 0.374616L73.0068 0H66.9266H60.8463L60.4429 0.389024C60.1114 0.734828 60.0682 0.878902 60.1258 1.42643C60.1691 1.84426 60.3132 2.17565 60.5725 2.435L60.9471 2.80962L65.918 2.85284L70.8888 2.89607V13.1116V23.3415H55.0397H39.1906V13.1116V2.89607L44.1615 2.85284L49.1323 2.80962L49.5069 2.435C49.7663 2.17565 49.9104 1.84426 49.9536 1.42643C50.0112 0.878902 49.968 0.734828 49.6366 0.389024L49.2332 0H43.1529H37.0725L36.6835 0.374616ZM15.0855 10.5469C16.1085 12.0741 16.9441 14.221 17.1891 16.0076C17.2612 16.483 17.2035 16.5696 16.3678 17.3187C15.878 17.7654 15.2584 18.4426 14.9846 18.846C14.7108 19.2639 14.4515 19.5809 14.4084 19.5809C14.3651 19.5809 14.1058 19.2639 13.832 18.846C13.5582 18.4426 12.9386 17.7654 12.4488 17.3187C11.6131 16.5696 11.5554 16.483 11.6275 16.0076C11.7572 15.0423 12.247 13.3853 12.6793 12.42C13.0971 11.4978 14.2498 9.65356 14.4084 9.65356C14.4515 9.65356 14.7541 10.057 15.0855 10.5469ZM7.57876 17.7798C9.50948 18.2985 11.3249 19.7682 12.175 21.5404C12.4488 22.0879 12.7081 22.7219 12.7657 22.938L12.8522 23.3415H10.9359C9.76882 23.3415 8.71702 23.255 8.27036 23.1397C7.14652 22.8371 5.83536 22.0735 4.98527 21.2378C4.20723 20.4598 3.2851 18.8893 3.09778 18.0392L2.99693 17.5782H4.92764C6.0803 17.5782 7.13211 17.6646 7.57876 17.7798ZM25.7189 18.0392C25.5459 18.8749 24.6237 20.4454 23.8601 21.2234C23.0389 22.0591 21.6845 22.8371 20.5462 23.1397C20.0996 23.255 19.0478 23.3415 17.8807 23.3415H15.9644L16.0509 22.938C16.1085 22.7219 16.3678 22.0879 16.6416 21.5404C17.4772 19.7971 19.2927 18.2985 21.1657 17.7798C21.5404 17.679 22.7075 17.5925 23.8169 17.5925L25.8197 17.5782L25.7189 18.0392ZM19.4512 27.9521C19.4512 29.9405 19.3504 30.3583 18.6732 31.0932C17.9528 31.9 17.5349 31.9864 14.4084 31.9864C11.3249 31.9864 11.0512 31.9289 10.2587 31.2084C9.52388 30.56 9.3654 29.9837 9.3654 28.0386V26.2231L14.1633 26.1799C16.7856 26.1654 19.0622 26.1366 19.2063 26.1079C19.4224 26.079 19.4512 26.252 19.4512 27.9521ZM70.8888 37.7497V40.6314H36.8852H2.88166V37.7497V34.8681H36.8852H70.8888V37.7497ZM25.935 48.556V53.5989H14.4084H2.88166V48.556V43.513H14.4084H25.935V48.556ZM25.935 61.5235V66.5663H14.4084H2.88166V61.5235V56.4805H14.4084H25.935V61.5235Z" fill="#0D1520"/>
<path d="M13.4578 47.6043C12.7806 48.2815 12.795 48.8434 13.4722 49.5206C13.9189 49.9673 14.0485 50.0249 14.5095 49.9529C15.1867 49.8376 15.6911 49.3333 15.8063 48.6561C15.8783 48.1951 15.8207 48.0654 15.3741 47.6187C14.6969 46.9415 14.1349 46.9271 13.4578 47.6043Z" fill="#0D1520"/>
<path d="M13.4578 60.573C12.7806 61.2503 12.795 61.8121 13.4722 62.4894C13.9189 62.936 14.0485 62.9936 14.5095 62.9215C15.1867 62.8063 15.6911 62.302 15.8063 61.6248C15.8783 61.1637 15.8207 61.0341 15.3741 60.5874C14.6969 59.9102 14.1349 59.8958 13.4578 60.573Z" fill="#0D1520"/>
<path d="M53.9743 0.374207C53.398 0.964947 53.4413 1.74299 54.104 2.40577C54.5507 2.85244 54.6804 2.91007 55.1415 2.83803C55.8762 2.70835 56.3517 2.18965 56.4382 1.42601C56.4958 0.878501 56.4526 0.734415 56.1211 0.388615C55.5593 -0.1589 54.5219 -0.173309 53.9743 0.374207Z" fill="#0D1520"/>
<path d="M13.8895 10.4741C12.8521 12.059 12.1173 13.8456 11.8147 15.517L11.6562 16.4247L12.7225 17.4621C13.3131 18.0385 13.9327 18.7012 14.0912 18.9462L14.4083 19.3784L14.7252 18.9462C14.8837 18.7012 15.5033 18.0385 16.0939 17.4621L17.1601 16.4247L17.0017 15.517C16.7855 14.3643 16.3821 13.154 15.8202 12.0446C15.3304 11.0792 14.5235 9.79688 14.4083 9.79688C14.365 9.79688 14.1344 10.0994 13.8895 10.4741Z" fill="white"/>
<path d="M3.22781 18.0232C3.38631 18.8732 4.14994 20.2275 4.88477 21.0056C6.44086 22.6193 7.86729 23.1813 10.7922 23.2965L12.7229 23.383L12.6364 22.8931C12.3483 21.4523 10.8066 19.4495 9.32252 18.5994C8.12664 17.9222 7.17569 17.7061 5.05766 17.6196L3.12695 17.5332L3.22781 18.0232Z" fill="white"/>
<path d="M22.2606 17.6789C21.4105 17.7943 20.229 18.1833 19.4942 18.6011C18.0101 19.4512 16.4684 21.4539 16.1803 22.8948L16.0938 23.3846L18.0246 23.2982C20.9494 23.183 22.3758 22.621 23.9319 21.0072C24.6667 20.2436 25.4304 18.8749 25.5889 18.0392L25.6897 17.5781L24.1913 17.5925C23.37 17.6069 22.5055 17.6502 22.2606 17.6789Z" fill="white"/>
<path d="M2.88086 37.7488V40.6305H36.8844H70.888V37.7488V34.8672H36.8844H2.88086V37.7488Z" fill="#8A73DB"/>
<path d="M2.88086 48.5547V53.5976H14.4076H25.9342V48.5547V43.5117H14.4076H2.88086V48.5547ZM15.4449 47.5028C15.7762 47.8198 15.8483 48.0072 15.8483 48.5403C15.8483 49.4624 15.3297 49.9955 14.4076 49.9955C13.4998 49.9955 12.9667 49.4624 12.9667 48.5547C12.9667 47.6469 13.4998 47.1138 14.3931 47.1138C14.8974 47.1138 15.1279 47.2002 15.4449 47.5028Z" fill="#8A73DB"/>
<path d="M2.88086 61.5234V66.5662H14.4076H25.9342V61.5234V56.4805H14.4076H2.88086V61.5234ZM15.4449 60.4716C15.7762 60.7885 15.8483 60.9759 15.8483 61.5089C15.8483 62.431 15.3297 62.9642 14.4076 62.9642C13.4998 62.9642 12.9667 62.431 12.9667 61.5234C12.9667 60.6157 13.4998 60.0826 14.3931 60.0826C14.8974 60.0826 15.1279 60.169 15.4449 60.4716Z" fill="#8A73DB"/>
<path d="M49.9977 1.74202C49.9977 1.90052 49.8103 2.23191 49.5798 2.46244L49.162 2.88028H44.1767H39.1914V13.1102V23.3401H55.0405H70.8896V13.1102V2.88028H65.9044H60.9192L60.5012 2.46244C60.2707 2.23191 60.0835 1.90052 60.0835 1.74202C60.0835 1.45385 60.0114 1.43945 58.2824 1.43945C56.5534 1.43945 56.4814 1.45385 56.4814 1.74202C56.4814 1.90052 56.2941 2.23191 56.0636 2.46244C55.7321 2.79383 55.516 2.88028 55.0405 2.88028C54.5651 2.88028 54.3489 2.79383 54.0176 2.46244C53.787 2.23191 53.5998 1.90052 53.5998 1.74202C53.5998 1.45385 53.5277 1.43945 51.7987 1.43945C50.0697 1.43945 49.9977 1.45385 49.9977 1.74202Z" fill="#F7F8FA"/>
<path d="M9.36523 27.7068C9.36523 29.5365 9.61018 30.4587 10.273 31.0927C11.0222 31.8131 11.8003 31.986 14.4082 31.986C17.016 31.986 17.7941 31.8131 18.5433 31.0927C19.2061 30.4587 19.451 29.5365 19.451 27.7068V26.2227H14.4082H9.36523V27.7068Z" fill="#5D6772"/>
</g>
</svg>
