<svg width="100%" height="100%" viewBox="0 0 24 24" fill="none" xmlns="http://www.w3.org/2000/svg">
<path d="M8 13L11 16L16 9M22 12C22 10.605 21.142 9.395 19.863 8.741C20.313 7.385 20.058 5.912 19.073 4.927C18.088 3.941 16.615 3.687 15.258 4.137C14.615 2.859 13.396 2 12 2C10.604 2 9.395 2.859 8.751 4.137C7.385 3.687 5.912 3.941 4.927 4.927C3.941 5.912 3.697 7.385 4.147 8.741C2.867 9.395 2 10.605 2 12C2 13.395 2.868 14.605 4.146 15.258C3.698 16.615 3.941 18.088 4.926 19.073C5.912 20.058 7.386 20.303 8.741 19.863C9.395 21.142 10.605 22 12 22C13.395 22 14.615 21.142 15.258 19.863C16.615 20.303 18.088 20.058 19.073 19.073C20.058 18.088 20.313 16.615 19.863 15.258C21.142 14.606 22 13.396 22 12Z" stroke="currentColor" stroke-width="1.5" stroke-linecap="round" stroke-linejoin="round"/>
</svg>
