<svg width="100%" height="100%" viewBox="0 0 25 25" fill="none" xmlns="http://www.w3.org/2000/svg">
<rect x="15.4199" y="0.885986" width="100%" height="100%" fill="currentColor"/>
<path d="M24.8356 22.7789C24.8356 22.7789 24.8356 22.778 24.8356 22.777L21.2723 6.0111C21.0817 5.11105 20.2649 4.45784 19.3293 4.45784C16.1079 4.46286 9.62491 4.45418 6.40397 4.45784C5.46836 4.45784 4.65159 5.11105 4.46099 6.01064L0.897262 22.7793C0.812248 23.188 0.915544 23.6085 1.18064 23.934C1.45077 24.2663 1.85344 24.4569 2.28491 24.4569H23.4479C24.3095 24.4793 25.0325 23.6231 24.8356 22.7793V22.7789ZM1.80134 23.4289C1.6889 23.2908 1.64502 23.1139 1.68067 22.9439L5.24394 6.17658C5.35638 5.64404 5.84453 5.25778 6.40397 5.25778H12.4665V23.6565H2.28491C2.09523 23.6565 1.91834 23.5738 1.80088 23.4289H1.80134ZM23.9319 23.4289C23.8145 23.5738 23.638 23.6565 23.4479 23.6565H13.2663V5.25778H19.3288C19.8887 5.25778 20.3769 5.64404 20.4893 6.17658L24.0526 22.9425C24.0878 23.1139 24.0439 23.2908 23.9319 23.4284V23.4289Z" fill="currentColor"/>
<path d="M18.8653 13.2571C19.3909 13.2484 19.3909 12.4659 18.8653 12.4572H18.0696L18.208 11.6266C18.208 11.6266 18.209 11.6225 18.209 11.6207C18.3369 10.9245 17.9786 10.1785 17.4128 9.86033L18.0234 8.63573C18.1221 8.43825 18.0417 8.19781 17.8442 8.09953C17.6459 7.99988 17.4068 8.08171 17.3081 8.27872L16.6664 9.56549L16.4241 9.07867C16.3259 8.88119 16.0854 8.80029 15.888 8.89856C15.6901 8.99684 15.6096 9.23728 15.7079 9.43476L15.9227 9.86627C15.3445 10.199 15.0008 10.8948 15.1242 11.6261L15.2627 12.4567H14.467C13.9418 12.4654 13.9409 13.248 14.467 13.2567H18.8658L18.8653 13.2571ZM16.5708 10.4651C16.6147 10.4541 16.6878 10.4477 16.7902 10.4715C17.2126 10.5359 17.5078 11.0392 17.4187 11.4972L17.2587 12.4572H16.0726L15.9127 11.4945C15.8318 11.0154 16.1211 10.546 16.5704 10.4651H16.5708Z" fill="currentColor"/>
<path d="M21.2647 21.2565H20.4689C20.4703 21.2487 20.6079 20.4255 20.6083 20.4182C20.7349 19.7224 20.377 18.9769 19.8116 18.6596L20.4227 17.435C20.5215 17.2376 20.441 16.9971 20.2436 16.8989C20.0452 16.7992 19.8062 16.881 19.7074 17.078L19.0657 18.3648L18.8239 17.8784C18.7257 17.681 18.4848 17.5996 18.2878 17.6983C18.0903 17.7966 18.0094 18.0371 18.1077 18.2345L18.3221 18.666C17.7434 18.9988 17.4002 19.6945 17.5231 20.4259L17.6612 21.256H16.8654C16.3407 21.2643 16.3389 22.0473 16.8654 22.056H21.2647C21.7889 22.0478 21.7917 21.2647 21.2647 21.256V21.2565ZM18.9697 19.2644C19.0136 19.2534 19.0867 19.247 19.1891 19.2708C19.6124 19.3353 19.9081 19.8404 19.8176 20.2988L19.6585 21.2565H18.472L18.312 20.2943C18.2311 19.8152 18.5204 19.3462 18.9702 19.2649L18.9697 19.2644Z" fill="currentColor"/>
<path d="M8.24683 11.2996C8.04937 11.2018 7.80941 11.2808 7.71023 11.4783L6.86832 13.1623L6.02641 11.4783C5.78416 11.013 5.08303 11.3613 5.3111 11.8362L6.51089 14.2361C6.64481 14.5259 7.09274 14.5268 7.2262 14.2361L8.42599 11.8362C8.52472 11.6388 8.44473 11.3983 8.24728 11.2996H8.24683Z" fill="currentColor"/>
<path d="M11.0456 7.69949C10.8481 7.60167 10.6072 7.68075 10.509 7.87822L9.66752 9.56222L8.82561 7.87822C8.5829 7.41288 7.88268 7.7612 8.1103 8.23614L9.31009 10.636C9.44401 10.9258 9.89194 10.9267 10.0254 10.636L11.2247 8.23614C11.3235 8.03867 11.2435 7.79823 11.046 7.69949H11.0456Z" fill="currentColor"/>
<path d="M11.0456 15.2993C10.8481 15.201 10.6072 15.2806 10.509 15.478L9.66752 17.162L8.82561 15.478C8.5829 15.0127 7.88268 15.361 8.1103 15.836L9.31009 18.2358C9.44401 18.5256 9.89194 18.5265 10.0254 18.2358L11.2247 15.836C11.3235 15.6385 11.2435 15.398 11.046 15.2993H11.0456Z" fill="currentColor"/>
<path d="M6.64673 18.4988C6.44928 18.401 6.20932 18.4801 6.11013 18.6775L5.26822 20.3615L4.42631 18.6775C4.18406 18.2122 3.48293 18.5605 3.711 19.0355L4.9108 21.4353C5.04472 21.7251 5.49264 21.726 5.6261 21.4353L6.8259 19.0355C6.92462 18.838 6.84464 18.5975 6.64719 18.4988H6.64673Z" fill="currentColor"/>
</svg>
