<svg width="100%" height="100%" viewBox="0 0 28 28" fill="currentColor" xmlns="http://www.w3.org/2000/svg">
<g clip-path="url(#clip0_6170_2649)">
<path d="M14.1115 19.1447C14.2543 19.1447 14.3913 19.088 14.4923 18.987C14.5933 18.8861 14.65 18.7491 14.65 18.6063V16.0371C14.65 15.8942 14.5933 15.7573 14.4923 15.6563C14.3913 15.5553 14.2543 15.4986 14.1115 15.4986C13.9687 15.4986 13.8318 15.5553 13.7308 15.6563C13.6298 15.7573 13.5731 15.8942 13.5731 16.0371V18.6063C13.5731 18.7491 13.6298 18.8861 13.7308 18.987C13.8318 19.088 13.9687 19.1447 14.1115 19.1447ZM14.1115 7.69244C14.2543 7.69244 14.3913 7.63571 14.4923 7.53473C14.5933 7.43375 14.65 7.29679 14.65 7.15398V4.59706C14.65 4.45425 14.5933 4.31729 14.4923 4.21631C14.3913 4.11532 14.2543 4.05859 14.1115 4.05859C13.9687 4.05859 13.8318 4.11532 13.7308 4.21631C13.6298 4.31729 13.5731 4.45425 13.5731 4.59706V7.16629C13.5763 7.30695 13.6344 7.44077 13.7351 7.5391C13.8357 7.63744 13.9708 7.69248 14.1115 7.69244ZM14.1115 13.4247C14.2543 13.4247 14.3913 13.368 14.4923 13.267C14.5933 13.1661 14.65 13.0291 14.65 12.8863V10.3171C14.65 10.1742 14.5933 10.0373 14.4923 9.93631C14.3913 9.83533 14.2543 9.77859 14.1115 9.77859C13.9687 9.77859 13.8318 9.83533 13.7308 9.93631C13.6298 10.0373 13.5731 10.1742 13.5731 10.3171V12.8863C13.5731 13.0291 13.6298 13.1661 13.7308 13.267C13.8318 13.368 13.9687 13.4247 14.1115 13.4247ZM17.93 7.69244C18.0696 7.69088 18.2032 7.63514 18.3025 7.53697C18.4018 7.4388 18.4591 7.30589 18.4623 7.16629V4.59706C18.4623 4.45425 18.4056 4.31729 18.3046 4.21631C18.2036 4.11532 18.0666 4.05859 17.9238 4.05859C17.781 4.05859 17.6441 4.11532 17.5431 4.21631C17.4421 4.31729 17.3854 4.45425 17.3854 4.59706V7.16629C17.3886 7.30802 17.4476 7.44277 17.5496 7.54127C17.6515 7.63978 17.7882 7.6941 17.93 7.69244ZM17.93 13.4247C18.0717 13.4231 18.2071 13.3657 18.3068 13.2649C18.4064 13.1641 18.4623 13.028 18.4623 12.8863V10.3171C18.4623 10.1742 18.4056 10.0373 18.3046 9.93631C18.2036 9.83533 18.0666 9.77859 17.9238 9.77859C17.781 9.77859 17.6441 9.83533 17.5431 9.93631C17.4421 10.0373 17.3854 10.1742 17.3854 10.3171V12.8863C17.3854 12.9575 17.3995 13.028 17.4269 13.0938C17.4544 13.1595 17.4946 13.2191 17.5453 13.2692C17.5959 13.3193 17.656 13.3588 17.722 13.3855C17.7881 13.4122 17.8588 13.4256 17.93 13.4247ZM17.93 19.1447C18.0717 19.1431 18.2071 19.0857 18.3068 18.9849C18.4064 18.8841 18.4623 18.748 18.4623 18.6063V16.0371C18.4623 15.8942 18.4056 15.7573 18.3046 15.6563C18.2036 15.5553 18.0666 15.4986 17.9238 15.4986C17.781 15.4986 17.6441 15.5553 17.5431 15.6563C17.4421 15.7573 17.3854 15.8942 17.3854 16.0371V18.6063C17.3854 18.6775 17.3995 18.748 17.4269 18.8138C17.4544 18.8795 17.4946 18.9391 17.5453 18.9892C17.5959 19.0393 17.656 19.0788 17.722 19.1055C17.7881 19.1322 17.8588 19.1456 17.93 19.1447ZM24.2408 21.1909H24.6961C24.839 21.1909 24.9759 21.1342 25.0769 21.0332C25.1779 20.9322 25.2346 20.7952 25.2346 20.6524C25.2346 20.5096 25.1779 20.3727 25.0769 20.2717C24.9759 20.1707 24.839 20.114 24.6961 20.114H24.2408C24.0979 20.114 23.961 20.1707 23.86 20.2717C23.759 20.3727 23.7023 20.5096 23.7023 20.6524C23.7023 20.7952 23.759 20.9322 23.86 21.0332C23.961 21.1342 24.0979 21.1909 24.2408 21.1909ZM24.2408 18.1078H24.6961C24.839 18.1078 24.9759 18.0511 25.0769 17.9501C25.1779 17.8491 25.2346 17.7122 25.2346 17.5694C25.2346 17.4266 25.1779 17.2896 25.0769 17.1886C24.9759 17.0876 24.839 17.0309 24.6961 17.0309H24.2408C24.0979 17.0309 23.961 17.0876 23.86 17.1886C23.759 17.2896 23.7023 17.4266 23.7023 17.5694C23.7023 17.7122 23.759 17.8491 23.86 17.9501C23.961 18.0511 24.0979 18.1078 24.2408 18.1078ZM24.2408 24.2463H24.6961C24.839 24.2463 24.9759 24.1896 25.0769 24.0886C25.1779 23.9876 25.2346 23.8506 25.2346 23.7078C25.2346 23.565 25.1779 23.4281 25.0769 23.3271C24.9759 23.2261 24.839 23.1694 24.6961 23.1694H24.2408C24.0979 23.1694 23.961 23.2261 23.86 23.3271C23.759 23.4281 23.7023 23.565 23.7023 23.7078C23.7023 23.8506 23.759 23.9876 23.86 24.0886C23.961 24.1896 24.0979 24.2463 24.2408 24.2463ZM7.62538 15.0524H8.07768C8.22049 15.0524 8.35745 14.9957 8.45843 14.8947C8.55941 14.7937 8.61614 14.6568 8.61614 14.514C8.61614 14.3712 8.55941 14.2342 8.45843 14.1332C8.35745 14.0322 8.22049 13.9755 8.07768 13.9755H7.62538C7.48257 13.9755 7.34561 14.0322 7.24463 14.1332C7.14364 14.2342 7.08691 14.3712 7.08691 14.514C7.08691 14.6568 7.14364 14.7937 7.24463 14.8947C7.34561 14.9957 7.48257 15.0524 7.62538 15.0524ZM7.62538 11.9694H8.07768C8.22049 11.9694 8.35745 11.9126 8.45843 11.8117C8.55941 11.7107 8.61614 11.5737 8.61614 11.4309C8.61614 11.2881 8.55941 11.1511 8.45843 11.0502C8.35745 10.9492 8.22049 10.8924 8.07768 10.8924H7.62538C7.48257 10.8924 7.34561 10.9492 7.24463 11.0502C7.14364 11.1511 7.08691 11.2881 7.08691 11.4309C7.08691 11.5737 7.14364 11.7107 7.24463 11.8117C7.34561 11.9126 7.48257 11.9694 7.62538 11.9694ZM7.62538 18.1078H8.07768C8.22049 18.1078 8.35745 18.0511 8.45843 17.9501C8.55941 17.8491 8.61614 17.7122 8.61614 17.5694C8.61614 17.4266 8.55941 17.2896 8.45843 17.1886C8.35745 17.0876 8.22049 17.0309 8.07768 17.0309H7.62538C7.48257 17.0309 7.34561 17.0876 7.24463 17.1886C7.14364 17.2896 7.08691 17.4266 7.08691 17.5694C7.08691 17.7122 7.14364 17.8491 7.24463 17.9501C7.34561 18.0511 7.48257 18.1078 7.62538 18.1078Z" fill="currentColor"/>
<path d="M27.2432 12.6346H22.2093V1.01307C22.2093 0.870262 22.1526 0.733302 22.0516 0.632321C21.9506 0.53134 21.8137 0.474609 21.6709 0.474609H10.3693C10.2292 0.478615 10.0962 0.537108 9.99849 0.637659C9.90081 0.738209 9.8462 0.872888 9.84625 1.01307V7.73615H5.33241C5.1896 7.73615 5.05264 7.79288 4.95166 7.89386C4.85068 7.99484 4.79395 8.1318 4.79395 8.27461V14.97C4.79395 15.1128 4.85068 15.2498 4.95166 15.3507C5.05264 15.4517 5.1896 15.5085 5.33241 15.5085C5.47522 15.5085 5.61218 15.4517 5.71316 15.3507C5.81414 15.2498 5.87087 15.1128 5.87087 14.97V8.81615H9.84625V26.8315H5.84625C5.70344 26.8315 5.56648 26.8883 5.4655 26.9892C5.36452 27.0902 5.30779 27.2272 5.30779 27.37C5.30779 27.5128 5.36452 27.6498 5.4655 27.7507C5.56648 27.8517 5.70344 27.9085 5.84625 27.9085H25.4032C26.0321 27.9077 26.6352 27.6581 27.0809 27.2142C27.5265 26.7703 27.7784 26.1682 27.7816 25.5392V13.1731C27.7816 13.0303 27.7249 12.8933 27.6239 12.7923C27.5229 12.6913 27.386 12.6346 27.2432 12.6346ZM14.6493 26.8315V22.5454H17.3909V26.8315H14.6493ZM21.1324 26.8315H18.4616V22.0069C18.4616 21.8641 18.4049 21.7271 18.3039 21.6262C18.2029 21.5252 18.066 21.4685 17.9232 21.4685H14.1109C13.9681 21.4685 13.8311 21.5252 13.7301 21.6262C13.6291 21.7271 13.5724 21.8641 13.5724 22.0069V26.8315H10.9078V1.53922H21.1324V26.8315ZM26.7047 25.5392C26.7047 25.8847 26.5677 26.2161 26.3237 26.4606C26.0797 26.7052 25.7486 26.843 25.4032 26.8438H22.2124V13.7115H26.7047V25.5392Z" fill="currentColor"/>
<path d="M6.85902 20.4571C6.85902 18.2632 3.98517 16.6078 3.86209 16.5401C3.78174 16.4934 3.69044 16.4688 3.59748 16.4688C3.50451 16.4688 3.41321 16.4934 3.33286 16.5401C3.20978 16.6078 0.335938 18.2632 0.335938 20.4571C0.335938 22.4324 1.51748 24.0724 3.05901 24.3863V27.3863C3.05901 27.5291 3.11575 27.6661 3.21673 27.767C3.31771 27.868 3.45467 27.9248 3.59748 27.9248C3.74029 27.9248 3.87724 27.868 3.97823 27.767C4.07921 27.6661 4.13594 27.5291 4.13594 27.3863V24.4017C5.67748 24.0724 6.85902 22.4324 6.85902 20.4571ZM1.41286 20.4571C1.41286 19.3032 2.80671 18.1524 3.59748 17.6386C4.38825 18.1524 5.78209 19.2971 5.78209 20.4571C5.78209 21.814 5.08055 22.9555 4.13594 23.2755V22.0078C4.13594 21.865 4.07921 21.7281 3.97823 21.6271C3.87724 21.5261 3.74029 21.4694 3.59748 21.4694C3.45467 21.4694 3.31771 21.5261 3.21673 21.6271C3.11575 21.7281 3.05901 21.865 3.05901 22.0078V23.2755C2.1144 22.9555 1.41286 21.8171 1.41286 20.4571Z" fill="currentColor"/>
</g>
<defs>
<clipPath id="clip0_6170_2649">
<rect width="100%" height="100%" fill="white"/>
</clipPath>
</defs>
</svg>
