<svg width="100%" height="100%" viewBox="0 0 28 28" fill="none" xmlns="http://www.w3.org/2000/svg">
<g clip-path="url(#clip0_6170_2662)">
<path d="M10.5301 8.21289H9.1884C8.81415 8.21289 8.51074 8.5163 8.51074 8.89055V10.2323C8.51074 10.6065 8.81415 10.9099 9.1884 10.9099H10.5301C10.9044 10.9099 11.2078 10.6065 11.2078 10.2323V8.89055C11.2077 8.5163 10.9044 8.21289 10.5301 8.21289ZM14.6366 8.21289H13.2949C12.9206 8.21289 12.6172 8.5163 12.6172 8.89055V10.2323C12.6172 10.6065 12.9206 10.9099 13.2949 10.9099H14.6366C15.0109 10.9099 15.3143 10.6065 15.3143 10.2323V8.89055C15.3142 8.5163 15.0109 8.21289 14.6366 8.21289ZM18.7431 8.21289H17.4014C17.0271 8.21289 16.7237 8.5163 16.7237 8.89055V10.2323C16.7237 10.6065 17.0271 10.9099 17.4014 10.9099H18.7431C19.1173 10.9099 19.4207 10.6065 19.4207 10.2323V8.89055C19.4207 8.5163 19.1173 8.21289 18.7431 8.21289Z" fill="currentColor"/>
<path d="M24.5439 5.71923C24.9125 5.78422 25.2639 5.53811 25.3289 5.16958C25.3505 5.04716 25.338 4.92115 25.2928 4.80536C25.2475 4.68957 25.1713 4.58845 25.0725 4.51308L21.1286 0.216839C21.0647 0.14787 20.987 0.0929735 20.9007 0.0556438C20.8144 0.0183141 20.7212 -0.000630575 20.6272 1.60102e-05H7.29127C7.19722 -0.000622796 7.10406 0.0183254 7.01773 0.0556546C6.93141 0.0929838 6.85379 0.147876 6.78984 0.216839L2.84599 4.51302C2.59149 4.7874 2.60763 5.21615 2.88201 5.47065C3.0085 5.58792 3.17493 5.65258 3.34742 5.65145H5.10925V13.7831L2.75108 17.9167C2.56392 18.2408 2.67497 18.6552 2.99909 18.8424C3.10091 18.9012 3.21626 18.9324 3.33382 18.9332H5.10925V27.3223C5.10925 27.6965 5.41267 28 5.78691 28H22.0909C22.4651 28 22.7685 27.6965 22.7685 27.3223V18.9332H24.544C24.9182 18.9309 25.2198 18.6257 25.2175 18.2514C25.2168 18.1339 25.1855 18.0185 25.1267 17.9167L22.7685 13.8509V5.71923H24.5439ZM13.2952 26.6447H9.8934V21.7792H13.2952V26.6447ZM18.025 26.6447H14.6504V21.7792H18.025V26.6447ZM19.3803 26.6447V21.1016C19.3803 20.7273 19.0769 20.4239 18.7026 20.4239H9.21574C8.84149 20.4239 8.53808 20.7273 8.53808 21.1016V26.6446H6.46451V18.9332H21.3726L21.4267 26.6447H19.3803ZM23.4461 17.5779H4.47232L6.09865 14.7725H21.7792L23.4461 17.5779ZM6.53229 13.4172V5.7057H21.4403V13.4172H6.53229ZM4.86531 4.35038L7.58941 1.35521H20.329L23.0395 4.35038H4.86531Z" fill="currentColor"/>
</g>
<defs>
<clipPath id="clip0_6170_2662">
<rect width="100%" height="100%" fill="white"/>
</clipPath>
</defs>
</svg>
