<svg width="100%" height="100%" viewBox="0 0 28 28" fill="none" xmlns="http://www.w3.org/2000/svg">
<g clip-path="url(#clip0_6170_2668)">
<path d="M14.0004 15.7472C13.8741 15.7472 13.748 15.7198 13.6309 15.6654L0.52691 9.55018C0.376183 9.47991 0.248647 9.36807 0.159288 9.22782C0.0699295 9.08756 0.0224609 8.92471 0.0224609 8.75841C0.0224609 8.59211 0.0699295 8.42926 0.159288 8.289C0.248647 8.14875 0.376183 8.03691 0.52691 7.96664L13.6309 1.85144C13.7466 1.79749 13.8727 1.76953 14.0003 1.76953C14.1279 1.76953 14.254 1.79749 14.3697 1.85144L27.4737 7.96664C27.6246 8.03671 27.7524 8.14846 27.8419 8.28872C27.9315 8.42898 27.979 8.59191 27.9791 8.75832C27.9791 8.92472 27.9316 9.08767 27.8421 9.22796C27.7526 9.36826 27.6249 9.48006 27.474 9.55018L14.37 15.6654C14.2542 15.7193 14.1281 15.7472 14.0004 15.7472ZM2.96222 8.75841L14.0004 13.9094L25.0387 8.75841L14.0004 3.60737L2.96222 8.75841ZM14.37 20.907L27.474 14.7918C27.6776 14.6899 27.8334 14.5127 27.9083 14.2977C27.9832 14.0827 27.9712 13.847 27.875 13.6407C27.7787 13.4344 27.6057 13.2738 27.3929 13.1931C27.18 13.1124 26.944 13.1179 26.7352 13.2085L14.0004 19.151L1.26598 13.2082C1.05713 13.1176 0.821174 13.1121 0.608309 13.1928C0.395443 13.2735 0.222476 13.4341 0.126213 13.6404C0.0299505 13.8467 0.0179915 14.0824 0.0928812 14.2974C0.167771 14.5124 0.323597 14.6897 0.527201 14.7915L13.6312 20.9067C13.7469 20.9606 13.8729 20.9885 14.0006 20.9886C14.1282 20.9886 14.2543 20.9608 14.37 20.907ZM14.37 26.1486L27.474 20.0334C27.6839 19.9353 27.8462 19.758 27.9254 19.5403C28.0046 19.3226 27.9941 19.0823 27.8962 18.8724C27.7978 18.6629 27.6204 18.5008 27.4028 18.4217C27.1853 18.3426 26.9452 18.3528 26.7352 18.4501L14.0004 24.3926L1.26598 18.4498C1.05595 18.3524 0.815867 18.3421 0.59827 18.4212C0.380673 18.5003 0.203293 18.6625 0.104961 18.8721C0.00708196 19.082 -0.0034238 19.3223 0.0757526 19.54C0.154929 19.7577 0.317308 19.9351 0.527201 20.0331L13.6312 26.1483C13.7469 26.2022 13.8729 26.2301 14.0006 26.2302C14.1282 26.2302 14.2543 26.2024 14.37 26.1486Z" fill="currentColor"/>
</g>
<defs>
<clipPath id="clip0_6170_2668">
<rect width="100%" height="100%" fill="white"/>
</clipPath>
</defs>
</svg>
