<svg width="100%" height="100%" viewBox="0 0 28 24" fill="none" xmlns="http://www.w3.org/2000/svg">
<path d="M27.0725 12.4783H25.6842V1.38556L25.7952 1.37168C26.1701 1.31614 26.4339 0.955178 26.3783 0.580328C26.3228 0.205478 25.948 -0.0583052 25.587 0.0111115L8.23282 2.78778C7.85797 2.84331 7.59418 3.20428 7.64972 3.57913C7.70525 3.89845 7.9968 4.14834 8.33 4.14834C8.37165 4.14834 8.39942 4.14834 8.44107 4.13446L9.02417 4.05116V9.00751H1.38833C0.9996 9.00751 0.694167 9.31295 0.694167 9.70168C0.694167 10.0904 0.9996 10.3958 1.38833 10.3958H2.0825V12.4783H0.694167C0.305433 12.4783 0 12.7838 0 13.1725V22.8908C0 23.2796 0.305433 23.585 0.694167 23.585H27.0725C27.4612 23.585 27.7667 23.2796 27.7667 22.8908V13.1725C27.7667 12.7838 27.4612 12.4783 27.0725 12.4783ZM24.2958 1.60769V12.4783H10.4125V3.82903L24.2958 1.60769ZM9.02417 12.4783H6.94167V10.3958H9.02417V12.4783ZM3.47083 10.3958H5.55333V12.4783H3.47083V10.3958ZM4.165 22.1967V16.6433H15.2717V22.1967H4.165ZM20.825 22.1967V18.0317H23.6017V22.1967H20.825ZM26.3783 22.1967H24.99V17.3375C24.99 16.9488 24.6846 16.6433 24.2958 16.6433H20.1308C19.7421 16.6433 19.4367 16.9488 19.4367 17.3375V22.1967H16.66V15.9492C16.66 15.5604 16.3546 15.255 15.9658 15.255H3.47083C3.0821 15.255 2.77667 15.5604 2.77667 15.9492V22.1967H1.38833V13.8667H26.3783V22.1967Z" fill="currentColor"/>
<path d="M12.4949 11.0904H22.2133C22.602 11.0904 22.9074 10.785 22.9074 10.3963V6.23128C22.9074 5.84254 22.602 5.53711 22.2133 5.53711H12.4949C12.1062 5.53711 11.8008 5.84254 11.8008 6.23128V10.3963C11.8008 10.785 12.1062 11.0904 12.4949 11.0904ZM13.1891 6.92544H21.5191V9.70211H13.1891V6.92544Z" fill="currentColor"/>
</svg>
