<svg width="75" height="75" viewBox="0 0 75 75" fill="none" xmlns="http://www.w3.org/2000/svg">
<g clip-path="url(#clip0_14_85816)">
<path d="M36.0977 0.817758C35.5934 0.933273 34.801 1.23649 34.3399 1.4964C33.2304 2.11729 1.25844 28.8155 0.984679 29.3497C0.869412 29.5663 0.768555 30.1006 0.768555 30.5193C0.768555 31.9199 1.64746 32.8007 3.04506 32.8007C3.46291 32.8007 3.95278 32.7285 4.12569 32.6274C4.55794 32.4108 6.9209 30.4327 7.46842 29.855C7.71336 29.5952 14.3267 24.0216 22.1793 17.4663C31.6167 9.58238 36.6452 5.48163 36.991 5.36613C37.6826 5.14954 38.331 5.26505 39.0514 5.77041C39.3683 5.987 45.4055 10.983 52.4799 16.8886L65.3177 27.6315V47.8464C65.3177 70.2273 65.3898 68.6678 64.3956 69.3754C63.9489 69.6929 63.9058 69.6929 57.7245 69.7363L51.4858 69.7796V57.1741C51.4858 50.0123 51.4137 44.1066 51.3417 43.4857C50.9527 40.4824 48.5032 37.9988 45.5063 37.5656C44.9588 37.4935 41.4144 37.4213 37.6538 37.4213C33.8932 37.4213 30.3632 37.4935 29.8013 37.5656C26.8044 37.9988 24.3549 40.4824 23.9659 43.4857C23.8939 44.1066 23.8218 50.0123 23.8218 57.1741V69.7796L17.5974 69.7363C11.4019 69.6929 11.3587 69.6929 10.912 69.3754C9.93223 68.6823 9.98987 69.563 9.98987 53.9254C9.98987 45.8105 9.93223 39.5583 9.84578 39.2262C9.64407 38.3309 8.79397 37.6234 7.78539 37.4935C6.83444 37.3779 6.2293 37.6378 5.69619 38.432L5.37921 38.9085L5.40803 54.0841L5.45125 69.2598L5.96995 70.3427C6.87767 72.2198 8.24646 73.4616 10.1051 74.0825C10.984 74.3857 11.1281 74.3857 37.6538 74.3857C64.2659 74.3857 64.3236 74.3857 65.2024 74.0825C67.3493 73.3606 69.0783 71.5845 69.7122 69.433C69.8996 68.7977 69.9284 66.242 69.9284 50.2433C69.9284 40.0925 69.9572 31.7899 70.0004 31.7899C70.0437 31.7899 70.3607 32.0209 70.7352 32.2954C71.3116 32.7429 71.4988 32.8007 72.2049 32.8007C73.6746 32.8007 74.539 31.9488 74.539 30.5193C74.539 30.1006 74.4526 29.5807 74.3373 29.3642C74.2221 29.1476 71.3692 26.664 67.9977 23.8484L61.8597 18.7224V14.3906C61.8597 10.3332 61.8454 10.03 61.5715 9.58238C61.1394 8.8893 60.4909 8.54276 59.5544 8.54276C58.6179 8.54276 57.9695 8.8893 57.5373 9.58238C57.2779 10.0011 57.2491 10.3188 57.2491 12.4125C57.2491 13.712 57.1914 14.7516 57.1339 14.7227C57.0618 14.6938 53.5893 11.8205 49.4254 8.32617C45.247 4.83187 41.4577 1.7563 40.9821 1.4964C40.0888 1.00547 38.5472 0.601169 37.5818 0.61561C37.2648 0.61561 36.602 0.716684 36.0977 0.817758ZM45.953 42.4317C46.9184 43.1247 46.8751 42.3739 46.8751 56.7554V69.7651H37.6538H28.4325L28.4613 56.5821L28.5045 43.4136L28.8215 42.9659C29.4987 42.0129 29.2682 42.0418 37.7979 42.0851L45.5063 42.114L45.953 42.4317Z" fill="#0D1520"/>
<rect x="28" y="42" width="20" height="28" fill="#5BBDBD"/>
</g>
<defs>
<clipPath id="clip0_14_85816">
<rect width="75" height="75" fill="white"/>
</clipPath>
</defs>
</svg>
