<svg width="20" height="20" viewBox="0 0 20 20" fill="none" xmlns="http://www.w3.org/2000/svg">
<g clip-path="url(#clip0_14_85754)">
<path fill-rule="evenodd" clip-rule="evenodd" d="M15.1877 0.497822C14.9564 0.266608 14.6428 0.136719 14.3158 0.136719C13.9887 0.136719 13.6751 0.266608 13.4438 0.497822L4.81046 9.13116C4.57924 9.36244 4.44935 9.67609 4.44935 10.0031C4.44935 10.3302 4.57924 10.6438 4.81046 10.8751L13.4438 19.5084C13.6764 19.7331 13.9879 19.8574 14.3113 19.8546C14.6347 19.8518 14.944 19.7221 15.1727 19.4934C15.4014 19.2647 15.5311 18.9554 15.5339 18.632C15.5367 18.3086 15.4124 17.9971 15.1877 17.7645L7.42636 10.0031L15.1877 2.24176C15.4189 2.01047 15.5488 1.69682 15.5488 1.36979C15.5488 1.04275 15.4189 0.729106 15.1877 0.497822Z" fill="white"/>
</g>
<defs>
<clipPath id="clip0_14_85754">
<rect width="20" height="20" fill="white" transform="matrix(-1 0 0 1 20 0)"/>
</clipPath>
</defs>
</svg>
