<svg width="30" height="30" viewBox="0 0 30 30" fill="none" xmlns="http://www.w3.org/2000/svg">
<path d="M2.8125 24.375V17.8125C2.81544 16.8188 3.21147 15.8667 3.91409 15.1641C4.61672 14.4615 5.56884 14.0654 6.5625 14.0625H23.4375C24.4312 14.0654 25.3833 14.4615 26.0859 15.1641C26.7885 15.8667 27.1846 16.8188 27.1875 17.8125V24.375M22.5 14.0625H5.625V7.96875C5.62685 7.34772 5.87438 6.75265 6.31352 6.31352C6.75265 5.87438 7.34772 5.62685 7.96875 5.625H22.0312C22.6523 5.62685 23.2473 5.87438 23.6865 6.31352C24.1256 6.75265 24.3731 7.34772 24.375 7.96875V14.0625H22.5Z" stroke="black" stroke-width="1.5" stroke-linecap="round" stroke-linejoin="round"/>
<path d="M2.8125 24.375V23.9062C2.81358 23.5336 2.96209 23.1766 3.22558 22.9131C3.48907 22.6496 3.84612 22.5011 4.21875 22.5H25.7812C26.1539 22.5011 26.5109 22.6496 26.7744 22.9131C27.0379 23.1766 27.1864 23.5336 27.1875 23.9062V24.375M6.5625 14.0625V13.125C6.56389 12.6281 6.76188 12.152 7.11321 11.8007C7.46454 11.4494 7.94065 11.2514 8.4375 11.25H13.125C13.6219 11.2514 14.098 11.4494 14.4493 11.8007C14.8006 12.152 14.9986 12.6281 15 13.125M15 13.125V14.0625M15 13.125C15.0014 12.6281 15.1994 12.152 15.5507 11.8007C15.902 11.4494 16.3781 11.2514 16.875 11.25H21.5625C22.0594 11.2514 22.5355 11.4494 22.8868 11.8007C23.2381 12.152 23.4361 12.6281 23.4375 13.125V14.0625" stroke="black" stroke-width="1.5" stroke-linecap="round" stroke-linejoin="round"/>
</svg>
