<svg width="33" height="37" viewBox="0 0 33 37" fill="none" xmlns="http://www.w3.org/2000/svg">
<path fill-rule="evenodd" clip-rule="evenodd" d="M31.3375 0.00132256C31.8336 -0.00396777 32.2453 0.00661321 32.2453 0.0330648C32.2453 0.0542262 32.0922 0.572678 31.897 1.18107C31.707 1.79474 31.3956 2.72055 31.2056 3.24429C31.0156 3.76804 30.7148 4.57746 30.5301 5.04301C30.3454 5.50855 30.0182 6.30739 29.8018 6.81526C29.5854 7.32314 29.1791 8.22778 28.8941 8.82559C28.6091 9.4234 28.1658 10.3122 27.9019 10.8095C27.638 11.3068 27.2264 12.0527 26.9784 12.4759C26.7356 12.8991 26.2606 13.6609 25.9281 14.1688C25.5904 14.6767 25.0521 15.4544 24.7249 15.8882C24.3977 16.3273 23.8963 16.9568 23.6113 17.2901C23.3264 17.6234 22.8514 18.1419 22.0334 18.9883L22.825 19.7924C23.263 20.2368 23.8594 20.8717 24.1496 21.205C24.4452 21.5382 24.9149 22.099 25.1999 22.4482C25.4848 22.7973 25.9862 23.4428 26.3081 23.8766C26.6353 24.3157 27.1525 25.0404 27.4533 25.4901C27.7594 25.9398 28.2608 26.7281 28.5669 27.2359C28.8677 27.7438 29.2952 28.495 29.5063 28.9024C29.7226 29.3097 30.0657 30.0028 30.2715 30.4366C30.4773 30.8757 30.8151 31.6481 31.0209 32.1559C31.2214 32.6638 31.5011 33.4256 31.6331 33.8488C31.7703 34.2721 31.9603 34.9281 32.0606 35.3037C32.1555 35.6793 32.2505 36.0549 32.298 36.2824H21.1098L20.8671 35.8221C20.7299 35.5629 20.4765 35.1185 20.3024 34.8275C20.1282 34.5366 19.7694 33.9758 19.5055 33.5843C19.2416 33.1928 18.7772 32.5474 18.4764 32.1559C18.1756 31.7645 17.6636 31.1296 17.3364 30.754C17.0092 30.3784 16.3918 29.7118 15.959 29.278C15.5263 28.8442 14.8772 28.2358 14.5183 27.929C14.1594 27.6221 13.6369 27.1936 13.3572 26.9767C13.0775 26.7598 12.4812 26.3419 12.0326 26.0456C11.584 25.7493 11.0035 25.3896 10.7396 25.2415C10.481 25.0933 10.0272 24.8553 9.73691 24.7072C9.44665 24.5643 8.92418 24.3263 8.57587 24.1781C8.22756 24.03 7.63648 23.8025 7.2565 23.6755C6.8818 23.5486 6.23795 23.3581 5.83159 23.2523C5.42523 23.1465 4.83415 23.0142 4.51223 22.9561C4.19558 22.8979 3.63617 22.8079 3.27202 22.7656C2.90788 22.718 2.02654 22.6651 0 22.6069V0.0436453H3.90532L3.93171 5.02184L4.90804 4.19655V0.0436453H5.5941L5.62049 3.90029L6.6021 3.13849L6.59682 0.0436453H7.28289V1.47203C7.28289 2.26029 7.29345 2.90042 7.30928 2.90042C7.32511 2.90042 7.55204 2.76816 8.28561 2.31849V0.0436453H12.7714V5.62494C12.7714 8.69333 12.7873 11.2062 12.8137 11.2062C12.8348 11.2062 13.0406 11.0528 13.2728 10.8677C13.505 10.6825 13.943 10.2857 14.2491 9.97888C14.5552 9.67733 15.0091 9.19062 15.2571 8.90494C15.5052 8.61398 15.901 8.12727 16.1332 7.82043C16.3601 7.51359 16.719 7.0163 16.9248 6.70946C17.1253 6.40262 17.4789 5.84184 17.7059 5.46623C17.9328 5.09062 18.3286 4.37642 18.5819 3.87913C18.8352 3.38184 19.1994 2.63591 19.3841 2.21268C19.5741 1.78945 19.8538 1.12816 20.2918 0.0383547L25.3582 0.0277742C28.1447 0.0224839 30.8362 0.0119032 31.3375 0.00132256ZM1.53046 28.294H5.17191V31.9443H1.53046V28.294ZM5.85798 28.294H6.37517C6.65487 28.294 7.04013 28.331 7.23012 28.3786C7.4201 28.421 7.73675 28.5479 7.94257 28.6537C8.1695 28.7701 8.44393 28.9764 8.65503 29.1934C8.84502 29.3838 9.07195 29.6801 9.16694 29.8546C9.25666 30.0292 9.37276 30.3043 9.42026 30.463C9.46776 30.6217 9.52053 31.0238 9.57858 31.9443H5.85798V28.294ZM1.53046 32.6321H5.17191V36.3353H1.53046V32.6321ZM5.85798 32.6321L9.52581 32.6585V36.3088L5.85798 36.3353V32.6321Z" fill="#010048"/>
</svg>
