<svg width="226" height="226" viewBox="0 0 226 226" fill="none" xmlns="http://www.w3.org/2000/svg">
<rect width="226" height="226" rx="10" fill="white"/>
<g clip-path="url(#clip0_14_86288)">
<path d="M40.1992 40.2H58.3992V58.4H40.1992V40.2ZM149.399 22V31.1H140.299V40.2H149.399V76.6H158.499V85.7H149.399V94.8H167.599V76.6H194.899V85.7H203.999V22H149.399ZM194.899 67.5H158.499V31.1H194.899V67.5Z" fill="black"/>
<path d="M167.6 40.1996H185.8V58.3996H167.6V40.1996ZM40.2 167.6H58.4V185.8H40.2V167.6ZM149.4 149.4H158.5V158.5H149.4V149.4ZM103.9 194.9H113V204H103.9V194.9ZM113 158.5H122.1V167.6H113V158.5ZM113 176.7H122.1V185.8H113V176.7ZM194.9 131.2H204V140.3H194.9V131.2ZM22 131.2H31.1V140.3H22V131.2ZM22 85.6996H31.1V94.7996H22V85.6996ZM122.1 31.0996V40.1996H103.9V49.2996H131.2V31.0996H122.1Z" fill="black"/>
<path d="M194.899 94.7996V103.9H176.699V113H149.399V103.9H140.299V113H122.099V122.1H149.399V131.2H122.099V122.1H112.999V131.2H103.899V122.1H94.7992V131.2H85.6992V140.3H103.899V149.4H112.999V140.3H131.199V149.4H122.099V158.5H131.199V176.7H140.299V185.8H149.399V176.7H176.699V158.5H185.799V149.4H176.699V131.2H158.499V122.1H176.699V131.2H185.799V122.1H194.899V113H203.999V94.7996H194.899ZM167.599 140.3V167.6H140.299V140.3H167.599ZM140.299 76.5996H131.199V85.6996H122.099V103.9H131.199V94.7996H140.299V85.6996H149.399V76.5996H140.299ZM122.099 194.9H140.299V204H122.099V194.9ZM94.7992 31.0996H103.899V40.1996H94.7992V31.0996Z" fill="black"/>
<path d="M167.6 94.7996H176.7V103.9H167.6V94.7996ZM176.7 85.6996H185.8V94.7996H176.7V85.6996ZM58.4 131.2H67.5V140.3H58.4V131.2ZM76.6 194.9V158.5H85.7V140.3H76.6V149.4H49.3V140.3H31.1V149.4H22V204H94.8V194.9H76.6ZM67.5 194.9H31.1V158.5H67.5V194.9ZM76.6 76.5996H85.7V85.6996H76.6V76.5996Z" fill="black"/>
<path d="M85.7 22H22V76.6H31.1V85.7H40.2V76.6H49.3V85.7H58.4V76.6H76.6V58.4H85.7V49.3H76.6V31.1H94.8V22H85.7ZM67.5 67.5H31.1V31.1H67.5V67.5ZM131.2 49.3H140.3V58.4H131.2V49.3ZM113 22H122.1V31.1H113V22Z" fill="black"/>
<path d="M131.2 76.6004V67.5004H122.1V58.4004H113V67.5004H94.8V58.4004H85.7V76.6004H94.8V94.8004H67.5V85.7004H58.4V94.8004H31.1V103.9H49.3V113H22V122.1H49.3V131.2H58.4V122.1H67.5V131.2H76.6V122.1H94.8V113H85.7V103.9H103.9V113H122.1V103.9H113V94.8004H103.9V76.6004H131.2ZM76.6 113H58.4V103.9H76.6V113ZM103.9 167.6V149.4H94.8V158.5H85.7V167.6H94.8V176.7H85.7V185.8H103.9V176.7H113V167.6H103.9ZM185.8 185.8V176.7H176.7V185.8H149.4V194.9H167.6V204H176.7V194.9H194.9V204H204V185.8H185.8ZM194.9 149.4V158.5H185.8V167.6H204V149.4H194.9Z" fill="black"/>
</g>
<defs>
<clipPath id="clip0_14_86288">
<rect width="182" height="182" fill="white" transform="translate(22 22)"/>
</clipPath>
</defs>
</svg>
