<svg width="18" height="18" viewBox="0 0 18 18" fill="none" xmlns="http://www.w3.org/2000/svg">
<g clip-path="url(#clip0_14_86330)">
<path d="M14.7209 1.34739H13.7675V0.737187C13.7675 0.568609 13.7005 0.406936 13.5813 0.287733C13.4621 0.16853 13.3005 0.101563 13.1319 0.101562C12.9633 0.101563 12.8016 0.16853 12.6824 0.287733C12.5632 0.406936 12.4962 0.568609 12.4962 0.737187V1.34739H5.50437V0.737187C5.50437 0.568609 5.43741 0.406936 5.3182 0.287733C5.199 0.16853 5.03733 0.101563 4.86875 0.101562C4.70017 0.101563 4.5385 0.16853 4.41929 0.287733C4.30009 0.406936 4.23312 0.568609 4.23312 0.737187V1.34739H3.27969C1.52727 1.34739 0.101562 2.77309 0.101562 4.52551V14.7209C0.101562 16.4734 1.52727 17.8991 3.27969 17.8991H14.7209C16.4734 17.8991 17.8991 16.4734 17.8991 14.7209V4.52551C17.8991 2.77309 16.4734 1.34739 14.7209 1.34739ZM1.37281 4.52551C1.37281 3.47419 2.22836 2.61864 3.27969 2.61864H4.23312V3.22884C4.23312 3.39742 4.30009 3.55909 4.41929 3.67829C4.5385 3.79749 4.70017 3.86446 4.86875 3.86446C5.03733 3.86446 5.199 3.79749 5.3182 3.67829C5.43741 3.55909 5.50437 3.39742 5.50437 3.22884V2.61864H12.4962V3.22884C12.4962 3.39742 12.5632 3.55909 12.6824 3.67829C12.8016 3.79749 12.9633 3.86446 13.1319 3.86446C13.3005 3.86446 13.4621 3.79749 13.5813 3.67829C13.7005 3.55909 13.7675 3.39742 13.7675 3.22884V2.61864H14.7209C15.7723 2.61864 16.6278 3.47419 16.6278 4.52551V5.16749H1.37281V4.52551ZM14.7209 16.6278H3.27969C2.22836 16.6278 1.37281 15.7723 1.37281 14.7209V6.43874H16.6278V14.7209C16.6278 15.7723 15.7723 16.6278 14.7209 16.6278Z" fill="#888888"/>
</g>
<defs>
<clipPath id="clip0_14_86330">
<rect width="18" height="18" fill="white"/>
</clipPath>
</defs>
</svg>
