<svg width="30" height="30" viewBox="0 0 30 30" fill="none" xmlns="http://www.w3.org/2000/svg">
<path d="M15.6309 0.336914C15.9853 0.238251 16.3577 0.223491 16.7188 0.293945C17.0799 0.364457 17.4196 0.51842 17.7109 0.743164L17.7129 0.744141C18.313 1.20188 18.6543 1.89542 18.6543 2.64941V7.64746L18.8066 7.71289L26.874 11.1699C27.5771 11.4715 28.1757 11.9735 28.5967 12.6123C29.0176 13.251 29.2423 13.9988 29.2422 14.7637V15.3682L29.2441 15.3652V24.8672C29.2434 25.9038 28.8307 26.8978 28.0977 27.6309C27.3646 28.3639 26.3706 28.7766 25.334 28.7773H4.15918C3.12267 28.7765 2.12844 28.3638 1.39551 27.6309C0.662684 26.8979 0.250753 25.9037 0.25 24.8672V7.5166C0.25 5.75838 1.43449 4.20709 3.12988 3.74512L15.6289 0.336914H15.6309ZM7.18457 21.2148C7.018 21.2148 6.85803 21.2807 6.74023 21.3984C6.62244 21.5162 6.55664 21.6762 6.55664 21.8428V27.0078H12.3496V21.8428C12.3496 21.6762 12.2838 21.5162 12.166 21.3984C12.0482 21.2807 11.8883 21.2148 11.7217 21.2148H7.18457ZM18.6562 27.0078H25.334C26.5142 27.0078 27.4746 26.0474 27.4746 24.8672V14.7627C27.4746 13.9064 26.9645 13.1323 26.1768 12.7949L19.0049 9.71973L18.6562 9.57031V27.0078ZM16.2627 2.01953C16.205 2.01903 16.1472 2.02672 16.0918 2.04297L3.5957 5.44922C3.14329 5.57353 2.74377 5.84297 2.45898 6.21582C2.17419 6.58875 2.01938 7.04541 2.01855 7.51465V24.8662C2.01861 26.0463 2.97912 27.0067 4.15918 27.0068H4.78711V21.8408C4.78727 20.5195 5.86318 19.4443 7.18457 19.4443H11.7217C13.0431 19.4443 14.119 20.5195 14.1191 21.8408V27.0068H16.8877V2.64746C16.8881 2.56582 16.8725 2.48481 16.8418 2.40918C16.8107 2.33276 16.7642 2.26269 16.7061 2.2041C16.648 2.14561 16.579 2.09909 16.5029 2.06738C16.4275 2.03594 16.3464 2.01982 16.2646 2.01953H16.2627ZM22.3096 20.958H23.8223C24.0566 20.9581 24.2815 21.0512 24.4473 21.2168C24.6131 21.3827 24.7061 21.6082 24.7061 21.8428C24.706 22.0772 24.613 22.302 24.4473 22.4678C24.2815 22.6335 24.0567 22.7265 23.8223 22.7266H22.3096C22.075 22.7266 21.8494 22.6336 21.6836 22.4678C21.518 22.302 21.4248 22.0771 21.4248 21.8428C21.4248 21.6082 21.5177 21.3827 21.6836 21.2168C21.8494 21.051 22.075 20.958 22.3096 20.958ZM22.3096 16.4209H23.8223C24.0567 16.421 24.2815 16.5139 24.4473 16.6797C24.613 16.8454 24.7059 17.0703 24.7061 17.3047C24.7061 17.5392 24.6131 17.7648 24.4473 17.9307C24.2815 18.0964 24.0566 18.1893 23.8223 18.1895H22.3096C22.075 18.1895 21.8494 18.0965 21.6836 17.9307C21.5178 17.7648 21.4248 17.5392 21.4248 17.3047C21.4249 17.0704 21.518 16.8454 21.6836 16.6797C21.8494 16.5138 22.075 16.4209 22.3096 16.4209ZM7.18457 13.3955H11.7217C11.9562 13.3955 12.1818 13.4885 12.3477 13.6543C12.5135 13.8202 12.6064 14.0457 12.6064 14.2803C12.6064 14.5146 12.5133 14.7395 12.3477 14.9053C12.1818 15.0711 11.9562 15.1641 11.7217 15.1641H7.18457C6.95002 15.1641 6.72445 15.0711 6.55859 14.9053C6.39297 14.7395 6.29984 14.5146 6.2998 14.2803C6.2998 14.0457 6.39274 13.8202 6.55859 13.6543C6.72444 13.4885 6.95003 13.3955 7.18457 13.3955ZM7.18457 8.8584H11.7217C11.9562 8.8584 12.1818 8.95133 12.3477 9.11719C12.5133 9.28292 12.6063 9.50788 12.6064 9.74219C12.6064 9.97668 12.5134 10.2023 12.3477 10.3682C12.1818 10.534 11.9562 10.627 11.7217 10.627H7.18457C6.95002 10.627 6.72445 10.534 6.55859 10.3682C6.39282 10.2023 6.2998 9.97668 6.2998 9.74219C6.29992 9.50788 6.39295 9.28292 6.55859 9.11719C6.72445 8.95134 6.95002 8.8584 7.18457 8.8584Z" fill="#EA333F" stroke="white" stroke-width="0.5"/>
</svg>
