<svg width="20" height="20" viewBox="0 0 20 20" fill="none" xmlns="http://www.w3.org/2000/svg">
<path d="M6.61035 18.3075V12.6233C6.61035 12.1207 6.80998 11.6388 7.16531 11.2835C7.52064 10.9281 8.00257 10.7285 8.50509 10.7285H10.3998C10.9023 10.7285 11.3843 10.9281 11.7396 11.2835C12.0949 11.6388 12.2946 12.1207 12.2946 12.6233" stroke="black" stroke-width="1.5" stroke-linecap="round" stroke-linejoin="round"/>
<path d="M16.0837 9.78022H17.9784L9.4521 1.25391L0.925781 9.78022H2.82052V16.4118C2.82052 16.9143 3.02014 17.3963 3.37547 17.7516C3.73081 18.1069 4.21274 18.3065 4.71526 18.3065H9.92578M13.2416 16.4118H18.9258M18.9258 16.4118L16.0837 13.5697M18.9258 16.4118L16.0837 19.2539" stroke="black" stroke-width="1.5" stroke-linecap="round" stroke-linejoin="round"/>
</svg>
