<svg width="64" height="64" viewBox="0 0 64 64" fill="none" xmlns="http://www.w3.org/2000/svg">
<path d="M57.1562 19.2797V50.5938H19.9688V19.2797L38.5625 5.75L57.1562 19.2797Z" fill="#EEEEEE"/>
<path d="M38.5625 5.75L19.9688 19.2797V23.3375L38.5625 9.80781L51.6875 19.3563V50.5938H57.1562V19.2797L38.5625 5.75Z" fill="#E0E0E0"/>
<path d="M38.5625 41.8438C45.2072 41.8438 50.5938 36.4572 50.5938 29.8125C50.5938 23.1678 45.2072 17.7812 38.5625 17.7812C31.9178 17.7812 26.5312 23.1678 26.5312 29.8125C26.5312 36.4572 31.9178 41.8438 38.5625 41.8438Z" fill="#FFB74D"/>
<path d="M50.5938 29.8125C50.5946 31.3927 50.284 32.9576 49.6797 34.4177C49.0754 35.8778 48.1892 37.2044 47.0718 38.3218C45.9544 39.4392 44.6278 40.3254 43.1677 40.9297C41.7076 41.534 40.1427 41.8446 38.5625 41.8438C37.6418 41.8447 36.7242 41.7382 35.8281 41.5266C38.4727 40.9102 40.8309 39.4172 42.5191 37.2903C44.2073 35.1635 45.1261 32.5279 45.1261 29.8125C45.1261 27.0971 44.2073 24.4615 42.5191 22.3347C40.8309 20.2078 38.4727 18.7148 35.8281 18.0984C36.7242 17.8868 37.6418 17.7803 38.5625 17.7813C40.1427 17.7804 41.7076 18.091 43.1677 18.6953C44.6278 19.2996 45.9544 20.1858 47.0718 21.3032C48.1892 22.4206 49.0754 23.7472 49.6797 25.2073C50.284 26.6674 50.5946 28.2323 50.5938 29.8125Z" fill="#FFA726"/>
<path d="M39.1102 28.7188H38.0164C37.5813 28.7188 37.164 28.5459 36.8563 28.2382C36.5487 27.9305 36.3758 27.5132 36.3758 27.0781C36.3758 26.643 36.5487 26.2257 36.8563 25.918C37.164 25.6104 37.5813 25.4375 38.0164 25.4375H41.8446C42.1346 25.4375 42.4128 25.3223 42.618 25.1171C42.8231 24.912 42.9383 24.6338 42.9383 24.3438C42.9383 24.0537 42.8231 23.7755 42.618 23.5704C42.4128 23.3652 42.1346 23.25 41.8446 23.25H39.6571V22.1562C39.6571 21.8662 39.5418 21.588 39.3367 21.3829C39.1316 21.1777 38.8534 21.0625 38.5633 21.0625C38.2732 21.0625 37.995 21.1777 37.7899 21.3829C37.5848 21.588 37.4696 21.8662 37.4696 22.1562V23.3047C36.5108 23.4394 35.639 23.9332 35.0304 24.6862C34.4219 25.4393 34.122 26.3953 34.1915 27.361C34.261 28.3267 34.6946 29.2299 35.4047 29.8881C36.1147 30.5462 37.0483 30.9102 38.0164 30.9062H39.1102C39.5453 30.9062 39.9626 31.0791 40.2703 31.3868C40.578 31.6945 40.7508 32.1118 40.7508 32.5469C40.7508 32.982 40.578 33.3993 40.2703 33.707C39.9626 34.0147 39.5453 34.1875 39.1102 34.1875H35.2821C34.992 34.1875 34.7138 34.3027 34.5087 34.5079C34.3035 34.713 34.1883 34.9912 34.1883 35.2812C34.1883 35.5713 34.3035 35.8495 34.5087 36.0546C34.7138 36.2598 34.992 36.375 35.2821 36.375H37.4696V37.4688C37.4696 37.7588 37.5848 38.037 37.7899 38.2421C37.995 38.4473 38.2732 38.5625 38.5633 38.5625C38.8534 38.5625 39.1316 38.4473 39.3367 38.2421C39.5418 38.037 39.6571 37.7588 39.6571 37.4688V36.3203C40.6158 36.1856 41.4876 35.6918 42.0962 34.9388C42.7047 34.1857 43.0046 33.2297 42.9351 32.264C42.8657 31.2983 42.432 30.3951 41.722 29.7369C41.0119 29.0788 40.0784 28.7148 39.1102 28.7188Z" fill="#EEEEEE"/>
<path d="M57.1562 0.28125V13.0125L48.4062 6.64687V0.28125H57.1562Z" fill="#757575"/>
<path d="M48.4062 2.58789V6.6468L57.1562 13.0124V8.95133L48.4062 2.58789Z" fill="#616161"/>
<path d="M63.7188 17.7812L60.5469 21.7406L38.5625 5.75L16.5781 21.7406L13.4062 17.7812L36.5839 0.924375C37.1589 0.506272 37.8516 0.281121 38.5625 0.28125C39.2734 0.281121 39.9661 0.506272 40.5411 0.924375L63.7188 17.7812Z" fill="#EF5350"/>
<path d="M63.5164 47.4197C63.2068 46.4917 62.5633 45.712 61.7109 45.2321C60.8584 44.7522 59.858 44.6065 58.9041 44.8231L41.8339 48.7016L41.823 48.6994C41.9245 47.9122 41.821 47.112 41.5225 46.3766C41.2239 45.6411 40.7404 44.9953 40.1189 44.5016L27.3297 34.3658C25.3968 32.8338 23.0028 32.0001 20.5364 32H11.2188L11.2209 52.7812L30.2292 62.2859C32.158 63.2504 34.2887 63.7415 36.445 63.7187C38.6013 63.6959 40.7212 63.1597 42.6291 62.1547L61.6144 52.1534C62.4412 51.718 63.0864 51.003 63.4348 50.1359C63.7831 49.2688 63.8121 48.3061 63.5164 47.4197Z" fill="#FFCCBC"/>
<path d="M61.6195 52.1574L42.632 62.1543C40.8281 63.1041 38.8336 63.6356 36.7963 63.7094C34.759 63.7833 32.7312 63.3975 30.8633 62.5809C31.2133 62.6137 31.5742 62.6246 31.9242 62.6246C34.1308 62.6248 36.3043 62.088 38.257 61.0605L57.2445 51.0637C58.0696 50.6261 58.7126 49.9099 59.0591 49.0427C59.4056 48.1754 59.4331 47.2134 59.1367 46.3277C58.9669 45.8213 58.6993 45.3531 58.3492 44.9496L58.907 44.8184C59.839 44.6116 60.8144 44.7495 61.6525 45.2065C62.4907 45.6635 63.1349 46.4088 63.4659 47.3042C63.7968 48.1997 63.7921 49.1847 63.4527 50.077C63.1132 50.9693 62.462 51.7084 61.6195 52.1574Z" fill="#FFAB91"/>
<path d="M9.03125 28.7188H0.28125V57.1562H9.03125C9.61141 57.1562 10.1678 56.9258 10.578 56.5155C10.9883 56.1053 11.2188 55.5489 11.2188 54.9688V30.9062C11.2188 30.3261 10.9883 29.7697 10.578 29.3595C10.1678 28.9492 9.61141 28.7188 9.03125 28.7188Z" fill="#64B5F6"/>
<path d="M11.2188 30.9062V54.9688C11.217 55.5484 10.986 56.1038 10.5761 56.5136C10.1663 56.9235 9.61088 57.1545 9.03125 57.1562H0.28125V53.875H3.5625C4.14213 53.8733 4.69752 53.6422 5.10738 53.2324C5.51724 52.8225 5.74827 52.2671 5.75 51.6875V28.7188H9.03125C9.61088 28.7205 10.1663 28.9515 10.5761 29.3614C10.986 29.7712 11.217 30.3266 11.2188 30.9062Z" fill="#42A5F5"/>
<path d="M41.5703 46.493C41.3918 46.9727 41.1317 47.4178 40.8014 47.8088C40.0712 48.632 39.0801 49.1792 37.9944 49.3584C36.9087 49.5377 35.7943 49.3381 34.8383 48.7931L24.2869 43.0116C24.0678 42.8912 23.821 42.8301 23.5711 42.8342C23.3211 42.8382 23.0765 42.9074 22.8615 43.0348C22.6464 43.1622 22.4682 43.3435 22.3446 43.5608C22.2209 43.778 22.156 44.0238 22.1563 44.2738C22.1563 44.5316 22.2256 44.7848 22.3571 45.0066C22.4885 45.2285 22.6771 45.4109 22.9033 45.5349L35.0297 52.1805C35.8578 52.6356 36.8056 52.8257 37.7452 52.7251C38.6847 52.6246 39.5708 52.2382 40.2839 51.6182C40.9969 50.9981 41.5026 50.1743 41.7326 49.2578C41.9627 48.3413 41.906 47.3763 41.5703 46.493Z" fill="#FFAB91"/>
</svg>
