<svg width="18" height="18" viewBox="0 0 18 18" fill="none" xmlns="http://www.w3.org/2000/svg">
<g clip-path="url(#clip0_14_86367)">
<path d="M6.18506 16.5557C6.18506 15.4537 6.35742 14.3716 6.69628 13.3462C6.86766 12.8438 6.71044 12.2261 6.39548 11.9194L4.86764 9.8955C6.12056 7.54833 7.56591 6.10252 9.89545 4.8667L11.8666 6.34959C12.2514 6.73486 12.8134 6.87305 13.3408 6.70748C14.3715 6.36717 15.4531 6.1943 16.5556 6.1943C17.352 6.19434 18 5.54639 18 4.74998V1.44436C18 0.647953 17.352 0 16.5556 0C7.42673 0 0 7.42678 0 16.5557C0 17.3521 0.647953 18 1.44436 18H4.74075C5.53711 18 6.18506 17.352 6.18506 16.5557Z" fill="white"/>
</g>
<defs>
<clipPath id="clip0_14_86367">
<rect width="18" height="18" fill="white" transform="matrix(0 1 -1 0 18 0)"/>
</clipPath>
</defs>
</svg>
