<svg width="20" height="20" viewBox="0 0 20 20" fill="none" xmlns="http://www.w3.org/2000/svg">
<g clip-path="url(#clip0_6131_1778)">
<path d="M18.4899 9.12801L2.49 0.128039C2.33794 0.0427526 2.16627 -0.00137062 1.99193 3.24467e-05C1.8176 0.00143552 1.64666 0.0483162 1.496 0.136039C1.34496 0.224072 1.21967 0.350194 1.13263 0.501807C1.04559 0.65342 0.999861 0.825217 1 1.00004V19C0.999861 19.1748 1.04559 19.3466 1.13263 19.4982C1.21967 19.6498 1.34496 19.7759 1.496 19.864C1.64916 19.9527 1.82298 19.9996 2 20C2.168 20 2.338 19.958 2.49 19.872L18.4899 10.872C18.8039 10.694 18.9999 10.362 18.9999 10C18.9999 9.63801 18.8039 9.30601 18.4899 9.12801Z" fill="white"/>
</g>
<defs>
<clipPath id="clip0_6131_1778">
<rect width="20" height="20" fill="white"/>
</clipPath>
</defs>
</svg>
