<svg width="22" height="22" viewBox="0 0 22 22" fill="none" xmlns="http://www.w3.org/2000/svg">
<path d="M18.9062 6.55273H13.4062V4.125C13.4062 3.74473 13.099 3.4375 12.7188 3.4375H3.95312V2.57812C3.95312 2.48359 3.87578 2.40625 3.78125 2.40625H2.57812C2.48359 2.40625 2.40625 2.48359 2.40625 2.57812V19.4219C2.40625 19.5164 2.48359 19.5938 2.57812 19.5938H3.78125C3.87578 19.5938 3.95312 19.5164 3.95312 19.4219V13.75H9.28125V16.1777C9.28125 16.558 9.58848 16.8652 9.96875 16.8652H18.9062C19.2865 16.8652 19.5938 16.558 19.5938 16.1777V7.24023C19.5938 6.85996 19.2865 6.55273 18.9062 6.55273ZM3.95312 12.2031V4.98438H11.8594V12.2031H3.95312ZM18.0469 15.3184H10.8281V13.75H13.2344C13.3289 13.75 13.4062 13.6727 13.4062 13.5781V8.09961H18.0469V15.3184Z" fill="#0D1520"/>
</svg>
