<svg width="21" height="21" viewBox="0 0 21 21" fill="none" xmlns="http://www.w3.org/2000/svg">
<g clip-path="url(#clip0_4873_7738)">
<path d="M16.2225 20.642C14.8594 20.642 13.7506 19.5332 13.7506 18.1701V8.89496C13.1 8.48172 12.5646 7.91061 12.1942 7.23477C11.8237 6.55894 11.6303 5.80036 11.6318 5.02965C11.6303 4.18376 11.8634 3.35401 12.3053 2.63271C12.7472 1.91141 13.3805 1.32683 14.1348 0.943996C14.2426 0.889223 14.3626 0.862969 14.4834 0.867739C14.6041 0.872508 14.7217 0.908141 14.8248 0.97124C14.9279 1.03434 15.0132 1.1228 15.0724 1.22819C15.1316 1.33358 15.1628 1.45238 15.1631 1.57327V4.62638L16.2225 5.05013L17.2818 4.62638V1.57327C17.2821 1.45238 17.3134 1.33358 17.3726 1.22819C17.4318 1.1228 17.517 1.03434 17.6201 0.97124C17.7232 0.908141 17.8408 0.872508 17.9616 0.867739C18.0824 0.862969 18.2024 0.889223 18.3101 0.943996C19.0645 1.32701 19.6978 1.91173 20.1396 2.63314C20.5815 3.35455 20.8146 4.18438 20.8131 5.03036C20.8145 5.80103 20.621 6.55953 20.2505 7.23533C19.8801 7.91114 19.3448 8.48229 18.6943 8.89567V18.1701C18.6943 19.5332 17.5855 20.642 16.2225 20.642ZM13.7506 3.03238C13.3007 3.58678 13.0443 4.28597 13.0443 5.02965C13.0443 6.22604 13.7089 7.31013 14.7789 7.85818C14.8946 7.91746 14.9917 8.0075 15.0594 8.1184C15.1272 8.22931 15.1631 8.35677 15.1631 8.48675V18.1701C15.1631 18.7542 15.6384 19.2295 16.2225 19.2295C16.8065 19.2295 17.2818 18.7542 17.2818 18.1701V8.48675C17.2818 8.35677 17.3177 8.22931 17.3855 8.1184C17.4533 8.0075 17.5504 7.91746 17.666 7.85818C18.1884 7.59331 18.627 7.18879 18.9332 6.68957C19.2394 6.19036 19.4012 5.61601 19.4006 5.03036C19.4019 4.30319 19.1525 3.5978 18.6943 3.03308V5.10452C18.6943 5.39337 18.5185 5.65257 18.2508 5.76062L16.4852 6.46687C16.3169 6.5347 16.1288 6.5347 15.9605 6.46687L14.1948 5.76062C14.0638 5.70806 13.9514 5.61749 13.8723 5.50057C13.7931 5.38365 13.7507 5.24572 13.7506 5.10452V3.03238Z" fill="black"/>
<path d="M11.6841 20.6422H10.1678C9.81238 20.6409 9.47043 20.5061 9.20963 20.2647C8.94882 20.0233 8.78819 19.6927 8.75952 19.3384L8.67053 18.1837C8.18521 18.0364 7.71563 17.8414 7.26862 17.6018L6.38864 18.3553C6.11803 18.5857 5.77082 18.706 5.41573 18.6925C5.06064 18.679 4.72355 18.5328 4.47117 18.2826L3.39767 17.2084C3.14752 16.9559 3.00118 16.6188 2.98758 16.2636C2.97398 15.9084 3.09411 15.5611 3.32422 15.2902L4.07779 14.4109C3.83813 13.9639 3.64321 13.4944 3.49584 13.009L2.34182 12.9208C1.98764 12.8923 1.65708 12.7318 1.41562 12.4711C1.17416 12.2104 1.03942 11.8685 1.03809 11.5132V9.99617C1.03809 9.26238 1.61085 8.64371 2.34253 8.58791L3.49654 8.49963C3.64344 8.01444 3.83837 7.54549 4.07849 7.09772L3.32422 6.21703C3.09404 5.94614 2.97394 5.59871 2.98767 5.2435C3.0014 4.88829 3.14797 4.55117 3.39837 4.29886L4.47046 3.22606C4.72287 2.97576 5.06003 2.82932 5.41524 2.81572C5.77045 2.80212 6.11783 2.92235 6.38864 3.15261L7.26862 3.90618C7.71563 3.66653 8.18521 3.4716 8.67053 3.32423L8.75952 2.16951C8.78851 1.81564 8.9492 1.48552 9.20981 1.24439C9.47043 1.00325 9.81202 0.868654 10.1671 0.867188H10.9256C11.1129 0.867188 11.2925 0.941596 11.425 1.07404C11.5574 1.20649 11.6318 1.38613 11.6318 1.57344C11.6318 1.76075 11.5574 1.94038 11.425 2.07283C11.2925 2.20528 11.1129 2.27969 10.9256 2.27969H10.1671L10.0399 3.93302C10.0283 4.08289 9.96917 4.22515 9.87111 4.33909C9.77305 4.45302 9.64119 4.5327 9.49472 4.56652C8.81086 4.72406 8.1582 4.995 7.56384 5.36812C7.43642 5.4484 7.28659 5.48562 7.13642 5.4743C6.98626 5.46299 6.8437 5.40373 6.72975 5.30526L5.4691 4.22541L4.39701 5.29891L5.47687 6.55886C5.67815 6.79333 5.70287 7.13162 5.53902 7.39294C5.16645 7.98758 4.89554 8.64015 4.73742 9.32382C4.70366 9.47045 4.62391 9.60245 4.50981 9.70054C4.39571 9.79863 4.25325 9.85767 4.10321 9.86905L2.45059 9.99617V11.5132L4.10321 11.6403C4.25321 11.6518 4.39562 11.7109 4.5097 11.809C4.62378 11.907 4.70356 12.039 4.73742 12.1855C4.89496 12.8694 5.1659 13.5221 5.53902 14.1164C5.61885 14.244 5.65587 14.3936 5.64469 14.5437C5.63351 14.6937 5.57471 14.8362 5.47687 14.9505L4.39701 16.2105L5.4698 17.284L6.72975 16.2041C6.84385 16.106 6.98638 16.0469 7.13646 16.0356C7.28655 16.0243 7.43631 16.0613 7.56384 16.1413C8.16274 16.5156 8.81249 16.7854 9.49472 16.9428C9.64119 16.9767 9.77305 17.0563 9.87111 17.1703C9.96917 17.2842 10.0283 17.4265 10.0399 17.5764L10.1671 19.2297H11.6834C11.6898 19.1367 11.7146 19.0459 11.7563 18.9625C11.798 18.8792 11.8558 18.8049 11.9264 18.744C11.9969 18.683 12.0789 18.6367 12.1674 18.6076C12.256 18.5785 12.3494 18.5672 12.4423 18.5744C12.5353 18.5815 12.6259 18.607 12.7089 18.6494C12.7919 18.6918 12.8658 18.7501 12.9261 18.8212C12.9865 18.8922 13.0322 18.9745 13.0606 19.0633C13.089 19.152 13.0996 19.2456 13.0917 19.3384C13.063 19.6926 12.9025 20.023 12.6418 20.2645C12.3812 20.5059 12.0394 20.6407 11.6841 20.6422Z" fill="black"/>
<path d="M5.98147 10.7546C5.97768 9.58499 6.39021 8.45222 7.14525 7.55898C7.90029 6.66575 8.94855 6.07035 10.1024 5.87934C10.1939 5.86358 10.2876 5.86611 10.3782 5.88678C10.4687 5.90745 10.5542 5.94585 10.6298 5.99977C10.7054 6.05368 10.7695 6.12204 10.8185 6.20089C10.8675 6.27974 10.9004 6.36753 10.9153 6.45917C10.9462 6.64385 10.9024 6.83322 10.7937 6.98565C10.685 7.13809 10.5202 7.2411 10.3355 7.27206C9.51166 7.40901 8.7634 7.83454 8.2245 8.47254C7.6856 9.11055 7.39121 9.91944 7.39397 10.7546C7.39397 13.1933 9.81641 14.8939 12.1025 14.0853C12.2772 14.0297 12.4666 14.0443 12.6308 14.1258C12.7949 14.2074 12.9209 14.3495 12.9822 14.5223C13.0435 14.695 13.0351 14.8848 12.959 15.0516C12.8829 15.2183 12.745 15.3489 12.5743 15.4158C9.35876 16.5536 5.98147 14.1559 5.98147 10.7546Z" fill="black"/>
</g>
<defs>
<clipPath id="clip0_4873_7738">
<rect width="20" height="20" fill="white" transform="translate(0.925781 0.753906)"/>
</clipPath>
</defs>
</svg>
