<svg width="134" height="134" viewBox="0 0 134 134" fill="none" xmlns="http://www.w3.org/2000/svg">
<rect width="134" height="134" rx="10" fill="#F3F3F3"/>
<rect x="0.5" y="0.5" width="133" height="133" rx="9.5" stroke="#010048" stroke-opacity="0.2" stroke-dasharray="2 2"/>
<g clip-path="url(#clip0_14_92777)">
<path d="M56.4577 59.668C56.4577 60.6651 56.7534 61.6399 57.3074 62.469C57.8613 63.2981 58.6487 63.9443 59.57 64.3259C60.4912 64.7075 61.5049 64.8073 62.4829 64.6128C63.4609 64.4182 64.3593 63.9381 65.0644 63.233C65.7694 62.5279 66.2496 61.6295 66.4441 60.6516C66.6387 59.6736 66.5388 58.6599 66.1572 57.7386C65.7757 56.8174 65.1295 56.03 64.3004 55.476C63.4713 54.922 62.4965 54.6263 61.4994 54.6263C60.1625 54.6273 58.8807 55.1588 57.9354 56.104C56.9901 57.0493 56.4587 58.3311 56.4577 59.668ZM63.791 59.668C63.791 60.1212 63.6566 60.5643 63.4048 60.9412C63.153 61.318 62.7951 61.6117 62.3763 61.7852C61.9576 61.9586 61.4968 62.004 61.0523 61.9156C60.6077 61.8272 60.1994 61.6089 59.8789 61.2884C59.5584 60.9679 59.3401 60.5596 59.2517 60.1151C59.1633 59.6705 59.2087 59.2097 59.3821 58.791C59.5556 58.3722 59.8493 58.0143 60.2262 57.7625C60.603 57.5107 61.0461 57.3763 61.4994 57.3763C62.1068 57.3773 62.6892 57.619 63.1187 58.0486C63.5483 58.4782 63.7901 59.0605 63.791 59.668ZM85.3327 61.9596C84.968 61.9596 84.6183 62.1045 84.3604 62.3624C84.1026 62.6202 83.9577 62.97 83.9577 63.3346V67.4908L83.2409 66.8766C82.2614 66.0651 81.0294 65.6211 79.7575 65.6211C78.4856 65.6211 77.2536 66.0651 76.2742 66.8766L68.6494 73.418C68.1687 73.8007 67.5725 74.009 66.9581 74.009C66.3437 74.009 65.7475 73.8007 65.2669 73.418L64.6582 72.8955C63.755 72.148 62.6358 71.7101 61.4651 71.6464C60.2945 71.5827 59.1343 71.8965 58.1554 72.5416L50.5892 77.62C50.1923 75.9435 50.0082 74.2238 50.041 72.5013V61.5013C50.041 53.0423 53.0404 50.043 61.4994 50.043H68.8327C69.1974 50.043 69.5471 49.8981 69.805 49.6402C70.0628 49.3824 70.2077 49.0326 70.2077 48.668C70.2077 48.3033 70.0628 47.9536 69.805 47.6957C69.5471 47.4378 69.1974 47.293 68.8327 47.293H61.4994C51.5407 47.293 47.291 51.5408 47.291 61.5013V72.5013C47.291 82.4618 51.5407 86.7096 61.4994 86.7096H72.4994C82.458 86.7096 86.7077 82.4618 86.7077 72.5013V63.3346C86.7077 62.97 86.5628 62.6202 86.305 62.3624C86.0471 62.1045 85.6974 61.9596 85.3327 61.9596ZM83.9577 72.5013C83.9577 80.9603 80.9584 83.9596 72.4994 83.9596H61.4994C56.4449 83.9596 53.352 82.8761 51.6709 80.2105L59.6862 74.8315C60.1668 74.524 60.7312 74.3736 61.3012 74.4012C61.8711 74.4288 62.4183 74.633 62.867 74.9855L63.4757 75.5098C64.4543 76.323 65.6866 76.7681 66.959 76.7681C68.2314 76.7681 69.4637 76.323 70.4424 75.5098L78.0727 68.963C78.5537 68.582 79.1494 68.3747 79.763 68.3747C80.3767 68.3747 80.9723 68.582 81.4534 68.963L83.9614 71.1153L83.9577 72.5013ZM72.4994 54.168C72.4994 53.8033 72.6442 53.4536 72.9021 53.1957C73.16 52.9378 73.5097 52.793 73.8744 52.793H77.541V49.1263C77.541 48.7616 77.6859 48.4119 77.9438 48.154C78.2016 47.8962 78.5514 47.7513 78.916 47.7513C79.2807 47.7513 79.6304 47.8962 79.8883 48.154C80.1462 48.4119 80.291 48.7616 80.291 49.1263V52.793H83.9577C84.3224 52.793 84.6721 52.9378 84.93 53.1957C85.1878 53.4536 85.3327 53.8033 85.3327 54.168C85.3327 54.5326 85.1878 54.8824 84.93 55.1402C84.6721 55.3981 84.3224 55.543 83.9577 55.543H80.291V59.2096C80.291 59.5743 80.1462 59.924 79.8883 60.1819C79.6304 60.4398 79.2807 60.5846 78.916 60.5846C78.5514 60.5846 78.2016 60.4398 77.9438 60.1819C77.6859 59.924 77.541 59.5743 77.541 59.2096V55.543H73.8744C73.5097 55.543 73.16 55.3981 72.9021 55.1402C72.6442 54.8824 72.4994 54.5326 72.4994 54.168Z" fill="#010048"/>
</g>
<defs>
<clipPath id="clip0_14_92777">
<rect width="40" height="40" fill="white" transform="translate(47 47)"/>
</clipPath>
</defs>
</svg>
