<svg width="60" height="60" viewBox="0 0 60 60" fill="none" xmlns="http://www.w3.org/2000/svg">
<g clip-path="url(#clip0_14_85719)">
<path d="M58.5308 37.5687C57.5317 36.5512 54.9988 35.181 49.2625 37.4362C45.9318 38.7455 41.6812 40.1598 38.7123 40.9631C38.5319 39.6086 37.5622 37.0475 32.8222 37.0031C29.5917 36.9728 26.5941 36.7803 23.9239 36.5507C24.3252 35.9172 24.668 35.2485 24.948 34.5529H45.4313C47.0499 34.5529 48.3668 33.2361 48.3668 31.6173V19.1352C48.4236 19.1377 48.4804 19.139 48.5373 19.139C49.7067 19.139 50.8661 18.6269 51.6506 17.6439C52.3116 16.8155 52.6102 15.7766 52.4913 14.7188C52.3725 13.6609 51.8509 12.7143 51.0225 12.0532L37.4933 1.25711C36.8213 0.720977 35.9841 0.425781 35.1357 0.425781C34.2873 0.425781 33.45 0.720977 32.778 1.25711L19.2491 12.0532C17.5346 13.4214 17.2528 15.9293 18.6209 17.6439C19.4436 18.6747 20.6783 19.1868 21.9048 19.1345V20.8933C19.6888 18.8205 16.714 17.5493 13.4474 17.5493C6.61474 17.5493 1.05595 23.1081 1.05595 29.9407C1.05595 34.4591 3.48735 38.4198 7.10997 40.5849C4.85915 42.4223 2.82712 44.601 0.78829 46.8566C0.245829 47.4568 0.292587 48.383 0.892704 48.9256C1.16157 49.1693 1.5116 49.3041 1.8745 49.3038C2.27423 49.3038 2.67255 49.1411 2.96165 48.8212C5.29743 46.2372 7.61341 43.7635 10.2025 41.9003C11.2602 42.1875 12.3514 42.3327 13.4474 42.3323C16.5587 42.3323 19.4056 41.1793 21.584 39.2786C24.7981 39.589 28.5954 39.8935 32.7948 39.9327C34.728 39.9509 35.745 40.4573 35.8174 41.4378C35.8593 42.0068 35.7218 42.4219 35.3709 42.7834C33.5349 44.6763 27.2257 44.4033 24.5317 44.2867C24.0275 44.2649 23.592 44.2461 23.2284 44.2383C22.422 44.2238 21.75 44.8629 21.7327 45.6716C21.7155 46.4804 22.3574 47.1501 23.1661 47.1673C23.4976 47.1743 23.9181 47.1925 24.405 47.2136C25.532 47.2623 26.6861 47.3007 27.8279 47.3007C31.7437 47.3007 35.5079 46.8497 37.4737 44.8231C37.6712 44.6194 37.8494 44.3979 38.0062 44.1614C38.0263 44.1576 38.0463 44.1551 38.0663 44.1504C41.0857 43.4395 46.3597 41.7251 50.3342 40.1627C54.1145 38.6765 55.9511 39.1232 56.4404 39.6214C56.7051 39.891 56.69 40.2844 56.6089 40.6097C55.852 41.131 54.4455 41.9257 53.0866 42.5918L32.9546 51.7485C30.1399 53.0141 28.1946 52.9744 26.3131 52.9355C25.8909 52.9268 25.492 52.9186 25.0847 52.925C24.3526 52.9362 23.6681 52.9215 23.0062 52.9073C19.4629 52.8306 16.4036 52.7645 11.2228 56.9738C10.5949 57.484 10.4995 58.4065 11.0096 59.0344C11.1469 59.2037 11.3203 59.3402 11.5172 59.4339C11.7141 59.5275 11.9294 59.5759 12.1474 59.5756C12.472 59.5756 12.7987 59.4681 13.0702 59.2476C17.416 55.7167 19.615 55.7642 22.9431 55.8361C23.6316 55.851 24.3439 55.8665 25.1301 55.8543C25.4849 55.8488 25.8581 55.8565 26.2531 55.8646C28.2522 55.9055 30.7395 55.9568 34.162 54.4179L54.319 45.25C54.3315 45.2443 54.344 45.2383 54.3565 45.2323C55.8908 44.4813 57.849 43.394 58.7647 42.6582C58.9564 42.5041 59.1063 42.3042 59.2004 42.0769C59.8984 40.3919 59.6481 38.7067 58.5308 37.569V37.5687ZM37.4932 31.6231H32.7781V25.2298C32.7781 24.7886 33.1509 24.4158 33.5922 24.4158H36.6792C37.1204 24.4158 37.4932 24.7886 37.4932 25.2298V31.6231ZM40.4229 31.6231V25.2297C40.4229 23.1654 38.7434 21.486 36.6792 21.486H33.5922C31.5279 21.486 29.8484 23.1654 29.8484 25.2297V31.6229H25.724C25.799 31.0725 25.8386 30.5112 25.8386 29.9406C25.8386 28.2068 25.4802 26.5554 24.8343 25.0558V17.7749L35.1357 9.55445L45.4366 17.7747L45.4312 31.6232H40.4229V31.6231ZM20.9108 15.8165C20.5502 15.3646 20.6245 14.7037 21.0764 14.3431L34.6052 3.54707C34.9195 3.29629 35.3517 3.29641 35.6659 3.54707L49.1948 14.3432C49.4116 14.5162 49.5482 14.7657 49.5798 15.046C49.6113 15.3263 49.5334 15.5999 49.3604 15.8166C48.9999 16.2685 48.339 16.3428 47.8871 15.9822L36.0493 6.53559C35.7821 6.32231 35.4588 6.21578 35.1356 6.21578C34.8124 6.21578 34.4892 6.32242 34.2219 6.53559L22.3841 15.9822C21.9321 16.3428 21.2711 16.2684 20.9107 15.8167L20.9108 15.8165ZM3.98552 29.9407C3.98552 24.7234 8.23005 20.479 13.4472 20.479C18.6644 20.479 22.909 24.7236 22.909 29.9407C22.909 35.1579 18.6644 39.4026 13.4472 39.4026C8.23005 39.4026 3.98552 35.158 3.98552 29.9407ZM18.2367 31.1345C18.671 31.9206 18.7565 32.8291 18.4838 33.7619C18.0811 35.14 16.7163 36.1287 14.912 36.4394V36.8795C14.912 37.6885 14.2562 38.3444 13.4471 38.3444C12.6381 38.3444 11.9823 37.6885 11.9823 36.8795V36.3584C10.061 35.9194 8.67067 34.7273 8.29181 33.1022C8.10817 32.3143 8.5979 31.5268 9.38575 31.343C10.1738 31.1591 10.9612 31.6491 11.145 32.437C11.3157 33.1694 12.4742 33.582 13.5303 33.6113C14.7978 33.6459 15.5979 33.1931 15.6717 32.9402C15.7462 32.6852 15.6962 32.5947 15.6722 32.5512C15.5374 32.3072 15.0234 31.9414 13.9855 31.6462C13.7231 31.5716 13.4279 31.5018 13.1154 31.4279C12.0466 31.175 10.8352 30.8884 9.91239 30.1724C9.02716 29.4856 8.49888 28.5486 8.42481 27.5339C8.35216 26.5397 8.71532 25.5721 9.44751 24.8095C10.1213 24.1076 11.0264 23.6889 11.9822 23.4872V23.002C11.9822 22.193 12.6381 21.5371 13.447 21.5371C14.2559 21.5371 14.9118 22.193 14.9118 23.002V23.4845C15.064 23.5155 15.2118 23.5509 15.3547 23.5905C17.081 24.0695 18.258 25.1663 18.5839 26.5995C18.7633 27.3884 18.2691 28.1733 17.4804 28.3526C16.6913 28.5318 15.9065 28.0377 15.7272 27.2491C15.6113 26.7392 14.8132 26.4805 14.5713 26.4135C13.3604 26.0774 12.013 26.3677 11.561 26.8383C11.4116 26.9941 11.3354 27.1653 11.3468 27.3204C11.3595 27.4959 11.4881 27.6866 11.7084 27.8577C12.1286 28.1839 13.0112 28.3926 13.7899 28.5768C14.12 28.6548 14.4613 28.7356 14.7867 28.8282C16.4994 29.3151 17.6601 30.091 18.2366 31.1344L18.2367 31.1345Z" fill="white"/>
</g>
<defs>
<clipPath id="clip0_14_85719">
<rect width="60" height="60" fill="white"/>
</clipPath>
</defs>
</svg>
