<svg width="60" height="60" viewBox="0 0 60 60" fill="none" xmlns="http://www.w3.org/2000/svg">
<path d="M22.6549 24.9618C20.1864 24.9618 17.7733 24.2298 15.7208 22.8584C13.6684 21.487 12.0687 19.5377 11.124 17.2571C10.1794 14.9765 9.93219 12.4671 10.4138 10.046C10.8954 7.62494 12.084 5.40106 13.8295 3.65558C15.575 1.91009 17.7989 0.721401 20.2199 0.239823C22.641 -0.241756 25.1505 0.00540777 27.4311 0.950057C29.7117 1.89471 31.6609 3.49441 33.0323 5.54689C34.4038 7.59936 35.1357 10.0124 35.1357 12.4809C35.1319 15.7898 33.8157 18.9622 31.4759 21.3019C29.1361 23.6417 25.9638 24.9579 22.6549 24.9618ZM22.6549 4.40503C21.0576 4.40503 19.4962 4.87867 18.1681 5.76606C16.8401 6.65345 15.805 7.91472 15.1937 9.3904C14.5825 10.8661 14.4225 12.4899 14.7342 14.0564C15.0458 15.623 15.8149 17.062 16.9443 18.1914C18.0738 19.3208 19.5128 20.09 21.0793 20.4016C22.6459 20.7132 24.2697 20.5533 25.7454 19.942C27.221 19.3308 28.4823 18.2957 29.3697 16.9676C30.2571 15.6395 30.7307 14.0782 30.7307 12.4809C30.7292 10.3395 29.8778 8.2863 28.3636 6.77211C26.8495 5.25793 24.7962 4.40658 22.6549 4.40503ZM25.5651 57.2653H10.8817C3.7808 57.2653 -0.130859 53.3742 -0.130859 46.3115C-0.130859 38.494 4.29178 29.3668 16.7551 29.3668H28.5018C30.7647 29.3273 33.0165 29.6933 35.1504 30.4475C35.6566 30.6805 36.0557 31.0966 36.2673 31.6121C36.4788 32.1276 36.4871 32.7042 36.2905 33.2255C36.0938 33.7469 35.7069 34.1744 35.2076 34.4218C34.7083 34.6692 34.1338 34.7182 33.5999 34.5589C31.9609 33.995 30.2345 33.7285 28.5018 33.7718H16.7551C15.078 33.6426 13.3929 33.8788 11.816 34.4641C10.2391 35.0494 8.80803 35.9699 7.62147 37.1621C6.43491 38.3542 5.52114 39.7896 4.94324 41.3692C4.36534 42.9489 4.13706 44.6351 4.27416 46.3115C4.27416 50.9015 6.25055 52.8603 10.8817 52.8603H25.5651C26.1492 52.8603 26.7095 53.0923 27.1225 53.5054C27.5356 53.9184 27.7676 54.4786 27.7676 55.0628C27.7676 55.6469 27.5356 56.2071 27.1225 56.6202C26.7095 57.0332 26.1492 57.2653 25.5651 57.2653ZM52.4563 59.9935C51.8789 59.9922 51.3101 59.8532 50.7971 59.5882L46.1219 57.1831L41.4496 59.5882C40.8498 59.9023 40.1737 60.0413 39.4986 59.9894C38.8235 59.9374 38.1767 59.6967 37.6319 59.2945C37.094 58.9044 36.6773 58.3701 36.4299 57.7534C36.1826 57.1366 36.1147 56.4624 36.2341 55.8087L37.1151 50.787L33.2445 47.0926C32.771 46.6403 32.4347 46.0636 32.2742 45.4287C32.1138 44.7938 32.1358 44.1265 32.3376 43.5036C32.5394 42.8806 32.9129 42.3272 33.4152 41.9071C33.9174 41.4869 34.528 41.2169 35.1769 41.1282L40.5686 40.3647L42.8886 35.757C43.191 35.1599 43.6529 34.6583 44.2232 34.3079C44.7934 33.9575 45.4496 33.7719 46.1189 33.7719C46.7882 33.7719 47.4445 33.9575 48.0147 34.3079C48.5849 34.6583 49.0469 35.1599 49.3493 35.757L51.6693 40.3618L57.061 41.1253C57.7102 41.214 58.3211 41.4842 58.8236 41.9048C59.326 42.3253 59.6995 42.8792 59.901 43.5026C60.1026 44.1261 60.1241 44.7937 59.963 45.4288C59.8019 46.0639 59.4648 46.6406 58.9904 47.0926L55.1199 50.7752L56.0009 55.7999C56.1174 56.4538 56.0479 57.1273 55.8003 57.7437C55.5526 58.36 55.1367 58.8943 54.6001 59.2857C53.9796 59.745 53.2282 59.9931 52.4563 59.9935ZM46.1219 52.6694C46.6847 52.6685 47.2395 52.8024 47.74 53.06L51.3785 54.9336L50.6972 51.0395C50.5987 50.4764 50.6408 49.8976 50.8195 49.3546C50.9983 48.8116 51.3083 48.3211 51.7221 47.9266L54.5678 45.2132L50.5886 44.6493C50.028 44.5687 49.4951 44.3542 49.035 44.024C48.575 43.6938 48.2012 43.2575 47.9455 42.7522L46.1219 39.1401L44.2982 42.7581C44.0418 43.2623 43.6677 43.6974 43.2077 44.0266C42.7477 44.3557 42.2152 44.5693 41.6552 44.6493L37.676 45.2132L40.5216 47.9296C40.9348 48.3227 41.2447 48.8116 41.4239 49.353C41.6032 49.8944 41.6463 50.4716 41.5495 51.0337L40.8681 54.9336L44.5067 53.06C45.0063 52.8029 45.56 52.669 46.1219 52.6694Z" fill="white"/>
</svg>
