<svg width="27" height="26" viewBox="0 0 27 26" fill="none" xmlns="http://www.w3.org/2000/svg">
<rect x="0.779297" width="26" height="26" rx="5" fill="white"/>
<g clip-path="url(#clip0_5893_236)">
<mask id="mask0_5893_236" style="mask-type:luminance" maskUnits="userSpaceOnUse" x="4" y="4" width="19" height="18">
<path d="M22.2793 21.5V4.5H5.2793V21.5H22.2793Z" fill="white" stroke="white"/>
</mask>
<g mask="url(#mask0_5893_236)">
<path d="M8.12736 19.2074L7.52246 20.2695" stroke="#4F0F00" stroke-miterlimit="10" stroke-linecap="round" stroke-linejoin="round"/>
<path d="M19.4307 19.2074L20.0356 20.2695" stroke="#4F0F00" stroke-miterlimit="10" stroke-linecap="round" stroke-linejoin="round"/>
<path d="M5.98828 14.1252L6.57082 16.8702C6.89134 18.3807 8.22492 19.4609 9.76897 19.4609H17.7888C19.3329 19.4609 20.6664 18.3807 20.9869 16.8702L21.5695 14.1252H5.98828Z" stroke="#4F0F00" stroke-miterlimit="10" stroke-linecap="round" stroke-linejoin="round"/>
<path d="M5.30664 14.125H22.2519" stroke="#4F0F00" stroke-miterlimit="10" stroke-linecap="round" stroke-linejoin="round"/>
<path d="M8.46582 14.125V7.673C8.46582 6.59958 9.33597 5.72943 10.4094 5.72943C11.4827 5.72943 12.3529 6.59958 12.3529 7.673V7.70004" stroke="#4F0F00" stroke-miterlimit="10" stroke-linecap="round" stroke-linejoin="round"/>
<path d="M11.3263 11.548L11.3242 12.4141" stroke="#4F0F00" stroke-miterlimit="10" stroke-linecap="round" stroke-linejoin="round"/>
<path d="M13.3789 11.548L13.381 12.4141" stroke="#4F0F00" stroke-miterlimit="10" stroke-linecap="round" stroke-linejoin="round"/>
<path d="M14.1307 9.75391H10.5752V9.24249C10.5752 8.39052 11.2659 7.69984 12.1178 7.69984H12.588C13.44 7.69984 14.1307 8.39052 14.1307 9.24249V9.75391Z" stroke="#4F0F00" stroke-miterlimit="10" stroke-linecap="round" stroke-linejoin="round"/>
</g>
</g>
<defs>
<clipPath id="clip0_5893_236">
<rect width="18" height="18" fill="white" transform="translate(4.7793 4)"/>
</clipPath>
</defs>
</svg>
