<svg width="27" height="26" viewBox="0 0 27 26" fill="none" xmlns="http://www.w3.org/2000/svg">
<rect x="0.779297" width="26" height="26" rx="5" fill="white"/>
<g clip-path="url(#clip0_5893_232)">
<path d="M21.1092 12.1717V8.16325C21.1092 7.27953 20.3903 6.56055 19.5065 6.56055H8.05206C7.16834 6.56055 6.44936 7.27953 6.44936 8.16325V12.1717C5.48763 12.4379 4.7793 13.3204 4.7793 14.3656V17.4113C4.7793 17.7064 5.01857 17.9457 5.31367 17.9457H6.44936V18.907C6.44936 19.2021 6.68863 19.4414 6.98373 19.4414C7.27884 19.4414 7.51811 19.2021 7.51811 18.907V17.9457H20.0405V18.907C20.0405 19.2021 20.2798 19.4414 20.5749 19.4414C20.87 19.4414 21.1092 19.2021 21.1092 18.907V17.9457H22.2449C22.54 17.9457 22.7793 17.7064 22.7793 17.4113V14.3656C22.7793 13.3204 22.0709 12.4379 21.1092 12.1717ZM7.51811 8.16325C7.51811 7.86885 7.75766 7.6293 8.05206 7.6293H19.5066C19.801 7.6293 20.0405 7.86885 20.0405 8.16325V12.089H18.7884V11.0164C18.7884 10.0836 18.0296 9.32481 17.0969 9.32481H14.9365C14.4892 9.32481 14.0821 9.49964 13.7793 9.78423C13.4765 9.49968 13.0695 9.32481 12.6222 9.32481H10.4618C9.52905 9.32481 8.77023 10.0837 8.77023 11.0164V12.089H7.51811V8.16325ZM17.7197 11.0164V12.089H14.3137V11.0164C14.3137 10.6729 14.5931 10.3936 14.9365 10.3936H17.0969C17.4403 10.3936 17.7197 10.6729 17.7197 11.0164ZM13.2449 11.0164V12.089H9.83888V11.0164C9.83888 10.6729 10.1183 10.3936 10.4617 10.3936H12.6221C12.9655 10.3936 13.2449 10.6729 13.2449 11.0164ZM21.7105 16.8769H5.84805V14.3656C5.84805 13.6996 6.38988 13.1578 7.05591 13.1578H20.5027C21.1687 13.1578 21.7105 13.6996 21.7105 14.3656V16.8769Z" fill="#4F0F00"/>
</g>
<defs>
<clipPath id="clip0_5893_232">
<rect width="18" height="18" fill="white" transform="translate(4.7793 4)"/>
</clipPath>
</defs>
</svg>
