<svg width="15" height="32" viewBox="0 0 15 32" fill="none" xmlns="http://www.w3.org/2000/svg">
<path opacity="0.5" d="M0.777202 32C0.569948 32 0.388601 31.8855 0.233161 31.6565C0.0777202 31.4275 0 31.1413 0 30.7979V28.4508C0 28.0692 0.0647669 27.7448 0.194301 27.4776C0.323834 27.2105 0.556995 26.9052 0.893782 26.5617L11.386 15.9714L0.893782 5.38104C0.582902 5.07573 0.349741 4.78951 0.194301 4.52236C0.0647669 4.25522 0 3.91175 0 3.49195V1.1449C0 0.801433 0.0647669 0.53429 0.194301 0.343473C0.349741 0.114491 0.544041 0 0.777202 0C0.932643 0 1.11399 0.0954084 1.32124 0.286225C1.5544 0.438879 1.69689 0.534287 1.7487 0.57245L13.8731 12.8801C14.2876 13.2999 14.5725 13.7197 14.728 14.1395C14.9093 14.5212 15 14.9791 15 15.5134V16.4866C15 17.0209 14.9093 17.4979 14.728 17.9177C14.5725 18.2993 14.2876 18.681 13.8731 19.0626L1.7487 31.3703C1.3342 31.7901 1.01036 32 0.777202 32Z" fill="#5E23DC"/>
</svg>
