<svg width="22" height="22" viewBox="0 0 22 22" fill="none" xmlns="http://www.w3.org/2000/svg">
<path d="M6.41699 8.25L10.7895 4.34042C11.9775 3.27983 12.5706 2.75 13.292 2.75C14.0134 2.75 14.6074 3.27983 15.7945 4.34042L20.167 8.25M7.79199 7.33333V18.3333M18.792 18.3333V7.33333" stroke="#0D1520" stroke-width="1.2" stroke-linecap="round" stroke-linejoin="round"/>
<path d="M3.2085 12.8333C3.96789 12.8333 4.5835 12.0125 4.5835 11C4.5835 9.98744 3.96789 9.16663 3.2085 9.16663C2.4491 9.16663 1.8335 9.98744 1.8335 11C1.8335 12.0125 2.4491 12.8333 3.2085 12.8333Z" stroke="#0D1520" stroke-width="1.2"/>
<path d="M3.2085 12.8334V18.3334" stroke="#0D1520" stroke-width="1.2" stroke-linecap="round"/>
<path d="M1.8335 18.3334H20.1668M11.0002 18.3334V14.6667C11.0002 13.8023 11.0002 13.3705 11.2687 13.102C11.5373 12.8334 11.9691 12.8334 12.8335 12.8334H13.7502C14.6146 12.8334 15.0463 12.8334 15.3149 13.102C15.5835 13.3705 15.5835 13.8023 15.5835 14.6667V18.3334M12.3752 10.0834H14.2085M12.3752 7.33337H14.2085" stroke="#0D1520" stroke-width="1.2" stroke-linecap="round" stroke-linejoin="round"/>
</svg>
