<svg width="20" height="20" viewBox="0 0 20 20" fill="none" xmlns="http://www.w3.org/2000/svg">
<path d="M12.4998 6.66667C12.4998 5.5616 12.0609 4.50179 11.2794 3.72039C10.498 2.93899 9.43824 2.5 8.33317 2.5C7.2281 2.5 6.16829 2.93899 5.38689 3.72039C4.60549 4.50179 4.1665 5.5616 4.1665 6.66667C4.1665 7.77174 4.60549 8.83154 5.38689 9.61294C6.16829 10.3943 7.2281 10.8333 8.33317 10.8333C9.43824 10.8333 10.498 10.3943 11.2794 9.61294C12.0609 8.83154 12.4998 7.77174 12.4998 6.66667Z" stroke="black" stroke-width="1.2" stroke-linecap="round" stroke-linejoin="round"/>
<path d="M2.5 16.6667C2.49988 15.6426 2.76933 14.6366 3.28126 13.7498C3.79319 12.8629 4.52957 12.1264 5.41637 11.6143C6.30317 11.1023 7.30914 10.8327 8.33316 10.8326C9.35718 10.8326 10.3632 11.1021 11.25 11.6142M15.0875 12.0883L15.6008 13.1233C15.6443 13.2009 15.7037 13.2685 15.7751 13.3216C15.8464 13.3747 15.9282 13.4122 16.015 13.4317L16.945 13.5875C17.54 13.6875 17.68 14.1225 17.2508 14.5517L16.5283 15.2808C16.4646 15.3527 16.4179 15.4379 16.3915 15.5302C16.3651 15.6225 16.3597 15.7195 16.3758 15.8142L16.5833 16.7158C16.7467 17.4308 16.3708 17.7075 15.7433 17.3333L14.8717 16.8133C14.7825 16.7669 14.6835 16.7426 14.5829 16.7426C14.4824 16.7426 14.3833 16.7669 14.2942 16.8133L13.4217 17.3333C12.7975 17.7067 12.4183 17.4275 12.5817 16.7167L12.7892 15.8133C12.8052 15.7189 12.8 15.622 12.7737 15.5299C12.7475 15.4377 12.7009 15.3526 12.6375 15.2808L11.9142 14.5517C11.4892 14.1225 11.6258 13.6875 12.2208 13.5875L13.1508 13.4317C13.2371 13.4118 13.3182 13.3741 13.3889 13.321C13.4597 13.2679 13.5185 13.2006 13.5617 13.1233L14.075 12.0883C14.355 11.5258 14.81 11.5258 15.0875 12.0883Z" stroke="black" stroke-width="1.2" stroke-linecap="round" stroke-linejoin="round"/>
</svg>
