<svg width="14" height="14" viewBox="0 0 14 14" fill="none" xmlns="http://www.w3.org/2000/svg">
<g clip-path="url(#clip0_14_92506)">
<path d="M12.2676 2.36523C12.6207 2.01216 13.145 2.01216 13.498 2.36523C13.851 2.71831 13.8511 3.24266 13.498 3.5957L5.45996 11.6348C5.36793 11.7268 5.27945 11.7913 5.18359 11.834C5.08806 11.8764 4.97913 11.8994 4.84375 11.8994C4.70857 11.8994 4.60031 11.8764 4.50488 11.834C4.40901 11.7913 4.32056 11.7268 4.22852 11.6348L0.503906 7.90918C0.150833 7.55611 0.150833 7.03081 0.503906 6.67773C0.856879 6.3252 1.38145 6.3251 1.73438 6.67773L4.77344 9.7168L4.84375 9.78809L4.91504 9.7168L12.2676 2.36523Z" fill="#888888" stroke="#F2F2F2" stroke-width="0.2"/>
</g>
<defs>
<clipPath id="clip0_14_92506">
<rect width="14" height="14" fill="white"/>
</clipPath>
</defs>
</svg>
