<svg width="22" height="22" viewBox="0 0 22 22" fill="none" xmlns="http://www.w3.org/2000/svg">
<g clip-path="url(#clip0_6170_2624)">
<path d="M20.2991 0.102963C20.3987 0.164556 20.4809 0.250564 20.5379 0.352833C20.595 0.455102 20.6249 0.570243 20.625 0.687338V21.3123C20.625 21.4947 20.5526 21.6695 20.4236 21.7985C20.2947 21.9274 20.1198 21.9998 19.9375 21.9998H15.8125C15.6302 21.9998 15.4553 21.9274 15.3264 21.7985C15.1974 21.6695 15.125 21.4947 15.125 21.3123V19.2498H13.75V21.3123C13.75 21.4947 13.6776 21.6695 13.5486 21.7985C13.4197 21.9274 13.2448 21.9998 13.0625 21.9998H0.6875C0.505164 21.9998 0.330295 21.9274 0.201364 21.7985C0.0724328 21.6695 0 21.4947 0 21.3123V13.7498C0.000109514 13.6056 0.0455786 13.4651 0.129972 13.3481C0.214365 13.2311 0.333407 13.1437 0.47025 13.0981L8.25 10.5048V6.18734C8.25 6.05977 8.2855 5.93471 8.35252 5.82617C8.41955 5.71762 8.51545 5.62986 8.6295 5.57271L19.6295 0.0727133C19.7344 0.0201964 19.851 -0.00459443 19.9682 0.000700535C20.0855 0.0059955 20.1994 0.0412 20.2991 0.102963ZM8.25 11.9541L1.375 14.2448V20.6248H8.25V11.9541ZM9.625 20.6248H12.375V18.5623C12.375 18.38 12.4474 18.2051 12.5764 18.0762C12.7053 17.9473 12.8802 17.8748 13.0625 17.8748H15.8125C15.9948 17.8748 16.1697 17.9473 16.2986 18.0762C16.4276 18.2051 16.5 18.38 16.5 18.5623V20.6248H19.25V1.79971L9.625 6.61221V20.6248Z" fill="#0D1520"/>
<path d="M2.75 15.125H4.125V16.5H2.75V15.125ZM5.5 15.125H6.875V16.5H5.5V15.125ZM2.75 17.875H4.125V19.25H2.75V17.875ZM5.5 17.875H6.875V19.25H5.5V17.875ZM11 12.375H12.375V13.75H11V12.375ZM13.75 12.375H15.125V13.75H13.75V12.375ZM11 15.125H12.375V16.5H11V15.125ZM13.75 15.125H15.125V16.5H13.75V15.125ZM16.5 12.375H17.875V13.75H16.5V12.375ZM16.5 15.125H17.875V16.5H16.5V15.125ZM11 9.625H12.375V11H11V9.625ZM13.75 9.625H15.125V11H13.75V9.625ZM16.5 9.625H17.875V11H16.5V9.625ZM11 6.875H12.375V8.25H11V6.875ZM13.75 6.875H15.125V8.25H13.75V6.875ZM16.5 6.875H17.875V8.25H16.5V6.875ZM16.5 4.125H17.875V5.5H16.5V4.125Z" fill="#0D1520"/>
</g>
<defs>
<clipPath id="clip0_6170_2624">
<rect width="22" height="22" fill="white"/>
</clipPath>
</defs>
</svg>
