<svg width="49" height="52" viewBox="0 0 49 52" fill="none" xmlns="http://www.w3.org/2000/svg">
<path d="M33.7255 51.9999C41.7516 51.9999 48.258 45.4935 48.258 37.4674C48.258 29.4414 41.7516 22.9349 33.7255 22.9349C25.6994 22.9349 19.193 29.4414 19.193 37.4674C19.193 45.4935 25.6994 51.9999 33.7255 51.9999Z" fill="#5E40E0" fill-opacity="0.6"/>
<path d="M10.9199 31.1032V39.1713C10.9199 45.4854 13.2295 50.5467 18.5414 50.5467H25.0059C25.056 50.5467 25.056 50.5467 25.056 50.5467C30.3178 50.4966 34.5773 45.3852 34.5773 39.1713V39.1212C34.6274 38.9207 34.6274 38.7203 34.6274 38.4697L34.5773 29.2491C34.5773 27.8459 33.4247 26.6934 32.0216 26.6934H25.7576" fill="#F2F3F8"/>
<path d="M25.0059 51.4488H19.6719C13.8589 51.4488 10.2788 45.9364 10.2788 39.1713V31.1033C10.2788 30.6021 10.6797 30.2012 11.1808 30.2012C11.682 30.2012 12.0828 30.6021 12.0828 31.1033V39.1713C12.0828 44.9342 14.8611 49.6447 19.6719 49.6447H25.056C29.8167 49.5946 33.7254 44.8841 33.6753 39.1713V39.1212C33.6753 39.021 33.6753 38.9207 33.7254 38.8706C33.7755 38.7704 33.7755 38.6201 33.7755 38.4697L33.7254 29.2491C33.7254 28.3471 32.9737 27.5954 32.0717 27.5954H25.8077C25.3066 27.5954 24.9057 27.1945 24.9057 26.6934C24.9057 26.1923 25.3066 25.7914 25.8077 25.7914H32.0717C33.976 25.7914 35.5295 27.3449 35.5295 29.2491L35.5796 38.4697C35.5796 38.7203 35.5796 38.9709 35.5295 39.2214C35.5295 45.9364 30.869 51.3986 25.1062 51.4488H25.0059Z" fill="#5E23DC"/>
<path d="M28.1418 27.2488V2.65078C28.1418 1.83628 27.5267 1.13037 26.7065 1.13037H8.09889C7.32997 1.13037 6.66357 1.78198 6.66357 2.65078V36.9143C6.66357 37.7288 7.27871 38.4347 8.09889 38.4347H26.7065C27.4755 38.4347 28.1418 37.7831 28.1418 36.9143V31.43V27.2488Z" fill="#F2F3F8"/>
<path d="M14.0857 17.3286L12.5429 18.8715C11.6908 19.7236 11.6908 21.1051 12.5429 21.9572V21.9572C13.395 22.8093 14.7765 22.8093 15.6286 21.9572L19.1 18.4857C19.8714 17.7143 19.8714 16.3257 18.3286 15.4" stroke="#5E23DC" stroke-linecap="round"/>
<path d="M21.1496 16.1714L22.6925 14.6285C23.5446 13.7764 23.5446 12.3949 22.6925 11.5428V11.5428C21.8404 10.6907 20.4589 10.6907 19.6068 11.5428L16.1354 15.0143C15.3639 15.7857 15.3639 17.1743 16.9068 18.1" stroke="#5E23DC" stroke-linecap="round"/>
<path d="M26.409 39.6223H8.21837C6.96556 39.6223 5.91321 38.57 5.91321 37.3172V2.30515C5.91321 1.05235 6.96556 0 8.21837 0H26.409C27.6618 0 28.7142 1.05235 28.7142 2.30515V28.3972C28.7142 28.8983 28.3133 29.2992 27.8122 29.2992C27.311 29.2992 26.9102 28.8983 26.9102 28.3972V2.30515C26.9102 2.05459 26.6596 1.80403 26.409 1.80403H8.21837C7.96781 1.80403 7.71725 2.05459 7.71725 2.30515V37.3172C7.71725 37.5677 7.96781 37.8183 8.21837 37.8183H26.409C26.6596 37.8183 26.9102 37.5677 26.9102 37.3172V34.2883C26.9102 33.5377 26.9102 33.8874 26.9102 33.3863C26.9102 32.8852 27.311 32.4843 27.8122 32.4843C28.3133 32.4843 28.7142 32.8852 28.7142 33.3863V37.3172C28.6641 38.57 27.6618 39.6223 26.409 39.6223Z" fill="#5E23DC"/>
<path d="M17.2886 36.287C18.285 36.287 19.0927 35.4793 19.0927 34.483C19.0927 33.4867 18.285 32.679 17.2886 32.679C16.2923 32.679 15.4846 33.4867 15.4846 34.483C15.4846 35.4793 16.2923 36.287 17.2886 36.287Z" fill="#5E40E0" fill-opacity="0.6"/>
<path d="M4.20938 23.1315C6.036 23.1315 7.51676 21.6507 7.51676 19.8241C7.51676 17.9975 6.036 16.5167 4.20938 16.5167C2.38275 16.5167 0.901978 17.9975 0.901978 19.8241C0.901978 21.6507 2.38275 23.1315 4.20938 23.1315Z" fill="#E9EAF0"/>
<path d="M4.20942 24.0336C1.90427 24.0336 0 22.1794 0 19.8242C0 17.4689 1.85416 15.6147 4.20942 15.6147C6.51458 15.6147 8.41883 17.4689 8.41883 19.8242C8.41883 22.1794 6.56469 24.0336 4.20942 24.0336ZM4.20942 17.4188C2.8564 17.4188 1.80404 18.4711 1.80404 19.8242C1.80404 21.1772 2.8564 22.2295 4.20942 22.2295C5.56245 22.2295 6.6148 21.1772 6.6148 19.8242C6.66491 18.4711 5.56245 17.4188 4.20942 17.4188Z" fill="#5E23DC"/>
<path d="M4.20943 31.0492C6.00838 31.0492 7.46672 29.5909 7.46672 27.792C7.46672 25.993 6.00838 24.5347 4.20943 24.5347C2.41048 24.5347 0.952148 25.993 0.952148 27.792C0.952148 29.5909 2.41048 31.0492 4.20943 31.0492Z" fill="#E9EAF0"/>
<path d="M4.20948 31.9513C1.90433 31.9513 0.0501709 30.0971 0.0501709 27.792C0.0501709 25.4868 1.90433 23.6327 4.20948 23.6327C6.51464 23.6327 8.36878 25.4868 8.36878 27.792C8.36878 30.0971 6.51464 31.9513 4.20948 31.9513ZM4.20948 25.4367C2.90657 25.4367 1.85421 26.4891 1.85421 27.792C1.85421 29.0949 2.90657 30.1473 4.20948 30.1473C5.51239 30.1473 6.56474 29.0949 6.56474 27.792C6.56474 26.4891 5.56251 25.4367 4.20948 25.4367Z" fill="#5E23DC"/>
<path d="M4.96111 36.0604C6.3726 36.0604 7.51682 34.9162 7.51682 33.5047C7.51682 32.0932 6.3726 30.949 4.96111 30.949C3.54963 30.949 2.4054 32.0932 2.4054 33.5047C2.4054 34.9162 3.54963 36.0604 4.96111 36.0604Z" fill="#E9EAF0"/>
<path d="M4.9611 36.9625C3.10695 36.9625 1.55347 35.409 1.55347 33.5548C1.55347 31.7007 3.10695 30.1472 4.9611 30.1472C6.81524 30.1472 8.36871 31.7007 8.36871 33.5548C8.36871 35.409 6.81524 36.9625 4.9611 36.9625ZM4.9611 31.9011C4.05908 31.9011 3.30739 32.6528 3.30739 33.5548C3.30739 34.4568 4.05908 35.2085 4.9611 35.2085C5.86311 35.2085 6.61479 34.4568 6.61479 33.5548C6.56468 32.6027 5.86311 31.9011 4.9611 31.9011Z" fill="#5E23DC"/>
<path d="M34.427 28.3472L29.065 20.6299C27.8122 18.876 25.4569 18.4751 23.8533 19.6778C22.2497 20.8805 21.9992 23.2357 23.252 24.9395L26.3589 29.3995H29.4158" fill="#F2F3F8"/>
<path d="M29.4158 30.3015H26.3589C26.0583 30.3015 25.8077 30.1511 25.6072 29.9006L22.5003 25.4406C20.9468 23.3359 21.3477 20.4294 23.3522 18.9762C24.2542 18.2746 25.4569 17.9739 26.6095 18.1744C27.8623 18.3748 29.0149 19.0764 29.8167 20.1287L35.1787 27.846C35.4292 28.2469 35.3791 28.7981 34.9281 29.0988C34.5272 29.3494 33.976 29.2992 33.6753 28.8482L28.3133 21.131C27.8122 20.4795 27.1106 20.0285 26.3088 19.9283C25.6072 19.8281 24.9057 19.9784 24.3544 20.4294C23.1518 21.3314 22.9513 23.1355 23.9034 24.4384L26.7598 28.5476H29.3155C29.8167 28.5476 30.2176 28.9485 30.2176 29.4496C30.2176 29.9006 29.9169 30.3015 29.4158 30.3015Z" fill="#5E23DC"/>
</svg>
