<svg width="16" height="16" viewBox="0 0 16 16" fill="none" xmlns="http://www.w3.org/2000/svg">
<path fill-rule="evenodd" clip-rule="evenodd" d="M1.19543 4.27978C1.3683 4.10712 1.60265 4.01014 1.84698 4.01014C2.09131 4.01014 2.32565 4.10712 2.49853 4.27978L7.9937 9.77495L13.4889 4.27978C13.5733 4.1892 13.6751 4.11654 13.7882 4.06615C13.9013 4.01575 14.0234 3.98866 14.1472 3.98647C14.271 3.98429 14.3939 4.00706 14.5087 4.05343C14.6235 4.09981 14.7278 4.16883 14.8154 4.25638C14.9029 4.34393 14.972 4.44822 15.0183 4.56303C15.0647 4.67783 15.0875 4.8008 15.0853 4.9246C15.0831 5.0484 15.056 5.17049 15.0056 5.28359C14.9552 5.39669 14.8826 5.49848 14.792 5.58289L8.64525 11.7296C8.47238 11.9023 8.23803 11.9993 7.9937 11.9993C7.74937 11.9993 7.51503 11.9023 7.34215 11.7296L1.19543 5.58289C1.02276 5.41001 0.925781 5.17567 0.925781 4.93134C0.925781 4.687 1.02276 4.45266 1.19543 4.27978Z" fill="white"/>
</svg>
