<svg width="19" height="19" viewBox="0 0 19 19" fill="none" xmlns="http://www.w3.org/2000/svg">
<path d="M15.2643 4.25125L13.993 2.90938C13.318 2.19687 12.2211 2.19687 11.5461 2.90938L9.41426 5.16562L3.11988 11.8037C2.56863 12.3856 2.27051 13.1516 2.27051 13.9709V16.0312C2.27051 16.3578 2.52363 16.625 2.83301 16.625H4.78488C5.56113 16.625 6.28676 16.3044 6.83801 15.7284L13.1324 9.09031L15.2643 6.83406C15.5905 6.48969 15.7705 6.0325 15.7705 5.54563C15.7705 5.05875 15.5905 4.60156 15.2643 4.25719V4.25125ZM6.03926 14.8853C5.70176 15.2416 5.25738 15.4375 4.78488 15.4375H3.39551V13.9709C3.39551 13.4722 3.58113 12.9972 3.91863 12.6469L9.81363 6.43031L11.9399 8.67469L6.04488 14.8972L6.03926 14.8853ZM14.4711 5.99094L12.7386 7.82563L10.6124 5.58125L12.3449 3.74656C12.5811 3.49719 12.9636 3.49719 13.1999 3.74656L14.4711 5.08844C14.5836 5.20719 14.6455 5.3675 14.6455 5.53969C14.6455 5.71187 14.5836 5.86625 14.4711 5.99094ZM14.6455 15.4375H9.02051C8.71113 15.4375 8.45801 15.7047 8.45801 16.0312C8.45801 16.3578 8.71113 16.625 9.02051 16.625H14.6455C14.9549 16.625 15.208 16.3578 15.208 16.0312C15.208 15.7047 14.9549 15.4375 14.6455 15.4375Z" fill="#010048"/>
</svg>
