<svg width="22" height="23" viewBox="0 0 22 23" fill="none" xmlns="http://www.w3.org/2000/svg">
<path d="M20.0664 3.43628H1.93359C0.865262 3.43628 0 4.30691 0 5.36987V16.9714C0 18.0407 0.871621 18.905 1.93359 18.905H20.0664C21.1258 18.905 22 18.0444 22 16.9714V5.36987C22 4.3088 21.1382 3.43628 20.0664 3.43628ZM19.7956 4.72534L12.3673 12.1145C12.002 12.4798 11.5165 12.6809 11 12.6809C10.4835 12.6809 9.99797 12.4797 9.63153 12.1133L2.20438 4.72534H19.7956ZM1.28906 16.7091V5.63306L6.85945 11.1741L1.28906 16.7091ZM2.2052 17.616L7.77339 12.0832L8.72124 13.026C9.32993 13.6347 10.1392 13.9699 11 13.9699C11.8608 13.9699 12.6701 13.6347 13.2776 13.0272L14.2266 12.0832L19.7948 17.616H2.2052ZM20.7109 16.7091L15.1406 11.1741L20.7109 5.63306V16.7091Z" fill="white"/>
</svg>
