<svg width="21" height="21" viewBox="0 0 21 21" fill="none" xmlns="http://www.w3.org/2000/svg">
<g clip-path="url(#clip0_4873_7752)">
<path d="M10.9263 20.1963C5.45768 20.1963 0.983398 15.722 0.983398 10.2534C0.983398 4.78483 5.45768 0.310547 10.9263 0.310547C16.3948 0.310547 20.8691 4.78483 20.8691 10.2534C20.8691 15.722 16.3948 20.1963 10.9263 20.1963ZM10.9263 1.96769C6.36911 1.96769 2.64054 5.69626 2.64054 10.2534C2.64054 14.8105 6.36911 18.5391 10.9263 18.5391C15.4834 18.5391 19.212 14.8105 19.212 10.2534C19.212 5.69626 15.4834 1.96769 10.9263 1.96769ZM10.9263 16.0534C10.4291 16.0534 10.0977 15.722 10.0977 15.2248C10.0977 14.7277 10.4291 14.3963 10.9263 14.3963C11.4234 14.3963 11.7548 14.7277 11.7548 15.2248C11.7548 15.722 11.4234 16.0534 10.9263 16.0534ZM10.9263 13.5677C10.4291 13.5677 10.0977 13.2363 10.0977 12.7391V10.2534C10.0977 9.75626 10.4291 9.42483 10.9263 9.42483C11.8377 9.42483 12.5834 8.67912 12.5834 7.76769C12.5834 6.85626 11.8377 6.11055 10.9263 6.11055C10.0148 6.11055 9.26911 6.85626 9.26911 7.76769C9.26911 8.26483 8.93769 8.59626 8.44054 8.59626C7.9434 8.59626 7.61197 8.26483 7.61197 7.76769C7.61197 5.94483 9.1034 4.4534 10.9263 4.4534C12.7491 4.4534 14.2405 5.94483 14.2405 7.76769C14.2405 9.34198 13.1634 10.5848 11.7548 10.9991V12.7391C11.7548 13.2363 11.4234 13.5677 10.9263 13.5677Z" fill="black"/>
</g>
<defs>
<clipPath id="clip0_4873_7752">
<rect width="20" height="20" fill="white" transform="translate(0.925781 0.253906)"/>
</clipPath>
</defs>
</svg>
