<svg width="67" height="66" viewBox="0 0 67 66" fill="none" xmlns="http://www.w3.org/2000/svg">
<path d="M34.0701 64.7332C29.8136 64.7406 25.6363 63.5823 21.9914 61.384L10.7913 54.5944H0V31.7422H20.9479L37.2313 41.919C37.7565 42.2451 38.2102 42.6742 38.565 43.1804C38.9198 43.6866 39.1684 44.2595 39.2956 44.8644C39.3591 45.1532 39.3948 45.4474 39.4023 45.743L39.4353 46.9795H60.2308C61.2842 46.9815 62.3037 47.3515 63.1132 48.0256C63.9226 48.6998 64.471 49.6356 64.6635 50.6712C64.856 51.7069 64.6805 52.7772 64.1673 53.6971C63.6542 54.6171 62.8356 55.3288 61.8533 55.7091L42.3756 63.2021C39.7252 64.2201 36.9093 64.7392 34.0701 64.7332Z" fill="#F4DCD4"/>
<path d="M62.7669 37.5304L55.7843 39.1808L51.417 36.5147L50.6045 33.0361L47.1005 33.8486L44.9676 32.5283L44.1297 29.0243L40.6257 29.8368L34.1509 25.8504L32.8051 28.0086L25.7717 23.6667C25.3824 23.428 24.9334 23.3047 24.4768 23.3112C24.131 23.3165 23.7882 23.3765 23.4611 23.489C22.3325 23.8695 21.1481 24.0583 19.9571 24.0476C18.0097 24.0529 16.0941 23.5543 14.3964 22.6003C12.539 21.5217 11.017 19.9492 9.99946 18.0577C8.98195 16.1661 8.50881 14.0294 8.63259 11.8851C8.70296 9.79765 9.3826 7.7764 10.5877 6.0705L10.7401 5.84197C11.8931 4.29879 13.4353 3.08956 15.2089 2.33797C16.7556 1.63391 18.4355 1.27023 20.1349 1.27153C21.9584 1.26621 23.7551 1.71102 25.3655 2.56649C26.9286 3.40294 28.2735 4.59452 29.2922 6.04541C30.311 7.4963 30.975 9.166 31.2309 10.9202C31.2739 11.301 31.3982 11.668 31.5953 11.9965C31.7925 12.3251 32.0578 12.6075 32.3735 12.8246L39.4831 17.2173L38.1373 19.3502L59.7708 32.706L60.8118 34.4072L61.5481 35.6006L62.7669 37.5304Z" fill="#E6ECFF"/>
<path d="M62.7669 37.5302L55.7843 39.1806L51.417 36.5145L50.6045 33.0359L47.1005 33.8484L44.9676 32.5281L44.1297 29.0241L40.6257 29.8366L34.1509 25.8502L32.8051 28.0084L25.7717 23.6665C25.3824 23.4278 24.9334 23.3046 24.4768 23.311C24.131 23.3163 23.7882 23.3763 23.4611 23.4888C22.3325 23.8693 21.1481 24.0581 19.9571 24.0474C18.0097 24.0528 16.0941 23.5542 14.3964 22.6001C12.539 21.5215 11.017 19.949 9.99946 18.0575C8.98195 16.1659 8.50881 14.0292 8.63259 11.8849C8.70296 9.79747 9.3826 7.77622 10.5877 6.07031C18.2051 14.9065 32.9067 26.2564 60.8118 34.4071L61.5481 35.6004L62.7669 37.5302Z" fill="#C5D1ED"/>
<path d="M23.5376 14.7033C23.235 15.2189 22.7956 15.6407 22.268 15.9221C22.0957 16.0251 21.9176 16.1183 21.7348 16.2014C21.2875 16.4015 20.803 16.5054 20.3129 16.5061C19.6026 16.5045 18.9072 16.302 18.307 15.9221C17.6604 15.5312 17.1486 14.9521 16.84 14.2624C16.5315 13.5727 16.4409 12.8052 16.5804 12.0626C16.6106 11.8822 16.6531 11.704 16.7073 11.5294C16.8068 11.2302 16.9343 10.9412 17.0882 10.6661C17.4322 10.1219 17.9082 9.67351 18.472 9.36274C19.0358 9.05197 19.6691 8.88889 20.3129 8.88867C20.9898 8.89258 21.6534 9.07656 22.2356 9.42173C22.8179 9.76689 23.2978 10.2608 23.6261 10.8527C23.9544 11.4447 24.1192 12.1133 24.1036 12.79C24.0881 13.4667 23.8927 14.1271 23.5376 14.7033Z" fill="#4294FF"/>
<path d="M21.7348 16.2013C21.2875 16.4015 20.803 16.5053 20.3129 16.506C19.6026 16.5044 18.9072 16.302 18.307 15.922C17.6604 15.5311 17.1486 14.952 16.84 14.2623C16.5315 13.5726 16.4409 12.8051 16.5804 12.0625C18.2225 13.5342 19.9432 14.9158 21.7348 16.2013Z" fill="#235FE5"/>
<path d="M60.2333 45.7071H40.6642C40.657 45.3323 40.6145 44.9591 40.5373 44.5924C40.374 43.8217 40.0563 43.092 39.6033 42.4475C39.1504 41.8029 38.5715 41.2568 37.9017 40.8421L21.6182 30.6652C21.4174 30.5391 21.185 30.4722 20.9479 30.4723H1.26957C0.932857 30.4723 0.609938 30.606 0.371848 30.8441C0.133758 31.0822 0 31.4051 0 31.7418C0 32.0785 0.133758 32.4015 0.371848 32.6396C0.609938 32.8776 0.932857 33.0114 1.26957 33.0114H20.5822L36.5559 42.9953C37.3128 43.4589 37.8546 44.2043 38.062 45.0673C38.2693 45.9304 38.1254 46.8405 37.6617 47.5975C37.1981 48.3544 36.4527 48.8961 35.5896 49.1035C34.7266 49.3109 33.8165 49.1669 33.0595 48.7033L24.137 43.3508C23.994 43.2554 23.833 43.19 23.664 43.1587C23.4949 43.1273 23.3213 43.1306 23.1535 43.1684C22.9858 43.2062 22.8275 43.2777 22.6882 43.3785C22.5489 43.4793 22.4315 43.6074 22.3432 43.7549C22.2549 43.9024 22.1975 44.0663 22.1744 44.2367C22.1514 44.4071 22.1632 44.5804 22.2091 44.7461C22.2551 44.9118 22.3342 45.0664 22.4417 45.2006C22.5491 45.3348 22.6828 45.4458 22.8344 45.5268L31.7544 50.8793C33.0509 51.6591 34.5981 51.909 36.0741 51.577C37.5502 51.245 38.8414 50.3567 39.6791 49.0968C39.8542 48.8262 40.0071 48.5417 40.1361 48.2462H60.2333C60.9926 48.2442 61.7286 48.5086 62.3131 48.9933C62.8976 49.4779 63.2936 50.1522 63.4323 50.8988C63.5709 51.6454 63.4433 52.4169 63.0718 53.0791C62.7002 53.7413 62.1082 54.2522 61.3988 54.5229L41.9186 62.0134C38.787 63.2064 35.4252 63.6718 32.0874 63.3744C28.7495 63.077 25.5229 62.0247 22.6516 60.2969L11.449 53.5073C11.2507 53.3871 11.0232 53.3238 10.7913 53.3245H1.26957C0.932857 53.3245 0.609938 53.4582 0.371848 53.6963C0.133758 53.9344 0 54.2573 0 54.594C0 54.9308 0.133758 55.2537 0.371848 55.4918C0.609938 55.7299 0.932857 55.8636 1.26957 55.8636H10.4358L21.3363 62.4704C24.5395 64.398 28.1392 65.5718 31.8629 65.903C35.5867 66.2343 39.337 65.7143 42.8301 64.3824L62.3104 56.892C63.5699 56.4056 64.6197 55.4941 65.278 54.3154C65.9363 53.1366 66.1618 51.7647 65.9153 50.4372C65.6688 49.1098 64.9658 47.9103 63.9282 47.0465C62.8905 46.1826 61.5835 45.7088 60.2333 45.7071ZM13.7773 23.7283C15.3086 24.5771 16.9991 25.0997 18.7423 25.2632C20.4854 25.4266 22.2436 25.2273 23.9059 24.678C24.0995 24.6038 24.3067 24.5722 24.5135 24.5854C24.7203 24.5985 24.9219 24.6561 25.1044 24.7541L32.1454 29.0961C32.4331 29.2705 32.7777 29.3252 33.1052 29.2484C33.4326 29.1706 33.7157 28.966 33.8924 28.6796L34.5576 27.598L39.9609 30.9319C40.1029 31.0193 40.2608 31.0778 40.4256 31.1039C40.5903 31.1301 40.7586 31.1234 40.9207 31.0842L43.1805 30.551L43.7163 32.8083C43.7941 33.1357 43.9986 33.4188 44.285 33.5954L46.4433 34.9284C46.5847 35.0174 46.7425 35.0769 46.9074 35.1035C47.0723 35.1301 47.2409 35.1233 47.4031 35.0833L49.6629 34.5501L50.2012 36.8099C50.2789 37.1367 50.4824 37.4195 50.7674 37.5971L55.0916 40.2632C55.292 40.3855 55.5221 40.4505 55.7568 40.4511C55.856 40.4519 55.9549 40.4408 56.0514 40.4181L63.0391 38.76C63.2347 38.7134 63.4165 38.621 63.5695 38.4903C63.7224 38.3597 63.8421 38.1946 63.9187 38.0086C63.9953 37.8226 64.0267 37.6211 64.0102 37.4207C63.9936 37.2202 63.9297 37.0266 63.8237 36.8557L60.8326 32.0313C60.7287 31.8638 60.588 31.7223 60.4212 31.6174L39.8898 18.9548L40.5576 17.8731C40.7337 17.5864 40.789 17.2416 40.7114 16.9142C40.6338 16.5868 40.4297 16.3034 40.1437 16.1262L33.0951 11.7792C32.9275 11.66 32.7873 11.5063 32.6839 11.3285C32.5806 11.1507 32.5164 10.9529 32.4958 10.7483C32.2156 8.79355 31.4788 6.93235 30.345 5.31554C29.2113 3.69874 27.7125 2.37182 25.9703 1.44234C24.234 0.540507 22.3143 0.0482678 20.3584 0.00337394C18.4024 -0.0415199 16.4621 0.362124 14.6864 1.18335C12.5705 2.06754 10.7539 3.54211 9.45361 5.43093C8.15327 7.31975 7.42415 9.54297 7.35333 11.835C7.2278 14.2163 7.76095 16.5862 8.89422 18.6843C10.0275 20.7824 11.717 22.5277 13.7773 23.7283ZM15.7274 3.49904C17.1469 2.83734 18.699 2.50912 20.2648 2.53949C21.8307 2.56985 23.3689 2.95801 24.7616 3.67424C26.1555 4.41709 27.3546 5.4781 28.2617 6.77116C29.1687 8.06423 29.7581 9.55293 29.9821 11.1164C30.0545 11.6886 30.251 12.238 30.5581 12.7262C30.8651 13.2143 31.2751 13.6295 31.7595 13.9425L37.729 17.6217L37.0637 18.7034C36.887 18.9899 36.8313 19.3349 36.9089 19.6625C36.9865 19.9902 37.1911 20.2735 37.4776 20.4503L58.8317 33.6208L60.7386 36.6931L55.9752 37.8231L52.5474 35.708L51.8415 32.727C51.8042 32.5641 51.7349 32.4103 51.6376 32.2744C51.5402 32.1386 51.4168 32.0235 51.2746 31.9358C51.1323 31.8481 50.974 31.7896 50.8089 31.7637C50.6438 31.7378 50.4752 31.7451 50.3129 31.785L47.3295 32.4909L46.0624 31.7088L45.3566 28.7279C45.319 28.5651 45.2494 28.4115 45.152 28.2758C45.0546 28.1402 44.9312 28.0252 44.7891 27.9376C44.6469 27.8499 44.4887 27.7914 44.3237 27.7654C44.1588 27.7393 43.9903 27.7463 43.828 27.7859L40.847 28.4917L34.8115 24.7694C34.6694 24.6816 34.5113 24.6227 34.3464 24.5961C34.1814 24.5695 34.0129 24.5757 33.8504 24.6144C33.6878 24.6531 33.5345 24.7235 33.3993 24.8215C33.264 24.9196 33.1494 25.0434 33.0621 25.1858L32.3993 26.2649L26.4375 22.5908C25.9394 22.2945 25.382 22.1122 24.8051 22.0568C24.2283 22.0015 23.6463 22.0746 23.101 22.2709C21.7725 22.7084 20.3679 22.8666 18.9753 22.7355C17.5828 22.6044 16.2324 22.1869 15.0088 21.5091C13.3594 20.5387 12.0091 19.1328 11.1061 17.4455C10.2032 15.7583 9.78237 13.8549 9.88993 11.9442C9.94997 10.1245 10.5326 8.36046 11.5682 6.86292C12.6038 5.36537 14.046 4.19759 15.7274 3.49904Z" fill="#232328"/>
<path d="M17.6468 17.0204C18.7936 17.7269 20.1738 17.9493 21.4844 17.6389C22.7951 17.3285 23.9289 16.5106 24.6371 15.3649C25.1642 14.5101 25.426 13.5182 25.3895 12.5146C25.353 11.511 25.0197 10.5407 24.4318 9.72654C23.8439 8.91233 23.0277 8.29071 22.0866 7.94028C21.1454 7.58985 20.1215 7.52635 19.1443 7.75779C18.167 7.98923 17.2804 8.50523 16.5963 9.24055C15.9123 9.97587 15.4617 10.8975 15.3014 11.8889C15.1411 12.8803 15.2784 13.897 15.6959 14.8104C16.1134 15.7238 16.7923 16.4929 17.6468 17.0204ZM18.1546 11.3658C18.324 11.0707 18.551 10.8126 18.8221 10.6069C19.0932 10.4012 19.4028 10.2521 19.7327 10.1685C20.0625 10.0848 20.4058 10.0683 20.7422 10.1199C21.0785 10.1716 21.401 10.2903 21.6906 10.469C21.9802 10.6478 22.2308 10.8829 22.4277 11.1604C22.6246 11.438 22.7638 11.7522 22.8368 12.0846C22.9099 12.4169 22.9154 12.7606 22.853 13.0951C22.7906 13.4296 22.6616 13.7482 22.4737 14.0319C22.3009 14.3204 22.0726 14.5717 21.8019 14.7712C21.5313 14.9707 21.2237 15.1145 20.897 15.1942C20.5703 15.2738 20.231 15.2878 19.8989 15.2353C19.5667 15.1828 19.2483 15.0649 18.9622 14.8883C18.676 14.7118 18.4277 14.4801 18.2318 14.2069C18.0358 13.9336 17.8961 13.6241 17.8208 13.2964C17.7454 12.9687 17.7359 12.6293 17.7928 12.2979C17.8496 11.9664 17.9743 11.6496 18.1546 11.3658Z" fill="#232328"/>
</svg>
