<svg width="120" height="56" viewBox="0 0 120 56" fill="none" xmlns="http://www.w3.org/2000/svg">
<path fill-rule="evenodd" clip-rule="evenodd" d="M31.5602 5.39585C32.0563 5.39056 32.4679 5.40114 32.4679 5.4276C32.4679 5.44876 32.3149 5.96721 32.1196 6.5756C31.9296 7.18928 31.6183 8.11508 31.4283 8.63882C31.2383 9.16257 30.9375 9.97199 30.7527 10.4375C30.568 10.9031 30.2408 11.7019 30.0245 12.2098C29.8081 12.7177 29.4017 13.6223 29.1167 14.2201C28.8318 14.8179 28.3884 15.7067 28.1246 16.204C27.8607 16.7013 27.4491 17.4472 27.201 17.8704C26.9583 18.2937 26.4833 19.0555 26.1508 19.5634C25.813 20.0712 25.2747 20.8489 24.9475 21.2827C24.6203 21.7218 24.119 22.3514 23.834 22.6846C23.549 23.0179 23.074 23.5364 22.256 24.3828L23.0477 25.187C23.4857 25.6314 24.082 26.2662 24.3723 26.5995C24.6678 26.9328 25.1375 27.4936 25.4225 27.8427C25.7075 28.1919 26.2089 28.8373 26.5308 29.2711C26.858 29.7102 27.3752 30.435 27.676 30.8847C27.9821 31.3343 28.4834 32.1226 28.7895 32.6305C29.0903 33.1383 29.5178 33.8896 29.7289 34.2969C29.9453 34.7043 30.2883 35.3973 30.4941 35.8311C30.7 36.2702 31.0377 37.0426 31.2436 37.5505C31.4441 38.0583 31.7238 38.8201 31.8557 39.2434C31.9929 39.6666 32.1829 40.3226 32.2832 40.6982C32.3782 41.0738 32.4732 41.4494 32.5207 41.6769H21.3325L21.0897 41.2167C20.9525 40.9574 20.6992 40.5131 20.525 40.2221C20.3509 39.9311 19.992 39.3703 19.7281 38.9789C19.4643 38.5874 18.9998 37.9419 18.699 37.5505C18.3982 37.159 17.8863 36.5241 17.5591 36.1485C17.2319 35.7729 16.6144 35.1063 16.1817 34.6725C15.7489 34.2387 15.0998 33.6303 14.7409 33.3235C14.3821 33.0167 13.8596 32.5881 13.5799 32.3712C13.3002 32.1543 12.7038 31.7364 12.2553 31.4401C11.8067 31.1439 11.2262 30.7841 10.9623 30.636C10.7037 30.4879 10.2498 30.2498 9.95956 30.1017C9.6693 29.9588 9.14684 29.7208 8.79852 29.5727C8.45021 29.4245 7.85914 29.197 7.47916 29.0701C7.10446 28.9431 6.46061 28.7527 6.05425 28.6468C5.64788 28.541 5.05681 28.4088 4.73488 28.3506C4.41823 28.2924 3.85882 28.2025 3.49468 28.1601C3.13054 28.1125 2.2492 28.0596 0.222656 28.0014V5.43818H4.12797L4.15436 10.4164L5.13069 9.59108V5.43818H5.81676L5.84315 9.29483L6.82475 8.53302L6.81948 5.43818H7.50555V6.86656C7.50555 7.65482 7.5161 8.29495 7.53193 8.29495C7.54777 8.29495 7.7747 8.1627 8.50826 7.71302V5.43818H12.9941V11.0195C12.9941 14.0879 13.0099 16.6008 13.0363 16.6008C13.0574 16.6008 13.2633 16.4473 13.4955 16.2622C13.7277 16.077 14.1657 15.6803 14.4718 15.3734C14.7779 15.0719 15.2317 14.5852 15.4798 14.2995C15.7278 14.0085 16.1236 13.5218 16.3558 13.215C16.5828 12.9081 16.9416 12.4108 17.1475 12.104C17.348 11.7972 17.7016 11.2364 17.9285 10.8608C18.1555 10.4851 18.5513 9.77096 18.8046 9.27366C19.0579 8.77637 19.422 8.03044 19.6068 7.60721C19.7967 7.18398 20.0765 6.52269 20.5145 5.43289L25.5808 5.42231C28.3673 5.41702 31.0588 5.40643 31.5602 5.39585ZM1.75312 33.6885H5.39456V37.3389H1.75312V33.6885ZM6.08063 33.6885H6.59782C6.87753 33.6885 7.26278 33.7256 7.45277 33.7732C7.64276 33.8155 7.95941 33.9425 8.16523 34.0483C8.39216 34.1647 8.66659 34.371 8.87769 34.5879C9.06767 34.7783 9.29461 35.0746 9.3896 35.2492C9.47932 35.4238 9.59542 35.6989 9.64292 35.8576C9.69041 36.0163 9.74319 36.4183 9.80124 37.3389H6.08063V33.6885ZM1.75312 38.0266H5.39456V41.7298H1.75312V38.0266ZM6.08063 38.0266L9.74847 38.053V41.7034L6.08063 41.7298V38.0266Z" fill="white"/>
<path d="M39.4393 41.5884V18.5155L38.9851 14.8819H49.9765L57.9703 30.7786L66.1457 14.8819H76.5467V41.5884H67.8716V26.2821H67.372L65.4644 31.1874L62.1488 38.8632H53.8826L50.4307 31.1874L48.5685 26.2821H48.1143V41.5884H39.4393ZM80.5574 41.5884L93.8652 14.8819H105.674L118.937 41.5884H109.171L106.946 36.7285H92.5935L90.0954 41.5884H80.5574ZM95.0915 30.4607H104.402L99.9968 20.7864H99.5426L95.0915 30.4607Z" fill="white"/>
</svg>
