<svg width="70" height="70" viewBox="0 0 70 70" fill="none" xmlns="http://www.w3.org/2000/svg">
<path fill-rule="evenodd" clip-rule="evenodd" d="M29.1621 7.15039H62.9316V46.2383H29.1621V7.15039Z" fill="#E6E6E6"/>
<path fill-rule="evenodd" clip-rule="evenodd" d="M62.9316 14.7109V46.2383H29.1621V37.8437C41.877 33.5234 53.1426 25.8125 62.9316 14.7109Z" fill="#D0D0CF"/>
<path fill-rule="evenodd" clip-rule="evenodd" d="M30.8848 56.6011C33.2363 56.396 35.0684 56.1089 35.6562 55.7535L46.5664 48.9585C50.4766 46.5249 54.7559 48.8355 51.2559 51.8433C48.8633 53.8804 44.1191 58.1597 39.6348 61.9058L31.6367 62.8628L30.8848 56.6011Z" fill="#FAD1A2"/>
<path fill-rule="evenodd" clip-rule="evenodd" d="M33.6738 62.6163C35.9297 60.9346 38.623 58.6925 41.2344 56.4503C41.3164 56.3819 41.3848 56.3272 41.4531 56.2589C44.2832 53.8253 55.002 48.6983 51.2559 51.8429C48.8496 53.8526 44.0781 58.1593 39.6074 61.9053L33.6738 62.6163Z" fill="#E2BB92"/>
<path fill-rule="evenodd" clip-rule="evenodd" d="M64.0397 0.683594L68.7018 3.25391C63.5338 12.6055 60.7174 19.8516 56.0006 28.3965C55.6998 28.2324 55.3854 28.0684 55.0846 27.8906C54.401 29.1211 49.5202 33.5098 49.151 33.3047C48.7682 33.0859 49.7389 26.5645 50.4225 25.3203C50.1217 25.1563 49.8209 24.9785 49.5065 24.8145C54.237 16.2695 58.8717 10.0352 64.0397 0.683594Z" fill="#ED2024"/>
<path fill-rule="evenodd" clip-rule="evenodd" d="M15.8321 28.546C18.211 25.8937 20.8634 23.296 23.338 20.0832L16.5021 11.3605C14.4923 8.14761 21.2189 6.58901 27.7267 6.67104C34.2345 6.58901 40.961 8.14761 38.9513 11.3605L32.1017 20.0832C34.5763 23.296 37.215 25.8937 39.6075 28.546C74.17 67.1144 -18.7304 67.1144 15.8321 28.546Z" fill="#208380"/>
<path fill-rule="evenodd" clip-rule="evenodd" d="M25.7992 19.127L22.5043 8.42188C20.7816 3.99219 33.7015 3.99219 31.9789 8.42188L28.848 19.127H25.7992Z" fill="#208380"/>
<path fill-rule="evenodd" clip-rule="evenodd" d="M22.5593 17.2672C27.0984 18.4156 29.3816 18.2789 32.8816 17.2672C36.3406 16.2692 36.3816 22.5992 32.8816 21.7926C29.45 20.9996 26.2234 20.9449 22.5593 21.7926C19.0593 22.5992 19.073 16.3922 22.5593 17.2672Z" fill="#E8DAB2"/>
<path fill-rule="evenodd" clip-rule="evenodd" d="M27.7266 49.5879C21.6973 49.5879 16.8164 44.707 16.8164 38.6777C16.8164 32.6484 21.6973 27.7676 27.7266 27.7676C33.7559 27.7676 38.6367 32.6484 38.6367 38.6777C38.6367 44.707 33.7559 49.5879 27.7266 49.5879Z" fill="#FDB614"/>
<path fill-rule="evenodd" clip-rule="evenodd" d="M27.7266 30.5977C32.1973 30.5977 35.8204 34.2207 35.8204 38.6777C35.8204 43.1484 32.1973 46.7715 27.7266 46.7715C23.2559 46.7715 19.6465 43.1484 19.6465 38.6777C19.6329 34.207 23.2559 30.5977 27.7266 30.5977Z" fill="#E6A624"/>
<path fill-rule="evenodd" clip-rule="evenodd" d="M23.748 32.8535C24.0078 32.6758 24.2812 32.5117 24.5547 32.3613C25.6758 31.7598 26.9746 31.4316 28.3281 31.4316C29.1074 31.4316 29.873 31.541 30.584 31.7461C31.2539 31.9375 31.8828 32.2246 32.4707 32.5664C32.7305 32.7305 32.9902 32.8945 33.2227 33.0723C33.6875 33.4277 34.125 33.8379 34.5078 34.2891C34.1387 33.7148 33.7012 33.1816 33.1953 32.7305C33.0586 32.6074 32.9219 32.498 32.7852 32.375C32.1289 31.8418 31.4043 31.418 30.6113 31.1172C29.709 30.7617 28.7383 30.584 27.7129 30.584C26.6875 30.584 25.7168 30.7754 24.8145 31.1172C24.0215 31.418 23.2832 31.8418 22.627 32.375C22.4902 32.4844 22.3535 32.6074 22.2305 32.7305C21.7246 33.1953 21.2871 33.7148 20.918 34.2891C20.0977 35.5469 19.6328 37.0508 19.6328 38.6777C19.6328 40.6602 20.3437 42.4785 21.5332 43.8867C20.7129 42.6289 20.248 41.125 20.248 39.5117C20.2617 36.75 21.6426 34.3164 23.748 32.8535Z" fill="#B9872C"/>
<path fill-rule="evenodd" clip-rule="evenodd" d="M9.55664 53.54C10.3496 52.87 11.1289 52.1864 11.8398 51.5302C14.1914 49.37 15.8457 48.2489 17.6094 47.7157C19.7285 47.0868 21.5469 45.0087 24.5684 43.5732C32.1152 39.9638 34.3984 47.0595 28.6016 49.6845C24.377 51.913 20.8906 53.9501 20.8906 54.661C20.9043 55.2079 39.375 57.1493 41.6172 56.0966L53.2656 50.6552C57.4492 48.7001 61.4141 51.5165 57.5723 54.0732C52.7734 57.2587 39.1836 67.0067 34.9863 68.1552C29.0391 68.7157 14.6426 67.745 9.26953 68.3603C9.29688 68.2509 9.32422 68.1415 9.32422 68.0321L9.55664 53.54Z" fill="#FAD1A2"/>
<path fill-rule="evenodd" clip-rule="evenodd" d="M9.48828 57.9681C12.8652 62.7533 29.1484 64.2435 34.8496 63.7103C37.1875 63.0677 42.0273 60.8392 47.0723 57.4623L47.3184 57.2982C50.4219 55.2201 61.6738 51.4056 57.5723 54.0716C52.7461 57.2162 39.1836 67.0052 34.9863 68.1537C29.0391 68.7142 14.6426 67.7435 9.26953 68.3587C9.29688 68.2494 9.32422 68.14 9.32422 68.0306L9.48828 57.9681Z" fill="#CCAA84"/>
<path fill-rule="evenodd" clip-rule="evenodd" d="M9.48828 57.9688C8.42188 62.3027 6.15234 64.2852 1.05273 65.502L1.06641 68.0449C1.06641 68.168 1.08008 68.2773 1.10742 68.373C1.27148 68.9336 1.79102 69.3164 2.41992 69.3164L8.06641 69.2754C8.66797 69.2754 9.17383 68.8242 9.32422 68.2637C9.36523 64.832 9.48828 61.3867 9.48828 57.9688Z" fill="#5E5F5F"/>
<path d="M55.1252 37.6794V35.1364C54.3869 35.2458 53.3615 35.6969 53.3615 36.4352C53.3615 37.2419 54.1818 37.5016 55.1252 37.6794ZM56.2326 38.9645V41.4938C56.9709 41.3844 57.9963 40.9333 57.9963 40.195C57.9963 39.4157 57.1759 39.1423 56.2326 38.9645ZM55.1252 33.3044C55.1252 32.5798 56.2189 32.5798 56.2189 33.3044V34.0426C57.5861 34.193 59.0763 35.0407 59.0763 36.4352C59.0763 37.1598 57.9826 37.1598 57.9826 36.4352C57.9826 35.6969 56.9572 35.2458 56.2189 35.1364V37.8434C57.7092 38.0895 59.0763 38.4723 59.0763 40.195C59.0763 41.6032 57.5861 42.4372 56.2189 42.6012V43.3395C56.2189 44.0641 55.1252 44.0641 55.1252 43.3395V42.6012C53.758 42.4372 52.2677 41.6032 52.2677 40.195C52.2677 39.4704 53.3615 39.4704 53.3615 40.195C53.3615 40.9333 54.3869 41.3844 55.1252 41.4938V38.7868C53.6349 38.5407 52.2677 38.1579 52.2677 36.4352C52.2677 35.0407 53.758 34.193 55.1252 34.0426V33.3044ZM67.9494 3.47234L64.258 1.43523C63.0685 3.56804 61.9201 5.53679 60.7717 7.40984C60.758 7.43718 60.7443 7.45085 60.7306 7.4782C59.5685 9.37859 58.4338 11.1969 57.299 12.988L56.9025 13.6032C56.1232 14.8473 55.3439 16.0778 54.5783 17.3219C54.5646 17.3493 54.5509 17.3766 54.5373 17.3903C53.6759 18.7712 52.8146 20.193 51.9533 21.6559C51.9396 21.6696 51.926 21.6969 51.9123 21.7243C51.3517 22.6676 50.8049 23.6247 50.2443 24.6227C50.5998 24.8141 50.9552 24.9372 50.9552 25.3337C50.9552 25.5524 50.8322 25.6481 50.7638 25.8669L50.7228 25.9899C50.4494 26.7966 50.1349 28.3278 49.9025 29.7907L49.3967 32.8395C49.4377 32.8532 50.422 31.8278 51.6115 30.7477C52.4455 29.9821 54.2092 28.3141 54.5783 27.6442C54.7287 27.3844 55.0568 27.2887 55.3166 27.4255L55.7541 27.6716C57.8185 23.8844 59.7189 19.9606 61.5373 16.1735C63.6154 11.8669 65.4201 8.09343 67.9494 3.47234ZM68.4963 6.68523C68.8517 6.05632 69.8088 6.57585 69.4533 7.21843L65.3791 14.6149C65.0236 15.2438 64.0666 14.7106 64.422 14.0817L68.4963 6.68523ZM28.1095 18.6344C26.4826 18.6481 24.7326 18.3884 22.422 17.8141C20.5217 17.3356 20.0842 19.6325 20.8224 20.7262C21.1232 21.1774 21.6564 21.4372 22.4357 21.2594C26.0861 20.4118 29.422 20.4255 33.0041 21.2594C34.9592 21.7243 35.342 19.2497 34.5627 18.2106C34.2619 17.8141 33.756 17.5954 33.0314 17.8141C31.7052 18.1969 30.5431 18.4567 29.3674 18.5798C29.1213 18.6481 29.258 18.6208 29.0256 18.6071C28.7385 18.6208 28.424 18.6208 28.1095 18.6344ZM29.9279 17.3903C30.8166 17.2536 31.7189 17.0348 32.7306 16.7477C33.2365 16.5973 33.6877 16.5837 34.0842 16.6657L38.5002 11.0466C38.801 10.6227 38.8556 10.1032 38.5822 9.6657C38.4181 9.4196 38.1447 9.17351 37.7892 8.95476C36.5314 8.16179 34.4396 7.72429 32.7033 7.49187C32.717 7.83366 32.6623 8.21648 32.4982 8.61296L29.9279 17.3903ZM25.8263 17.3766C26.8517 17.5134 27.7951 17.568 28.7385 17.5134L31.4455 8.31218C31.4592 8.28484 31.4592 8.25749 31.4728 8.23015C31.8556 7.24577 31.1994 6.54851 30.1193 6.12468C28.4787 5.49577 25.9904 5.49577 24.3498 6.12468C23.2834 6.54851 22.6271 7.2321 23.0099 8.21648C23.0099 8.23015 23.0236 8.24382 23.0236 8.25749L25.8263 17.3766ZM22.6955 16.7477C23.3927 16.9255 24.0217 17.0622 24.6232 17.1852L21.9845 8.61296C21.8478 8.25749 21.7931 7.92937 21.7795 7.62859C20.3029 7.87468 16.4611 8.73601 16.6935 10.3903C16.7209 10.5817 16.8029 10.8005 16.9396 11.0329L21.3693 16.6794C21.7658 16.611 22.2033 16.6247 22.6955 16.7477ZM42.0275 21.9567C42.5334 22.4626 41.7677 23.2419 41.2619 22.736C39.7306 21.2321 37.967 20.3161 35.9025 20.4665C35.6974 21.1911 35.2463 21.8473 34.549 22.1891C36.381 24.2946 38.172 26.113 40.0177 28.1774C44.4064 33.0856 47.2912 37.9528 47.8927 42.5055H50.3674C51.092 42.5055 51.092 43.5993 50.3674 43.5993H47.9884C48.0295 44.3239 48.0021 45.0212 47.9201 45.6911H62.3986V16.9665C61.0861 19.7009 59.7873 22.4079 58.3381 25.1969H58.5568C59.2814 25.1969 59.2814 26.2907 58.5568 26.2907H57.7638C57.3537 27.0837 56.9162 27.863 56.4787 28.6696C56.342 28.943 56.0002 29.0387 55.7404 28.8884L55.2619 28.6286C55.0568 28.8884 54.7834 29.2028 54.4689 29.5309H58.5705C59.2951 29.5309 59.2951 30.6384 58.5705 30.6384H53.3752C53.047 30.9528 52.7189 31.2536 52.3908 31.5544C50.8869 32.9079 49.3146 34.0153 48.9045 33.7966C48.5627 33.6051 48.549 32.238 48.7267 30.6247H45.7326C45.008 30.6247 45.008 29.5173 45.7326 29.5173H48.8771C49.0549 28.3688 49.2873 27.1794 49.5334 26.277H45.7326C45.008 26.277 45.008 25.1833 45.7326 25.1833H49.1232C48.9728 25.0192 48.9318 24.7594 49.0549 24.5544C49.547 23.6657 50.0392 22.7907 50.5314 21.943H45.7326C45.008 21.943 45.008 20.8493 45.7326 20.8493H51.174C51.8302 19.7419 52.4728 18.6618 53.1291 17.6091H45.7326C45.008 17.6091 45.008 16.5016 45.7326 16.5016H53.8127C54.4826 15.4216 55.1662 14.3415 55.8498 13.2614H45.7463C45.0217 13.2614 45.0217 12.1676 45.7463 12.1676H56.547C57.4631 10.7048 58.3927 9.2282 59.3361 7.69695H37.7892C39.4572 8.51726 40.5236 9.87077 39.4162 11.6344L35.0959 17.1579C35.4103 17.4313 35.6427 17.7868 35.7931 18.1833C37.6388 18.1969 38.9377 17.1716 39.3752 15.3532C39.5392 14.6423 40.6056 14.902 40.4416 15.5993C39.922 17.8278 38.2814 19.2087 36.0392 19.277V19.3727C38.3361 19.2634 40.3322 20.2887 42.0275 21.9567ZM40.8517 38.6774C40.8517 37.9528 41.9455 37.9528 41.9455 38.6774C41.9455 45.1032 37.6525 50.6813 31.5549 52.3903C30.8576 52.5817 30.5568 51.529 31.2541 51.3376C36.9006 49.7516 40.8517 44.611 40.8517 38.6774ZM27.1799 38.0348V35.0544C26.2912 35.1637 25.0881 35.6969 25.0881 36.5719C25.0744 37.529 26.0451 37.8298 27.1799 38.0348ZM11.0881 52.9372C10.7463 53.238 10.4181 53.5251 10.1037 53.7848L9.87126 67.7575C12.7424 67.5114 17.4728 67.6071 22.217 67.6891C27.0842 67.7848 31.9924 67.8805 34.8771 67.6071C38.1857 66.6637 47.5373 60.2516 53.5529 56.1227C55.0295 55.111 56.3146 54.236 57.258 53.6071C58.7072 52.6501 59.1037 51.5153 57.6545 50.8591C56.6564 50.4079 55.0978 50.3805 53.4709 51.1462L41.8361 56.6012C41.3439 56.8337 40.2775 56.943 38.883 56.9567C35.5744 56.9977 30.9533 56.6149 27.7541 56.2868C24.7463 55.9723 22.1213 55.5759 20.9865 55.2067C20.7404 55.2614 20.4943 55.1384 20.3849 54.9059C20.0568 54.2223 21.3146 53.238 22.8595 52.2673L24.1857 51.4743C25.3888 50.777 26.8107 49.9977 28.3146 49.2048C28.3283 49.1911 28.342 49.1911 28.3556 49.1774C30.215 48.3298 31.1584 47.0036 31.2814 45.8005C31.3771 44.8981 31.008 44.0778 30.2287 43.5856C29.9552 43.4079 29.6271 43.2848 29.2443 43.2028C29.1213 43.2165 28.9982 43.2028 28.8888 43.1481C28.5607 43.1071 28.2189 43.1071 27.8361 43.1344C27.5627 43.1755 27.2072 43.2028 26.8927 43.2985C26.8517 43.3122 26.8107 43.3259 26.7697 43.3259C26.1681 43.4762 25.4982 43.7223 24.7873 44.0641C23.4064 44.7204 22.2717 45.527 21.2326 46.2653C20.0295 47.1266 18.9494 47.8786 17.7463 48.2477C15.7502 48.8493 13.9455 50.3122 12.1955 51.9391L11.0881 52.9372ZM39.1427 55.8493C40.2638 55.8219 41.0568 55.7536 41.3849 55.6032L51.4201 50.9137C51.8713 50.3942 52.049 49.9567 52.008 49.6012C51.9396 49.0544 51.3654 48.7399 50.8322 48.6032C49.7931 48.3298 48.3166 48.5212 46.8674 49.4235L46.7033 49.5192C46.047 50.7497 45.1447 51.8434 44.0783 52.8005C42.6838 54.0446 41.0021 55.0563 39.1427 55.8493ZM28.2736 42.0134C28.5881 42.0134 28.8888 42.027 29.1623 42.068C29.5177 41.9313 29.8185 41.7262 30.0373 41.5075C30.2424 41.2887 30.3654 41.0426 30.3654 40.7829C30.3654 39.8259 29.3947 39.5251 28.2736 39.32V42.0134ZM20.1115 45.7184C21.6427 44.6384 23.1603 43.5036 25.1427 42.7106C23.8302 41.8219 23.6388 40.236 24.5275 40.236C24.8283 40.236 25.0744 40.4821 25.0744 40.7829C25.0744 41.0837 25.2248 41.3708 25.4982 41.6032C25.799 41.8766 26.2092 42.0817 26.715 42.2184C26.8654 42.1774 27.0158 42.1501 27.1662 42.1227V39.1423C25.4982 38.8688 23.967 38.4723 23.967 36.5719C23.967 35.027 25.6349 34.0973 27.1662 33.9469V33.0719C27.1662 32.3473 28.2599 32.3473 28.2599 33.0719V33.9469C29.7775 34.0973 31.4455 35.027 31.4455 36.5719C31.4455 37.2966 30.3517 37.2966 30.3517 36.5719C30.3517 35.6969 29.1486 35.1637 28.2599 35.0544V38.2126C29.9279 38.486 31.4455 38.8825 31.4455 40.7829C31.4455 41.4665 31.09 42.068 30.5568 42.5192C32.799 43.6813 32.9357 46.4567 31.2267 48.4391C35.2873 46.9762 38.0763 43.1208 38.0763 38.6911C38.0763 32.9762 33.4416 28.3278 27.7131 28.3278C21.9982 28.3278 17.3498 32.9626 17.3498 38.6911C17.3635 41.3298 18.3478 43.818 20.1115 45.7184ZM11.3478 51.2419C13.2892 49.4509 15.1896 47.8649 17.4592 47.1813C18.047 47.0036 18.6213 46.7028 19.2092 46.3337C15.1486 41.8083 15.3127 34.8903 19.633 30.57C24.1037 26.0993 31.3635 26.0993 35.8342 30.57C40.1408 34.8766 40.3322 41.7809 36.2717 46.3063C34.4151 48.3874 31.8629 49.7195 29.0939 50.0524L26.0177 51.693L27.7404 51.8024C28.465 51.8024 28.465 52.9098 27.7404 52.9098C27.1525 52.9098 26.592 52.8688 26.0177 52.8005C25.5119 52.7321 25.0197 52.6501 24.5412 52.5407C24.1584 52.7594 23.7892 52.9782 23.4611 53.1833C22.5314 53.7712 21.8615 54.2223 21.5881 54.4684C22.2717 54.5778 24.8283 54.8649 27.9045 55.1794C30.5431 55.4528 33.5099 55.6852 36.0256 55.7946C38.883 54.9743 41.4396 53.7028 43.3537 51.9938C44.8439 50.654 45.9513 49.0407 46.5119 47.1403C48.3439 40.9333 43.7228 33.9469 39.2111 28.9157C37.2697 26.7555 35.2873 24.7594 33.3049 22.4216C33.1408 22.4079 32.9494 22.3805 32.7717 22.3395C29.3263 21.5329 26.1955 21.5192 22.6955 22.3395C22.5041 22.3805 22.3263 22.4079 22.1623 22.4216C20.1799 24.7594 18.1974 26.7555 16.256 28.9157C11.7853 33.9059 9.48845 38.2126 8.79119 41.8493C8.02556 45.7321 9.11931 48.8766 11.3478 51.2419ZM8.27166 51.2829L2.63884 51.2419C2.21501 51.2419 1.84587 51.5427 1.8322 51.9802L1.55876 67.8942C1.55876 68.318 1.90056 68.7145 2.32439 68.7282L7.97087 68.7692C8.42205 68.7692 8.77751 68.4548 8.77751 68.0309L9.05095 52.1169C9.03728 51.7067 8.70916 51.2966 8.27166 51.2829ZM9.96697 51.3239C10.131 51.693 10.1447 51.9391 10.131 52.3219L10.5275 51.9665C10.3361 51.7614 10.1447 51.5426 9.96697 51.3239ZM2.63884 50.1481C4.52556 50.1618 6.41228 50.1618 8.299 50.1891C8.72283 50.2028 9.11931 50.3532 9.43377 50.613C7.73845 48.193 7.01384 45.1989 7.69744 41.6305C8.43572 37.8024 10.8146 33.318 15.4357 28.1637C17.2814 26.0993 19.0724 24.2946 20.9045 22.1755C19.1271 21.3278 18.9084 18.4294 20.3713 17.1716L16.0236 11.6208C15.1349 10.1442 15.6681 8.8864 17.0763 8.0114C18.2248 7.28679 20.0295 6.78093 22.1076 6.46648C22.4767 5.87859 23.133 5.42741 23.9533 5.09929C25.8263 4.36101 28.6564 4.36101 30.5158 5.09929C31.2814 5.40007 31.8967 5.81023 32.2795 6.32976C32.922 6.39812 33.551 6.49382 34.1388 6.6032H59.9787C61.1545 4.67546 62.3439 2.62468 63.5607 0.423508C63.6974 0.163743 64.0392 0.0680394 64.299 0.204758L68.9474 2.77507C69.2072 2.91179 69.3029 3.25359 69.1662 3.51335C66.9377 7.54656 65.1603 11.1696 63.4787 14.6696V46.238C63.4787 46.5387 63.2326 46.7848 62.9318 46.7848H47.715L47.3869 47.9059C49.0549 47.2223 51.215 47.1266 52.4045 48.2067C52.965 48.7126 53.1974 49.4098 53.0334 50.1344C54.9611 49.2458 56.8615 49.2868 58.1056 49.8473C59.0217 50.2712 59.7326 51.0368 59.6506 52.0622C59.5959 52.8551 59.049 53.7165 57.8459 54.5094C56.9162 55.1247 55.631 56.0134 54.1545 57.0251C48.0568 61.2087 38.5549 67.7165 35.0959 68.6735C35.0685 68.6872 35.0275 68.6872 35.0002 68.6872C29.1486 69.2204 15.217 68.318 9.62517 68.8649C9.29705 69.4801 8.65447 69.8493 7.92986 69.8356C6.04314 69.8219 4.15642 69.8219 2.2697 69.7946C1.23064 69.7809 0.423999 68.8649 0.437671 67.8669C0.533374 62.5622 0.615406 57.2575 0.711109 51.9528C0.752124 50.9274 1.59978 50.1481 2.63884 50.1481Z" fill="black"/>
</svg>
