<svg width="14" height="14" viewBox="0 0 14 14" fill="none" xmlns="http://www.w3.org/2000/svg">
<g clip-path="url(#clip0_14_90757)">
<path d="M13.2999 6.3H7.70004V0.699956C7.70004 0.313654 7.38638 0 6.99995 0C6.61365 0 6.3 0.313654 6.3 0.699956V6.3H0.699956C0.313654 6.3 0 6.61365 0 6.99995C0 7.38638 0.313654 7.70004 0.699956 7.70004H6.3V13.2999C6.3 13.6864 6.61365 14 6.99995 14C7.38638 14 7.70004 13.6864 7.70004 13.2999V7.70004H13.2999C13.6864 7.70004 14 7.38638 14 6.99995C14 6.61365 13.6864 6.3 13.2999 6.3Z" fill="white"/>
</g>
<defs>
<clipPath id="clip0_14_90757">
<rect width="14" height="14" fill="white"/>
</clipPath>
</defs>
</svg>
