<svg width="20" height="20" viewBox="0 0 20 20" fill="none" xmlns="http://www.w3.org/2000/svg">
<path d="M13.333 8.33337L15.1247 8.87087C16.2688 9.21421 16.8413 9.38587 17.1705 9.82921C17.4997 10.2709 17.4997 10.8692 17.4997 12.0634V18.3334" stroke="#010048" stroke-width="1.2" stroke-linejoin="round"/>
<path d="M6.6665 7.5H9.1665M6.6665 10.8333H9.1665" stroke="#010048" stroke-width="1.2" stroke-linecap="round" stroke-linejoin="round"/>
<path d="M9.99967 18.3334V15.8334C9.99967 15.0476 9.99967 14.6551 9.75551 14.4109C9.51134 14.1667 9.11884 14.1667 8.33301 14.1667H7.49967C6.71384 14.1667 6.32134 14.1667 6.07717 14.4109C5.83301 14.6551 5.83301 15.0476 5.83301 15.8334V18.3334" stroke="#010048" stroke-width="1.2" stroke-linejoin="round"/>
<path d="M1.6665 18.3334H18.3332" stroke="#010048" stroke-width="1.2" stroke-linecap="round"/>
<path d="M2.5 18.3334V5.59755C2.5 3.50588 2.5 2.45921 3.15917 1.94005C3.81833 1.42088 4.78917 1.70338 6.73167 2.26671L10.8983 3.47588C12.07 3.81588 12.6558 3.98588 12.9942 4.45005C13.3333 4.91338 13.3333 5.54421 13.3333 6.80755V18.3334" stroke="#010048" stroke-width="1.2" stroke-linecap="round" stroke-linejoin="round"/>
</svg>
