<svg width="22" height="22" viewBox="0 0 22 22" fill="none" xmlns="http://www.w3.org/2000/svg">
<g clip-path="url(#clip0_6170_2619)">
<path d="M6.875 6.35938V4.64062C6.875 4.35703 7.10703 4.125 7.39062 4.125H9.10938C9.39297 4.125 9.625 4.35703 9.625 4.64062V6.35938C9.625 6.64297 9.39297 6.875 9.10938 6.875H7.39062C7.10703 6.875 6.875 6.64297 6.875 6.35938ZM12.8906 6.875H14.6094C14.893 6.875 15.125 6.64297 15.125 6.35938V4.64062C15.125 4.35703 14.893 4.125 14.6094 4.125H12.8906C12.607 4.125 12.375 4.35703 12.375 4.64062V6.35938C12.375 6.64297 12.607 6.875 12.8906 6.875ZM7.39062 11H9.10938C9.39297 11 9.625 10.768 9.625 10.4844V8.76562C9.625 8.48203 9.39297 8.25 9.10938 8.25H7.39062C7.10703 8.25 6.875 8.48203 6.875 8.76562V10.4844C6.875 10.768 7.10703 11 7.39062 11ZM12.8906 11H14.6094C14.893 11 15.125 10.768 15.125 10.4844V8.76562C15.125 8.48203 14.893 8.25 14.6094 8.25H12.8906C12.607 8.25 12.375 8.48203 12.375 8.76562V10.4844C12.375 10.768 12.607 11 12.8906 11ZM9.625 14.6094V12.8906C9.625 12.607 9.39297 12.375 9.10938 12.375H7.39062C7.10703 12.375 6.875 12.607 6.875 12.8906V14.6094C6.875 14.893 7.10703 15.125 7.39062 15.125H9.10938C9.39297 15.125 9.625 14.893 9.625 14.6094ZM12.8906 15.125H14.6094C14.893 15.125 15.125 14.893 15.125 14.6094V12.8906C15.125 12.607 14.893 12.375 14.6094 12.375H12.8906C12.607 12.375 12.375 12.607 12.375 12.8906V14.6094C12.375 14.893 12.607 15.125 12.8906 15.125ZM20.625 20.4531V22H1.375V20.4531C1.375 20.1695 1.60703 19.9375 1.89062 19.9375H2.72852V1.03125C2.72852 0.459766 3.18828 0 3.75977 0H18.2402C18.8117 0 19.2715 0.459766 19.2715 1.03125V19.9375H20.1094C20.393 19.9375 20.625 20.1695 20.625 20.4531ZM4.79102 19.8945H9.625V17.0156C9.625 16.732 9.85703 16.5 10.1406 16.5H11.8594C12.143 16.5 12.375 16.732 12.375 17.0156V19.8945H17.209V2.10547L4.8125 2.0625L4.79102 19.8945Z" fill="#0D1520"/>
</g>
<defs>
<clipPath id="clip0_6170_2619">
<rect width="22" height="22" fill="white"/>
</clipPath>
</defs>
</svg>
