<svg width="21" height="21" viewBox="0 0 21 21" fill="none" xmlns="http://www.w3.org/2000/svg">
<g clip-path="url(#clip0_4873_7732)">
<path d="M18.7708 0.253906H3.08074C1.8925 0.253906 0.925781 1.22059 0.925781 2.40883V15.5885C0.925781 16.7768 1.8925 17.7435 3.08074 17.7435H8.17266L10.5114 20.0823C10.5658 20.1367 10.6304 20.1798 10.7015 20.2093C10.7726 20.2387 10.8488 20.2539 10.9257 20.2539C11.0027 20.2539 11.0789 20.2387 11.15 20.2093C11.2211 20.1798 11.2857 20.1367 11.3401 20.0823L13.6789 17.7435H18.7708C19.9591 17.7435 20.9258 16.7768 20.9258 15.5885V2.40883C20.9258 1.22059 19.9591 0.253906 18.7708 0.253906ZM19.7539 15.5885C19.7539 16.1306 19.3129 16.5716 18.7708 16.5716H13.4362C13.2807 16.5716 13.1317 16.6333 13.0219 16.7432L10.9257 18.8393L8.82969 16.7432C8.77528 16.6888 8.71068 16.6457 8.63959 16.6162C8.5685 16.5868 8.4923 16.5716 8.41535 16.5716H3.08074C2.53867 16.5716 2.09766 16.1306 2.09766 15.5885V2.40883C2.09766 1.86676 2.53867 1.42578 3.08074 1.42578H18.7708C19.3129 1.42578 19.7539 1.86676 19.7539 2.40883V15.5885Z" fill="black"/>
<path d="M15.9594 6.99461L12.8447 6.54187L11.4513 3.71914C11.4029 3.62111 11.3281 3.53857 11.2352 3.48086C11.1424 3.42316 11.0352 3.39257 10.9259 3.39258C10.8166 3.39258 10.7094 3.42317 10.6166 3.48089C10.5237 3.5386 10.4489 3.62114 10.4005 3.71918L9.00725 6.54187L5.89228 6.99461C5.78409 7.01033 5.68246 7.05601 5.59887 7.12648C5.51529 7.19696 5.45309 7.28941 5.4193 7.39339C5.38552 7.49737 5.3815 7.60872 5.4077 7.71487C5.4339 7.82101 5.48927 7.91771 5.56756 7.99402L7.8217 10.1912L7.28967 13.2936C7.27121 13.4013 7.28327 13.5121 7.32447 13.6133C7.36567 13.7146 7.43438 13.8023 7.52282 13.8666C7.61126 13.9308 7.71591 13.9691 7.82494 13.977C7.93398 13.9849 8.04305 13.9621 8.13982 13.9112L10.9259 12.4465L13.7122 13.9112C13.7963 13.9555 13.8898 13.9786 13.9848 13.9786H13.9872C14.3101 13.9777 14.5716 13.7157 14.5716 13.3926C14.5716 13.3476 14.5665 13.3038 14.5569 13.2617L14.03 10.1912L16.2841 7.99406C16.3624 7.91776 16.4178 7.82106 16.444 7.71492C16.4702 7.60877 16.4662 7.49741 16.4324 7.39343C16.3986 7.28944 16.3364 7.19697 16.2528 7.12648C16.1693 7.056 16.0676 7.01032 15.9594 6.99461ZM12.9914 9.56699C12.9234 9.6333 12.8725 9.71517 12.8431 9.80552C12.8138 9.89588 12.8068 9.99202 12.8229 10.0857L13.2066 12.3214L11.1985 11.2659C11.1144 11.2217 11.0209 11.1986 10.9259 11.1986C10.8309 11.1986 10.7373 11.2217 10.6532 11.2659L8.64537 12.3215L9.02881 10.0856C9.04486 9.992 9.03791 9.89587 9.00855 9.80553C8.9792 9.71519 8.92831 9.63333 8.86029 9.56703L7.23576 7.98355L9.48064 7.65726C9.57465 7.6436 9.66392 7.60728 9.74076 7.55145C9.81761 7.49562 9.87973 7.42193 9.92178 7.33675L10.9259 5.30234L11.9302 7.33679C11.9722 7.42197 12.0343 7.49564 12.1112 7.55147C12.188 7.6073 12.2773 7.64361 12.3713 7.65726L14.616 7.98355L12.9914 9.56699Z" fill="black"/>
</g>
<defs>
<clipPath id="clip0_4873_7732">
<rect width="20" height="20" fill="white" transform="translate(0.925781 0.253906)"/>
</clipPath>
</defs>
</svg>
