<svg width="12" height="12" viewBox="0 0 12 12" fill="none" xmlns="http://www.w3.org/2000/svg">
<g clip-path="url(#clip0_14_86433)">
<path fill-rule="evenodd" clip-rule="evenodd" d="M0.897546 3.21033C1.0272 3.08083 1.20296 3.00809 1.38621 3.00809C1.56946 3.00809 1.74522 3.08083 1.87487 3.21033L5.99625 7.3317L10.1176 3.21033C10.1809 3.14239 10.2573 3.08789 10.3421 3.0501C10.4269 3.0123 10.5185 2.99198 10.6113 2.99034C10.7042 2.9887 10.7964 3.00578 10.8825 3.04056C10.9686 3.07534 11.0468 3.12711 11.1125 3.19277C11.1782 3.25844 11.2299 3.33665 11.2647 3.42276C11.2995 3.50886 11.3166 3.60109 11.3149 3.69394C11.3133 3.78679 11.293 3.87836 11.2552 3.96318C11.2174 4.04801 11.1629 4.12435 11.095 4.18765L6.48492 8.7977C6.35526 8.92719 6.1795 8.99993 5.99625 8.99993C5.813 8.99993 5.63725 8.92719 5.50759 8.7977L0.897546 4.18765C0.768049 4.058 0.695312 3.88224 0.695312 3.69899C0.695312 3.51574 0.768049 3.33998 0.897546 3.21033Z" fill="black"/>
</g>
<defs>
<clipPath id="clip0_14_86433">
<rect width="12" height="12" fill="white"/>
</clipPath>
</defs>
</svg>
