<svg width="55" height="44" viewBox="0 0 55 44" fill="none" xmlns="http://www.w3.org/2000/svg">
<path d="M43.6097 15.1721C43.4948 6.78669 36.6378 0 28.2255 0C24.4834 0 20.8783 1.36125 18.0743 3.83302C15.5718 6.03893 13.86 8.98679 13.182 12.2233C13.1325 12.2228 13.0834 12.2223 13.0344 12.2223C5.84739 12.2223 0 18.0696 0 25.2568C0 32.4439 5.84739 38.2912 13.0345 38.2912H22.1378C22.7854 38.2912 23.3107 37.7661 23.3107 37.1183C23.3107 36.4704 22.7854 35.9453 22.1378 35.9453H13.0345C7.14075 35.9453 2.34587 31.1505 2.34587 25.2568C2.34587 19.3631 7.14075 14.5682 13.0345 14.5682C13.3485 14.5682 13.6805 14.5851 14.0495 14.6198C14.6749 14.6783 15.2364 14.2335 15.3216 13.6104C15.7439 10.5145 17.2724 7.66712 19.6256 5.59269C22.0008 3.49883 25.0549 2.34577 28.2254 2.34577C35.4156 2.34577 41.2652 8.19542 41.2652 15.3856C41.2652 15.6445 41.2459 15.9113 41.2256 16.1938L41.2169 16.3139C41.2049 16.4844 41.2302 16.6555 41.2912 16.8151C41.3522 16.9748 41.4474 17.1192 41.57 17.2382C41.6926 17.3572 41.8398 17.4481 42.0011 17.5043C42.1625 17.5605 42.3342 17.5808 42.5043 17.5637C42.8151 17.5323 43.1273 17.5165 43.4397 17.5164C48.5204 17.5164 52.6541 21.65 52.6541 26.7308C52.6541 31.8115 48.5205 35.9451 43.4397 35.9451H33.8673C33.2196 35.9451 32.6943 36.4702 32.6943 37.1181C32.6943 37.7659 33.2196 38.291 33.8673 38.291H43.4397C49.814 38.291 55 33.1052 55 26.7308C54.9999 20.4137 49.906 15.2633 43.6097 15.1721Z" fill="#7575BC"/>
<path d="M28.2253 5.51367C23.3206 5.51367 19.1221 9.17901 18.4591 14.0394C18.3716 14.6813 18.821 15.2726 19.4628 15.3602C19.5166 15.3675 19.57 15.3711 19.6227 15.3711C20.2001 15.3711 20.7033 14.9447 20.7833 14.3566C21.2885 10.6527 24.4879 7.85955 28.2252 7.85955C28.873 7.85955 29.3981 7.33447 29.3981 6.68661C29.3982 6.03886 28.873 5.51367 28.2253 5.51367ZM33.5593 28.5943L29.2927 24.783C28.5572 24.1256 27.4476 24.1257 26.7117 24.7829L22.4451 28.5944C21.962 29.026 21.9203 29.7675 22.3518 30.2507C22.7833 30.7336 23.5247 30.7756 24.008 30.344L26.8293 27.8237V42.2538C26.8293 42.9016 27.3544 43.4267 28.0023 43.4267C28.65 43.4267 29.1752 42.9016 29.1752 42.2538V27.8235L31.9967 30.3439C32.2113 30.5363 32.4894 30.6425 32.7776 30.6421C32.9429 30.6424 33.1063 30.6076 33.2572 30.5401C33.4081 30.4726 33.5429 30.374 33.6529 30.2506C34.0842 29.7674 34.0424 29.026 33.5593 28.5943Z" fill="#7575BC"/>
</svg>
