<svg width="15" height="14" viewBox="0 0 15 14" fill="none" xmlns="http://www.w3.org/2000/svg">
<path d="M5.23268 14L3.96602 11.8667L1.56602 11.3333L1.79935 8.86667L0.166016 7L1.79935 5.13333L1.56602 2.66667L3.96602 2.13333L5.23268 0L7.49935 0.966667L9.76602 0L11.0327 2.13333L13.4327 2.66667L13.1993 5.13333L14.8327 7L13.1993 8.86667L13.4327 11.3333L11.0327 11.8667L9.76602 14L7.49935 13.0333L5.23268 14ZM5.79935 12.3L7.49935 11.5667L9.23268 12.3L10.166 10.7L11.9993 10.2667L11.8327 8.4L13.066 7L11.8327 5.56667L11.9993 3.7L10.166 3.3L9.19935 1.7L7.49935 2.43333L5.76602 1.7L4.83268 3.3L2.99935 3.7L3.16602 5.56667L1.93268 7L3.16602 8.4L2.99935 10.3L4.83268 10.7L5.79935 12.3ZM6.79935 9.36667L10.566 5.6L9.63268 4.63333L6.79935 7.46667L5.36602 6.06667L4.43268 7L6.79935 9.36667Z" fill="#008F4B"/>
</svg>
