<svg width="20" height="20" viewBox="0 0 20 20" fill="none" xmlns="http://www.w3.org/2000/svg">
<g clip-path="url(#clip0_635_949)">
<path d="M19.7555 18.6066L16.318 15.2472L16.2376 15.125C16.0861 14.9756 15.8819 14.8918 15.6692 14.8918C15.4565 14.8918 15.2523 14.9756 15.1008 15.125C12.1794 17.805 7.67897 17.9504 4.58209 15.4652C1.48522 12.9801 0.755923 8.63278 2.87584 5.31013C4.99577 1.98747 9.30827 0.716769 12.954 2.34138C16.5997 3.96599 18.4438 7.98396 17.2657 11.7277C17.2242 11.861 17.2193 12.0031 17.2515 12.1389C17.2837 12.2748 17.3519 12.3995 17.4489 12.5C17.5469 12.6022 17.6698 12.6773 17.8054 12.718C17.9411 12.7586 18.085 12.7635 18.2231 12.732C18.3605 12.7018 18.4875 12.636 18.5915 12.5413C18.6955 12.4465 18.7728 12.3261 18.8157 12.1922C20.2219 7.74958 18.0977 2.96833 13.8157 0.942159C9.53366 -1.08401 4.38092 0.250753 1.68913 4.08552C-1.00267 7.92028 -0.424936 13.1019 3.04889 16.2797C6.52272 19.4574 11.8497 19.6758 15.586 16.7968L18.6298 19.7726C18.7825 19.9194 18.9862 20.0014 19.1981 20.0014C19.41 20.0014 19.6137 19.9194 19.7665 19.7726C19.841 19.6996 19.9003 19.6125 19.9407 19.5163C19.9811 19.4201 20.0019 19.3168 20.0019 19.2125C20.0019 19.1081 19.9811 19.0048 19.9407 18.9087C19.9003 18.8125 19.841 18.7253 19.7665 18.6523L19.7555 18.6066Z" fill="white"/>
</g>
<defs>
<clipPath id="clip0_635_949">
<rect width="20" height="20" fill="white"/>
</clipPath>
</defs>
</svg>
