<svg width="146" height="133" viewBox="0 0 146 133" fill="none" xmlns="http://www.w3.org/2000/svg">
<path d="M13.3337 74.1956C9.84845 71.0804 8.68433 69.5246 6.44053 64.6542C4.04088 59.4384 3.7104 56.3503 5.55232 56.0285C6.31519 55.8757 6.7185 56.3598 7.26637 58.0861C9.80646 66.993 13.159 71.453 20.0259 75.3032C26.7301 78.9977 34.1623 80.0042 43.3329 78.3085L47.7567 77.5637L48.0035 74.2188C48.2708 70.3048 50.433 67.5178 52.6417 68.1112C54.58 68.6174 56.8576 70.7976 57.0801 72.2124C57.3898 74.1277 55.9675 76.8135 54.1601 77.9288C51.6449 79.4213 51.581 80.611 53.591 84.9633C55.8348 89.8337 59.6228 95.0539 64.0315 99.3965C74.5537 109.812 89.6011 109.669 107.153 98.9979C109.776 97.4369 112.213 95.7717 112.65 95.3074C113.15 94.8779 114.87 93.2622 116.629 91.7329C123.036 86.1655 128.755 78.6643 133.427 69.8665L136.203 64.6498L134.116 65.3502C131.99 65.9644 129.834 65.078 129.866 63.6123C129.884 62.5258 137.797 60.7055 139.158 61.4686C140.766 62.3705 144.138 69.2277 143.588 70.4676C142.993 71.8109 141.306 70.7364 140.131 68.3355C139.445 66.9192 139.12 66.6077 138.845 67.2277C138.044 69.036 132.073 78.8473 129.989 81.807C117.039 100.219 97.2144 111.487 80.3707 110.106C76.5744 109.784 75.9718 109.575 69.1668 105.759C62.1762 101.84 62.0135 101.684 58.1203 97.0497C53.661 91.7756 53.1018 90.9461 50.3286 85.0047L48.3117 80.8421L44.5432 81.5028C38.2545 82.6212 34.7837 82.6103 29.017 81.5056C24.7326 80.716 16.23 76.7226 13.3337 74.1956ZM53.369 73.6149C54.1247 71.9099 53.6571 70.8737 52.372 71.5077C51.4717 71.9705 51.0554 75.3494 51.8962 75.3693C52.2742 75.3877 52.9338 74.5965 53.369 73.6149Z" fill="#4E5561"/>
</svg>
