<svg width="100%" height="100%" viewBox="0 0 16 22" fill="none" xmlns="http://www.w3.org/2000/svg">
<path d="M3.98364 16.6504C3.98364 16.6504 4.65164 13.3171 5.31698 13.3171C5.98231 13.3171 6.74364 16.6504 7.31698 16.6504C7.89031 16.6504 8.03031 15.3171 8.65031 15.3171C9.27031 15.3171 9.40231 16.6504 9.98364 16.6504C10.565 16.6504 11.9836 15.3171 11.9836 15.3171M3.98364 4.03711H11.9836M3.98364 6.98378H11.9836M3.98364 9.98378H11.9836" stroke="currentColor" stroke-width="1.3" stroke-linecap="round" stroke-linejoin="round"/>
<path d="M13.3166 0.649902H2.6499C1.54533 0.649902 0.649902 1.54533 0.649902 2.6499V18.6499C0.649902 19.7545 1.54533 20.6499 2.6499 20.6499H13.3166C14.4211 20.6499 15.3166 19.7545 15.3166 18.6499V2.6499C15.3166 1.54533 14.4211 0.649902 13.3166 0.649902Z" stroke="currentColor" stroke-width="1.3"/>
</svg>
