<svg width="100%" height="100%" viewBox="0 0 28 28" fill="currentColor" xmlns="http://www.w3.org/2000/svg">
<g clip-path="url(#clip0_6170_2656)">
<path d="M23.2969 27.1222H4.70312C3.31603 27.1222 2.1875 25.9937 2.1875 24.6066V11.3711C2.1875 10.8879 2.57923 10.4961 3.0625 10.4961C3.54577 10.4961 3.9375 10.8879 3.9375 11.3711V24.6066C3.9375 25.0288 4.28094 25.3722 4.70312 25.3722H23.2969C23.7191 25.3722 24.0625 25.0288 24.0625 24.6066V11.3711C24.0625 10.8879 24.4542 10.4961 24.9375 10.4961C25.4208 10.4961 25.8125 10.8879 25.8125 11.3711V24.6066C25.8125 25.9937 24.684 27.1222 23.2969 27.1222Z" fill="currentColor"/>
<path d="M27.125 14.4343C27.0101 14.4344 26.8962 14.4119 26.7901 14.3679C26.6839 14.3239 26.5875 14.2593 26.5063 14.178L15.6241 3.29585C14.7286 2.40029 13.2714 2.40029 12.3759 3.29585L1.49372 14.178C1.15203 14.5198 0.597994 14.5198 0.256307 14.178C-0.0854356 13.8363 -0.0854356 13.2823 0.256307 12.9406L11.1385 2.05838C12.7163 0.480539 15.2837 0.480539 16.8615 2.05838L27.7437 12.9405C28.0854 13.2823 28.0854 13.8363 27.7437 14.178C27.6625 14.2593 27.5661 14.3239 27.4599 14.3679C27.3537 14.4119 27.2399 14.4344 27.125 14.4343ZM17.5 27.1231H10.5C10.0167 27.1231 9.62499 26.7314 9.62499 26.2481V18.4825C9.62499 16.9748 10.8516 15.7481 12.3594 15.7481H15.6406C17.1483 15.7481 18.375 16.9748 18.375 18.4825V26.2481C18.375 26.7314 17.9833 27.1231 17.5 27.1231ZM11.375 25.3731H16.625V18.4825C16.625 17.9397 16.1834 17.4981 15.6406 17.4981H12.3594C11.8166 17.4981 11.375 17.9397 11.375 18.4825V25.3731Z" fill="currentColor"/>
</g>
<defs>
<clipPath id="clip0_6170_2656">
<rect width="100%" height="100%" fill="white"/>
</clipPath>
</defs>
</svg>
