<svg width="75" height="83" viewBox="0 0 75 83" fill="none" xmlns="http://www.w3.org/2000/svg">
<path d="M28.3653 1.17401L27.8226 1.66831V5.24003V8.81175H16.8471C4.71826 8.81175 5.15932 8.77986 4.34506 9.81629C4.0058 10.2628 3.98884 10.486 3.93795 17.1989L3.88706 24.1192H2.86924C1.95322 24.1192 1.78358 24.1669 1.34253 24.5815L0.850586 25.044V27.8981C0.850586 30.3537 0.901477 30.7842 1.15593 31.0711C1.59698 31.5814 2.08893 31.7728 3.03888 31.7728H3.90402V38.3901V45.0073H3.03888C2.08893 45.0073 1.59698 45.1987 1.15593 45.709C0.901477 45.9959 0.850586 46.4264 0.850586 48.882V51.7361L1.34253 52.1986C1.78358 52.6132 1.95322 52.6609 2.86924 52.6609H3.90402V59.2782V65.8955H3.15762C2.22464 65.8955 1.66484 66.0868 1.20682 66.5493C0.86755 66.8841 0.850586 67.0914 0.850586 69.8021V72.6882L1.34253 73.1346C1.73269 73.4854 2.03804 73.5969 2.86924 73.6608L3.90402 73.7564V77.105C3.90402 80.1186 3.93795 80.5332 4.24328 81.1231C4.42988 81.4739 4.80308 81.8885 5.0745 82.048C5.53252 82.3031 7.53421 82.319 37.373 82.319H69.1626L69.6207 81.9842C70.5197 81.3304 70.5706 81.0275 70.5706 77.2166V73.7087H71.3339C72.3857 73.7087 73.1999 73.3579 73.5223 72.7679C73.8785 72.1459 73.9124 67.474 73.5732 66.8522C73.2848 66.3101 72.3518 65.8955 71.3848 65.8955H70.5706V59.2782V52.6609H71.6393C72.7589 52.6609 73.2339 52.4378 73.6071 51.7522C73.7257 51.5448 73.7937 50.3968 73.7937 48.7544V46.0916L73.2168 45.5495C72.691 45.0552 72.5553 45.0073 71.6054 45.0073H70.5706V38.3901V31.7728H71.6054C72.5553 31.7728 72.691 31.7249 73.2168 31.2306L73.7937 30.6885V28.0257C73.7937 26.3833 73.7257 25.2353 73.6071 25.0279C73.2339 24.3423 72.7589 24.1192 71.6393 24.1192H70.5706V17.2468C70.5706 9.54523 70.6045 9.72063 69.3492 9.1147C68.7556 8.8277 68.2296 8.81175 59.7309 8.81175C54.4552 8.81175 50.5707 8.87552 50.3162 8.9712C49.6885 9.19443 49.468 9.67279 49.7054 10.3425C49.8073 10.6454 50.0447 10.9643 50.2143 11.0441C50.4179 11.1397 53.8107 11.2035 59.2728 11.2035H68.026V17.6613V24.1192H66.9404H65.8547L65.7869 21.3606C65.7021 17.2627 65.9395 17.4221 59.7648 17.4221C55.049 17.4221 54.8624 17.454 54.2178 18.2672C53.8955 18.6818 53.8615 18.9688 53.8107 21.4244L53.7427 24.1192L52.9625 24.1351C51.7242 24.1351 51.0287 24.4381 50.6894 25.0758C50.435 25.5223 50.384 26.0645 50.384 27.8822C50.384 29.126 50.4688 30.3537 50.5707 30.6247C50.9439 31.6452 50.7233 31.6134 59.7988 31.6134H68.026V38.3901V45.1667H66.9404H65.8547L65.7869 42.3923C65.7021 38.2306 65.8378 38.3263 59.7988 38.3263C53.7598 38.3263 53.8955 38.2306 53.8107 42.3923L53.7427 45.1667H52.6063C51.3678 45.1667 50.876 45.4218 50.5367 46.2351C50.2822 46.8888 50.3502 50.9868 50.6384 51.6405C51.0796 52.6609 51.1134 52.6609 60.0532 52.6609H68.026V59.358V66.055H66.9234H65.8207V63.6791C65.8207 60.8249 65.753 60.4263 65.1084 59.8203L64.5995 59.358H59.7988H54.9981L54.4892 59.8203C53.8786 60.4103 53.7767 60.9046 53.7767 63.7589V66.023L52.5893 66.0868C51.5714 66.1347 51.334 66.2144 50.9268 66.5811L50.4688 67.0116V69.8021V72.5925L50.9439 73.023L51.4018 73.4695L59.714 73.5173L68.026 73.5651V76.7382V79.9273H57.3391H46.6521V73.9638V67.9842L46.211 67.6654C45.6172 67.2349 45.2102 67.2509 44.7013 67.7291L44.2772 68.1119V74.0276V79.9273H37.3221H30.367V49.8866C30.367 28.9345 30.3162 19.7182 30.1805 19.3675C29.8243 18.4108 28.3653 18.4108 28.0092 19.3675C27.8735 19.7182 27.8226 28.8389 27.8226 49.8866V79.9273H17.1355H6.44854L6.48247 76.7701L6.53336 73.6289L14.7606 73.5492C23.3612 73.4695 23.5138 73.4535 23.921 72.752C24.1415 72.3533 24.1415 67.2509 23.921 66.8363C23.6326 66.3419 22.8353 66.055 21.7326 66.055H20.7148L20.6639 63.1689L20.6131 60.2828L20.0533 59.8203L19.5104 59.358H14.7606H10.0109L9.46804 59.8203L8.90825 60.2828L8.85736 63.1848L8.80647 66.0709L7.66991 66.023L6.53336 65.9752L6.48247 59.3261L6.44854 52.6609H14.3196C18.6453 52.6609 22.4112 52.6132 22.7166 52.5653C23.0049 52.5015 23.429 52.2783 23.6665 52.055C24.0906 51.6565 24.0906 51.6405 24.0906 48.882V46.0916L23.5986 45.6292C23.1406 45.1987 23.0049 45.1667 21.9023 45.1667H20.6979V42.456C20.6979 39.4743 20.5962 39.0438 19.748 38.6292C19.0863 38.2943 10.4519 38.2784 9.79035 38.6133C8.97611 39.0279 8.82344 39.6178 8.82344 42.5198V45.1826L7.68687 45.1349L6.53336 45.087V38.3901V31.6931L14.8964 31.6134L23.2764 31.5336L23.6834 31.0872C24.0736 30.6567 24.0906 30.5609 24.0906 27.8822C24.0906 25.1396 24.0906 25.1237 23.6665 24.7251C23.2085 24.2786 22.5978 24.1192 21.4443 24.1192H20.6979V21.4882C20.6979 17.3106 20.8675 17.4221 14.7606 17.4221C11.4188 17.4221 10.3841 17.47 9.9091 17.6613C8.97611 18.028 8.82344 18.5703 8.82344 21.5679V24.1192H7.63598H6.44854L6.48247 17.6932L6.53336 11.2832L17.1864 11.2354L27.8226 11.2035V13.101C27.8226 14.1853 27.9074 15.1899 28.0092 15.413C28.4333 16.2742 29.7564 16.2742 30.1805 15.3971C30.2992 15.142 30.367 13.0851 30.367 9.05093V3.07148H37.3221H44.2772V33.6065C44.2772 63.9342 44.2772 64.1415 44.6165 64.4604C44.8199 64.6517 45.1763 64.7794 45.5495 64.7794C46.703 64.7794 46.6182 67.3147 46.669 32.9687C46.703 8.82769 46.669 1.79587 46.5163 1.5248C46.0074 0.663762 46.228 0.679708 37.2373 0.679708H28.9082L28.3653 1.17401ZM18.289 21.9187L18.34 24.1192H14.7606H11.1983V21.9984C11.1983 20.8185 11.2492 19.8139 11.3171 19.7501C11.3849 19.7023 12.9625 19.6704 14.8285 19.6864L18.2382 19.7342L18.289 21.9187ZM63.2763 21.8869V24.1192H59.7988H56.3212V21.8869V19.6544H59.7988H63.2763V21.8869ZM21.7157 27.946V29.3811H12.5554H3.39511V27.946V26.5109H12.5554H21.7157V27.946ZM71.2491 27.946V29.3811L62.0549 29.3491L52.8437 29.3013L52.7928 28.1214C52.7589 27.4676 52.7759 26.8458 52.8268 26.7181C52.8946 26.5428 54.574 26.5109 62.0889 26.5109H71.2491V27.946ZM18.289 42.8865L18.2382 45.087H14.7606H11.2831L11.2322 42.8865L11.1814 40.7021H14.7606H18.34L18.289 42.8865ZM63.2763 42.9344V45.1667H59.7988H56.3212V42.9344V40.7021H59.7988H63.2763V42.9344ZM21.7157 48.8341V50.2692H12.5554H3.39511V48.8341V47.399H12.5554H21.7157V48.8341ZM71.2491 48.8341V50.2692H62.0041H52.7589V48.9458C52.7589 48.2123 52.8097 47.5585 52.8777 47.5107C52.9285 47.4469 57.1015 47.399 62.1228 47.399H71.2491V48.8341ZM18.323 63.8227V66.055H14.7606H11.1983V63.8227V61.5902H14.7606H18.323V63.8227ZM63.2763 63.8227V66.055H59.7988H56.3212V63.8227V61.5902H59.7988H63.2763V63.8227ZM21.7157 69.8021V71.3169H12.5554H3.39511V69.8021V68.2873H12.5554H21.7157V69.8021ZM71.2152 69.7542L71.1643 71.2372H62.0041H52.8437L52.7928 69.9775C52.7589 69.2759 52.7759 68.6221 52.8268 68.4945C52.8946 68.3191 54.5909 68.2873 62.0889 68.2873H71.2662L71.2152 69.7542Z" fill="#0D1520"/>
<path d="M33.5902 14.2329C33.2679 14.5359 33.251 14.7592 33.251 19.734V24.9321L33.6751 25.3149C34.0821 25.7134 34.1161 25.7134 37.3221 25.7134C40.3078 25.7134 40.5622 25.6975 40.8845 25.3946C41.0712 25.2192 41.2577 24.9162 41.3086 24.7249C41.3594 24.5175 41.3934 22.1577 41.3594 19.4789C41.3086 14.9346 41.2917 14.5677 40.9863 14.2489C40.6809 13.93 40.4943 13.9141 37.2883 13.9141C34.15 13.9141 33.9125 13.93 33.5902 14.2329ZM38.8488 19.8137V23.497L37.2883 23.4493L35.7107 23.4014L35.6597 19.7658L35.6259 16.1464H37.2373H38.8488V19.8137Z" fill="#0D1520"/>
<path d="M33.9804 35.9192C33.7768 35.9989 33.5393 36.2063 33.4375 36.3816C33.3188 36.5889 33.251 38.4864 33.251 41.787C33.251 46.5706 33.2679 46.9055 33.5732 47.2563C33.8956 47.623 33.9804 47.6389 36.8472 47.6868C40.2908 47.7505 40.9353 47.6389 41.2068 46.8894C41.4613 46.2358 41.4613 37.2586 41.2238 36.6048C41.122 36.3338 40.8505 36.0468 40.6131 35.9352C40.1042 35.7279 34.5402 35.7119 33.9804 35.9192ZM38.8488 41.7392V45.3269H37.2373H35.6259V41.7392V38.1516H37.2373H38.8488V41.7392Z" fill="#0D1520"/>
<path d="M33.6751 58.1623L33.251 58.545V63.7432C33.251 68.718 33.2679 68.9413 33.5902 69.2442C33.9125 69.5472 34.15 69.5631 37.2883 69.5631C40.4943 69.5631 40.6809 69.5472 40.9863 69.2283C41.2917 68.9093 41.3086 68.5745 41.3086 63.6315V58.3696L40.9015 58.0667C40.5452 57.7957 40.2059 57.7637 37.2883 57.7637C34.1161 57.7637 34.0821 57.7637 33.6751 58.1623ZM38.8488 63.6635V67.3309H37.2373H35.6259V63.7751C35.6259 61.8138 35.6767 60.1554 35.7445 60.1077C35.7955 60.0439 36.5249 59.9961 37.3561 59.9961H38.8488V63.6635Z" fill="#0D1520"/>
<path d="M3.39453 27.9475V29.2231H12.47H21.5455V27.9475V26.6719H12.47H3.39453V27.9475Z" fill="#DA6A99"/>
<path d="M52.9277 27.9475V29.2231H62.0033H71.0787V27.9475V26.6719H62.0033H52.9277V27.9475Z" fill="#DA6A99"/>
<path d="M3.39453 48.9139V50.2693H12.47H21.5455V48.9139V47.5586H12.47H3.39453V48.9139Z" fill="#DA6A99"/>
<path d="M52.9277 48.9139V50.2693H62.0033H71.0787V48.9139V47.5586H62.0033H52.9277V48.9139Z" fill="#DA6A99"/>
<path d="M3.39453 69.8026V71.158H12.47H21.5455V69.8026V68.4473H12.47H3.39453V69.8026Z" fill="#DA6A99"/>
<path d="M52.9277 69.8026V71.158H62.0033H71.0787V69.8026V68.4473H62.0033H52.9277V69.8026Z" fill="#DA6A99"/>
</svg>
