<svg width="20" height="20" viewBox="0 0 20 20" fill="none" xmlns="http://www.w3.org/2000/svg">
<g clip-path="url(#clip0_14_85758)">
<path fill-rule="evenodd" clip-rule="evenodd" d="M4.81228 0.497822C5.04356 0.266608 5.35721 0.136719 5.68424 0.136719C6.01128 0.136719 6.32492 0.266608 6.55621 0.497822L15.1895 9.13116C15.4208 9.36244 15.5506 9.67609 15.5506 10.0031C15.5506 10.3302 15.4208 10.6438 15.1895 10.8751L6.55621 19.5084C6.3236 19.7331 6.01206 19.8574 5.68868 19.8546C5.3653 19.8518 5.05597 19.7221 4.8273 19.4934C4.59863 19.2647 4.46892 18.9554 4.46611 18.632C4.4633 18.3086 4.58761 17.9971 4.81228 17.7645L12.5736 10.0031L4.81228 2.24176C4.58106 2.01047 4.45117 1.69682 4.45117 1.36979C4.45117 1.04275 4.58106 0.729106 4.81228 0.497822Z" fill="white"/>
</g>
<defs>
<clipPath id="clip0_14_85758">
<rect width="20" height="20" fill="white"/>
</clipPath>
</defs>
</svg>
