<svg width="75" height="77" viewBox="0 0 75 77" fill="none" xmlns="http://www.w3.org/2000/svg">
<g clip-path="url(#clip0_14_85763)">
<path d="M0.385994 3.33813C0.116609 3.65616 0.078125 7.36124 0.078125 39.5621C0.078125 71.7629 0.116609 75.468 0.385994 75.786L0.674622 76.1358H37.0224H73.3702L73.6588 75.786C73.9282 75.468 73.9667 72.4466 73.9667 46.686C73.9667 18.1426 73.9667 17.9359 73.5819 17.6178C73.197 17.2997 72.9469 17.2997 58.7657 17.2997H44.3343V13.1812V9.06271L45.7967 8.99911C47.7978 8.9196 47.7978 8.93551 47.7978 5.93009C47.7978 3.79927 47.7594 3.48124 47.4515 3.25862C47.1243 3.00419 45.2194 2.98828 23.8803 2.98828H0.674622L0.385994 3.33813ZM45.6813 5.93009V7.12271H25.9006C8.31361 7.12271 6.08157 7.15452 5.69674 7.37715L5.27342 7.61567V41.0091V74.3866H3.73407H2.19472V39.5621V4.73747H23.938H45.6813V5.93009ZM42.2177 13.1654V17.2997H35.002C28.0364 17.2997 27.7671 17.3157 27.4015 17.6178C27.0552 17.904 27.0167 18.1426 27.0167 20.3211C27.0167 23.3583 27.0167 23.3424 29.5181 23.3424H31.2499V34.6326V45.9228H29.4411C26.9396 45.9228 27.0167 45.8432 27.0167 48.7532C27.0167 51.8382 26.9974 51.8063 29.4411 51.8063H31.2499V63.0965V74.3866H19.3199H7.39001V41.7088V9.03091H24.8038H42.2177V13.1654ZM71.8502 46.7178V74.3866H70.3108H68.7713V48.1808C68.7713 28.0175 68.7136 21.9271 68.5405 21.784C68.3674 21.6409 63.7301 21.5933 48.8177 21.5933H29.3257V20.3211V19.0489H50.5879H71.8502V46.7178ZM66.6548 34.6326V45.9228H50.0107H33.3665V34.6326V23.3424H50.0107H66.6548V34.6326ZM66.6548 48.8645V50.0571H47.9902H29.3257V48.8645V47.6719H47.9902H66.6548V48.8645ZM47.7978 63.0965V74.3866H45.6813H43.5646V66.3086C43.5646 60.2342 43.5069 58.1828 43.3338 58.0398C43.1605 57.8967 41.7558 57.849 38.2346 57.849H33.3665V54.8276V51.8063H40.5822H47.7978V63.0965ZM51.0689 63.0965V74.3866H50.4917H49.9144V63.0965V51.8063H50.4917H51.0689V63.0965ZM66.6548 63.0965V74.3866H59.9202H53.1856V63.0965V51.8063H59.9202H66.6548V63.0965ZM41.4481 66.9924V74.3866H37.4072H33.3665V66.9924V59.5981H37.4072H41.4481V66.9924Z" fill="#0D1520"/>
<path d="M9.35396 10.6518C9.18077 10.7949 9.12305 13.9911 9.12305 24.0728V37.3189L9.54636 37.5573C9.91197 37.7641 10.6816 37.8118 14.1259 37.8118C17.5701 37.8118 18.3398 37.7641 18.7054 37.5573L19.1287 37.3189V24.1999C19.1287 15.454 19.071 10.9698 18.9364 10.7631C18.744 10.4768 18.4746 10.4609 14.1644 10.4609C10.8548 10.4609 9.52713 10.5086 9.35396 10.6518ZM17.1662 24.0887L17.2046 36.0626H14.1259H11.0472V24.0568V12.0352L14.0875 12.0829L17.1084 12.1306L17.1662 24.0887Z" fill="#0D1520"/>
<path d="M9.43092 40.7701C9.16154 40.9927 9.12305 42.4239 9.12305 54.1911C9.12305 65.9583 9.16154 67.3894 9.43092 67.6121C9.68106 67.8347 10.3738 67.8665 14.1067 67.8665C18.109 67.8665 18.5131 67.8347 18.8017 67.5802C19.1096 67.3099 19.1287 66.1491 19.1287 54.1434C19.1287 42.4239 19.0904 40.9927 18.8209 40.7701C18.5708 40.5475 17.8588 40.5156 14.1259 40.5156C10.393 40.5156 9.68106 40.5475 9.43092 40.7701ZM17.1084 54.1911V66.1968H14.1259H11.1434L11.0857 54.3501C11.0665 47.8304 11.0857 42.4079 11.1434 42.2967C11.2012 42.1376 11.9324 42.1058 14.1644 42.1376L17.1084 42.1853V54.1911Z" fill="#0D1520"/>
<path d="M48.2221 25.8228L47.7988 26.0614V35.1095C47.7988 43.1238 47.8373 44.1734 48.1067 44.396C48.3569 44.6186 49.2805 44.6504 55.1877 44.6504C61.5182 44.6504 61.9994 44.6344 62.2879 44.3641C62.5766 44.0938 62.615 43.2192 62.615 35.1412C62.615 26.4113 62.615 26.2045 62.2302 25.8865C61.8646 25.5843 61.5953 25.5684 55.2454 25.5684C49.5884 25.5684 48.5877 25.6002 48.2221 25.8228ZM60.4985 35.1095V42.9012H55.2069H49.9155V35.1095V27.3176H55.2069H60.4985V35.1095Z" fill="#0D1520"/>
<path d="M53.1474 30.6097C52.8395 30.9119 51.2617 34.3307 51.2617 34.6965C51.2617 35.2848 52.7049 35.6665 53.1666 35.2213C53.5322 34.8396 54.9177 31.6274 54.9177 31.1345C54.9177 30.3871 53.744 30.0531 53.1474 30.6097Z" fill="#0D1520"/>
<path d="M56.2067 30.6095C55.8026 31.0071 52.416 38.5127 52.416 39.0533C52.416 39.3077 52.5122 39.578 52.6469 39.6894C52.9933 39.9756 53.8592 39.9279 54.1863 39.5939C54.5519 39.2441 57.9961 31.6272 57.9961 31.182C57.9961 30.4346 56.8223 30.0689 56.2067 30.6095Z" fill="#0D1520"/>
<path d="M38.9857 65.5767C38.1968 66.022 38.6778 67.0715 39.6783 67.0715C40.0824 67.0715 40.6789 66.5307 40.6789 66.165C40.6789 65.8947 39.9862 65.3223 39.6591 65.3223C39.5244 65.3223 39.2165 65.4335 38.9857 65.5767Z" fill="#0D1520"/>
<path d="M13.0996 14.5429V28.4568H16.467H19.8342V14.5429V0.628906H16.467H13.0996V14.5429Z" fill="#D3B078"/>
<path d="M13.0996 49.6073V63.5212H16.467H19.8344V49.6073V35.6934H16.467H13.0996V49.6073Z" fill="#D3B078"/>
</g>
<defs>
<clipPath id="clip0_14_85763">
<rect width="75" height="76.7647" fill="white"/>
</clipPath>
</defs>
</svg>
