<svg width="100%" height="100%" viewBox="0 0 17 22" fill="none" xmlns="http://www.w3.org/2000/svg">
<path d="M3.114 21.5357H13.7811C15.8606 21.5357 16.8951 20.481 16.8951 18.3917V9.27129C16.8951 7.97529 16.7546 7.413 15.951 6.58929L10.4061 0.954429C9.64329 0.170572 9.02014 0 7.88529 0H3.114C1.04486 0 0 1.06457 0 3.15429V18.3917C0 20.4909 1.04486 21.5357 3.114 21.5357ZM3.19414 19.9187C2.15957 19.9187 1.617 19.3659 1.617 18.3617V3.18429C1.617 2.19 2.15957 1.617 3.20443 1.617H7.66414V7.45329C7.66414 8.71886 8.307 9.34157 9.55243 9.34157H15.2781V18.3617C15.2781 19.3659 14.7454 19.9187 13.701 19.9187H3.19414ZM9.73329 7.82443C9.34157 7.82443 9.18043 7.66414 9.18043 7.26214V1.92857L14.9661 7.82486L9.73329 7.82443ZM12.144 12.1037H4.51971C4.15843 12.1037 3.89743 12.375 3.89743 12.7166C3.89743 13.068 4.15886 13.3393 4.52014 13.3393H12.144C12.2261 13.3406 12.3077 13.3254 12.3839 13.2946C12.46 13.2638 12.5292 13.218 12.5873 13.1599C12.6454 13.1018 12.6912 13.0326 12.722 12.9564C12.7528 12.8803 12.768 12.7987 12.7667 12.7166C12.7667 12.375 12.4954 12.1037 12.144 12.1037ZM12.144 15.6094H4.51971C4.15843 15.6094 3.89743 15.8906 3.89743 16.242C3.89743 16.5836 4.15886 16.845 4.52014 16.845H12.144C12.4954 16.845 12.7667 16.5836 12.7667 16.242C12.7667 15.8906 12.4954 15.6094 12.144 15.6094Z" fill="currentColor"/>
</svg>
