<svg width="100%" height="100%" viewBox="0 0 28 28" fill="none" xmlns="http://www.w3.org/2000/svg">
<g clip-path="url(#clip0_6170_2719)">
<path d="M24.669 5.58295C24.6125 5.43625 24.5034 5.31587 24.3629 5.24527L14.2829 0.205273C14.1953 0.161475 14.0988 0.138672 14.0009 0.138672C13.9031 0.138672 13.8065 0.161475 13.719 0.205273L3.63902 5.24527C3.49854 5.31587 3.38938 5.43625 3.33284 5.58295L0.182839 13.773C0.154678 13.845 0.140358 13.9218 0.140629 13.9991V16.5191C0.140629 16.6862 0.207004 16.8465 0.325151 16.9646C0.443299 17.0828 0.603542 17.1491 0.770629 17.1491H2.66063V27.2291C2.66063 27.3962 2.727 27.5565 2.84515 27.6746C2.9633 27.7928 3.12354 27.8591 3.29063 27.8591H24.7106C24.8777 27.8591 25.038 27.7928 25.1561 27.6746C25.2743 27.5565 25.3406 27.3962 25.3406 27.2291V17.1491H27.2306C27.3977 17.1491 27.558 17.0828 27.6761 16.9646C27.7943 16.8465 27.8606 16.6862 27.8606 16.5191V13.9991C27.8608 13.9218 27.8467 13.8451 27.819 13.773L24.669 5.58295ZM19.6706 25.9187L15.0086 22.1891L19.6706 18.4595V25.9187ZM18.5051 26.5991H9.49613L14.0006 22.9955L18.5051 26.5991ZM14.0006 21.3827L9.49613 17.7791H18.5051L14.0006 21.3827ZM12.9926 22.1891L8.33063 25.9187V18.4595L12.9926 22.1891ZM24.0806 26.5991H20.9306V17.1491C20.9238 16.9842 20.8553 16.8279 20.7385 16.7112C20.6218 16.5945 20.4655 16.5259 20.3006 16.5191H7.70063C7.57337 16.5405 7.1267 16.5872 7.07063 17.1491V26.5991H3.92063C3.91685 24.8087 3.92378 15.6932 3.92063 14.1201L6.31022 8.14516L14.0006 4.0048L21.691 8.14579L24.0806 14.1201C24.0775 15.6459 24.0831 24.8654 24.0806 26.5991ZM26.6006 15.8891H25.3406V13.9991C25.3406 13.9191 25.3255 13.8397 25.2959 13.7648L22.7759 7.46476C22.7209 7.32756 22.6195 7.21405 22.4892 7.14409L14.2992 2.73409C14.2074 2.68479 14.1048 2.65899 14.0006 2.65899C13.8964 2.65899 13.7938 2.68479 13.702 2.73409L5.51201 7.14409C5.38197 7.21426 5.28056 7.3277 5.22536 7.46476L2.70536 13.7648C2.58881 13.9046 2.69717 15.7008 2.66063 15.8891H1.40063V14.1163L4.42085 6.26398L14.0006 1.47346L23.5804 6.26335L26.6006 14.1163V15.8891Z" fill="currentColor"/>
<path d="M17.4752 8.41923L14.3252 6.52923C14.2272 6.47049 14.1152 6.43945 14.001 6.43945C13.8868 6.43945 13.7748 6.47049 13.6769 6.52923L10.5269 8.41923C10.4335 8.475 10.3561 8.55408 10.3024 8.64873C10.2488 8.74337 10.2206 8.85034 10.2207 8.95914V11.4791C10.2207 11.6462 10.2871 11.8065 10.4052 11.9246C10.5234 12.0428 10.6836 12.1091 10.8507 12.1091H17.1507C17.3178 12.1091 17.478 12.0428 17.5962 11.9246C17.7143 11.8065 17.7807 11.6462 17.7807 11.4791V8.95914C17.7807 8.85042 17.7526 8.74355 17.6991 8.64893C17.6455 8.55431 17.5684 8.47517 17.4752 8.41923ZM16.5207 10.8491H11.4807V9.31572L14.0007 7.80372L16.5207 9.31572V10.8491Z" fill="currentColor"/>
</g>
<defs>
<clipPath id="clip0_6170_2719">
<rect width="100%" height="100%" fill="white"/>
</clipPath>
</defs>
</svg>
