<svg width="100%" height="100%" viewBox="0 0 28 28" fill="none" xmlns="http://www.w3.org/2000/svg">
<g clip-path="url(#clip0_6170_2673)">
<path d="M27.1897 14.1092H25.8014V3.01642L25.9124 3.00254C26.2873 2.947 26.5511 2.58604 26.4955 2.21119C26.44 1.83634 26.0651 1.57255 25.7042 1.64197L8.35 4.41864C7.97515 4.47417 7.71137 4.83514 7.7669 5.20999C7.82244 5.5293 8.11399 5.7792 8.44719 5.7792C8.48884 5.7792 8.5166 5.7792 8.55825 5.76532L9.14135 5.68202V10.6384H1.50552C1.11679 10.6384 0.811354 10.9438 0.811354 11.3325C0.811354 11.7213 1.11679 12.0267 1.50552 12.0267H2.19969V14.1092H0.811354C0.422621 14.1092 0.117188 14.4146 0.117188 14.8034V24.5217C0.117188 24.9104 0.422621 25.2159 0.811354 25.2159H27.1897C27.5784 25.2159 27.8839 24.9104 27.8839 24.5217V14.8034C27.8839 14.4146 27.5784 14.1092 27.1897 14.1092ZM24.413 3.23855V14.1092H10.5297V5.45989L24.413 3.23855ZM9.14135 14.1092H7.05885V12.0267H9.14135V14.1092ZM3.58802 12.0267H5.67052V14.1092H3.58802V12.0267ZM4.28219 23.8275V18.2742H15.3889V23.8275H4.28219ZM20.9422 23.8275V19.6625H23.7189V23.8275H20.9422ZM26.4955 23.8275H25.1072V18.9684C25.1072 18.5796 24.8018 18.2742 24.413 18.2742H20.248C19.8593 18.2742 19.5539 18.5796 19.5539 18.9684V23.8275H16.7772V17.58C16.7772 17.1913 16.4718 16.8859 16.083 16.8859H3.58802C3.19929 16.8859 2.89385 17.1913 2.89385 17.58V23.8275H1.50552V15.4975H26.4955V23.8275Z" fill="currentColor"/>
<path d="M12.6121 12.7213H22.3305C22.7192 12.7213 23.0246 12.4159 23.0246 12.0271V7.86214C23.0246 7.4734 22.7192 7.16797 22.3305 7.16797H12.6121C12.2234 7.16797 11.918 7.4734 11.918 7.86214V12.0271C11.918 12.4159 12.2234 12.7213 12.6121 12.7213ZM13.3063 8.5563H21.6363V11.333H13.3063V8.5563Z" fill="currentColor"/>
</g>
<defs>
<clipPath id="clip0_6170_2673">
<rect width="100%" height="100%" fill="white"/>
</clipPath>
</defs>
</svg>
