<svg width="35" height="35" viewBox="0 0 35 35" fill="none" xmlns="http://www.w3.org/2000/svg">
<rect x="0.5" y="0.5" width="34" height="34" rx="5.33333" fill="#F1F1F1"/>
<rect x="0.5" y="0.5" width="34" height="34" rx="5.33333" stroke="#D9D9D9"/>
<path d="M25.7285 13.0117H9.26977C8.67452 13.0117 8.10365 13.2482 7.68275 13.6691C7.26185 14.09 7.02539 14.6608 7.02539 15.2561V19.7448C7.02539 20.3401 7.26185 20.911 7.68275 21.3319C8.10365 21.7528 8.67452 21.9892 9.26977 21.9892H25.7285C26.3238 21.9892 26.8946 21.7528 27.3155 21.3319C27.7364 20.911 27.9729 20.3401 27.9729 19.7448V15.2561C27.9729 14.6608 27.7364 14.09 27.3155 13.6691C26.8946 13.2482 26.3238 13.0117 25.7285 13.0117ZM26.4766 19.7448C26.4766 19.9433 26.3978 20.1335 26.2575 20.2738C26.1172 20.4141 25.9269 20.493 25.7285 20.493H9.26977C9.07135 20.493 8.88106 20.4141 8.74076 20.2738C8.60046 20.1335 8.52164 19.9433 8.52164 19.7448V15.2561C8.52164 15.0577 8.60046 14.8674 8.74076 14.7271C8.88106 14.5868 9.07135 14.508 9.26977 14.508H12.2623V17.5005C12.2623 17.6989 12.3411 17.8892 12.4814 18.0295C12.6217 18.1698 12.812 18.2486 13.0104 18.2486C13.2088 18.2486 13.3991 18.1698 13.5394 18.0295C13.6797 17.8892 13.7585 17.6989 13.7585 17.5005V14.508H16.751V16.0042C16.751 16.2026 16.8298 16.3929 16.9701 16.5332C17.1104 16.6735 17.3007 16.7523 17.4991 16.7523C17.6976 16.7523 17.8878 16.6735 18.0281 16.5332C18.1684 16.3929 18.2473 16.2026 18.2473 16.0042V14.508H21.2398V17.5005C21.2398 17.6989 21.3186 17.8892 21.4589 18.0295C21.5992 18.1698 21.7895 18.2486 21.9879 18.2486C22.1863 18.2486 22.3766 18.1698 22.5169 18.0295C22.6572 17.8892 22.736 17.6989 22.736 17.5005V14.508H25.7285C25.9269 14.508 26.1172 14.5868 26.2575 14.7271C26.3978 14.8674 26.4766 15.0577 26.4766 15.2561V19.7448Z" fill="#888888"/>
</svg>
