<svg width="140" height="55" viewBox="0 0 140 55" fill="none" xmlns="http://www.w3.org/2000/svg">
<path d="M8.96064 18.1936C5.4754 15.0784 4.31128 13.5226 2.06748 8.65223C-0.332168 3.43643 -0.662647 0.348329 1.17927 0.0265294C1.94214 -0.126271 2.34545 0.357831 2.89332 2.08413C5.43341 10.991 8.78594 15.451 15.6528 19.3012C22.357 22.9957 29.7892 24.0022 38.9598 22.3065L43.3836 21.5617L43.6304 18.2168C43.8977 14.3028 46.0599 11.5158 48.2686 12.1092C50.2069 12.6154 52.4845 14.7956 52.707 16.2104C53.0167 18.1257 51.5944 20.8115 49.787 21.9268C47.2718 23.4193 47.2079 24.609 49.2179 28.9613C51.4617 33.8317 55.2497 39.0519 59.6584 43.3945C70.1806 53.81 85.228 53.667 102.78 42.9959C105.403 41.4349 107.84 39.7697 108.277 39.3054C108.777 38.8759 110.497 37.2602 112.256 35.7309C118.663 30.1635 124.382 22.6623 129.054 13.8645L131.83 8.64783L129.743 9.34823C127.617 9.96243 125.461 9.07603 125.493 7.61033C125.511 6.52383 133.424 4.70353 134.785 5.46663C136.393 6.36853 139.765 13.2257 139.215 14.4656C138.62 15.8089 136.933 14.7344 135.758 12.3335C135.072 10.9172 134.747 10.6057 134.472 11.2257C133.671 13.034 127.7 22.8453 125.616 25.805C112.666 44.217 92.8413 55.485 75.9976 54.104C72.2013 53.782 71.5987 53.573 64.7937 49.757C57.8031 45.838 57.6404 45.682 53.7472 41.0477C49.2879 35.7736 48.7287 34.9441 45.9555 29.0027L43.9386 24.8401L40.1701 25.5008C33.8814 26.6192 30.4106 26.6083 24.6439 25.5036C20.3595 24.714 11.8569 20.7206 8.96064 18.1936ZM48.9959 17.6129C49.7516 15.9079 49.284 14.8717 47.9989 15.5057C47.0986 15.9685 46.6823 19.3474 47.5231 19.3673C47.9011 19.3857 48.5607 18.5945 48.9959 17.6129Z" fill="white"/>
</svg>
