<svg width="16" height="16" viewBox="0 0 16 16" fill="none" xmlns="http://www.w3.org/2000/svg">
<g clip-path="url(#clip0_1_12017)">
<path d="M13.5938 1.90625H12.4969C10.9125 1.90625 9.42188 1.25625 8.29688 0.140625C8.2125 0.046875 8.09056 0 7.96875 0C7.84694 0 7.725 0.046875 7.64062 0.140625C6.51562 1.25625 5.025 1.90625 3.44056 1.90625H2.34375C2.08119 1.90625 1.875 2.11244 1.875 2.375V8C1.875 12.2094 4.94069 14.1719 6.96556 15.4469C7.22816 15.6156 7.48119 15.7656 7.70619 15.9249C7.79063 15.9718 7.875 16 7.96875 16C8.0625 16 8.14687 15.9718 8.23131 15.9249C8.44691 15.775 8.69069 15.625 8.95312 15.4562C10.9874 14.1812 14.0625 12.2188 14.0625 8V2.375C14.0625 2.11244 13.8563 1.90625 13.5938 1.90625Z" fill="#1B2532"/>
<path d="M14.0625 2.375V8C14.0625 12.2188 10.9874 14.1812 8.95312 15.4562C8.69069 15.625 8.44687 15.775 8.23131 15.9249C8.14687 15.9718 8.0625 16 7.96875 16V0C8.09056 0 8.2125 0.046875 8.29688 0.140625C9.42188 1.25625 10.9125 1.90625 12.4969 1.90625H13.5938C13.8563 1.90625 14.0625 2.11244 14.0625 2.375Z" fill="#0D1520"/>
<path d="M7.96875 3.78125C5.64381 3.78125 3.75 5.67494 3.75 8C3.75 10.3249 5.64381 12.2188 7.96875 12.2188C10.2937 12.2188 12.1875 10.3249 12.1875 8C12.1875 5.67494 10.2937 3.78125 7.96875 3.78125Z" fill="#EFEFEF"/>
<path d="M12.1875 8C12.1875 10.3249 10.2937 12.2188 7.96875 12.2188V3.78125C10.2937 3.78125 12.1875 5.67494 12.1875 8Z" fill="white"/>
<path d="M10.1719 7.39062L7.82812 9.73438C7.74375 9.82812 7.62181 9.875 7.5 9.875C7.37819 9.875 7.25625 9.82812 7.17188 9.73438L5.76562 8.32812C5.57812 8.15 5.57812 7.85 5.76562 7.67188C5.94375 7.48438 6.24375 7.48438 6.42188 7.67188L7.5 8.74063L7.96875 8.27188L9.51575 6.73438C9.69387 6.54688 9.99378 6.54688 10.1719 6.73438C10.3594 6.9125 10.3594 7.2125 10.1719 7.39062Z" fill="#3B3B3B"/>
<path d="M10.1719 7.39062L7.96875 9.59375V8.27188L9.51562 6.73438C9.69375 6.54688 9.99375 6.54688 10.1719 6.73438C10.3594 6.9125 10.3594 7.2125 10.1719 7.39062Z" fill="#3B3B3B"/>
</g>
<defs>
<clipPath id="clip0_1_12017">
<rect width="16" height="16" fill="white"/>
</clipPath>
</defs>
</svg>
