<svg width="26" height="26" viewBox="0 0 26 26" fill="none" xmlns="http://www.w3.org/2000/svg">
<g clip-path="url(#clip0_1_12071)">
<path d="M22.5328 8.2332C22.2402 8.23425 21.949 8.27255 21.6661 8.34717V6.9332C21.6648 5.89925 21.2535 4.908 20.5224 4.17688C19.7913 3.44576 18.8001 3.03446 17.7661 3.0332H8.23276C7.1988 3.03446 6.20756 3.44576 5.47644 4.17688C4.74532 4.908 4.33402 5.89925 4.33276 6.9332V8.34717C3.48274 8.13243 2.58293 8.24772 1.81451 8.66985C1.0461 9.09197 0.466167 9.78956 0.191494 10.6222C-0.0831781 11.4547 -0.0321865 12.3605 0.334201 13.157C0.700588 13.9535 1.35516 14.5816 2.16609 14.9148V19.0665C2.16678 19.641 2.39528 20.1917 2.80146 20.5978C3.20763 21.004 3.75834 21.2325 4.33276 21.2332V21.6665C4.33276 22.0113 4.46972 22.342 4.71352 22.5858C4.95732 22.8296 5.28798 22.9665 5.63276 22.9665H8.23276C8.57754 22.9665 8.9082 22.8296 9.152 22.5858C9.3958 22.342 9.53276 22.0113 9.53276 21.6665V21.2332H16.4661V21.6665C16.4661 22.0113 16.6031 22.342 16.8469 22.5858C17.0907 22.8296 17.4213 22.9665 17.7661 22.9665H20.3661C20.7109 22.9665 21.0415 22.8296 21.2853 22.5858C21.5291 22.342 21.6661 22.0113 21.6661 21.6665V21.2332C22.2405 21.2325 22.7912 21.004 23.1974 20.5978C23.6036 20.1917 23.8321 19.641 23.8328 19.0665V14.9148C24.5793 14.6136 25.1978 14.0619 25.5821 13.3545C25.9663 12.6471 26.0924 11.828 25.9386 11.0378C25.7849 10.2476 25.3609 9.53549 24.7394 9.02375C24.118 8.51201 23.3378 8.2325 22.5328 8.2332ZM5.19943 6.9332C5.20034 6.12899 5.52022 5.35799 6.08888 4.78933C6.65755 4.22066 7.42855 3.90079 8.23276 3.89987H17.7661C18.5703 3.90079 19.3413 4.22066 19.91 4.78933C20.4786 5.35799 20.7985 6.12899 20.7994 6.9332V8.70207C20.2731 9.00596 19.8359 9.44289 19.5316 9.96904C19.2274 10.4952 19.0669 11.0921 19.0661 11.6999C19.0675 11.8448 19.0779 11.9895 19.0973 12.1332H14.2994C14.0525 12.134 13.8086 12.1879 13.5843 12.2912C13.36 12.3945 13.1605 12.5449 12.9994 12.7321C12.8383 12.5449 12.6389 12.3945 12.4146 12.2912C12.1903 12.1879 11.9464 12.134 11.6994 12.1332H6.90156C6.92091 11.9895 6.93133 11.8448 6.93276 11.6999C6.93198 11.0921 6.77144 10.4952 6.46721 9.96904C6.16299 9.44289 5.72578 9.00596 5.19943 8.70207V6.9332ZM13.4328 13.8665C13.4328 13.6367 13.5241 13.4162 13.6866 13.2537C13.8491 13.0912 14.0696 12.9999 14.2994 12.9999H20.3661C20.5959 12.9999 20.8164 13.0912 20.9789 13.2537C21.1415 13.4162 21.2328 13.6367 21.2328 13.8665V14.7332C21.2328 14.9631 21.1415 15.1835 20.9789 15.346C20.8164 15.5086 20.5959 15.5999 20.3661 15.5999H14.2994C14.0696 15.5999 13.8491 15.5086 13.6866 15.346C13.5241 15.1835 13.4328 14.9631 13.4328 14.7332V13.8665ZM12.5661 14.7332C12.5661 14.9631 12.4748 15.1835 12.3123 15.346C12.1497 15.5086 11.9293 15.5999 11.6994 15.5999H5.63276C5.40291 15.5999 5.18247 15.5086 5.01993 15.346C4.8574 15.1835 4.76609 14.9631 4.76609 14.7332V13.8665C4.76609 13.6367 4.8574 13.4162 5.01993 13.2537C5.18247 13.0912 5.40291 12.9999 5.63276 12.9999H11.6994C11.9293 12.9999 12.1497 13.0912 12.3123 13.2537C12.4748 13.4162 12.5661 13.6367 12.5661 13.8665V14.7332ZM8.66609 21.6665C8.66609 21.7815 8.62044 21.8917 8.53917 21.973C8.45791 22.0542 8.34769 22.0999 8.23276 22.0999H5.63276C5.51783 22.0999 5.40761 22.0542 5.32635 21.973C5.24508 21.8917 5.19943 21.7815 5.19943 21.6665V21.2332H8.66609V21.6665ZM20.7994 21.6665C20.7994 21.7815 20.7538 21.8917 20.6725 21.973C20.5912 22.0542 20.481 22.0999 20.3661 22.0999H17.7661C17.6512 22.0999 17.5409 22.0542 17.4597 21.973C17.3784 21.8917 17.3328 21.7815 17.3328 21.6665V21.2332H20.7994V21.6665ZM23.2759 14.192C23.1864 14.2186 23.1079 14.2734 23.052 14.3483C22.9962 14.4232 22.966 14.5141 22.9661 14.6075V19.0665C22.9661 19.4113 22.8291 19.742 22.5853 19.9858C22.3415 20.2296 22.0109 20.3665 21.6661 20.3665H4.33276C3.98798 20.3665 3.65732 20.2296 3.41352 19.9858C3.16972 19.742 3.03276 19.4113 3.03276 19.0665V14.6075C3.0328 14.5141 3.00266 14.4232 2.94683 14.3483C2.891 14.2734 2.81246 14.2186 2.72293 14.192C2.26089 14.0542 1.84627 13.7906 1.52541 13.4307C1.20454 13.0708 0.990074 12.6288 0.905962 12.154C0.82185 11.6793 0.87141 11.1905 1.0491 10.7422C1.2268 10.294 1.52563 9.90404 1.9122 9.61588C2.29877 9.32772 2.75785 9.15273 3.23815 9.11046C3.71845 9.06818 4.20104 9.1603 4.632 9.37651C5.06296 9.59272 5.42531 9.92451 5.67856 10.3348C5.93181 10.7451 6.06599 11.2177 6.06609 11.6999C6.06497 11.8451 6.05193 11.9901 6.02709 12.1332H5.63276C5.17305 12.1332 4.73217 12.3158 4.40711 12.6409C4.08205 12.9659 3.89943 13.4068 3.89943 13.8665V14.7332C3.89943 15.1929 4.08205 15.6338 4.40711 15.9589C4.73217 16.2839 5.17305 16.4665 5.63276 16.4665H11.6994C11.9464 16.4657 12.1903 16.4119 12.4146 16.3085C12.6389 16.2052 12.8383 16.0548 12.9994 15.8677C13.1605 16.0548 13.36 16.2052 13.5843 16.3085C13.8086 16.4119 14.0525 16.4657 14.2994 16.4665H20.3661C20.8258 16.4665 21.2667 16.2839 21.5917 15.9589C21.9168 15.6338 22.0994 15.1929 22.0994 14.7332V13.8665C22.0994 13.4068 21.9168 12.9659 21.5917 12.6409C21.2667 12.3158 20.8258 12.1332 20.3661 12.1332H19.9718C19.9469 11.9901 19.9339 11.8451 19.9328 11.6999C19.9329 11.2177 20.067 10.7451 20.3203 10.3348C20.5735 9.92451 20.9359 9.59272 21.3669 9.37651C21.7978 9.1603 22.2804 9.06818 22.7607 9.11046C23.241 9.15273 23.7001 9.32772 24.0867 9.61588C24.4732 9.90404 24.7721 10.294 24.9498 10.7422C25.1274 11.1905 25.177 11.6793 25.0929 12.154C25.0088 12.6288 24.7943 13.0708 24.4734 13.4307C24.1526 13.7906 23.738 14.0542 23.2759 14.192Z" fill="black"/>
<path d="M9.10008 6.93281C9.21501 6.93281 9.32523 6.88716 9.40649 6.80589C9.48776 6.72463 9.53341 6.61441 9.53341 6.49948V6.06615C9.53341 5.95122 9.48776 5.841 9.40649 5.75973C9.32523 5.67847 9.21501 5.63281 9.10008 5.63281C8.98515 5.63281 8.87493 5.67847 8.79367 5.75973C8.7124 5.841 8.66675 5.95122 8.66675 6.06615V6.49948C8.66675 6.61441 8.7124 6.72463 8.79367 6.80589C8.87493 6.88716 8.98515 6.93281 9.10008 6.93281ZM9.10008 9.96615C9.21501 9.96615 9.32523 9.92049 9.40649 9.83923C9.48776 9.75796 9.53341 9.64774 9.53341 9.53281V8.23281C9.53341 8.11789 9.48776 8.00766 9.40649 7.9264C9.32523 7.84513 9.21501 7.79948 9.10008 7.79948C8.98515 7.79948 8.87493 7.84513 8.79367 7.9264C8.7124 8.00766 8.66675 8.11789 8.66675 8.23281V9.53281C8.66675 9.64774 8.7124 9.75796 8.79367 9.83923C8.87493 9.92049 8.98515 9.96615 9.10008 9.96615ZM13.0001 6.93281C13.115 6.93281 13.2252 6.88716 13.3065 6.80589C13.3878 6.72463 13.4334 6.61441 13.4334 6.49948V6.06615C13.4334 5.95122 13.3878 5.841 13.3065 5.75973C13.2252 5.67847 13.115 5.63281 13.0001 5.63281C12.8852 5.63281 12.7749 5.67847 12.6937 5.75973C12.6124 5.841 12.5667 5.95122 12.5667 6.06615V6.49948C12.5667 6.61441 12.6124 6.72463 12.6937 6.80589C12.7749 6.88716 12.8852 6.93281 13.0001 6.93281ZM13.0001 9.96615C13.115 9.96615 13.2252 9.92049 13.3065 9.83923C13.3878 9.75796 13.4334 9.64774 13.4334 9.53281V8.23281C13.4334 8.11789 13.3878 8.00766 13.3065 7.9264C13.2252 7.84513 13.115 7.79948 13.0001 7.79948C12.8852 7.79948 12.7749 7.84513 12.6937 7.9264C12.6124 8.00766 12.5667 8.11789 12.5667 8.23281V9.53281C12.5667 9.64774 12.6124 9.75796 12.6937 9.83923C12.7749 9.92049 12.8852 9.96615 13.0001 9.96615ZM16.9001 6.93281C17.015 6.93281 17.1252 6.88716 17.2065 6.80589C17.2878 6.72463 17.3334 6.61441 17.3334 6.49948V6.06615C17.3334 5.95122 17.2878 5.841 17.2065 5.75973C17.1252 5.67847 17.015 5.63281 16.9001 5.63281C16.7852 5.63281 16.6749 5.67847 16.5937 5.75973C16.5124 5.841 16.4667 5.95122 16.4667 6.06615V6.49948C16.4667 6.61441 16.5124 6.72463 16.5937 6.80589C16.6749 6.88716 16.7852 6.93281 16.9001 6.93281ZM16.9001 9.96615C17.015 9.96615 17.1252 9.92049 17.2065 9.83923C17.2878 9.75796 17.3334 9.64774 17.3334 9.53281V8.23281C17.3334 8.11789 17.2878 8.00766 17.2065 7.9264C17.1252 7.84513 17.015 7.79948 16.9001 7.79948C16.7852 7.79948 16.6749 7.84513 16.5937 7.9264C16.5124 8.00766 16.4667 8.11789 16.4667 8.23281V9.53281C16.4667 9.64774 16.5124 9.75796 16.5937 9.83923C16.6749 9.92049 16.7852 9.96615 16.9001 9.96615Z" fill="black"/>
</g>
<defs>
<clipPath id="clip0_1_12071">
<rect width="26" height="26" fill="white"/>
</clipPath>
</defs>
</svg>
