<svg width="34" height="34" viewBox="0 0 34 34" fill="none" xmlns="http://www.w3.org/2000/svg">
<rect x="0.5" y="0.5" width="33" height="33" rx="5.16667" fill="#F1F1F1"/>
<rect x="0.5" y="0.5" width="33" height="33" rx="5.16667" stroke="#D9D9D9"/>
<g clip-path="url(#clip0_14_85872)">
<path d="M24.8799 15.9504V10.2783C24.8799 9.12488 23.9416 8.18652 22.7882 8.18652H11.2113C10.0579 8.18652 9.11967 9.12488 9.11967 10.2783V15.9504C7.79064 16.2701 6.7998 17.4681 6.7998 18.8939V23.1246C6.7998 23.4602 7.0719 23.7323 7.40754 23.7323H9.11963V25.2022C9.11963 25.5378 9.39172 25.8099 9.72736 25.8099C10.063 25.8099 10.3351 25.5378 10.3351 25.2022V23.7323H23.6644V25.2022C23.6644 25.5378 23.9365 25.8099 24.2722 25.8099C24.6078 25.8099 24.8799 25.5378 24.8799 25.2022V23.7323H26.592C26.9276 23.7323 27.1997 23.4602 27.1997 23.1246V18.8939C27.1998 17.4681 26.209 16.2701 24.8799 15.9504ZM10.3351 10.2783C10.3351 9.79514 10.7282 9.40204 11.2113 9.40204H22.7882C23.2714 9.40204 23.6645 9.79514 23.6645 10.2783V15.866H21.6561V14.9072C21.6561 13.3187 20.3637 12.0263 18.7752 12.0263H15.2245C13.6359 12.0263 12.3435 13.3187 12.3435 14.9072V15.866H10.3351V10.2783ZM20.4407 14.9072V15.866H13.5589V14.9072C13.5589 13.9889 14.306 13.2418 15.2244 13.2418H18.7752C19.6935 13.2417 20.4407 13.9889 20.4407 14.9072ZM8.01528 22.5168V18.8939C8.01528 17.8945 8.82829 17.0815 9.82761 17.0815H24.1719C25.1712 17.0815 25.9843 17.8945 25.9843 18.8939V22.5168H8.01528Z" fill="#888888"/>
</g>
<defs>
<clipPath id="clip0_14_85872">
<rect width="20.4" height="20.4" fill="white" transform="translate(6.7998 6.7998)"/>
</clipPath>
</defs>
</svg>
