<svg width="34" height="34" viewBox="0 0 34 34" fill="none" xmlns="http://www.w3.org/2000/svg">
<rect x="0.5" y="0.5" width="33" height="33" rx="5.16667" fill="#F1F1F1"/>
<rect x="0.5" y="0.5" width="33" height="33" rx="5.16667" stroke="#D9D9D9"/>
<g clip-path="url(#clip0_14_85878)">
<path d="M26.4355 18.2566H9.23237V10.0796C9.23237 9.0392 10.079 8.19257 11.1194 8.19257C11.9761 8.19257 12.6931 8.76999 12.9227 9.55373C11.7081 9.872 10.8049 10.969 10.8049 12.2823C10.8049 12.9761 11.3691 13.5403 12.0629 13.5403H15.2079C15.9017 13.5403 16.4659 12.9761 16.4659 12.2823C16.4651 11.6309 16.2401 10.9997 15.8286 10.4947C15.4171 9.98979 14.8443 9.64194 14.2065 9.5097C13.9373 8.0479 12.6585 6.93457 11.1194 6.93457C9.38522 6.93457 7.97437 8.34542 7.97437 10.0796V18.2566H7.56552C7.3987 18.2566 7.23871 18.3228 7.12075 18.4408C7.00279 18.5588 6.93652 18.7187 6.93652 18.8856C6.93652 19.0524 7.00279 19.2124 7.12075 19.3303C7.23871 19.4483 7.3987 19.5146 7.56552 19.5146H7.97437V20.7726C7.97437 23.1609 9.75885 25.1347 12.0635 25.4435V26.4342C12.0635 26.601 12.1298 26.761 12.2477 26.879C12.3657 26.9969 12.5257 27.0632 12.6925 27.0632C12.8593 27.0632 13.0193 26.9969 13.1373 26.879C13.2552 26.761 13.3215 26.601 13.3215 26.4342V25.4907H20.6802V26.4336C20.6802 26.6004 20.7464 26.7604 20.8644 26.8783C20.9824 26.9963 21.1424 27.0626 21.3092 27.0626C21.476 27.0626 21.636 26.9963 21.7539 26.8783C21.8719 26.7604 21.9382 26.6004 21.9382 26.4336V25.4429C24.2428 25.1347 26.0273 23.1596 26.0273 20.7719V19.5139H26.4355C26.6023 19.5139 26.7623 19.4477 26.8803 19.3297C26.9983 19.2118 27.0645 19.0518 27.0645 18.8849C27.0645 18.7181 26.9983 18.5581 26.8803 18.4402C26.7623 18.3222 26.6023 18.2566 26.4355 18.2566ZM15.2085 12.2817H12.0629C12.0629 11.4149 12.768 10.7092 13.6354 10.7092C14.5028 10.7092 15.2079 11.4149 15.2085 12.2817ZM24.7693 20.7732C24.7693 22.6803 23.2169 24.2327 21.3098 24.2327H12.6919C11.7747 24.2317 10.8953 23.8669 10.2467 23.2183C9.59818 22.5698 9.23337 21.6904 9.23237 20.7732V19.5152H24.7687L24.7693 20.7732Z" fill="#888888"/>
<path d="M14.7401 14.4997C14.6599 14.5197 14.5845 14.5554 14.5181 14.6047C14.4517 14.6539 14.3957 14.7158 14.3532 14.7867C14.3107 14.8576 14.2827 14.9362 14.2706 15.018C14.2585 15.0998 14.2627 15.1831 14.2829 15.2633L14.5974 16.52C14.6388 16.6808 14.7422 16.8186 14.885 16.9035C15.0277 16.9883 15.1982 17.0133 15.3592 16.973C15.5203 16.9326 15.6589 16.8302 15.7448 16.6881C15.8306 16.546 15.8568 16.3757 15.8176 16.2143L15.5031 14.9576C15.4626 14.7958 15.3594 14.6567 15.2163 14.5709C15.0732 14.4852 14.902 14.4598 14.7401 14.5003V14.4997ZM11.7669 14.9576L11.4524 16.2143C11.4132 16.3757 11.4393 16.546 11.5252 16.6881C11.6111 16.8302 11.7497 16.9326 11.9107 16.973C12.0718 17.0133 12.2423 16.9883 12.385 16.9035C12.5277 16.8186 12.6311 16.6808 12.6726 16.52L12.9871 15.2633C13.0263 15.1019 13.0001 14.9316 12.9143 14.7895C12.8284 14.6474 12.6898 14.545 12.5287 14.5046C12.3677 14.4643 12.1972 14.4893 12.0545 14.5741C11.9117 14.659 11.8083 14.7968 11.7669 14.9576Z" fill="#888888"/>
</g>
<defs>
<clipPath id="clip0_14_85878">
<rect width="20.4" height="20.4" fill="white" transform="translate(6.7998 6.7998)"/>
</clipPath>
</defs>
</svg>
