<svg width="46" height="46" viewBox="0 0 46 46" fill="none" xmlns="http://www.w3.org/2000/svg">
<rect x="0.5" y="0.5" width="45" height="45" rx="22.5" stroke="white"/>
<g clip-path="url(#clip0_764_1222)">
<path fill-rule="evenodd" clip-rule="evenodd" d="M23.0164 12C19.2068 12 16.1094 15.125 16.1094 18.9796C16.1094 20.2853 16.6844 21.9051 17.5215 23.5208C19.3644 27.0787 22.4341 30.6622 22.4341 30.6622C22.5062 30.7461 22.5955 30.8134 22.696 30.8596C22.7965 30.9057 22.9058 30.9296 23.0164 30.9296C23.1269 30.9296 23.2362 30.9057 23.3367 30.8596C23.4372 30.8134 23.5265 30.7461 23.5986 30.6622C23.5986 30.6622 26.6684 27.0787 28.5112 23.5208C29.3483 21.9051 29.9233 20.2853 29.9233 18.9796C29.9233 15.125 26.8259 12 23.0164 12ZM23.0164 16.093C22.2832 16.1128 21.5867 16.4179 21.0751 16.9435C20.5635 17.4691 20.2773 18.1735 20.2773 18.907C20.2773 19.6404 20.5635 20.3449 21.0751 20.8705C21.5867 21.396 22.2832 21.7012 23.0164 21.7209C23.7495 21.7012 24.446 21.396 24.9576 20.8705C25.4692 20.3449 25.7554 19.6404 25.7554 18.907C25.7554 18.1735 25.4692 17.4691 24.9576 16.9435C24.446 16.4179 23.7495 16.1128 23.0164 16.093Z" fill="white"/>
<path fill-rule="evenodd" clip-rule="evenodd" d="M27.9113 28.5029C28.7432 28.7526 29.4287 29.0616 29.9025 29.4239C30.2095 29.6572 30.4346 29.8853 30.4346 30.1637C30.4346 30.3274 30.3415 30.4758 30.2105 30.6241C29.9936 30.8687 29.6713 31.0887 29.2722 31.2933C27.8621 32.0147 25.5823 32.466 23.016 32.466C20.4497 32.466 18.1699 32.0147 16.7598 31.2933C16.3607 31.0887 16.0384 30.8687 15.8215 30.6241C15.6905 30.4758 15.5974 30.3274 15.5974 30.1637C15.5974 29.8853 15.8225 29.6572 16.1295 29.4239C16.6032 29.0616 17.2888 28.7526 18.1207 28.5029C18.3157 28.4443 18.4794 28.3106 18.5759 28.1313C18.6723 27.952 18.6935 27.7417 18.6349 27.5467C18.5763 27.3517 18.4426 27.188 18.2633 27.0916C18.084 26.9951 17.8737 26.9739 17.6787 27.0325C16.4119 27.4142 15.4275 27.9371 14.8361 28.5152C14.3163 29.0217 14.0625 29.5886 14.0625 30.1637C14.0625 30.882 14.4687 31.5983 15.2945 32.1959C16.7434 33.2437 19.6536 34.0009 23.016 34.0009C26.3784 34.0009 29.2886 33.2437 30.7375 32.1959C31.5633 31.5983 31.9695 30.882 31.9695 30.1637C31.9695 29.5886 31.7157 29.0217 31.1959 28.5152C30.6045 27.9371 29.6201 27.4142 28.3533 27.0325C28.2568 27.0035 28.1554 26.9938 28.0551 27.0039C27.9548 27.014 27.8575 27.0438 27.7687 27.0916C27.6799 27.1393 27.6014 27.2041 27.5376 27.2822C27.4738 27.3603 27.4261 27.4501 27.3971 27.5467C27.368 27.6432 27.3583 27.7446 27.3684 27.8449C27.3786 27.9452 27.4084 28.0425 27.4561 28.1313C27.5039 28.2201 27.5686 28.2986 27.6467 28.3624C27.7248 28.4261 27.8147 28.4739 27.9113 28.5029Z" fill="white"/>
</g>
<defs>
<clipPath id="clip0_764_1222">
<rect width="22" height="22" fill="white" transform="translate(12 12)"/>
</clipPath>
</defs>
</svg>
