<svg width="24" height="24" viewBox="0 0 24 24" fill="none" xmlns="http://www.w3.org/2000/svg">
<g clip-path="url(#clip0_1_12032)">
<path d="M22.4002 6.00023H7.60019C7.17585 6.00023 6.76888 6.1688 6.46882 6.46886C6.16876 6.76892 6.00019 7.17589 6.00019 7.60023V22.4002C6.00019 22.8246 6.16876 23.2315 6.46882 23.5316C6.76888 23.8317 7.17585 24.0002 7.60019 24.0002H22.4002C22.8245 24.0002 23.2315 23.8317 23.5316 23.5316C23.8316 23.2315 24.0002 22.8246 24.0002 22.4002V7.60023C24.0002 7.17589 23.8316 6.76892 23.5316 6.46886C23.2315 6.1688 22.8245 6.00023 22.4002 6.00023ZM23.2002 7.60023V22.4002C23.1992 22.4694 23.1893 22.5381 23.1706 22.6046L15.5658 15.0002L23.1706 7.39583C23.1893 7.4624 23.1992 7.53111 23.2002 7.60023ZM22.4002 6.80023C22.4694 6.80103 22.5382 6.81143 22.6046 6.83023L15.0002 14.4346L7.39579 6.83023C7.46231 6.81126 7.53103 6.80117 7.60019 6.80023H22.4002ZM6.82979 22.6046C6.81114 22.5381 6.80119 22.4694 6.80019 22.4002V7.60023C6.80119 7.53111 6.81114 7.4624 6.82979 7.39583L14.4346 15.0002L6.82979 22.6046ZM7.60019 23.2002C7.53103 23.1993 7.46231 23.1892 7.39579 23.1702L15.0002 15.5658L22.6046 23.1702C22.5381 23.1892 22.4694 23.1993 22.4002 23.2002H7.60019ZM0.400193 6.80023H4.40019C4.50628 6.80023 4.60802 6.75809 4.68304 6.68308C4.75805 6.60806 4.80019 6.50632 4.80019 6.40023C4.80019 6.29415 4.75805 6.1924 4.68304 6.11739C4.60802 6.04238 4.50628 6.00023 4.40019 6.00023H0.400193C0.294107 6.00023 0.192365 6.04238 0.117351 6.11739C0.042336 6.1924 0.000193284 6.29415 0.000193284 6.40023C0.000193284 6.50632 0.042336 6.60806 0.117351 6.68308C0.192365 6.75809 0.294107 6.80023 0.400193 6.80023ZM0.400193 24.0002H4.40019C4.50628 24.0002 4.60802 23.9581 4.68304 23.8831C4.75805 23.8081 4.80019 23.7063 4.80019 23.6002C4.80019 23.4941 4.75805 23.3924 4.68304 23.3174C4.60802 23.2424 4.50628 23.2002 4.40019 23.2002H0.400193C0.294107 23.2002 0.192365 23.2424 0.117351 23.3174C0.042336 23.3924 0.000193284 23.4941 0.000193284 23.6002C0.000193284 23.7063 0.042336 23.8081 0.117351 23.8831C0.192365 23.9581 0.294107 24.0002 0.400193 24.0002ZM4.09259 10.6562C4.16049 10.7378 4.25801 10.7891 4.36371 10.7988C4.4694 10.8084 4.57461 10.7757 4.65619 10.7078C4.73777 10.6399 4.78904 10.5424 4.79872 10.4367C4.8084 10.331 4.77569 10.2258 4.70779 10.1442L2.70779 7.74423C2.66894 7.70119 2.62149 7.66679 2.5685 7.64324C2.51551 7.61969 2.45818 7.60752 2.40019 7.60752C2.34221 7.60752 2.28487 7.61969 2.23189 7.64324C2.1789 7.66679 2.13145 7.70119 2.09259 7.74423L0.0925933 10.1442C0.0246979 10.2258 -0.00800898 10.331 0.0016679 10.4367C0.0113448 10.5424 0.0626127 10.6399 0.144193 10.7078C0.225774 10.7757 0.330985 10.8084 0.43668 10.7988C0.542376 10.7891 0.639898 10.7378 0.707793 10.6562L2.00019 9.10503V20.8954L0.707793 19.3442C0.639898 19.2627 0.542376 19.2114 0.43668 19.2017C0.330985 19.192 0.225774 19.2247 0.144193 19.2926C0.0626127 19.3605 0.0113448 19.4581 0.00166791 19.5637C-0.00800897 19.6694 0.0246979 19.7747 0.0925933 19.8562L2.09259 22.2562C2.13013 22.3014 2.17715 22.3377 2.23031 22.3627C2.28347 22.3876 2.34147 22.4005 2.40019 22.4005C2.45891 22.4005 2.51691 22.3876 2.57008 22.3627C2.62324 22.3377 2.67026 22.3014 2.70779 22.2562L4.70779 19.8562C4.74141 19.8158 4.76674 19.7692 4.78235 19.719C4.79795 19.6688 4.80351 19.6161 4.79872 19.5637C4.79393 19.5114 4.77887 19.4605 4.75442 19.414C4.72997 19.3675 4.69659 19.3263 4.65619 19.2926C4.6158 19.259 4.56918 19.2337 4.51899 19.2181C4.46881 19.2025 4.41604 19.1969 4.36371 19.2017C4.31137 19.2065 4.26049 19.2216 4.21398 19.246C4.16746 19.2705 4.12621 19.3038 4.09259 19.3442L2.80019 20.8954V9.10503L4.09259 10.6562ZM23.6002 0.000231563C23.4941 0.000231563 23.3924 0.0423743 23.3174 0.117389C23.2423 0.192403 23.2002 0.294145 23.2002 0.400232V4.40023C23.2002 4.50632 23.2423 4.60806 23.3174 4.68307C23.3924 4.75809 23.4941 4.80023 23.6002 4.80023C23.7063 4.80023 23.808 4.75809 23.883 4.68307C23.9581 4.60806 24.0002 4.50632 24.0002 4.40023V0.400232C24.0002 0.294145 23.9581 0.192403 23.883 0.117389C23.808 0.0423743 23.7063 0.000231563 23.6002 0.000231563ZM6.40019 0.000231563C6.29411 0.000231563 6.19237 0.0423743 6.11735 0.117389C6.04234 0.192403 6.00019 0.294145 6.00019 0.400232V4.40023C6.00019 4.50632 6.04234 4.60806 6.11735 4.68307C6.19237 4.75809 6.29411 4.80023 6.40019 4.80023C6.50628 4.80023 6.60802 4.75809 6.68304 4.68307C6.75805 4.60806 6.80019 4.50632 6.80019 4.40023V0.400232C6.80019 0.294145 6.75805 0.192403 6.68304 0.117389C6.60802 0.0423743 6.50628 0.000231563 6.40019 0.000231563ZM10.7078 0.144232C10.6742 0.103786 10.6329 0.0703732 10.5863 0.045905C10.5397 0.0214367 10.4888 0.00639398 10.4364 0.00163812C10.384 -0.00311775 10.3312 0.00250665 10.281 0.0181893C10.2308 0.0338719 10.1842 0.0593047 10.1438 0.0930316L7.74379 2.09303C7.69878 2.13057 7.66256 2.17755 7.63771 2.23063C7.61285 2.28372 7.59997 2.34162 7.59997 2.40023C7.59997 2.45885 7.61285 2.51675 7.63771 2.56983C7.66256 2.62292 7.69878 2.66989 7.74379 2.70743L10.1438 4.70743C10.1841 4.7411 10.2307 4.7665 10.2809 4.78217C10.331 4.79784 10.3838 4.80347 10.4361 4.79876C10.4884 4.79404 10.5393 4.77906 10.5859 4.75467C10.6324 4.73029 10.6737 4.69697 10.7074 4.65663C10.7411 4.61629 10.7665 4.56971 10.7821 4.51955C10.7978 4.4694 10.8034 4.41665 10.7987 4.36431C10.794 4.31198 10.779 4.26108 10.7546 4.21454C10.7303 4.16799 10.6969 4.1267 10.6566 4.09303L9.10499 2.80023H20.8954L19.3438 4.09303C19.3035 4.1267 19.2701 4.16799 19.2458 4.21454C19.2214 4.26108 19.2064 4.31198 19.2017 4.36431C19.1921 4.47001 19.225 4.57516 19.293 4.65663C19.361 4.73811 19.4586 4.78923 19.5643 4.79876C19.67 4.80828 19.7751 4.77543 19.8566 4.70743L22.2566 2.70743C22.3016 2.66989 22.3378 2.62292 22.3627 2.56983C22.3875 2.51675 22.4004 2.45885 22.4004 2.40023C22.4004 2.34162 22.3875 2.28372 22.3627 2.23063C22.3378 2.17755 22.3016 2.13057 22.2566 2.09303L19.8566 0.0930316C19.8163 0.0593606 19.7697 0.0339654 19.7195 0.0182957C19.6694 0.0026261 19.6166 -0.00301104 19.5643 0.00170618C19.5119 0.00642339 19.461 0.0214026 19.4145 0.0457885C19.368 0.0701744 19.3267 0.103489 19.293 0.143832C19.2593 0.184174 19.2339 0.230753 19.2183 0.280909C19.2026 0.331066 19.197 0.383817 19.2017 0.436153C19.2064 0.488488 19.2214 0.539381 19.2458 0.585927C19.2701 0.632473 19.3035 0.673761 19.3438 0.707432L20.8954 2.00023H9.10499L10.6566 0.707432C10.738 0.639519 10.7892 0.542042 10.7988 0.436431C10.8084 0.33082 10.7757 0.225718 10.7078 0.144232Z" fill="black"/>
</g>
<defs>
<clipPath id="clip0_1_12032">
<rect width="24" height="24" fill="white"/>
</clipPath>
</defs>
</svg>
