<svg width="22" height="22" viewBox="0 0 22 22" fill="none" xmlns="http://www.w3.org/2000/svg">
<g clip-path="url(#clip0_4873_3332)">
<path d="M16.8438 0H5.15625C2.30853 0 0 2.30853 0 5.15625V16.8438C0 19.6915 2.30853 22 5.15625 22H16.8438C19.6915 22 22 19.6915 22 16.8438V5.15625C22 2.30853 19.6915 0 16.8438 0Z" fill="white"/>
<path d="M16.8438 0H5.15625C2.30853 0 0 2.30853 0 5.15625V16.8438C0 19.6915 2.30853 22 5.15625 22H16.8438C19.6915 22 22 19.6915 22 16.8438V5.15625C22 2.30853 19.6915 0 16.8438 0Z" fill="#0A66C2"/>
<path d="M15.8739 18.7073H18.3893C18.4805 18.7073 18.5679 18.6711 18.6324 18.6067C18.6968 18.5422 18.7331 18.4548 18.7331 18.3636L18.7344 13.0491C18.7344 10.2713 18.1358 8.13622 14.8897 8.13622C13.6557 8.09033 12.492 8.72644 11.8641 9.78863C11.861 9.79379 11.8564 9.7978 11.8508 9.80005C11.8452 9.80231 11.8391 9.80268 11.8333 9.80111C11.8275 9.79954 11.8224 9.79612 11.8187 9.79137C11.815 9.78662 11.813 9.78079 11.813 9.77479V8.73641C11.813 8.64524 11.7768 8.55781 11.7123 8.49334C11.6478 8.42887 11.5604 8.39266 11.4692 8.39266H9.08213C8.99096 8.39266 8.90353 8.42887 8.83907 8.49334C8.7746 8.55781 8.73838 8.64524 8.73838 8.73641V18.3631C8.73838 18.4543 8.7746 18.5417 8.83907 18.6062C8.90353 18.6707 8.99096 18.7069 9.08213 18.7069H11.5974C11.6885 18.7069 11.776 18.6707 11.8404 18.6062C11.9049 18.5417 11.9411 18.4543 11.9411 18.3631V13.6045C11.9411 12.259 12.1963 10.9559 13.8645 10.9559C15.5089 10.9559 15.5302 12.4956 15.5302 13.6917V18.3636C15.5302 18.4547 15.5664 18.5422 15.6309 18.6066C15.6953 18.6711 15.7828 18.7073 15.8739 18.7073ZM3.26562 5.12428C3.26562 6.14384 4.10498 6.98277 5.12462 6.98277C6.14402 6.98268 6.98285 6.14324 6.98285 5.12385C6.98268 4.10446 6.14376 3.26562 5.12428 3.26562C4.10455 3.26562 3.26562 4.10472 3.26562 5.12428ZM3.86366 18.7073H6.38223C6.4734 18.7073 6.56084 18.6711 6.6253 18.6066C6.68977 18.5422 6.72598 18.4547 6.72598 18.3636V8.73641C6.72598 8.64524 6.68977 8.55781 6.6253 8.49334C6.56084 8.42887 6.4734 8.39266 6.38223 8.39266H3.86366C3.7725 8.39266 3.68506 8.42887 3.6206 8.49334C3.55613 8.55781 3.51991 8.64524 3.51991 8.73641V18.3636C3.51991 18.4547 3.55613 18.5422 3.6206 18.6066C3.68506 18.6711 3.7725 18.7073 3.86366 18.7073Z" fill="white"/>
</g>
<defs>
<clipPath id="clip0_4873_3332">
<rect width="22" height="22" fill="white"/>
</clipPath>
</defs>
</svg>
